<?xml version="1.0" encoding="UTF-8" standalone="no"?>
<!DOCTYPE svg PUBLIC "-//W3C//DTD SVG 1.1//EN"
 "http://www.w3.org/Graphics/SVG/1.1/DTD/svg11.dtd">
<!-- Generated by graphviz version 2.50.0 (20211204.2007)
 -->
<!-- Pages: 1 -->
<svg width="8627pt" height="116pt"
 viewBox="0.00 0.00 8626.91 116.00" xmlns="http://www.w3.org/2000/svg" xmlns:xlink="http://www.w3.org/1999/xlink">
<g id="graph0" class="graph" transform="scale(1 1) rotate(0) translate(4 112)">
<polygon fill="white" stroke="transparent" points="-4,4 -4,-112 8622.91,-112 8622.91,4 -4,4"/>
<!-- java.lang.System.initializeSystemClass -->
<g id="node1" class="node">
<title>java.lang.System.initializeSystemClass</title>
<ellipse fill="none" stroke="black" cx="3706.14" cy="-90" rx="162.65" ry="18"/>
<text text-anchor="middle" x="3706.14" y="-85.8" font-family="Times,serif" font-size="14.00">java.lang.System.initializeSystemClass</text>
</g>
<!-- java.util.Properties.&lt;clinit&gt; -->
<g id="node2" class="node">
<title>java.util.Properties.&lt;clinit&gt;</title>
<ellipse fill="none" stroke="black" cx="117.14" cy="-18" rx="117.27" ry="18"/>
<text text-anchor="middle" x="117.14" y="-13.8" font-family="Times,serif" font-size="14.00">java.util.Properties.&lt;clinit&gt;</text>
</g>
<!-- java.lang.System.initializeSystemClass&#45;&gt;java.util.Properties.&lt;clinit&gt; -->
<g id="edge1" class="edge">
<title>java.lang.System.initializeSystemClass&#45;&gt;java.util.Properties.&lt;clinit&gt;</title>
<path fill="none" stroke="black" d="M3543.59,-89.08C2949.57,-88.96 896.9,-84.93 243.14,-36 231.44,-35.12 219.18,-33.88 207.08,-32.46"/>
<polygon fill="black" stroke="black" points="207.32,-28.96 196.97,-31.23 206.47,-35.91 207.32,-28.96"/>
</g>
<!-- java.lang.ThreadGroup.add -->
<g id="node3" class="node">
<title>java.lang.ThreadGroup.add</title>
<ellipse fill="none" stroke="black" cx="369.14" cy="-18" rx="116.9" ry="18"/>
<text text-anchor="middle" x="369.14" y="-13.8" font-family="Times,serif" font-size="14.00">java.lang.ThreadGroup.add</text>
</g>
<!-- java.lang.System.initializeSystemClass&#45;&gt;java.lang.ThreadGroup.add -->
<g id="edge2" class="edge">
<title>java.lang.System.initializeSystemClass&#45;&gt;java.lang.ThreadGroup.add</title>
<path fill="none" stroke="black" d="M3543.86,-88.85C2978.49,-87.92 1097.14,-81.42 495.14,-36 483.44,-35.12 471.18,-33.87 459.08,-32.45"/>
<polygon fill="black" stroke="black" points="459.32,-28.95 448.97,-31.21 458.47,-35.9 459.32,-28.95"/>
</g>
<!-- java.lang.Thread.getThreadGroup -->
<g id="node4" class="node">
<title>java.lang.Thread.getThreadGroup</title>
<ellipse fill="none" stroke="black" cx="646.14" cy="-18" rx="142.3" ry="18"/>
<text text-anchor="middle" x="646.14" y="-13.8" font-family="Times,serif" font-size="14.00">java.lang.Thread.getThreadGroup</text>
</g>
<!-- java.lang.System.initializeSystemClass&#45;&gt;java.lang.Thread.getThreadGroup -->
<g id="edge3" class="edge">
<title>java.lang.System.initializeSystemClass&#45;&gt;java.lang.Thread.getThreadGroup</title>
<path fill="none" stroke="black" d="M3544.26,-88.04C3014.94,-84.58 1338.55,-71.07 798.14,-36 783.6,-35.06 768.32,-33.74 753.28,-32.25"/>
<polygon fill="black" stroke="black" points="753.22,-28.72 742.91,-31.19 752.51,-35.69 753.22,-28.72"/>
</g>
<!-- java.util.Properties.getProperty -->
<g id="node5" class="node">
<title>java.util.Properties.getProperty</title>
<ellipse fill="none" stroke="black" cx="938.14" cy="-18" rx="131.4" ry="18"/>
<text text-anchor="middle" x="938.14" y="-13.8" font-family="Times,serif" font-size="14.00">java.util.Properties.getProperty</text>
</g>
<!-- java.lang.System.initializeSystemClass&#45;&gt;java.util.Properties.getProperty -->
<g id="edge4" class="edge">
<title>java.lang.System.initializeSystemClass&#45;&gt;java.util.Properties.getProperty</title>
<path fill="none" stroke="black" d="M3544.26,-87.91C3046.94,-84.16 1546.47,-70.07 1061.14,-36 1050.79,-35.27 1040.04,-34.33 1029.37,-33.25"/>
<polygon fill="black" stroke="black" points="1029.5,-29.75 1019.19,-32.19 1028.77,-36.71 1029.5,-29.75"/>
</g>
<!-- java.lang.System.initializeSystemClass&#45;&gt;java.util.Properties.getProperty -->
<g id="edge6" class="edge">
<title>java.lang.System.initializeSystemClass&#45;&gt;java.util.Properties.getProperty</title>
<path fill="none" stroke="black" d="M3544.5,-87.86C3050.02,-84.02 1562.06,-69.9 1079.14,-36 1065.78,-35.06 1051.74,-33.76 1037.91,-32.28"/>
<polygon fill="black" stroke="black" points="1038.22,-28.8 1027.89,-31.18 1037.45,-35.75 1038.22,-28.8"/>
</g>
<!-- java.lang.System.initializeSystemClass&#45;&gt;java.util.Properties.getProperty -->
<g id="edge13" class="edge">
<title>java.lang.System.initializeSystemClass&#45;&gt;java.util.Properties.getProperty</title>
<path fill="none" stroke="black" d="M3544.46,-87.79C3052.28,-83.87 1577.5,-69.72 1097.14,-36 1080.69,-34.85 1063.21,-33.13 1046.04,-31.24"/>
<polygon fill="black" stroke="black" points="1046.31,-27.74 1035.98,-30.1 1045.53,-34.7 1046.31,-27.74"/>
</g>
<!-- java.security.Provider.getProperty -->
<g id="node6" class="node">
<title>java.security.Provider.getProperty</title>
<ellipse fill="none" stroke="black" cx="1231.14" cy="-18" rx="143.49" ry="18"/>
<text text-anchor="middle" x="1231.14" y="-13.8" font-family="Times,serif" font-size="14.00">java.security.Provider.getProperty</text>
</g>
<!-- java.lang.System.initializeSystemClass&#45;&gt;java.security.Provider.getProperty -->
<g id="edge5" class="edge">
<title>java.lang.System.initializeSystemClass&#45;&gt;java.security.Provider.getProperty</title>
<path fill="none" stroke="black" d="M3545.04,-87.28C3087.89,-81.97 1789.01,-64.48 1365.14,-36 1353.76,-35.24 1341.93,-34.25 1330.2,-33.14"/>
<polygon fill="black" stroke="black" points="1330.22,-29.62 1319.93,-32.13 1329.54,-36.59 1330.22,-29.62"/>
</g>
<!-- java.lang.System.initializeSystemClass&#45;&gt;java.security.Provider.getProperty -->
<g id="edge7" class="edge">
<title>java.lang.System.initializeSystemClass&#45;&gt;java.security.Provider.getProperty</title>
<path fill="none" stroke="black" d="M3545.37,-87.19C3091.27,-81.78 1804.62,-64.32 1383.14,-36 1368.82,-35.04 1353.78,-33.72 1338.95,-32.25"/>
<polygon fill="black" stroke="black" points="1339.04,-28.74 1328.73,-31.21 1338.33,-35.71 1339.04,-28.74"/>
</g>
<!-- java.lang.System.initializeSystemClass&#45;&gt;java.security.Provider.getProperty -->
<g id="edge12" class="edge">
<title>java.lang.System.initializeSystemClass&#45;&gt;java.security.Provider.getProperty</title>
<path fill="none" stroke="black" d="M3545.47,-87.09C3093.95,-81.57 1820.11,-64.15 1401.14,-36 1383.7,-34.83 1365.18,-33.14 1346.99,-31.27"/>
<polygon fill="black" stroke="black" points="1347.23,-27.77 1336.92,-30.21 1346.5,-34.74 1347.23,-27.77"/>
</g>
<!-- java.io.BufferedInputStream.&lt;init&gt; -->
<g id="node7" class="node">
<title>java.io.BufferedInputStream.&lt;init&gt;</title>
<ellipse fill="none" stroke="black" cx="1540.14" cy="-18" rx="147.9" ry="18"/>
<text text-anchor="middle" x="1540.14" y="-13.8" font-family="Times,serif" font-size="14.00">java.io.BufferedInputStream.&lt;init&gt;</text>
</g>
<!-- java.lang.System.initializeSystemClass&#45;&gt;java.io.BufferedInputStream.&lt;init&gt; -->
<g id="edge8" class="edge">
<title>java.lang.System.initializeSystemClass&#45;&gt;java.io.BufferedInputStream.&lt;init&gt;</title>
<path fill="none" stroke="black" d="M3543.5,-89.2C3201.37,-88.62 2382.28,-82.05 1697.14,-36 1682.33,-35 1666.76,-33.67 1651.42,-32.18"/>
<polygon fill="black" stroke="black" points="1651.67,-28.69 1641.38,-31.19 1650.98,-35.66 1651.67,-28.69"/>
</g>
<!-- java.io.FileOutputStream.&lt;init&gt; -->
<g id="node8" class="node">
<title>java.io.FileOutputStream.&lt;init&gt;</title>
<ellipse fill="none" stroke="black" cx="1841.14" cy="-18" rx="134.69" ry="18"/>
<text text-anchor="middle" x="1841.14" y="-13.8" font-family="Times,serif" font-size="14.00">java.io.FileOutputStream.&lt;init&gt;</text>
</g>
<!-- java.lang.System.initializeSystemClass&#45;&gt;java.io.FileOutputStream.&lt;init&gt; -->
<g id="edge9" class="edge">
<title>java.lang.System.initializeSystemClass&#45;&gt;java.io.FileOutputStream.&lt;init&gt;</title>
<path fill="none" stroke="black" d="M3543.84,-88.71C3237.04,-87.15 2551.29,-78.73 1976.14,-36 1964.27,-35.12 1951.88,-33.98 1939.61,-32.72"/>
<polygon fill="black" stroke="black" points="1939.67,-29.2 1929.36,-31.63 1938.93,-36.16 1939.67,-29.2"/>
</g>
<!-- java.lang.System.initializeSystemClass&#45;&gt;java.io.FileOutputStream.&lt;init&gt; -->
<g id="edge10" class="edge">
<title>java.lang.System.initializeSystemClass&#45;&gt;java.io.FileOutputStream.&lt;init&gt;</title>
<path fill="none" stroke="black" d="M3543.82,-88.66C3239.5,-86.96 2562.77,-78.24 1994.14,-36 1979.21,-34.89 1963.44,-33.38 1947.92,-31.71"/>
<polygon fill="black" stroke="black" points="1948.09,-28.21 1937.77,-30.6 1947.33,-35.17 1948.09,-28.21"/>
</g>
<!-- java.io.FileInputStream.&lt;init&gt; -->
<g id="node9" class="node">
<title>java.io.FileInputStream.&lt;init&gt;</title>
<ellipse fill="none" stroke="black" cx="2122.14" cy="-18" rx="128.31" ry="18"/>
<text text-anchor="middle" x="2122.14" y="-13.8" font-family="Times,serif" font-size="14.00">java.io.FileInputStream.&lt;init&gt;</text>
</g>
<!-- java.lang.System.initializeSystemClass&#45;&gt;java.io.FileInputStream.&lt;init&gt; -->
<g id="edge11" class="edge">
<title>java.lang.System.initializeSystemClass&#45;&gt;java.io.FileInputStream.&lt;init&gt;</title>
<path fill="none" stroke="black" d="M3544.85,-87.61C3277.45,-84.28 2725.59,-73.13 2260.14,-36 2247.38,-34.98 2234,-33.66 2220.79,-32.2"/>
<polygon fill="black" stroke="black" points="2221.06,-28.71 2210.73,-31.06 2220.27,-35.66 2221.06,-28.71"/>
</g>
<!-- java.util.Properties.&lt;init&gt; -->
<g id="node10" class="node">
<title>java.util.Properties.&lt;init&gt;</title>
<ellipse fill="none" stroke="black" cx="2379.14" cy="-18" rx="110.33" ry="18"/>
<text text-anchor="middle" x="2379.14" y="-13.8" font-family="Times,serif" font-size="14.00">java.util.Properties.&lt;init&gt;</text>
</g>
<!-- java.lang.System.initializeSystemClass&#45;&gt;java.util.Properties.&lt;init&gt; -->
<g id="edge14" class="edge">
<title>java.lang.System.initializeSystemClass&#45;&gt;java.util.Properties.&lt;init&gt;</title>
<path fill="none" stroke="black" d="M3545.7,-86.89C3314.14,-82.73 2872.99,-70.61 2499.14,-36 2488.39,-35.01 2477.13,-33.73 2466,-32.32"/>
<polygon fill="black" stroke="black" points="2466.19,-28.81 2455.83,-30.99 2465.29,-35.75 2466.19,-28.81"/>
</g>
<!-- java.lang.Object.&lt;clinit&gt; -->
<g id="node11" class="node">
<title>java.lang.Object.&lt;clinit&gt;</title>
<ellipse fill="none" stroke="black" cx="2615.14" cy="-18" rx="107.44" ry="18"/>
<text text-anchor="middle" x="2615.14" y="-13.8" font-family="Times,serif" font-size="14.00">java.lang.Object.&lt;clinit&gt;</text>
</g>
<!-- java.lang.System.initializeSystemClass&#45;&gt;java.lang.Object.&lt;clinit&gt; -->
<g id="edge15" class="edge">
<title>java.lang.System.initializeSystemClass&#45;&gt;java.lang.Object.&lt;clinit&gt;</title>
<path fill="none" stroke="black" d="M3550.19,-84.84C3357.58,-78.7 3020.08,-64.69 2732.14,-36 2721.84,-34.97 2711.07,-33.69 2700.4,-32.3"/>
<polygon fill="black" stroke="black" points="2700.6,-28.79 2690.23,-30.93 2699.67,-35.73 2700.6,-28.79"/>
</g>
<!-- java.lang.System.&lt;clinit&gt; -->
<g id="node12" class="node">
<title>java.lang.System.&lt;clinit&gt;</title>
<ellipse fill="none" stroke="black" cx="2851.14" cy="-18" rx="110.33" ry="18"/>
<text text-anchor="middle" x="2851.14" y="-13.8" font-family="Times,serif" font-size="14.00">java.lang.System.&lt;clinit&gt;</text>
</g>
<!-- java.lang.System.initializeSystemClass&#45;&gt;java.lang.System.&lt;clinit&gt; -->
<g id="edge16" class="edge">
<title>java.lang.System.initializeSystemClass&#45;&gt;java.lang.System.&lt;clinit&gt;</title>
<path fill="none" stroke="black" d="M3562.02,-81.61C3413.45,-73.29 3175.21,-58.01 2970.14,-36 2959.91,-34.9 2949.22,-33.6 2938.62,-32.21"/>
<polygon fill="black" stroke="black" points="2938.87,-28.71 2928.49,-30.85 2937.94,-35.65 2938.87,-28.71"/>
</g>
<!-- sun.misc.VM.&lt;clinit&gt; -->
<g id="node13" class="node">
<title>sun.misc.VM.&lt;clinit&gt;</title>
<ellipse fill="none" stroke="black" cx="3075.14" cy="-18" rx="96.47" ry="18"/>
<text text-anchor="middle" x="3075.14" y="-13.8" font-family="Times,serif" font-size="14.00">sun.misc.VM.&lt;clinit&gt;</text>
</g>
<!-- java.lang.System.initializeSystemClass&#45;&gt;sun.misc.VM.&lt;clinit&gt; -->
<g id="edge17" class="edge">
<title>java.lang.System.initializeSystemClass&#45;&gt;sun.misc.VM.&lt;clinit&gt;</title>
<path fill="none" stroke="black" d="M3580.75,-78.5C3474.03,-69.05 3316.75,-53.93 3180.14,-36 3171.56,-34.87 3162.6,-33.59 3153.69,-32.25"/>
<polygon fill="black" stroke="black" points="3154.09,-28.77 3143.67,-30.7 3153.02,-35.68 3154.09,-28.77"/>
</g>
<!-- sun.misc.Version.&lt;clinit&gt; -->
<g id="node14" class="node">
<title>sun.misc.Version.&lt;clinit&gt;</title>
<ellipse fill="none" stroke="black" cx="3300.14" cy="-18" rx="111.49" ry="18"/>
<text text-anchor="middle" x="3300.14" y="-13.8" font-family="Times,serif" font-size="14.00">sun.misc.Version.&lt;clinit&gt;</text>
</g>
<!-- java.lang.System.initializeSystemClass&#45;&gt;sun.misc.Version.&lt;clinit&gt; -->
<g id="edge18" class="edge">
<title>java.lang.System.initializeSystemClass&#45;&gt;sun.misc.Version.&lt;clinit&gt;</title>
<path fill="none" stroke="black" d="M3622.01,-74.5C3552.06,-62.43 3453.02,-45.36 3383.33,-33.34"/>
<polygon fill="black" stroke="black" points="3383.71,-29.86 3373.26,-31.61 3382.52,-36.76 3383.71,-29.86"/>
</g>
<!-- java.io.FileInputStream.&lt;clinit&gt; -->
<g id="node15" class="node">
<title>java.io.FileInputStream.&lt;clinit&gt;</title>
<ellipse fill="none" stroke="black" cx="3565.14" cy="-18" rx="135.25" ry="18"/>
<text text-anchor="middle" x="3565.14" y="-13.8" font-family="Times,serif" font-size="14.00">java.io.FileInputStream.&lt;clinit&gt;</text>
</g>
<!-- java.lang.System.initializeSystemClass&#45;&gt;java.io.FileInputStream.&lt;clinit&gt; -->
<g id="edge19" class="edge">
<title>java.lang.System.initializeSystemClass&#45;&gt;java.io.FileInputStream.&lt;clinit&gt;</title>
<path fill="none" stroke="black" d="M3672.36,-72.23C3653,-62.62 3628.52,-50.47 3607.84,-40.2"/>
<polygon fill="black" stroke="black" points="3609.15,-36.94 3598.63,-35.63 3606.03,-43.21 3609.15,-36.94"/>
</g>
<!-- java.io.FileDescriptor.&lt;clinit&gt; -->
<g id="node16" class="node">
<title>java.io.FileDescriptor.&lt;clinit&gt;</title>
<ellipse fill="none" stroke="black" cx="3847.14" cy="-18" rx="128.29" ry="18"/>
<text text-anchor="middle" x="3847.14" y="-13.8" font-family="Times,serif" font-size="14.00">java.io.FileDescriptor.&lt;clinit&gt;</text>
</g>
<!-- java.lang.System.initializeSystemClass&#45;&gt;java.io.FileDescriptor.&lt;clinit&gt; -->
<g id="edge20" class="edge">
<title>java.lang.System.initializeSystemClass&#45;&gt;java.io.FileDescriptor.&lt;clinit&gt;</title>
<path fill="none" stroke="black" d="M3739.91,-72.23C3759.27,-62.62 3783.75,-50.47 3804.43,-40.2"/>
<polygon fill="black" stroke="black" points="3806.24,-43.21 3813.64,-35.63 3803.12,-36.94 3806.24,-43.21"/>
</g>
<!-- java.io.FileOutputStream.&lt;clinit&gt; -->
<g id="node17" class="node">
<title>java.io.FileOutputStream.&lt;clinit&gt;</title>
<ellipse fill="none" stroke="black" cx="4135.14" cy="-18" rx="141.63" ry="18"/>
<text text-anchor="middle" x="4135.14" y="-13.8" font-family="Times,serif" font-size="14.00">java.io.FileOutputStream.&lt;clinit&gt;</text>
</g>
<!-- java.lang.System.initializeSystemClass&#45;&gt;java.io.FileOutputStream.&lt;clinit&gt; -->
<g id="edge21" class="edge">
<title>java.lang.System.initializeSystemClass&#45;&gt;java.io.FileOutputStream.&lt;clinit&gt;</title>
<path fill="none" stroke="black" d="M3793.21,-74.79C3865.37,-63.02 3967.71,-46.32 4041.6,-34.26"/>
<polygon fill="black" stroke="black" points="4042.53,-37.66 4051.83,-32.59 4041.4,-30.75 4042.53,-37.66"/>
</g>
<!-- java.io.BufferedInputStream.&lt;clinit&gt; -->
<g id="node18" class="node">
<title>java.io.BufferedInputStream.&lt;clinit&gt;</title>
<ellipse fill="none" stroke="black" cx="4449.14" cy="-18" rx="154.84" ry="18"/>
<text text-anchor="middle" x="4449.14" y="-13.8" font-family="Times,serif" font-size="14.00">java.io.BufferedInputStream.&lt;clinit&gt;</text>
</g>
<!-- java.lang.System.initializeSystemClass&#45;&gt;java.io.BufferedInputStream.&lt;clinit&gt; -->
<g id="edge22" class="edge">
<title>java.lang.System.initializeSystemClass&#45;&gt;java.io.BufferedInputStream.&lt;clinit&gt;</title>
<path fill="none" stroke="black" d="M3829.22,-78.21C3946.66,-67.81 4128.52,-51.42 4286.14,-36 4300.06,-34.64 4314.64,-33.17 4329.12,-31.69"/>
<polygon fill="black" stroke="black" points="4329.53,-35.17 4339.12,-30.67 4328.81,-28.21 4329.53,-35.17"/>
</g>
<!-- java.lang.Terminator.&lt;clinit&gt; -->
<g id="node19" class="node">
<title>java.lang.Terminator.&lt;clinit&gt;</title>
<ellipse fill="none" stroke="black" cx="4747.14" cy="-18" rx="125.33" ry="18"/>
<text text-anchor="middle" x="4747.14" y="-13.8" font-family="Times,serif" font-size="14.00">java.lang.Terminator.&lt;clinit&gt;</text>
</g>
<!-- java.lang.System.initializeSystemClass&#45;&gt;java.lang.Terminator.&lt;clinit&gt; -->
<g id="edge23" class="edge">
<title>java.lang.System.initializeSystemClass&#45;&gt;java.lang.Terminator.&lt;clinit&gt;</title>
<path fill="none" stroke="black" d="M3857.23,-83.31C4037.45,-75.79 4347.7,-60.56 4613.14,-36 4624.9,-34.91 4637.23,-33.59 4649.44,-32.18"/>
<polygon fill="black" stroke="black" points="4650.13,-35.62 4659.65,-30.97 4649.31,-28.67 4650.13,-35.62"/>
</g>
<!-- java.lang.Thread.&lt;clinit&gt; -->
<g id="node20" class="node">
<title>java.lang.Thread.&lt;clinit&gt;</title>
<ellipse fill="none" stroke="black" cx="4999.14" cy="-18" rx="109.14" ry="18"/>
<text text-anchor="middle" x="4999.14" y="-13.8" font-family="Times,serif" font-size="14.00">java.lang.Thread.&lt;clinit&gt;</text>
</g>
<!-- java.lang.System.initializeSystemClass&#45;&gt;java.lang.Thread.&lt;clinit&gt; -->
<g id="edge24" class="edge">
<title>java.lang.System.initializeSystemClass&#45;&gt;java.lang.Thread.&lt;clinit&gt;</title>
<path fill="none" stroke="black" d="M3866.12,-86.75C4092.56,-82.43 4519.27,-70.15 4881.14,-36 4891.63,-35.01 4902.61,-33.74 4913.48,-32.34"/>
<polygon fill="black" stroke="black" points="4913.96,-35.81 4923.41,-31.03 4913.04,-28.87 4913.96,-35.81"/>
</g>
<!-- java.lang.System.initProperties -->
<g id="node21" class="node">
<title>java.lang.System.initProperties</title>
<ellipse fill="none" stroke="black" cx="5258.14" cy="-18" rx="131.42" ry="18"/>
<text text-anchor="middle" x="5258.14" y="-13.8" font-family="Times,serif" font-size="14.00">java.lang.System.initProperties</text>
</g>
<!-- java.lang.System.initializeSystemClass&#45;&gt;java.lang.System.initProperties -->
<g id="edge25" class="edge">
<title>java.lang.System.initializeSystemClass&#45;&gt;java.lang.System.initProperties</title>
<path fill="none" stroke="black" d="M3866.94,-87.27C4129.13,-83.48 4664.88,-71.7 5117.14,-36 5130.06,-34.98 5143.63,-33.66 5157.03,-32.21"/>
<polygon fill="black" stroke="black" points="5157.68,-35.66 5167.23,-31.08 5156.9,-28.7 5157.68,-35.66"/>
</g>
<!-- sun.misc.VM.saveAndRemoveProperties -->
<g id="node22" class="node">
<title>sun.misc.VM.saveAndRemoveProperties</title>
<ellipse fill="none" stroke="black" cx="5578.14" cy="-18" rx="170.74" ry="18"/>
<text text-anchor="middle" x="5578.14" y="-13.8" font-family="Times,serif" font-size="14.00">sun.misc.VM.saveAndRemoveProperties</text>
</g>
<!-- java.lang.System.initializeSystemClass&#45;&gt;sun.misc.VM.saveAndRemoveProperties -->
<g id="edge26" class="edge">
<title>java.lang.System.initializeSystemClass&#45;&gt;sun.misc.VM.saveAndRemoveProperties</title>
<path fill="none" stroke="black" d="M3866.97,-87.33C4167.86,-83.45 4836.25,-71.3 5398.14,-36 5415.16,-34.93 5433.06,-33.55 5450.71,-32.04"/>
<polygon fill="black" stroke="black" points="5451.4,-35.49 5461.06,-31.13 5450.79,-28.52 5451.4,-35.49"/>
</g>
<!-- sun.misc.Version.init -->
<g id="node23" class="node">
<title>sun.misc.Version.init</title>
<ellipse fill="none" stroke="black" cx="5860.14" cy="-18" rx="93.27" ry="18"/>
<text text-anchor="middle" x="5860.14" y="-13.8" font-family="Times,serif" font-size="14.00">sun.misc.Version.init</text>
</g>
<!-- java.lang.System.initializeSystemClass&#45;&gt;sun.misc.Version.init -->
<g id="edge27" class="edge">
<title>java.lang.System.initializeSystemClass&#45;&gt;sun.misc.Version.init</title>
<path fill="none" stroke="black" d="M3867.44,-87.74C4284.68,-84.01 5392.42,-71.03 5758.14,-36 5767.13,-35.14 5776.52,-33.96 5785.82,-32.62"/>
<polygon fill="black" stroke="black" points="5786.47,-36.06 5795.84,-31.11 5785.43,-29.14 5786.47,-36.06"/>
</g>
<!-- java.lang.System.setIn0 -->
<g id="node24" class="node">
<title>java.lang.System.setIn0</title>
<ellipse fill="none" stroke="black" cx="6074.14" cy="-18" rx="103.05" ry="18"/>
<text text-anchor="middle" x="6074.14" y="-13.8" font-family="Times,serif" font-size="14.00">java.lang.System.setIn0</text>
</g>
<!-- java.lang.System.initializeSystemClass&#45;&gt;java.lang.System.setIn0 -->
<g id="edge28" class="edge">
<title>java.lang.System.initializeSystemClass&#45;&gt;java.lang.System.setIn0</title>
<path fill="none" stroke="black" d="M3867.89,-87.87C4313.92,-84.34 5555.14,-71.52 5962.14,-36 5972.31,-35.11 5982.96,-33.89 5993.48,-32.49"/>
<polygon fill="black" stroke="black" points="5994.07,-35.95 6003.5,-31.11 5993.12,-29.01 5994.07,-35.95"/>
</g>
<!-- java.lang.System.newPrintStream -->
<g id="node25" class="node">
<title>java.lang.System.newPrintStream</title>
<ellipse fill="none" stroke="black" cx="6337.14" cy="-18" rx="141.8" ry="18"/>
<text text-anchor="middle" x="6337.14" y="-13.8" font-family="Times,serif" font-size="14.00">java.lang.System.newPrintStream</text>
</g>
<!-- java.lang.System.initializeSystemClass&#45;&gt;java.lang.System.newPrintStream -->
<g id="edge29" class="edge">
<title>java.lang.System.initializeSystemClass&#45;&gt;java.lang.System.newPrintStream</title>
<path fill="none" stroke="black" d="M3867.3,-87.43C4341.24,-82.56 5725.15,-66.21 6177.14,-36 6192.94,-34.94 6209.64,-33.45 6226.05,-31.78"/>
<polygon fill="black" stroke="black" points="6226.64,-35.23 6236.23,-30.72 6225.92,-28.27 6226.64,-35.23"/>
</g>
<!-- java.lang.System.initializeSystemClass&#45;&gt;java.lang.System.newPrintStream -->
<g id="edge31" class="edge">
<title>java.lang.System.initializeSystemClass&#45;&gt;java.lang.System.newPrintStream</title>
<path fill="none" stroke="black" d="M3867.2,-87.51C4343.59,-82.74 5740.6,-66.38 6195.14,-36 6207.93,-35.14 6221.31,-34 6234.53,-32.71"/>
<polygon fill="black" stroke="black" points="6235,-36.18 6244.6,-31.7 6234.3,-29.22 6235,-36.18"/>
</g>
<!-- java.lang.System.setOut0 -->
<g id="node26" class="node">
<title>java.lang.System.setOut0</title>
<ellipse fill="none" stroke="black" cx="6606.14" cy="-18" rx="109.44" ry="18"/>
<text text-anchor="middle" x="6606.14" y="-13.8" font-family="Times,serif" font-size="14.00">java.lang.System.setOut0</text>
</g>
<!-- java.lang.System.initializeSystemClass&#45;&gt;java.lang.System.setOut0 -->
<g id="edge30" class="edge">
<title>java.lang.System.initializeSystemClass&#45;&gt;java.lang.System.setOut0</title>
<path fill="none" stroke="black" d="M3868.2,-88.56C4382.51,-86.73 5974.15,-77.76 6488.14,-36 6498.88,-35.13 6510.13,-33.91 6521.24,-32.52"/>
<polygon fill="black" stroke="black" points="6521.92,-35.96 6531.39,-31.19 6521.02,-29.01 6521.92,-35.96"/>
</g>
<!-- java.lang.System.setErr0 -->
<g id="node27" class="node">
<title>java.lang.System.setErr0</title>
<ellipse fill="none" stroke="black" cx="6841.14" cy="-18" rx="107.13" ry="18"/>
<text text-anchor="middle" x="6841.14" y="-13.8" font-family="Times,serif" font-size="14.00">java.lang.System.setErr0</text>
</g>
<!-- java.lang.System.initializeSystemClass&#45;&gt;java.lang.System.setErr0 -->
<g id="edge32" class="edge">
<title>java.lang.System.initializeSystemClass&#45;&gt;java.lang.System.setErr0</title>
<path fill="none" stroke="black" d="M3868.47,-88.86C4411.51,-87.98 6161.98,-81.59 6724.14,-36 6734.94,-35.12 6746.27,-33.88 6757.45,-32.47"/>
<polygon fill="black" stroke="black" points="6758.19,-35.9 6767.65,-31.13 6757.28,-28.96 6758.19,-35.9"/>
</g>
<!-- java.lang.System.loadLibrary -->
<g id="node28" class="node">
<title>java.lang.System.loadLibrary</title>
<ellipse fill="none" stroke="black" cx="7091.14" cy="-18" rx="125.02" ry="18"/>
<text text-anchor="middle" x="7091.14" y="-13.8" font-family="Times,serif" font-size="14.00">java.lang.System.loadLibrary</text>
</g>
<!-- java.lang.System.initializeSystemClass&#45;&gt;java.lang.System.loadLibrary -->
<g id="edge33" class="edge">
<title>java.lang.System.initializeSystemClass&#45;&gt;java.lang.System.loadLibrary</title>
<path fill="none" stroke="black" d="M3868.44,-88.72C4438.39,-87.35 6346.75,-79.56 6957.14,-36 6969.59,-35.11 6982.67,-33.86 6995.56,-32.43"/>
<polygon fill="black" stroke="black" points="6996.32,-35.86 7005.85,-31.24 6995.52,-28.91 6996.32,-35.86"/>
</g>
<!-- java.lang.Terminator.setup -->
<g id="node29" class="node">
<title>java.lang.Terminator.setup</title>
<ellipse fill="none" stroke="black" cx="7349.14" cy="-18" rx="114.62" ry="18"/>
<text text-anchor="middle" x="7349.14" y="-13.8" font-family="Times,serif" font-size="14.00">java.lang.Terminator.setup</text>
</g>
<!-- java.lang.System.initializeSystemClass&#45;&gt;java.lang.Terminator.setup -->
<g id="edge34" class="edge">
<title>java.lang.System.initializeSystemClass&#45;&gt;java.lang.Terminator.setup</title>
<path fill="none" stroke="black" d="M3868.72,-89.17C4468.97,-89.39 6559.9,-86.42 7225.14,-36 7236.73,-35.12 7248.9,-33.87 7260.89,-32.43"/>
<polygon fill="black" stroke="black" points="7261.41,-35.89 7270.9,-31.19 7260.55,-28.95 7261.41,-35.89"/>
</g>
<!-- sun.misc.VM.initializeOSEnvironment -->
<g id="node30" class="node">
<title>sun.misc.VM.initializeOSEnvironment</title>
<ellipse fill="none" stroke="black" cx="7644.14" cy="-18" rx="162.09" ry="18"/>
<text text-anchor="middle" x="7644.14" y="-13.8" font-family="Times,serif" font-size="14.00">sun.misc.VM.initializeOSEnvironment</text>
</g>
<!-- java.lang.System.initializeSystemClass&#45;&gt;sun.misc.VM.initializeOSEnvironment -->
<g id="edge35" class="edge">
<title>java.lang.System.initializeSystemClass&#45;&gt;sun.misc.VM.initializeOSEnvironment</title>
<path fill="none" stroke="black" d="M3868.45,-88.56C4494.88,-86.56 6755.74,-76.63 7473.14,-36 7489.69,-35.06 7507.12,-33.73 7524.27,-32.22"/>
<polygon fill="black" stroke="black" points="7524.67,-35.7 7534.32,-31.31 7524.04,-28.73 7524.67,-35.7"/>
</g>
<!-- java.lang.Thread.currentThread -->
<g id="node31" class="node">
<title>java.lang.Thread.currentThread</title>
<ellipse fill="none" stroke="black" cx="7957.14" cy="-18" rx="133.04" ry="18"/>
<text text-anchor="middle" x="7957.14" y="-13.8" font-family="Times,serif" font-size="14.00">java.lang.Thread.currentThread</text>
</g>
<!-- java.lang.System.initializeSystemClass&#45;&gt;java.lang.Thread.currentThread -->
<g id="edge36" class="edge">
<title>java.lang.System.initializeSystemClass&#45;&gt;java.lang.Thread.currentThread</title>
<path fill="none" stroke="black" d="M3868.62,-89.21C4530.75,-89.73 7027.4,-88.09 7815.14,-36 7828.59,-35.11 7842.73,-33.83 7856.66,-32.37"/>
<polygon fill="black" stroke="black" points="7857.18,-35.84 7866.75,-31.28 7856.43,-28.88 7857.18,-35.84"/>
</g>
<!-- java.lang.System.setJavaLangAccess -->
<g id="node32" class="node">
<title>java.lang.System.setJavaLangAccess</title>
<ellipse fill="none" stroke="black" cx="8263.14" cy="-18" rx="154.51" ry="18"/>
<text text-anchor="middle" x="8263.14" y="-13.8" font-family="Times,serif" font-size="14.00">java.lang.System.setJavaLangAccess</text>
</g>
<!-- java.lang.System.initializeSystemClass&#45;&gt;java.lang.System.setJavaLangAccess -->
<g id="edge37" class="edge">
<title>java.lang.System.initializeSystemClass&#45;&gt;java.lang.System.setJavaLangAccess</title>
<path fill="none" stroke="black" d="M3868.61,-89.03C4558.93,-88.84 7252.01,-84.91 8099.14,-36 8115.11,-35.08 8131.93,-33.75 8148.46,-32.23"/>
<polygon fill="black" stroke="black" points="8149.08,-35.69 8158.7,-31.27 8148.42,-28.72 8149.08,-35.69"/>
</g>
<!-- sun.misc.VM.booted -->
<g id="node33" class="node">
<title>sun.misc.VM.booted</title>
<ellipse fill="none" stroke="black" cx="8527.14" cy="-18" rx="91.55" ry="18"/>
<text text-anchor="middle" x="8527.14" y="-13.8" font-family="Times,serif" font-size="14.00">sun.misc.VM.booted</text>
</g>
<!-- java.lang.System.initializeSystemClass&#45;&gt;sun.misc.VM.booted -->
<g id="edge38" class="edge">
<title>java.lang.System.initializeSystemClass&#45;&gt;sun.misc.VM.booted</title>
<path fill="none" stroke="black" d="M3868.37,-88.69C4645.2,-87.03 7966.27,-77.5 8427.14,-36 8436.02,-35.2 8445.31,-34.05 8454.49,-32.72"/>
<polygon fill="black" stroke="black" points="8455.03,-36.18 8464.39,-31.22 8453.97,-29.26 8455.03,-36.18"/>
</g>
</g>
</svg>
