<?xml version="1.0" encoding="UTF-8" standalone="no"?>
<!DOCTYPE svg PUBLIC "-//W3C//DTD SVG 1.1//EN"
 "http://www.w3.org/Graphics/SVG/1.1/DTD/svg11.dtd">
<!-- Generated by graphviz version 2.50.0 (20211204.2007)
 -->
<!-- Pages: 1 -->
<svg width="2814pt" height="116pt"
 viewBox="0.00 0.00 2813.96 116.00" xmlns="http://www.w3.org/2000/svg" xmlns:xlink="http://www.w3.org/1999/xlink">
<g id="graph0" class="graph" transform="scale(1 1) rotate(0) translate(4 112)">
<polygon fill="white" stroke="transparent" points="-4,4 -4,-112 2809.96,-112 2809.96,4 -4,4"/>
<!-- java.lang.ThreadGroup.uncaughtException -->
<g id="node1" class="node">
<title>java.lang.ThreadGroup.uncaughtException</title>
<ellipse fill="none" stroke="black" cx="1213.07" cy="-90" rx="177.62" ry="18"/>
<text text-anchor="middle" x="1213.07" y="-85.8" font-family="Times,serif" font-size="14.00">java.lang.ThreadGroup.uncaughtException</text>
</g>
<!-- java.lang.ThreadGroup.uncaughtException&#45;&gt;java.lang.ThreadGroup.uncaughtException -->
<g id="edge10" class="edge">
<title>java.lang.ThreadGroup.uncaughtException&#45;&gt;java.lang.ThreadGroup.uncaughtException</title>
<path fill="none" stroke="black" d="M1382.38,-95.43C1398.46,-94.33 1408.63,-92.51 1408.63,-90 1408.63,-88.06 1402.55,-86.53 1392.35,-85.43"/>
<polygon fill="black" stroke="black" points="1392.65,-81.94 1382.38,-84.57 1392.04,-88.91 1392.65,-81.94"/>
</g>
<!-- java.lang.ThreadGroup.uncaughtException&#45;&gt;java.lang.ThreadGroup.uncaughtException -->
<g id="edge11" class="edge">
<title>java.lang.ThreadGroup.uncaughtException&#45;&gt;java.lang.ThreadGroup.uncaughtException</title>
<path fill="none" stroke="black" d="M1332.2,-103.35C1383.13,-104.4 1426.63,-99.95 1426.63,-90 1426.63,-80.71 1388.72,-76.22 1342.24,-76.51"/>
<polygon fill="black" stroke="black" points="1342.15,-73.01 1332.2,-76.65 1342.25,-80.01 1342.15,-73.01"/>
</g>
<!-- java.lang.Thread.&lt;clinit&gt; -->
<g id="node2" class="node">
<title>java.lang.Thread.&lt;clinit&gt;</title>
<ellipse fill="none" stroke="black" cx="109.07" cy="-18" rx="109.14" ry="18"/>
<text text-anchor="middle" x="109.07" y="-13.8" font-family="Times,serif" font-size="14.00">java.lang.Thread.&lt;clinit&gt;</text>
</g>
<!-- java.lang.ThreadGroup.uncaughtException&#45;&gt;java.lang.Thread.&lt;clinit&gt; -->
<g id="edge1" class="edge">
<title>java.lang.ThreadGroup.uncaughtException&#45;&gt;java.lang.Thread.&lt;clinit&gt;</title>
<path fill="none" stroke="black" d="M1044.1,-84.44C847.64,-78.08 513.76,-64.04 228.07,-36 217.5,-34.96 206.42,-33.66 195.46,-32.25"/>
<polygon fill="black" stroke="black" points="195.82,-28.77 185.45,-30.93 194.9,-35.71 195.82,-28.77"/>
</g>
<!-- java.lang.Throwable.printStackTrace -->
<g id="node3" class="node">
<title>java.lang.Throwable.printStackTrace</title>
<ellipse fill="none" stroke="black" cx="391.07" cy="-18" rx="154.47" ry="18"/>
<text text-anchor="middle" x="391.07" y="-13.8" font-family="Times,serif" font-size="14.00">java.lang.Throwable.printStackTrace</text>
</g>
<!-- java.lang.ThreadGroup.uncaughtException&#45;&gt;java.lang.Throwable.printStackTrace -->
<g id="edge2" class="edge">
<title>java.lang.ThreadGroup.uncaughtException&#45;&gt;java.lang.Throwable.printStackTrace</title>
<path fill="none" stroke="black" d="M1074.35,-78.75C941.13,-68.7 734.25,-52.5 555.07,-36 540.83,-34.69 525.9,-33.24 511.09,-31.76"/>
<polygon fill="black" stroke="black" points="511.17,-28.25 500.87,-30.73 510.47,-35.22 511.17,-28.25"/>
</g>
<!-- java.io.PrintStream.print -->
<g id="node4" class="node">
<title>java.io.PrintStream.print</title>
<ellipse fill="none" stroke="black" cx="670.07" cy="-18" rx="106.5" ry="18"/>
<text text-anchor="middle" x="670.07" y="-13.8" font-family="Times,serif" font-size="14.00">java.io.PrintStream.print</text>
</g>
<!-- java.lang.ThreadGroup.uncaughtException&#45;&gt;java.io.PrintStream.print -->
<g id="edge3" class="edge">
<title>java.lang.ThreadGroup.uncaughtException&#45;&gt;java.io.PrintStream.print</title>
<path fill="none" stroke="black" d="M1101.68,-75.94C1015.25,-65.62 892.47,-50.59 785.07,-36 775.8,-34.74 766.11,-33.38 756.46,-31.99"/>
<polygon fill="black" stroke="black" points="756.83,-28.51 746.43,-30.55 755.83,-35.44 756.83,-28.51"/>
</g>
<!-- java.lang.StringBuilder.toString -->
<g id="node5" class="node">
<title>java.lang.StringBuilder.toString</title>
<ellipse fill="none" stroke="black" cx="929.07" cy="-18" rx="134.87" ry="18"/>
<text text-anchor="middle" x="929.07" y="-13.8" font-family="Times,serif" font-size="14.00">java.lang.StringBuilder.toString</text>
</g>
<!-- java.lang.ThreadGroup.uncaughtException&#45;&gt;java.lang.StringBuilder.toString -->
<g id="edge4" class="edge">
<title>java.lang.ThreadGroup.uncaughtException&#45;&gt;java.lang.StringBuilder.toString</title>
<path fill="none" stroke="black" d="M1148.98,-73.2C1104.78,-62.31 1046,-47.82 1000.32,-36.56"/>
<polygon fill="black" stroke="black" points="1001.04,-33.13 990.49,-34.14 999.36,-39.93 1001.04,-33.13"/>
</g>
<!-- java.lang.StringBuilder.append -->
<g id="node6" class="node">
<title>java.lang.StringBuilder.append</title>
<ellipse fill="none" stroke="black" cx="1213.07" cy="-18" rx="131.4" ry="18"/>
<text text-anchor="middle" x="1213.07" y="-13.8" font-family="Times,serif" font-size="14.00">java.lang.StringBuilder.append</text>
</g>
<!-- java.lang.ThreadGroup.uncaughtException&#45;&gt;java.lang.StringBuilder.append -->
<g id="edge5" class="edge">
<title>java.lang.ThreadGroup.uncaughtException&#45;&gt;java.lang.StringBuilder.append</title>
<path fill="none" stroke="black" d="M1201.24,-71.7C1199.65,-63.98 1199.2,-54.71 1199.88,-46.11"/>
<polygon fill="black" stroke="black" points="1203.36,-46.49 1201.28,-36.1 1196.43,-45.52 1203.36,-46.49"/>
</g>
<!-- java.lang.ThreadGroup.uncaughtException&#45;&gt;java.lang.StringBuilder.append -->
<g id="edge6" class="edge">
<title>java.lang.ThreadGroup.uncaughtException&#45;&gt;java.lang.StringBuilder.append</title>
<path fill="none" stroke="black" d="M1213.07,-71.7C1213.07,-63.98 1213.07,-54.71 1213.07,-46.11"/>
<polygon fill="black" stroke="black" points="1216.57,-46.1 1213.07,-36.1 1209.57,-46.1 1216.57,-46.1"/>
</g>
<!-- java.lang.ThreadGroup.uncaughtException&#45;&gt;java.lang.StringBuilder.append -->
<g id="edge8" class="edge">
<title>java.lang.ThreadGroup.uncaughtException&#45;&gt;java.lang.StringBuilder.append</title>
<path fill="none" stroke="black" d="M1224.9,-71.7C1226.5,-63.98 1226.95,-54.71 1226.26,-46.11"/>
<polygon fill="black" stroke="black" points="1229.71,-45.52 1224.86,-36.1 1222.78,-46.49 1229.71,-45.52"/>
</g>
<!-- java.lang.Thread.getName -->
<g id="node7" class="node">
<title>java.lang.Thread.getName</title>
<ellipse fill="none" stroke="black" cx="1476.07" cy="-18" rx="113.38" ry="18"/>
<text text-anchor="middle" x="1476.07" y="-13.8" font-family="Times,serif" font-size="14.00">java.lang.Thread.getName</text>
</g>
<!-- java.lang.ThreadGroup.uncaughtException&#45;&gt;java.lang.Thread.getName -->
<g id="edge7" class="edge">
<title>java.lang.ThreadGroup.uncaughtException&#45;&gt;java.lang.Thread.getName</title>
<path fill="none" stroke="black" d="M1273.08,-73.03C1314.2,-62.08 1368.73,-47.57 1410.91,-36.34"/>
<polygon fill="black" stroke="black" points="1412.04,-39.66 1420.81,-33.71 1410.24,-32.9 1412.04,-39.66"/>
</g>
<!-- java.lang.StringBuilder.&lt;init&gt; -->
<g id="node8" class="node">
<title>java.lang.StringBuilder.&lt;init&gt;</title>
<ellipse fill="none" stroke="black" cx="1735.07" cy="-18" rx="127.17" ry="18"/>
<text text-anchor="middle" x="1735.07" y="-13.8" font-family="Times,serif" font-size="14.00">java.lang.StringBuilder.&lt;init&gt;</text>
</g>
<!-- java.lang.ThreadGroup.uncaughtException&#45;&gt;java.lang.StringBuilder.&lt;init&gt; -->
<g id="edge9" class="edge">
<title>java.lang.ThreadGroup.uncaughtException&#45;&gt;java.lang.StringBuilder.&lt;init&gt;</title>
<path fill="none" stroke="black" d="M1315.58,-75.25C1408.45,-62.8 1544.4,-44.57 1636.14,-32.27"/>
<polygon fill="black" stroke="black" points="1636.82,-35.71 1646.27,-30.91 1635.89,-28.77 1636.82,-35.71"/>
</g>
<!-- java.lang.Object.&lt;clinit&gt; -->
<g id="node9" class="node">
<title>java.lang.Object.&lt;clinit&gt;</title>
<ellipse fill="none" stroke="black" cx="1988.07" cy="-18" rx="107.44" ry="18"/>
<text text-anchor="middle" x="1988.07" y="-13.8" font-family="Times,serif" font-size="14.00">java.lang.Object.&lt;clinit&gt;</text>
</g>
<!-- java.lang.ThreadGroup.uncaughtException&#45;&gt;java.lang.Object.&lt;clinit&gt; -->
<g id="edge12" class="edge">
<title>java.lang.ThreadGroup.uncaughtException&#45;&gt;java.lang.Object.&lt;clinit&gt;</title>
<path fill="none" stroke="black" d="M1360.01,-79.86C1493.53,-70.92 1695.83,-55.77 1871.07,-36 1881.12,-34.87 1891.63,-33.54 1902.06,-32.14"/>
<polygon fill="black" stroke="black" points="1902.58,-35.6 1912.01,-30.77 1901.63,-28.66 1902.58,-35.6"/>
</g>
<!-- java.lang.System.&lt;clinit&gt; -->
<g id="node10" class="node">
<title>java.lang.System.&lt;clinit&gt;</title>
<ellipse fill="none" stroke="black" cx="2224.07" cy="-18" rx="110.33" ry="18"/>
<text text-anchor="middle" x="2224.07" y="-13.8" font-family="Times,serif" font-size="14.00">java.lang.System.&lt;clinit&gt;</text>
</g>
<!-- java.lang.ThreadGroup.uncaughtException&#45;&gt;java.lang.System.&lt;clinit&gt; -->
<g id="edge13" class="edge">
<title>java.lang.ThreadGroup.uncaughtException&#45;&gt;java.lang.System.&lt;clinit&gt;</title>
<path fill="none" stroke="black" d="M1377.61,-83.22C1556.66,-76 1851.21,-61.39 2104.07,-36 2114.65,-34.94 2125.73,-33.63 2136.7,-32.22"/>
<polygon fill="black" stroke="black" points="2137.27,-35.68 2146.72,-30.9 2136.35,-28.74 2137.27,-35.68"/>
</g>
<!-- java.lang.Thread.getDefaultUncaughtExceptionHandler -->
<g id="node11" class="node">
<title>java.lang.Thread.getDefaultUncaughtExceptionHandler</title>
<ellipse fill="none" stroke="black" cx="2579.07" cy="-18" rx="226.77" ry="18"/>
<text text-anchor="middle" x="2579.07" y="-13.8" font-family="Times,serif" font-size="14.00">java.lang.Thread.getDefaultUncaughtExceptionHandler</text>
</g>
<!-- java.lang.ThreadGroup.uncaughtException&#45;&gt;java.lang.Thread.getDefaultUncaughtExceptionHandler -->
<g id="edge14" class="edge">
<title>java.lang.ThreadGroup.uncaughtException&#45;&gt;java.lang.Thread.getDefaultUncaughtExceptionHandler</title>
<path fill="none" stroke="black" d="M1375.47,-82.66C1595.04,-73.8 1998.76,-56.47 2343.07,-36 2365.04,-34.69 2388.15,-33.19 2410.96,-31.63"/>
<polygon fill="black" stroke="black" points="2411.33,-35.11 2421.06,-30.93 2410.84,-28.13 2411.33,-35.11"/>
</g>
</g>
</svg>
