<?xml version="1.0" encoding="UTF-8" standalone="no"?>
<!DOCTYPE svg PUBLIC "-//W3C//DTD SVG 1.1//EN"
 "http://www.w3.org/Graphics/SVG/1.1/DTD/svg11.dtd">
<!-- Generated by graphviz version 2.50.0 (20211204.2007)
 -->
<!-- Pages: 1 -->
<svg width="1250pt" height="764pt"
 viewBox="0.00 0.00 1250.36 764.00" xmlns="http://www.w3.org/2000/svg" xmlns:xlink="http://www.w3.org/1999/xlink">
<g id="graph0" class="graph" transform="scale(1 1) rotate(0) translate(4 760)">
<polygon fill="white" stroke="transparent" points="-4,4 -4,-760 1246.36,-760 1246.36,4 -4,4"/>
<!-- r0 := @this: java.lang.ClassLoader -->
<g id="node1" class="node">
<title>r0 := @this: java.lang.ClassLoader</title>
<ellipse fill="none" stroke="black" cx="452.53" cy="-738" rx="145.58" ry="18"/>
<text text-anchor="middle" x="452.53" y="-733.8" font-family="Times,serif" font-size="14.00">r0 := @this: java.lang.ClassLoader</text>
</g>
<!-- r2 := @parameter0: java.lang.String -->
<g id="node2" class="node">
<title>r2 := @parameter0: java.lang.String</title>
<ellipse fill="none" stroke="black" cx="452.53" cy="-666" rx="150.71" ry="18"/>
<text text-anchor="middle" x="452.53" y="-661.8" font-family="Times,serif" font-size="14.00">r2 := @parameter0: java.lang.String</text>
</g>
<!-- r0 := @this: java.lang.ClassLoader&#45;&gt;r2 := @parameter0: java.lang.String -->
<g id="edge1" class="edge">
<title>r0 := @this: java.lang.ClassLoader&#45;&gt;r2 := @parameter0: java.lang.String</title>
<path fill="none" stroke="black" d="M452.53,-719.7C452.53,-711.98 452.53,-702.71 452.53,-694.11"/>
<polygon fill="black" stroke="black" points="456.03,-694.1 452.53,-684.1 449.03,-694.1 456.03,-694.1"/>
</g>
<!-- $r1 = r0.&lt;java.lang.ClassLoader: java.util.concurrent.ConcurrentHashMap parallelLockMap&gt; -->
<g id="node3" class="node">
<title>$r1 = r0.&lt;java.lang.ClassLoader: java.util.concurrent.ConcurrentHashMap parallelLockMap&gt;</title>
<ellipse fill="none" stroke="black" cx="452.53" cy="-594" rx="373.66" ry="18"/>
<text text-anchor="middle" x="452.53" y="-589.8" font-family="Times,serif" font-size="14.00">$r1 = r0.&lt;java.lang.ClassLoader: java.util.concurrent.ConcurrentHashMap parallelLockMap&gt;</text>
</g>
<!-- r2 := @parameter0: java.lang.String&#45;&gt;$r1 = r0.&lt;java.lang.ClassLoader: java.util.concurrent.ConcurrentHashMap parallelLockMap&gt; -->
<g id="edge2" class="edge">
<title>r2 := @parameter0: java.lang.String&#45;&gt;$r1 = r0.&lt;java.lang.ClassLoader: java.util.concurrent.ConcurrentHashMap parallelLockMap&gt;</title>
<path fill="none" stroke="black" d="M452.53,-647.7C452.53,-639.98 452.53,-630.71 452.53,-622.11"/>
<polygon fill="black" stroke="black" points="456.03,-622.1 452.53,-612.1 449.03,-622.1 456.03,-622.1"/>
</g>
<!-- if $r1 != null goto $r3 = virtualinvoke r0.&lt;java.lang.ClassLoader: java.lang.Class loadClass(java.lang.String)&gt;(r2) -->
<g id="node4" class="node">
<title>if $r1 != null goto $r3 = virtualinvoke r0.&lt;java.lang.ClassLoader: java.lang.Class loadClass(java.lang.String)&gt;(r2)</title>
<ellipse fill="none" stroke="black" cx="452.53" cy="-522" rx="452.56" ry="18"/>
<text text-anchor="middle" x="452.53" y="-517.8" font-family="Times,serif" font-size="14.00">if $r1 != null goto $r3 = virtualinvoke r0.&lt;java.lang.ClassLoader: java.lang.Class loadClass(java.lang.String)&gt;(r2)</text>
</g>
<!-- $r1 = r0.&lt;java.lang.ClassLoader: java.util.concurrent.ConcurrentHashMap parallelLockMap&gt;&#45;&gt;if $r1 != null goto $r3 = virtualinvoke r0.&lt;java.lang.ClassLoader: java.lang.Class loadClass(java.lang.String)&gt;(r2) -->
<g id="edge3" class="edge">
<title>$r1 = r0.&lt;java.lang.ClassLoader: java.util.concurrent.ConcurrentHashMap parallelLockMap&gt;&#45;&gt;if $r1 != null goto $r3 = virtualinvoke r0.&lt;java.lang.ClassLoader: java.lang.Class loadClass(java.lang.String)&gt;(r2)</title>
<path fill="none" stroke="black" d="M452.53,-575.7C452.53,-567.98 452.53,-558.71 452.53,-550.11"/>
<polygon fill="black" stroke="black" points="456.03,-550.1 452.53,-540.1 449.03,-550.1 456.03,-550.1"/>
</g>
<!-- r4 = r0 -->
<g id="node5" class="node">
<title>r4 = r0</title>
<ellipse fill="none" stroke="black" cx="452.53" cy="-450" rx="37.3" ry="18"/>
<text text-anchor="middle" x="452.53" y="-445.8" font-family="Times,serif" font-size="14.00">r4 = r0</text>
</g>
<!-- if $r1 != null goto $r3 = virtualinvoke r0.&lt;java.lang.ClassLoader: java.lang.Class loadClass(java.lang.String)&gt;(r2)&#45;&gt;r4 = r0 -->
<g id="edge4" class="edge">
<title>if $r1 != null goto $r3 = virtualinvoke r0.&lt;java.lang.ClassLoader: java.lang.Class loadClass(java.lang.String)&gt;(r2)&#45;&gt;r4 = r0</title>
<path fill="none" stroke="black" d="M452.53,-503.7C452.53,-495.98 452.53,-486.71 452.53,-478.11"/>
<polygon fill="black" stroke="black" points="456.03,-478.1 452.53,-468.1 449.03,-478.1 456.03,-478.1"/>
</g>
<!-- entermonitor r0 -->
<g id="node6" class="node">
<title>entermonitor r0</title>
<ellipse fill="none" stroke="black" cx="452.53" cy="-378" rx="71.25" ry="18"/>
<text text-anchor="middle" x="452.53" y="-373.8" font-family="Times,serif" font-size="14.00">entermonitor r0</text>
</g>
<!-- r4 = r0&#45;&gt;entermonitor r0 -->
<g id="edge5" class="edge">
<title>r4 = r0&#45;&gt;entermonitor r0</title>
<path fill="none" stroke="black" d="M452.53,-431.7C452.53,-423.98 452.53,-414.71 452.53,-406.11"/>
<polygon fill="black" stroke="black" points="456.03,-406.1 452.53,-396.1 449.03,-406.1 456.03,-406.1"/>
</g>
<!-- $r6 = virtualinvoke r0.&lt;java.lang.ClassLoader: java.lang.Class loadClass(java.lang.String)&gt;(r2) -->
<g id="node7" class="node">
<title>$r6 = virtualinvoke r0.&lt;java.lang.ClassLoader: java.lang.Class loadClass(java.lang.String)&gt;(r2)</title>
<ellipse fill="none" stroke="black" cx="452.53" cy="-306" rx="380.67" ry="18"/>
<text text-anchor="middle" x="452.53" y="-301.8" font-family="Times,serif" font-size="14.00">$r6 = virtualinvoke r0.&lt;java.lang.ClassLoader: java.lang.Class loadClass(java.lang.String)&gt;(r2)</text>
</g>
<!-- entermonitor r0&#45;&gt;$r6 = virtualinvoke r0.&lt;java.lang.ClassLoader: java.lang.Class loadClass(java.lang.String)&gt;(r2) -->
<g id="edge6" class="edge">
<title>entermonitor r0&#45;&gt;$r6 = virtualinvoke r0.&lt;java.lang.ClassLoader: java.lang.Class loadClass(java.lang.String)&gt;(r2)</title>
<path fill="none" stroke="black" d="M452.53,-359.7C452.53,-351.98 452.53,-342.71 452.53,-334.11"/>
<polygon fill="black" stroke="black" points="456.03,-334.1 452.53,-324.1 449.03,-334.1 456.03,-334.1"/>
</g>
<!-- exitmonitor r4 -->
<g id="node8" class="node">
<title>exitmonitor r4</title>
<ellipse fill="none" stroke="black" cx="452.53" cy="-234" rx="66.61" ry="18"/>
<text text-anchor="middle" x="452.53" y="-229.8" font-family="Times,serif" font-size="14.00">exitmonitor r4</text>
</g>
<!-- $r6 = virtualinvoke r0.&lt;java.lang.ClassLoader: java.lang.Class loadClass(java.lang.String)&gt;(r2)&#45;&gt;exitmonitor r4 -->
<g id="edge7" class="edge">
<title>$r6 = virtualinvoke r0.&lt;java.lang.ClassLoader: java.lang.Class loadClass(java.lang.String)&gt;(r2)&#45;&gt;exitmonitor r4</title>
<path fill="none" stroke="black" d="M452.53,-287.7C452.53,-279.98 452.53,-270.71 452.53,-262.11"/>
<polygon fill="black" stroke="black" points="456.03,-262.1 452.53,-252.1 449.03,-262.1 456.03,-262.1"/>
</g>
<!-- return $r6 -->
<g id="node9" class="node">
<title>return $r6</title>
<ellipse fill="none" stroke="black" cx="345.53" cy="-162" rx="49.26" ry="18"/>
<text text-anchor="middle" x="345.53" y="-157.8" font-family="Times,serif" font-size="14.00">return $r6</text>
</g>
<!-- exitmonitor r4&#45;&gt;return $r6 -->
<g id="edge8" class="edge">
<title>exitmonitor r4&#45;&gt;return $r6</title>
<path fill="none" stroke="black" d="M428.25,-217.12C413.16,-207.25 393.6,-194.45 377.29,-183.78"/>
<polygon fill="black" stroke="black" points="378.9,-180.65 368.61,-178.1 375.07,-186.5 378.9,-180.65"/>
</g>
<!-- throw r8 -->
<g id="node12" class="node">
<title>throw r8</title>
<ellipse fill="none" stroke="black" cx="692.53" cy="-162" rx="44.05" ry="18"/>
<text text-anchor="middle" x="692.53" y="-157.8" font-family="Times,serif" font-size="14.00">throw r8</text>
</g>
<!-- exitmonitor r4&#45;&gt;throw r8 -->
<g id="edge12" class="edge">
<title>exitmonitor r4&#45;&gt;throw r8</title>
<path fill="none" stroke="black" d="M495.99,-220.32C538.98,-207.79 604.45,-188.69 647.85,-176.03"/>
<polygon fill="black" stroke="black" points="648.95,-179.36 657.57,-173.2 646.99,-172.64 648.95,-179.36"/>
</g>
<!-- $r7 := @caughtexception -->
<g id="node10" class="node">
<title>$r7 := @caughtexception</title>
<ellipse fill="none" stroke="black" cx="315.53" cy="-90" rx="109.08" ry="18"/>
<text text-anchor="middle" x="315.53" y="-85.8" font-family="Times,serif" font-size="14.00">$r7 := @caughtexception</text>
</g>
<!-- return $r6&#45;&gt;$r7 := @caughtexception -->
<g id="edge9" class="edge">
<title>return $r6&#45;&gt;$r7 := @caughtexception</title>
<path fill="none" stroke="black" d="M338.27,-144.05C334.86,-136.09 330.71,-126.41 326.89,-117.51"/>
<polygon fill="black" stroke="black" points="330.09,-116.09 322.93,-108.28 323.66,-118.85 330.09,-116.09"/>
</g>
<!-- r8 = $r7 -->
<g id="node11" class="node">
<title>r8 = $r7</title>
<ellipse fill="none" stroke="black" cx="384.53" cy="-18" rx="42.46" ry="18"/>
<text text-anchor="middle" x="384.53" y="-13.8" font-family="Times,serif" font-size="14.00">r8 = $r7</text>
</g>
<!-- $r7 := @caughtexception&#45;&gt;r8 = $r7 -->
<g id="edge10" class="edge">
<title>$r7 := @caughtexception&#45;&gt;r8 = $r7</title>
<path fill="none" stroke="black" d="M332.23,-72.05C341.13,-63.03 352.21,-51.79 361.87,-41.99"/>
<polygon fill="black" stroke="black" points="364.4,-44.41 368.93,-34.83 359.41,-39.49 364.4,-44.41"/>
</g>
<!-- r8 = $r7&#45;&gt;exitmonitor r4 -->
<g id="edge11" class="edge">
<title>r8 = $r7&#45;&gt;exitmonitor r4</title>
<path fill="none" stroke="black" d="M403.5,-34.13C414.18,-43.77 426.71,-57.2 433.53,-72 453.53,-115.4 455.36,-172.06 454.32,-205.3"/>
<polygon fill="black" stroke="black" points="450.81,-205.48 453.88,-215.62 457.81,-205.77 450.81,-205.48"/>
</g>
<!-- $r3 = virtualinvoke r0.&lt;java.lang.ClassLoader: java.lang.Class loadClass(java.lang.String)&gt;(r2) -->
<g id="node13" class="node">
<title>$r3 = virtualinvoke r0.&lt;java.lang.ClassLoader: java.lang.Class loadClass(java.lang.String)&gt;(r2)</title>
<ellipse fill="none" stroke="black" cx="861.53" cy="-90" rx="380.67" ry="18"/>
<text text-anchor="middle" x="861.53" y="-85.8" font-family="Times,serif" font-size="14.00">$r3 = virtualinvoke r0.&lt;java.lang.ClassLoader: java.lang.Class loadClass(java.lang.String)&gt;(r2)</text>
</g>
<!-- throw r8&#45;&gt;$r3 = virtualinvoke r0.&lt;java.lang.ClassLoader: java.lang.Class loadClass(java.lang.String)&gt;(r2) -->
<g id="edge13" class="edge">
<title>throw r8&#45;&gt;$r3 = virtualinvoke r0.&lt;java.lang.ClassLoader: java.lang.Class loadClass(java.lang.String)&gt;(r2)</title>
<path fill="none" stroke="black" d="M722.36,-148.65C746.87,-138.49 782.16,-123.88 811.06,-111.9"/>
<polygon fill="black" stroke="black" points="812.69,-115.02 820.59,-107.96 810.02,-108.55 812.69,-115.02"/>
</g>
<!-- return $r3 -->
<g id="node14" class="node">
<title>return $r3</title>
<ellipse fill="none" stroke="black" cx="861.53" cy="-18" rx="49.26" ry="18"/>
<text text-anchor="middle" x="861.53" y="-13.8" font-family="Times,serif" font-size="14.00">return $r3</text>
</g>
<!-- $r3 = virtualinvoke r0.&lt;java.lang.ClassLoader: java.lang.Class loadClass(java.lang.String)&gt;(r2)&#45;&gt;return $r3 -->
<g id="edge14" class="edge">
<title>$r3 = virtualinvoke r0.&lt;java.lang.ClassLoader: java.lang.Class loadClass(java.lang.String)&gt;(r2)&#45;&gt;return $r3</title>
<path fill="none" stroke="black" d="M861.53,-71.7C861.53,-63.98 861.53,-54.71 861.53,-46.11"/>
<polygon fill="black" stroke="black" points="865.03,-46.1 861.53,-36.1 858.03,-46.1 865.03,-46.1"/>
</g>
</g>
</svg>
