<?xml version="1.0" encoding="UTF-8" standalone="no"?>
<!DOCTYPE svg PUBLIC "-//W3C//DTD SVG 1.1//EN"
 "http://www.w3.org/Graphics/SVG/1.1/DTD/svg11.dtd">
<!-- Generated by graphviz version 2.50.0 (20211204.2007)
 -->
<!-- Pages: 1 -->
<svg width="1020pt" height="260pt"
 viewBox="0.00 0.00 1019.67 260.00" xmlns="http://www.w3.org/2000/svg" xmlns:xlink="http://www.w3.org/1999/xlink">
<g id="graph0" class="graph" transform="scale(1 1) rotate(0) translate(4 256)">
<polygon fill="white" stroke="transparent" points="-4,4 -4,-256 1015.67,-256 1015.67,4 -4,4"/>
<!-- r0 := @this: java.lang.ThreadGroup -->
<g id="node1" class="node">
<title>r0 := @this: java.lang.ThreadGroup</title>
<ellipse fill="none" stroke="black" cx="228.23" cy="-234" rx="149.58" ry="18"/>
<text text-anchor="middle" x="228.23" y="-229.8" font-family="Times,serif" font-size="14.00">r0 := @this: java.lang.ThreadGroup</text>
</g>
<!-- specialinvoke r0.&lt;java.lang.Object: void &lt;init&gt;()&gt;() -->
<g id="node2" class="node">
<title>specialinvoke r0.&lt;java.lang.Object: void &lt;init&gt;()&gt;()</title>
<ellipse fill="none" stroke="black" cx="228.23" cy="-162" rx="212.48" ry="18"/>
<text text-anchor="middle" x="228.23" y="-157.8" font-family="Times,serif" font-size="14.00">specialinvoke r0.&lt;java.lang.Object: void &lt;init&gt;()&gt;()</text>
</g>
<!-- r0 := @this: java.lang.ThreadGroup&#45;&gt;specialinvoke r0.&lt;java.lang.Object: void &lt;init&gt;()&gt;() -->
<g id="edge1" class="edge">
<title>r0 := @this: java.lang.ThreadGroup&#45;&gt;specialinvoke r0.&lt;java.lang.Object: void &lt;init&gt;()&gt;()</title>
<path fill="none" stroke="black" d="M228.23,-215.7C228.23,-207.98 228.23,-198.71 228.23,-190.11"/>
<polygon fill="black" stroke="black" points="231.73,-190.1 228.23,-180.1 224.73,-190.1 231.73,-190.1"/>
</g>
<!-- r0.&lt;java.lang.ThreadGroup: int nUnstartedThreads&gt; = 0 -->
<g id="node3" class="node">
<title>r0.&lt;java.lang.ThreadGroup: int nUnstartedThreads&gt; = 0</title>
<ellipse fill="none" stroke="black" cx="228.23" cy="-90" rx="228.46" ry="18"/>
<text text-anchor="middle" x="228.23" y="-85.8" font-family="Times,serif" font-size="14.00">r0.&lt;java.lang.ThreadGroup: int nUnstartedThreads&gt; = 0</text>
</g>
<!-- specialinvoke r0.&lt;java.lang.Object: void &lt;init&gt;()&gt;()&#45;&gt;r0.&lt;java.lang.ThreadGroup: int nUnstartedThreads&gt; = 0 -->
<g id="edge2" class="edge">
<title>specialinvoke r0.&lt;java.lang.Object: void &lt;init&gt;()&gt;()&#45;&gt;r0.&lt;java.lang.ThreadGroup: int nUnstartedThreads&gt; = 0</title>
<path fill="none" stroke="black" d="M228.23,-143.7C228.23,-135.98 228.23,-126.71 228.23,-118.11"/>
<polygon fill="black" stroke="black" points="231.73,-118.1 228.23,-108.1 224.73,-118.1 231.73,-118.1"/>
</g>
<!-- r0.&lt;java.lang.ThreadGroup: java.lang.String name&gt; =  -->
<g id="node4" class="node">
<title>r0.&lt;java.lang.ThreadGroup: java.lang.String name&gt; = </title>
<ellipse fill="none" stroke="black" cx="228.23" cy="-18" rx="221.58" ry="18"/>
<text text-anchor="middle" x="228.23" y="-13.8" font-family="Times,serif" font-size="14.00">r0.&lt;java.lang.ThreadGroup: java.lang.String name&gt; = </text>
</g>
<!-- r0.&lt;java.lang.ThreadGroup: int nUnstartedThreads&gt; = 0&#45;&gt;r0.&lt;java.lang.ThreadGroup: java.lang.String name&gt; =  -->
<g id="edge3" class="edge">
<title>r0.&lt;java.lang.ThreadGroup: int nUnstartedThreads&gt; = 0&#45;&gt;r0.&lt;java.lang.ThreadGroup: java.lang.String name&gt; = </title>
<path fill="none" stroke="black" d="M228.23,-71.7C228.23,-63.98 228.23,-54.71 228.23,-46.11"/>
<polygon fill="black" stroke="black" points="231.73,-46.1 228.23,-36.1 224.73,-46.1 231.73,-46.1"/>
</g>
<!-- system -->
<g id="node5" class="node">
<title>system</title>
<ellipse fill="none" stroke="black" cx="547.23" cy="-234" rx="37.72" ry="18"/>
<text text-anchor="middle" x="547.23" y="-229.8" font-family="Times,serif" font-size="14.00">system</text>
</g>
<g id="node6" class="node">
<title></title>
<ellipse fill="none" stroke="black" cx="743.23" cy="-234" rx="27" ry="18"/>
</g>
<!-- r0.&lt;java.lang.ThreadGroup: int maxPriority&gt; = 10 -->
<g id="node7" class="node">
<title>r0.&lt;java.lang.ThreadGroup: int maxPriority&gt; = 10</title>
<ellipse fill="none" stroke="black" cx="743.23" cy="-162" rx="205.93" ry="18"/>
<text text-anchor="middle" x="743.23" y="-157.8" font-family="Times,serif" font-size="14.00">r0.&lt;java.lang.ThreadGroup: int maxPriority&gt; = 10</text>
</g>
<!-- &#45;&gt;r0.&lt;java.lang.ThreadGroup: int maxPriority&gt; = 10 -->
<g id="edge4" class="edge">
<title>&#45;&gt;r0.&lt;java.lang.ThreadGroup: int maxPriority&gt; = 10</title>
<path fill="none" stroke="black" d="M743.23,-215.7C743.23,-207.98 743.23,-198.71 743.23,-190.11"/>
<polygon fill="black" stroke="black" points="746.73,-190.1 743.23,-180.1 739.73,-190.1 746.73,-190.1"/>
</g>
<!-- r0.&lt;java.lang.ThreadGroup: java.lang.ThreadGroup parent&gt; = null -->
<g id="node8" class="node">
<title>r0.&lt;java.lang.ThreadGroup: java.lang.ThreadGroup parent&gt; = null</title>
<ellipse fill="none" stroke="black" cx="743.23" cy="-90" rx="268.38" ry="18"/>
<text text-anchor="middle" x="743.23" y="-85.8" font-family="Times,serif" font-size="14.00">r0.&lt;java.lang.ThreadGroup: java.lang.ThreadGroup parent&gt; = null</text>
</g>
<!-- r0.&lt;java.lang.ThreadGroup: int maxPriority&gt; = 10&#45;&gt;r0.&lt;java.lang.ThreadGroup: java.lang.ThreadGroup parent&gt; = null -->
<g id="edge5" class="edge">
<title>r0.&lt;java.lang.ThreadGroup: int maxPriority&gt; = 10&#45;&gt;r0.&lt;java.lang.ThreadGroup: java.lang.ThreadGroup parent&gt; = null</title>
<path fill="none" stroke="black" d="M743.23,-143.7C743.23,-135.98 743.23,-126.71 743.23,-118.11"/>
<polygon fill="black" stroke="black" points="746.73,-118.1 743.23,-108.1 739.73,-118.1 746.73,-118.1"/>
</g>
<!-- return -->
<g id="node9" class="node">
<title>return</title>
<ellipse fill="none" stroke="black" cx="743.23" cy="-18" rx="34.19" ry="18"/>
<text text-anchor="middle" x="743.23" y="-13.8" font-family="Times,serif" font-size="14.00">return</text>
</g>
<!-- r0.&lt;java.lang.ThreadGroup: java.lang.ThreadGroup parent&gt; = null&#45;&gt;return -->
<g id="edge6" class="edge">
<title>r0.&lt;java.lang.ThreadGroup: java.lang.ThreadGroup parent&gt; = null&#45;&gt;return</title>
<path fill="none" stroke="black" d="M743.23,-71.7C743.23,-63.98 743.23,-54.71 743.23,-46.11"/>
<polygon fill="black" stroke="black" points="746.73,-46.1 743.23,-36.1 739.73,-46.1 746.73,-46.1"/>
</g>
</g>
</svg>
