<?xml version="1.0" encoding="UTF-8" standalone="no"?>
<!DOCTYPE svg PUBLIC "-//W3C//DTD SVG 1.1//EN"
 "http://www.w3.org/Graphics/SVG/1.1/DTD/svg11.dtd">
<!-- Generated by graphviz version 2.50.0 (20211204.2007)
 -->
<!-- Title: DirectedGraph Pages: 1 -->
<svg width="7463pt" height="717pt"
 viewBox="0.00 0.00 7462.95 716.80" xmlns="http://www.w3.org/2000/svg" xmlns:xlink="http://www.w3.org/1999/xlink">
<g id="graph0" class="graph" transform="scale(1 1) rotate(0) translate(4 712.8)">
<title>DirectedGraph</title>
<polygon fill="white" stroke="transparent" points="-4,4 -4,-712.8 7458.95,-712.8 7458.95,4 -4,4"/>
<text text-anchor="middle" x="3727.48" y="-692.2" font-family="Times,serif" font-size="14.00">getOptionObject</text>
<!-- 1462044018 -->
<g id="node1" class="node">
<title>1462044018</title>
<ellipse fill="none" stroke="black" cx="2763.26" cy="-666" rx="2044.85" ry="18"/>
<text text-anchor="middle" x="2763.26" y="-661.8" font-family="Times,serif" font-size="14.00">(/** &#160;* Return the {@code Object} type of this {@code Option}. * @param opt the name of the option. * @return the type of this {@code Option}. * @deprecated due to System.err message. Instead use getParsedOptionValue(String) */ @Deprecated public Object getOptionObject(final String opt){ &#160;try { &#160;&#160;return getParsedOptionValue(opt); &#160;} catch ( final ParseException pe) { &#160;&#160;System.err.println(&quot;Exception found converting &quot; + opt + &quot; to desired type: &quot;+ pe.getMessage()); &#160;&#160;return null; &#160;} } ,MethodDeclaration,145,160)</text>
</g>
<!-- 1443435931 -->
<g id="node2" class="node">
<title>1443435931</title>
<ellipse fill="none" stroke="black" cx="1000.26" cy="-594" rx="1000.02" ry="18"/>
<text text-anchor="middle" x="1000.26" y="-589.8" font-family="Times,serif" font-size="14.00">(/** &#160;* Return the {@code Object} type of this {@code Option}. * @param opt the name of the option. * @return the type of this {@code Option}. * @deprecated due to System.err message. Instead use getParsedOptionValue(String) */ ,Javadoc,145,151)</text>
</g>
<!-- 1462044018&#45;&gt;1443435931 -->
<g id="edge1" class="edge">
<title>1462044018&#45;&gt;1443435931</title>
<path fill="none" stroke="black" d="M2344.62,-648.38C2059.57,-637.06 1684.38,-622.16 1402.81,-610.98"/>
<polygon fill="black" stroke="black" points="1402.55,-607.47 1392.42,-610.57 1402.27,-614.46 1402.55,-607.47"/>
</g>
<!-- 555273695 -->
<g id="node3" class="node">
<title>555273695</title>
<ellipse fill="none" stroke="black" cx="2197.26" cy="-594" rx="178.31" ry="18"/>
<text text-anchor="middle" x="2197.26" y="-589.8" font-family="Times,serif" font-size="14.00">(@Deprecated,MarkerAnnotation,152,152)</text>
</g>
<!-- 1462044018&#45;&gt;555273695 -->
<g id="edge2" class="edge">
<title>1462044018&#45;&gt;555273695</title>
<path fill="none" stroke="black" d="M2625.89,-648.01C2530.96,-636.27 2405.99,-620.81 2315.5,-609.62"/>
<polygon fill="black" stroke="black" points="2315.82,-606.14 2305.47,-608.38 2314.96,-613.08 2315.82,-606.14"/>
</g>
<!-- 1750498848 -->
<g id="node5" class="node">
<title>1750498848</title>
<ellipse fill="none" stroke="black" cx="2506.26" cy="-594" rx="112.29" ry="18"/>
<text text-anchor="middle" x="2506.26" y="-589.8" font-family="Times,serif" font-size="14.00">(public,Modifier,153,153)</text>
</g>
<!-- 1462044018&#45;&gt;1750498848 -->
<g id="edge4" class="edge">
<title>1462044018&#45;&gt;1750498848</title>
<path fill="none" stroke="black" d="M2700.72,-647.97C2661.27,-637.22 2610.45,-623.38 2570.65,-612.54"/>
<polygon fill="black" stroke="black" points="2571.35,-609.1 2560.78,-609.85 2569.51,-615.86 2571.35,-609.1"/>
</g>
<!-- 1995250556 -->
<g id="node6" class="node">
<title>1995250556</title>
<ellipse fill="none" stroke="black" cx="2763.26" cy="-594" rx="126.76" ry="18"/>
<text text-anchor="middle" x="2763.26" y="-589.8" font-family="Times,serif" font-size="14.00">(Object,SimpleType,153,153)</text>
</g>
<!-- 1462044018&#45;&gt;1995250556 -->
<g id="edge5" class="edge">
<title>1462044018&#45;&gt;1995250556</title>
<path fill="none" stroke="black" d="M2763.26,-647.7C2763.26,-639.98 2763.26,-630.71 2763.26,-622.11"/>
<polygon fill="black" stroke="black" points="2766.76,-622.1 2763.26,-612.1 2759.76,-622.1 2766.76,-622.1"/>
</g>
<!-- 961160488 -->
<g id="node8" class="node">
<title>961160488</title>
<ellipse fill="none" stroke="black" cx="3076.26" cy="-594" rx="168.43" ry="18"/>
<text text-anchor="middle" x="3076.26" y="-589.8" font-family="Times,serif" font-size="14.00">(getOptionObject,SimpleName,153,153)</text>
</g>
<!-- 1462044018&#45;&gt;961160488 -->
<g id="edge7" class="edge">
<title>1462044018&#45;&gt;961160488</title>
<path fill="none" stroke="black" d="M2839.43,-647.97C2887.34,-637.25 2949.03,-623.45 2997.44,-612.63"/>
<polygon fill="black" stroke="black" points="2998.25,-616.03 3007.24,-610.44 2996.72,-609.2 2998.25,-616.03"/>
</g>
<!-- 1647766367 -->
<g id="node9" class="node">
<title>1647766367</title>
<ellipse fill="none" stroke="black" cx="3478.26" cy="-594" rx="215.24" ry="18"/>
<text text-anchor="middle" x="3478.26" y="-589.8" font-family="Times,serif" font-size="14.00">(final String opt,SingleVariableDeclaration,153,153)</text>
</g>
<!-- 1462044018&#45;&gt;1647766367 -->
<g id="edge8" class="edge">
<title>1462044018&#45;&gt;1647766367</title>
<path fill="none" stroke="black" d="M2936.34,-648.05C3058.1,-636.13 3219.16,-620.37 3333.99,-609.12"/>
<polygon fill="black" stroke="black" points="3334.64,-612.58 3344.25,-608.12 3333.96,-605.61 3334.64,-612.58"/>
</g>
<!-- 1062635358 -->
<g id="node14" class="node">
<title>1062635358</title>
<ellipse fill="none" stroke="black" cx="4628.26" cy="-594" rx="837.88" ry="18"/>
<text text-anchor="middle" x="4628.26" y="-589.8" font-family="Times,serif" font-size="14.00">({ &#160;try { &#160;&#160;return getParsedOptionValue(opt); &#160;} catch ( final ParseException pe) { &#160;&#160;System.err.println(&quot;Exception found converting &quot; + opt + &quot; to desired type: &quot;+ pe.getMessage()); &#160;&#160;return null; &#160;} } ,Block,153,160)</text>
</g>
<!-- 1462044018&#45;&gt;1062635358 -->
<g id="edge13" class="edge">
<title>1462044018&#45;&gt;1062635358</title>
<path fill="none" stroke="black" d="M3204.94,-648.42C3513.27,-636.85 3921.73,-621.52 4221.97,-610.25"/>
<polygon fill="black" stroke="black" points="4222.3,-613.74 4232.16,-609.87 4222.04,-606.74 4222.3,-613.74"/>
</g>
<!-- 396883763 -->
<g id="node4" class="node">
<title>396883763</title>
<ellipse fill="none" stroke="black" cx="2197.26" cy="-522" rx="148.13" ry="18"/>
<text text-anchor="middle" x="2197.26" y="-517.8" font-family="Times,serif" font-size="14.00">(Deprecated,SimpleName,152,152)</text>
</g>
<!-- 555273695&#45;&gt;396883763 -->
<g id="edge3" class="edge">
<title>555273695&#45;&gt;396883763</title>
<path fill="none" stroke="black" d="M2197.26,-575.7C2197.26,-567.98 2197.26,-558.71 2197.26,-550.11"/>
<polygon fill="black" stroke="black" points="2200.76,-550.1 2197.26,-540.1 2193.76,-550.1 2200.76,-550.1"/>
</g>
<!-- 301749835 -->
<g id="node7" class="node">
<title>301749835</title>
<ellipse fill="none" stroke="black" cx="2763.26" cy="-522" rx="129.69" ry="18"/>
<text text-anchor="middle" x="2763.26" y="-517.8" font-family="Times,serif" font-size="14.00">(Object,SimpleName,153,153)</text>
</g>
<!-- 1995250556&#45;&gt;301749835 -->
<g id="edge6" class="edge">
<title>1995250556&#45;&gt;301749835</title>
<path fill="none" stroke="black" d="M2763.26,-575.7C2763.26,-567.98 2763.26,-558.71 2763.26,-550.11"/>
<polygon fill="black" stroke="black" points="2766.76,-550.1 2763.26,-540.1 2759.76,-550.1 2766.76,-550.1"/>
</g>
<!-- 2082351774 -->
<g id="node10" class="node">
<title>2082351774</title>
<ellipse fill="none" stroke="black" cx="3190.26" cy="-522" rx="105.91" ry="18"/>
<text text-anchor="middle" x="3190.26" y="-517.8" font-family="Times,serif" font-size="14.00">(final,Modifier,153,153)</text>
</g>
<!-- 1647766367&#45;&gt;2082351774 -->
<g id="edge9" class="edge">
<title>1647766367&#45;&gt;2082351774</title>
<path fill="none" stroke="black" d="M3411.83,-576.85C3365.86,-565.68 3304.87,-550.86 3258.51,-539.59"/>
<polygon fill="black" stroke="black" points="3259.1,-536.13 3248.56,-537.17 3257.45,-542.93 3259.1,-536.13"/>
</g>
<!-- 262366552 -->
<g id="node11" class="node">
<title>262366552</title>
<ellipse fill="none" stroke="black" cx="3438.26" cy="-522" rx="124.49" ry="18"/>
<text text-anchor="middle" x="3438.26" y="-517.8" font-family="Times,serif" font-size="14.00">(String,SimpleType,153,153)</text>
</g>
<!-- 1647766367&#45;&gt;262366552 -->
<g id="edge10" class="edge">
<title>1647766367&#45;&gt;262366552</title>
<path fill="none" stroke="black" d="M3468.37,-575.7C3463.77,-567.64 3458.2,-557.89 3453.11,-548.98"/>
<polygon fill="black" stroke="black" points="3456.03,-547.05 3448.03,-540.1 3449.96,-550.52 3456.03,-547.05"/>
</g>
<!-- 848363848 -->
<g id="node13" class="node">
<title>848363848</title>
<ellipse fill="none" stroke="black" cx="3697.26" cy="-522" rx="116.38" ry="18"/>
<text text-anchor="middle" x="3697.26" y="-517.8" font-family="Times,serif" font-size="14.00">(opt,SimpleName,153,153)</text>
</g>
<!-- 1647766367&#45;&gt;848363848 -->
<g id="edge12" class="edge">
<title>1647766367&#45;&gt;848363848</title>
<path fill="none" stroke="black" d="M3529.88,-576.5C3562.69,-566.01 3605.21,-552.42 3639.19,-541.56"/>
<polygon fill="black" stroke="black" points="3640.52,-544.81 3648.98,-538.43 3638.39,-538.14 3640.52,-544.81"/>
</g>
<!-- 1730704097 -->
<g id="node12" class="node">
<title>1730704097</title>
<ellipse fill="none" stroke="black" cx="3438.26" cy="-450" rx="127.92" ry="18"/>
<text text-anchor="middle" x="3438.26" y="-445.8" font-family="Times,serif" font-size="14.00">(String,SimpleName,153,153)</text>
</g>
<!-- 262366552&#45;&gt;1730704097 -->
<g id="edge11" class="edge">
<title>262366552&#45;&gt;1730704097</title>
<path fill="none" stroke="black" d="M3438.26,-503.7C3438.26,-495.98 3438.26,-486.71 3438.26,-478.11"/>
<polygon fill="black" stroke="black" points="3441.76,-478.1 3438.26,-468.1 3434.76,-478.1 3441.76,-478.1"/>
</g>
<!-- 726379593 -->
<g id="node15" class="node">
<title>726379593</title>
<ellipse fill="none" stroke="black" cx="4668.26" cy="-522" rx="836.37" ry="18"/>
<text text-anchor="middle" x="4668.26" y="-517.8" font-family="Times,serif" font-size="14.00">(try { &#160;return getParsedOptionValue(opt); } catch (final ParseException pe) { &#160;System.err.println(&quot;Exception found converting &quot; + opt + &quot; to desired type: &quot;+ pe.getMessage()); &#160;return null; } ,TryStatement,154,159)</text>
</g>
<!-- 1062635358&#45;&gt;726379593 -->
<g id="edge14" class="edge">
<title>1062635358&#45;&gt;726379593</title>
<path fill="none" stroke="black" d="M4638.15,-575.7C4642.75,-567.64 4648.32,-557.89 4653.41,-548.98"/>
<polygon fill="black" stroke="black" points="4656.56,-550.52 4658.49,-540.1 4650.49,-547.05 4656.56,-550.52"/>
</g>
<!-- 265321659 -->
<g id="node16" class="node">
<title>265321659</title>
<ellipse fill="none" stroke="black" cx="4241.26" cy="-450" rx="230.06" ry="18"/>
<text text-anchor="middle" x="4241.26" y="-445.8" font-family="Times,serif" font-size="14.00">({ &#160;return getParsedOptionValue(opt); } ,Block,154,156)</text>
</g>
<!-- 726379593&#45;&gt;265321659 -->
<g id="edge15" class="edge">
<title>726379593&#45;&gt;265321659</title>
<path fill="none" stroke="black" d="M4565.17,-504.1C4498.62,-493.19 4412.32,-479.04 4345.54,-468.09"/>
<polygon fill="black" stroke="black" points="4345.85,-464.6 4335.41,-466.43 4344.71,-471.51 4345.85,-464.6"/>
</g>
<!-- 2089016471 -->
<g id="node21" class="node">
<title>2089016471</title>
<ellipse fill="none" stroke="black" cx="5155.26" cy="-450" rx="666.02" ry="18"/>
<text text-anchor="middle" x="5155.26" y="-445.8" font-family="Times,serif" font-size="14.00">(catch (final ParseException pe) { &#160;System.err.println(&quot;Exception found converting &quot; + opt + &quot; to desired type: &quot;+ pe.getMessage()); &#160;return null; } ,CatchClause,156,159)</text>
</g>
<!-- 726379593&#45;&gt;2089016471 -->
<g id="edge20" class="edge">
<title>726379593&#45;&gt;2089016471</title>
<path fill="none" stroke="black" d="M4785.53,-504.14C4858.93,-493.59 4953.48,-480 5028.59,-469.21"/>
<polygon fill="black" stroke="black" points="5029.19,-472.66 5038.59,-467.77 5028.19,-465.73 5029.19,-472.66"/>
</g>
<!-- 896644936 -->
<g id="node17" class="node">
<title>896644936</title>
<ellipse fill="none" stroke="black" cx="4241.26" cy="-378" rx="255.2" ry="18"/>
<text text-anchor="middle" x="4241.26" y="-373.8" font-family="Times,serif" font-size="14.00">(return getParsedOptionValue(opt); ,ReturnStatement,155,155)</text>
</g>
<!-- 265321659&#45;&gt;896644936 -->
<g id="edge16" class="edge">
<title>265321659&#45;&gt;896644936</title>
<path fill="none" stroke="black" d="M4241.26,-431.7C4241.26,-423.98 4241.26,-414.71 4241.26,-406.11"/>
<polygon fill="black" stroke="black" points="4244.76,-406.1 4241.26,-396.1 4237.76,-406.1 4244.76,-406.1"/>
</g>
<!-- 1050065615 -->
<g id="node18" class="node">
<title>1050065615</title>
<ellipse fill="none" stroke="black" cx="4241.26" cy="-306" rx="231.44" ry="18"/>
<text text-anchor="middle" x="4241.26" y="-301.8" font-family="Times,serif" font-size="14.00">(getParsedOptionValue(opt),MethodInvocation,155,155)</text>
</g>
<!-- 896644936&#45;&gt;1050065615 -->
<g id="edge17" class="edge">
<title>896644936&#45;&gt;1050065615</title>
<path fill="none" stroke="black" d="M4241.26,-359.7C4241.26,-351.98 4241.26,-342.71 4241.26,-334.11"/>
<polygon fill="black" stroke="black" points="4244.76,-334.1 4241.26,-324.1 4237.76,-334.1 4244.76,-334.1"/>
</g>
<!-- 1212772528 -->
<g id="node19" class="node">
<title>1212772528</title>
<ellipse fill="none" stroke="black" cx="4078.26" cy="-234" rx="191.56" ry="18"/>
<text text-anchor="middle" x="4078.26" y="-229.8" font-family="Times,serif" font-size="14.00">(getParsedOptionValue,SimpleName,155,155)</text>
</g>
<!-- 1050065615&#45;&gt;1212772528 -->
<g id="edge18" class="edge">
<title>1050065615&#45;&gt;1212772528</title>
<path fill="none" stroke="black" d="M4202.22,-288.23C4179.44,-278.45 4150.51,-266.03 4126.34,-255.65"/>
<polygon fill="black" stroke="black" points="4127.55,-252.36 4116.98,-251.63 4124.79,-258.79 4127.55,-252.36"/>
</g>
<!-- 1148254374 -->
<g id="node20" class="node">
<title>1148254374</title>
<ellipse fill="none" stroke="black" cx="4404.26" cy="-234" rx="116.38" ry="18"/>
<text text-anchor="middle" x="4404.26" y="-229.8" font-family="Times,serif" font-size="14.00">(opt,SimpleName,155,155)</text>
</g>
<!-- 1050065615&#45;&gt;1148254374 -->
<g id="edge19" class="edge">
<title>1050065615&#45;&gt;1148254374</title>
<path fill="none" stroke="black" d="M4280.3,-288.23C4303.42,-278.31 4332.85,-265.67 4357.24,-255.19"/>
<polygon fill="black" stroke="black" points="4358.85,-258.31 4366.66,-251.15 4356.09,-251.88 4358.85,-258.31"/>
</g>
<!-- 2001223946 -->
<g id="node22" class="node">
<title>2001223946</title>
<ellipse fill="none" stroke="black" cx="5086.26" cy="-378" rx="248.21" ry="18"/>
<text text-anchor="middle" x="5086.26" y="-373.8" font-family="Times,serif" font-size="14.00">(final ParseException pe,SingleVariableDeclaration,156,156)</text>
</g>
<!-- 2089016471&#45;&gt;2001223946 -->
<g id="edge21" class="edge">
<title>2089016471&#45;&gt;2001223946</title>
<path fill="none" stroke="black" d="M5138.2,-431.7C5129.76,-423.14 5119.44,-412.66 5110.22,-403.3"/>
<polygon fill="black" stroke="black" points="5112.63,-400.77 5103.12,-396.1 5107.65,-405.68 5112.63,-400.77"/>
</g>
<!-- 794075965 -->
<g id="node27" class="node">
<title>794075965</title>
<ellipse fill="none" stroke="black" cx="5952.26" cy="-378" rx="517.36" ry="18"/>
<text text-anchor="middle" x="5952.26" y="-373.8" font-family="Times,serif" font-size="14.00">({ &#160;System.err.println(&quot;Exception found converting &quot; + opt + &quot; to desired type: &quot;+ pe.getMessage()); &#160;return null; } ,Block,156,159)</text>
</g>
<!-- 2089016471&#45;&gt;794075965 -->
<g id="edge26" class="edge">
<title>2089016471&#45;&gt;794075965</title>
<path fill="none" stroke="black" d="M5340.86,-432.7C5467.15,-421.61 5633.81,-406.97 5761.23,-395.78"/>
<polygon fill="black" stroke="black" points="5761.84,-399.24 5771.5,-394.88 5761.23,-392.26 5761.84,-399.24"/>
</g>
<!-- 1946645411 -->
<g id="node23" class="node">
<title>1946645411</title>
<ellipse fill="none" stroke="black" cx="4733.26" cy="-306" rx="105.91" ry="18"/>
<text text-anchor="middle" x="4733.26" y="-301.8" font-family="Times,serif" font-size="14.00">(final,Modifier,156,156)</text>
</g>
<!-- 2001223946&#45;&gt;1946645411 -->
<g id="edge22" class="edge">
<title>2001223946&#45;&gt;1946645411</title>
<path fill="none" stroke="black" d="M5005.28,-360.94C4946.42,-349.27 4867.29,-333.58 4809.55,-322.13"/>
<polygon fill="black" stroke="black" points="4809.88,-318.63 4799.39,-320.11 4808.52,-325.49 4809.88,-318.63"/>
</g>
<!-- 938545229 -->
<g id="node24" class="node">
<title>938545229</title>
<ellipse fill="none" stroke="black" cx="5018.26" cy="-306" rx="160.91" ry="18"/>
<text text-anchor="middle" x="5018.26" y="-301.8" font-family="Times,serif" font-size="14.00">(ParseException,SimpleType,156,156)</text>
</g>
<!-- 2001223946&#45;&gt;938545229 -->
<g id="edge23" class="edge">
<title>2001223946&#45;&gt;938545229</title>
<path fill="none" stroke="black" d="M5069.45,-359.7C5061.13,-351.14 5050.95,-340.66 5041.87,-331.3"/>
<polygon fill="black" stroke="black" points="5044.35,-328.84 5034.88,-324.1 5039.33,-333.72 5044.35,-328.84"/>
</g>
<!-- 1610702581 -->
<g id="node26" class="node">
<title>1610702581</title>
<ellipse fill="none" stroke="black" cx="5310.26" cy="-306" rx="113.43" ry="18"/>
<text text-anchor="middle" x="5310.26" y="-301.8" font-family="Times,serif" font-size="14.00">(pe,SimpleName,156,156)</text>
</g>
<!-- 2001223946&#45;&gt;1610702581 -->
<g id="edge25" class="edge">
<title>2001223946&#45;&gt;1610702581</title>
<path fill="none" stroke="black" d="M5139.35,-360.41C5173.17,-349.84 5217.01,-336.14 5251.82,-325.26"/>
<polygon fill="black" stroke="black" points="5252.88,-328.6 5261.38,-322.27 5250.79,-321.92 5252.88,-328.6"/>
</g>
<!-- 1433666880 -->
<g id="node25" class="node">
<title>1433666880</title>
<ellipse fill="none" stroke="black" cx="5018.26" cy="-234" rx="164.34" ry="18"/>
<text text-anchor="middle" x="5018.26" y="-229.8" font-family="Times,serif" font-size="14.00">(ParseException,SimpleName,156,156)</text>
</g>
<!-- 938545229&#45;&gt;1433666880 -->
<g id="edge24" class="edge">
<title>938545229&#45;&gt;1433666880</title>
<path fill="none" stroke="black" d="M5018.26,-287.7C5018.26,-279.98 5018.26,-270.71 5018.26,-262.11"/>
<polygon fill="black" stroke="black" points="5021.76,-262.1 5018.26,-252.1 5014.76,-262.1 5021.76,-262.1"/>
</g>
<!-- 270056930 -->
<g id="node28" class="node">
<title>270056930</title>
<ellipse fill="none" stroke="black" cx="5952.26" cy="-306" rx="511.26" ry="18"/>
<text text-anchor="middle" x="5952.26" y="-301.8" font-family="Times,serif" font-size="14.00">(System.err.println(&quot;Exception found converting &quot; + opt + &quot; to desired type: &quot;+ pe.getMessage()); ,ExpressionStatement,157,157)</text>
</g>
<!-- 794075965&#45;&gt;270056930 -->
<g id="edge27" class="edge">
<title>794075965&#45;&gt;270056930</title>
<path fill="none" stroke="black" d="M5952.26,-359.7C5952.26,-351.98 5952.26,-342.71 5952.26,-334.11"/>
<polygon fill="black" stroke="black" points="5955.76,-334.1 5952.26,-324.1 5948.76,-334.1 5955.76,-334.1"/>
</g>
<!-- 1464555023 -->
<g id="node41" class="node">
<title>1464555023</title>
<ellipse fill="none" stroke="black" cx="6645.26" cy="-306" rx="164.35" ry="18"/>
<text text-anchor="middle" x="6645.26" y="-301.8" font-family="Times,serif" font-size="14.00">(return null; ,ReturnStatement,158,158)</text>
</g>
<!-- 794075965&#45;&gt;1464555023 -->
<g id="edge40" class="edge">
<title>794075965&#45;&gt;1464555023</title>
<path fill="none" stroke="black" d="M6112.12,-360.85C6235.7,-348.37 6404.43,-331.33 6518.73,-319.78"/>
<polygon fill="black" stroke="black" points="6519.33,-323.24 6528.92,-318.75 6518.62,-316.27 6519.33,-323.24"/>
</g>
<!-- 1706292388 -->
<g id="node29" class="node">
<title>1706292388</title>
<ellipse fill="none" stroke="black" cx="5952.26" cy="-234" rx="495.67" ry="18"/>
<text text-anchor="middle" x="5952.26" y="-229.8" font-family="Times,serif" font-size="14.00">(System.err.println(&quot;Exception found converting &quot; + opt + &quot; to desired type: &quot;+ pe.getMessage()),MethodInvocation,157,157)</text>
</g>
<!-- 270056930&#45;&gt;1706292388 -->
<g id="edge28" class="edge">
<title>270056930&#45;&gt;1706292388</title>
<path fill="none" stroke="black" d="M5952.26,-287.7C5952.26,-279.98 5952.26,-270.71 5952.26,-262.11"/>
<polygon fill="black" stroke="black" points="5955.76,-262.1 5952.26,-252.1 5948.76,-262.1 5955.76,-262.1"/>
</g>
<!-- 254801937 -->
<g id="node30" class="node">
<title>254801937</title>
<ellipse fill="none" stroke="black" cx="5649.26" cy="-162" rx="154.56" ry="18"/>
<text text-anchor="middle" x="5649.26" y="-157.8" font-family="Times,serif" font-size="14.00">(System.err,QualifiedName,157,157)</text>
</g>
<!-- 1706292388&#45;&gt;254801937 -->
<g id="edge29" class="edge">
<title>1706292388&#45;&gt;254801937</title>
<path fill="none" stroke="black" d="M5879.3,-216.14C5832.71,-205.38 5772.41,-191.45 5725.25,-180.55"/>
<polygon fill="black" stroke="black" points="5725.92,-177.12 5715.39,-178.28 5724.34,-183.94 5725.92,-177.12"/>
</g>
<!-- 707161353 -->
<g id="node33" class="node">
<title>707161353</title>
<ellipse fill="none" stroke="black" cx="5952.26" cy="-162" rx="129.71" ry="18"/>
<text text-anchor="middle" x="5952.26" y="-157.8" font-family="Times,serif" font-size="14.00">(println,SimpleName,157,157)</text>
</g>
<!-- 1706292388&#45;&gt;707161353 -->
<g id="edge32" class="edge">
<title>1706292388&#45;&gt;707161353</title>
<path fill="none" stroke="black" d="M5952.26,-215.7C5952.26,-207.98 5952.26,-198.71 5952.26,-190.11"/>
<polygon fill="black" stroke="black" points="5955.76,-190.1 5952.26,-180.1 5948.76,-190.1 5955.76,-190.1"/>
</g>
<!-- 1522132780 -->
<g id="node34" class="node">
<title>1522132780</title>
<ellipse fill="none" stroke="black" cx="6510.26" cy="-162" rx="410.03" ry="18"/>
<text text-anchor="middle" x="6510.26" y="-157.8" font-family="Times,serif" font-size="14.00">(&quot;Exception found converting &quot; + opt + &quot; to desired type: &quot;+ pe.getMessage(),InfixExpression,157,157)</text>
</g>
<!-- 1706292388&#45;&gt;1522132780 -->
<g id="edge33" class="edge">
<title>1706292388&#45;&gt;1522132780</title>
<path fill="none" stroke="black" d="M6082.73,-216.63C6169.42,-205.76 6283.1,-191.5 6371.44,-180.41"/>
<polygon fill="black" stroke="black" points="6372.05,-183.87 6381.54,-179.15 6371.18,-176.92 6372.05,-183.87"/>
</g>
<!-- 90767234 -->
<g id="node31" class="node">
<title>90767234</title>
<ellipse fill="none" stroke="black" cx="5422.26" cy="-90" rx="132.58" ry="18"/>
<text text-anchor="middle" x="5422.26" y="-85.8" font-family="Times,serif" font-size="14.00">(System,SimpleName,157,157)</text>
</g>
<!-- 254801937&#45;&gt;90767234 -->
<g id="edge30" class="edge">
<title>254801937&#45;&gt;90767234</title>
<path fill="none" stroke="black" d="M5597.47,-145.03C5563.38,-134.52 5518.62,-120.71 5482.88,-109.69"/>
<polygon fill="black" stroke="black" points="5483.64,-106.26 5473.05,-106.66 5481.57,-112.95 5483.64,-106.26"/>
</g>
<!-- 1355457888 -->
<g id="node32" class="node">
<title>1355457888</title>
<ellipse fill="none" stroke="black" cx="5687.26" cy="-90" rx="114.64" ry="18"/>
<text text-anchor="middle" x="5687.26" y="-85.8" font-family="Times,serif" font-size="14.00">(err,SimpleName,157,157)</text>
</g>
<!-- 254801937&#45;&gt;1355457888 -->
<g id="edge31" class="edge">
<title>254801937&#45;&gt;1355457888</title>
<path fill="none" stroke="black" d="M5658.65,-143.7C5663.03,-135.64 5668.32,-125.89 5673.16,-116.98"/>
<polygon fill="black" stroke="black" points="5676.28,-118.56 5677.98,-108.1 5670.13,-115.22 5676.28,-118.56"/>
</g>
<!-- 409962262 -->
<g id="node35" class="node">
<title>409962262</title>
<ellipse fill="none" stroke="black" cx="6116.26" cy="-90" rx="221.26" ry="18"/>
<text text-anchor="middle" x="6116.26" y="-85.8" font-family="Times,serif" font-size="14.00">(&quot;Exception found converting &quot;,StringLiteral,157,157)</text>
</g>
<!-- 1522132780&#45;&gt;409962262 -->
<g id="edge34" class="edge">
<title>1522132780&#45;&gt;409962262</title>
<path fill="none" stroke="black" d="M6416.89,-144.41C6355.78,-133.55 6276.07,-119.39 6214.08,-108.38"/>
<polygon fill="black" stroke="black" points="6214.36,-104.87 6203.9,-106.57 6213.13,-111.77 6214.36,-104.87"/>
</g>
<!-- 495702238 -->
<g id="node36" class="node">
<title>495702238</title>
<ellipse fill="none" stroke="black" cx="6472.26" cy="-90" rx="116.38" ry="18"/>
<text text-anchor="middle" x="6472.26" y="-85.8" font-family="Times,serif" font-size="14.00">(opt,SimpleName,157,157)</text>
</g>
<!-- 1522132780&#45;&gt;495702238 -->
<g id="edge35" class="edge">
<title>1522132780&#45;&gt;495702238</title>
<path fill="none" stroke="black" d="M6500.87,-143.7C6496.5,-135.64 6491.2,-125.89 6486.37,-116.98"/>
<polygon fill="black" stroke="black" points="6489.39,-115.22 6481.55,-108.1 6483.24,-118.56 6489.39,-115.22"/>
</g>
<!-- 73181251 -->
<g id="node37" class="node">
<title>73181251</title>
<ellipse fill="none" stroke="black" cx="6782.26" cy="-90" rx="175.05" ry="18"/>
<text text-anchor="middle" x="6782.26" y="-85.8" font-family="Times,serif" font-size="14.00">(&quot; to desired type: &quot;,StringLiteral,157,157)</text>
</g>
<!-- 1522132780&#45;&gt;73181251 -->
<g id="edge36" class="edge">
<title>1522132780&#45;&gt;73181251</title>
<path fill="none" stroke="black" d="M6575.76,-144.14C6616.51,-133.66 6668.93,-120.17 6710.75,-109.4"/>
<polygon fill="black" stroke="black" points="6711.79,-112.75 6720.6,-106.87 6710.04,-105.97 6711.79,-112.75"/>
</g>
<!-- 298430307 -->
<g id="node38" class="node">
<title>298430307</title>
<ellipse fill="none" stroke="black" cx="7164.26" cy="-90" rx="188.64" ry="18"/>
<text text-anchor="middle" x="7164.26" y="-85.8" font-family="Times,serif" font-size="14.00">(pe.getMessage(),MethodInvocation,157,157)</text>
</g>
<!-- 1522132780&#45;&gt;298430307 -->
<g id="edge37" class="edge">
<title>1522132780&#45;&gt;298430307</title>
<path fill="none" stroke="black" d="M6657.85,-145.2C6770.92,-133.1 6925.44,-116.56 7033.96,-104.95"/>
<polygon fill="black" stroke="black" points="7034.42,-108.42 7043.99,-103.87 7033.67,-101.46 7034.42,-108.42"/>
</g>
<!-- 1970982267 -->
<g id="node39" class="node">
<title>1970982267</title>
<ellipse fill="none" stroke="black" cx="7024.26" cy="-18" rx="113.43" ry="18"/>
<text text-anchor="middle" x="7024.26" y="-13.8" font-family="Times,serif" font-size="14.00">(pe,SimpleName,157,157)</text>
</g>
<!-- 298430307&#45;&gt;1970982267 -->
<g id="edge38" class="edge">
<title>298430307&#45;&gt;1970982267</title>
<path fill="none" stroke="black" d="M7130.73,-72.23C7111.37,-62.55 7086.84,-50.29 7066.21,-39.97"/>
<polygon fill="black" stroke="black" points="7067.55,-36.73 7057.04,-35.39 7064.42,-42.99 7067.55,-36.73"/>
</g>
<!-- 917831210 -->
<g id="node40" class="node">
<title>917831210</title>
<ellipse fill="none" stroke="black" cx="7305.26" cy="-18" rx="149.88" ry="18"/>
<text text-anchor="middle" x="7305.26" y="-13.8" font-family="Times,serif" font-size="14.00">(getMessage,SimpleName,157,157)</text>
</g>
<!-- 298430307&#45;&gt;917831210 -->
<g id="edge39" class="edge">
<title>298430307&#45;&gt;917831210</title>
<path fill="none" stroke="black" d="M7198.03,-72.23C7217.39,-62.62 7241.88,-50.47 7262.56,-40.2"/>
<polygon fill="black" stroke="black" points="7264.36,-43.21 7271.76,-35.63 7261.25,-36.94 7264.36,-43.21"/>
</g>
<!-- 195381554 -->
<g id="node42" class="node">
<title>195381554</title>
<ellipse fill="none" stroke="black" cx="6645.26" cy="-234" rx="111.72" ry="18"/>
<text text-anchor="middle" x="6645.26" y="-229.8" font-family="Times,serif" font-size="14.00">(null,NullLiteral,158,158)</text>
</g>
<!-- 1464555023&#45;&gt;195381554 -->
<g id="edge41" class="edge">
<title>1464555023&#45;&gt;195381554</title>
<path fill="none" stroke="black" d="M6645.26,-287.7C6645.26,-279.98 6645.26,-270.71 6645.26,-262.11"/>
<polygon fill="black" stroke="black" points="6648.76,-262.1 6645.26,-252.1 6641.76,-262.1 6648.76,-262.1"/>
</g>
</g>
</svg>
