<?xml version="1.0" encoding="UTF-8" standalone="no"?>
<!DOCTYPE svg PUBLIC "-//W3C//DTD SVG 1.1//EN"
 "http://www.w3.org/Graphics/SVG/1.1/DTD/svg11.dtd">
<!-- Generated by graphviz version 2.50.0 (20211204.2007)
 -->
<!-- Title: DirectedGraph Pages: 1 -->
<svg width="2800pt" height="357pt"
 viewBox="0.00 0.00 2799.75 356.80" xmlns="http://www.w3.org/2000/svg" xmlns:xlink="http://www.w3.org/1999/xlink">
<g id="graph0" class="graph" transform="scale(1 1) rotate(0) translate(4 352.8)">
<title>DirectedGraph</title>
<polygon fill="white" stroke="transparent" points="-4,4 -4,-352.8 2795.75,-352.8 2795.75,4 -4,4"/>
<text text-anchor="middle" x="1395.88" y="-332.2" font-family="Times,serif" font-size="14.00">addArg</text>
<!-- 330739404 -->
<g id="node1" class="node">
<title>330739404</title>
<ellipse fill="none" stroke="black" cx="1473.98" cy="-306" rx="755.27" ry="18"/>
<text text-anchor="middle" x="1473.98" y="-301.8" font-family="Times,serif" font-size="14.00">(/** &#160;* Add left&#45;over unrecognized option/argument. * @param arg the unrecognized option/argument. */ protected void addArg(final String arg){ &#160;args.add(arg); } ,MethodDeclaration,93,100)</text>
</g>
<!-- 361398902 -->
<g id="node2" class="node">
<title>361398902</title>
<ellipse fill="none" stroke="black" cx="481.98" cy="-234" rx="481.96" ry="18"/>
<text text-anchor="middle" x="481.98" y="-229.8" font-family="Times,serif" font-size="14.00">(/** &#160;* Add left&#45;over unrecognized option/argument. * @param arg the unrecognized option/argument. */ ,Javadoc,93,97)</text>
</g>
<!-- 330739404&#45;&gt;361398902 -->
<g id="edge1" class="edge">
<title>330739404&#45;&gt;361398902</title>
<path fill="none" stroke="black" d="M1244.84,-288.83C1082.99,-277.41 867.17,-262.18 706.39,-250.84"/>
<polygon fill="black" stroke="black" points="706.59,-247.34 696.37,-250.13 706.1,-254.32 706.59,-247.34"/>
</g>
<!-- 1010670443 -->
<g id="node3" class="node">
<title>1010670443</title>
<ellipse fill="none" stroke="black" cx="1095.98" cy="-234" rx="114.06" ry="18"/>
<text text-anchor="middle" x="1095.98" y="-229.8" font-family="Times,serif" font-size="14.00">(protected,Modifier,98,98)</text>
</g>
<!-- 330739404&#45;&gt;1010670443 -->
<g id="edge2" class="edge">
<title>330739404&#45;&gt;1010670443</title>
<path fill="none" stroke="black" d="M1382.47,-288.05C1319.76,-276.44 1237.33,-261.18 1176.99,-250"/>
<polygon fill="black" stroke="black" points="1177.6,-246.55 1167.13,-248.18 1176.32,-253.44 1177.6,-246.55"/>
</g>
<!-- 2044215423 -->
<g id="node4" class="node">
<title>2044215423</title>
<ellipse fill="none" stroke="black" cx="1344.98" cy="-234" rx="116.96" ry="18"/>
<text text-anchor="middle" x="1344.98" y="-229.8" font-family="Times,serif" font-size="14.00">(void,PrimitiveType,98,98)</text>
</g>
<!-- 330739404&#45;&gt;2044215423 -->
<g id="edge3" class="edge">
<title>330739404&#45;&gt;2044215423</title>
<path fill="none" stroke="black" d="M1442.42,-287.88C1424.86,-278.35 1402.84,-266.4 1384.18,-256.27"/>
<polygon fill="black" stroke="black" points="1385.78,-253.16 1375.32,-251.47 1382.44,-259.31 1385.78,-253.16"/>
</g>
<!-- 1606304070 -->
<g id="node5" class="node">
<title>1606304070</title>
<ellipse fill="none" stroke="black" cx="1602.98" cy="-234" rx="123.31" ry="18"/>
<text text-anchor="middle" x="1602.98" y="-229.8" font-family="Times,serif" font-size="14.00">(addArg,SimpleName,98,98)</text>
</g>
<!-- 330739404&#45;&gt;1606304070 -->
<g id="edge4" class="edge">
<title>330739404&#45;&gt;1606304070</title>
<path fill="none" stroke="black" d="M1505.53,-287.88C1523.1,-278.35 1545.12,-266.4 1563.78,-256.27"/>
<polygon fill="black" stroke="black" points="1565.51,-259.31 1572.63,-251.47 1562.18,-253.16 1565.51,-259.31"/>
</g>
<!-- 510063093 -->
<g id="node6" class="node">
<title>510063093</title>
<ellipse fill="none" stroke="black" cx="1949.98" cy="-234" rx="205.41" ry="18"/>
<text text-anchor="middle" x="1949.98" y="-229.8" font-family="Times,serif" font-size="14.00">(final String arg,SingleVariableDeclaration,98,98)</text>
</g>
<!-- 330739404&#45;&gt;510063093 -->
<g id="edge5" class="edge">
<title>330739404&#45;&gt;510063093</title>
<path fill="none" stroke="black" d="M1588.29,-288.19C1664.5,-276.98 1764.15,-262.33 1839.54,-251.24"/>
<polygon fill="black" stroke="black" points="1840.16,-254.69 1849.55,-249.77 1839.14,-247.76 1840.16,-254.69"/>
</g>
<!-- 961409111 -->
<g id="node11" class="node">
<title>961409111</title>
<ellipse fill="none" stroke="black" cx="2406.98" cy="-234" rx="144.98" ry="18"/>
<text text-anchor="middle" x="2406.98" y="-229.8" font-family="Times,serif" font-size="14.00">({ &#160;args.add(arg); } ,Block,98,100)</text>
</g>
<!-- 330739404&#45;&gt;961409111 -->
<g id="edge10" class="edge">
<title>330739404&#45;&gt;961409111</title>
<path fill="none" stroke="black" d="M1690.67,-288.74C1871.96,-275.14 2124.66,-256.18 2276.4,-244.8"/>
<polygon fill="black" stroke="black" points="2276.98,-248.26 2286.69,-244.02 2276.46,-241.28 2276.98,-248.26"/>
</g>
<!-- 1313916817 -->
<g id="node7" class="node">
<title>1313916817</title>
<ellipse fill="none" stroke="black" cx="1675.98" cy="-162" rx="96.1" ry="18"/>
<text text-anchor="middle" x="1675.98" y="-157.8" font-family="Times,serif" font-size="14.00">(final,Modifier,98,98)</text>
</g>
<!-- 510063093&#45;&gt;1313916817 -->
<g id="edge6" class="edge">
<title>510063093&#45;&gt;1313916817</title>
<path fill="none" stroke="black" d="M1886.77,-216.85C1842.84,-205.63 1784.48,-190.72 1740.3,-179.43"/>
<polygon fill="black" stroke="black" points="1741.09,-176.02 1730.53,-176.94 1739.36,-182.8 1741.09,-176.02"/>
</g>
<!-- 1966124444 -->
<g id="node8" class="node">
<title>1966124444</title>
<ellipse fill="none" stroke="black" cx="1904.98" cy="-162" rx="114.68" ry="18"/>
<text text-anchor="middle" x="1904.98" y="-157.8" font-family="Times,serif" font-size="14.00">(String,SimpleType,98,98)</text>
</g>
<!-- 510063093&#45;&gt;1966124444 -->
<g id="edge7" class="edge">
<title>510063093&#45;&gt;1966124444</title>
<path fill="none" stroke="black" d="M1938.85,-215.7C1933.62,-207.56 1927.28,-197.69 1921.5,-188.7"/>
<polygon fill="black" stroke="black" points="1924.32,-186.62 1915.97,-180.1 1918.44,-190.41 1924.32,-186.62"/>
</g>
<!-- 1911152052 -->
<g id="node10" class="node">
<title>1911152052</title>
<ellipse fill="none" stroke="black" cx="2144.98" cy="-162" rx="106.55" ry="18"/>
<text text-anchor="middle" x="2144.98" y="-157.8" font-family="Times,serif" font-size="14.00">(arg,SimpleName,98,98)</text>
</g>
<!-- 510063093&#45;&gt;1911152052 -->
<g id="edge9" class="edge">
<title>510063093&#45;&gt;1911152052</title>
<path fill="none" stroke="black" d="M1996.19,-216.41C2025.05,-206.05 2062.3,-192.68 2092.3,-181.91"/>
<polygon fill="black" stroke="black" points="2093.54,-185.18 2101.77,-178.51 2091.17,-178.6 2093.54,-185.18"/>
</g>
<!-- 1487500813 -->
<g id="node9" class="node">
<title>1487500813</title>
<ellipse fill="none" stroke="black" cx="1904.98" cy="-90" rx="118.11" ry="18"/>
<text text-anchor="middle" x="1904.98" y="-85.8" font-family="Times,serif" font-size="14.00">(String,SimpleName,98,98)</text>
</g>
<!-- 1966124444&#45;&gt;1487500813 -->
<g id="edge8" class="edge">
<title>1966124444&#45;&gt;1487500813</title>
<path fill="none" stroke="black" d="M1904.98,-143.7C1904.98,-135.98 1904.98,-126.71 1904.98,-118.11"/>
<polygon fill="black" stroke="black" points="1908.48,-118.1 1904.98,-108.1 1901.48,-118.1 1908.48,-118.1"/>
</g>
<!-- 1231156911 -->
<g id="node12" class="node">
<title>1231156911</title>
<ellipse fill="none" stroke="black" cx="2451.98" cy="-162" rx="181.73" ry="18"/>
<text text-anchor="middle" x="2451.98" y="-157.8" font-family="Times,serif" font-size="14.00">(args.add(arg); ,ExpressionStatement,99,99)</text>
</g>
<!-- 961409111&#45;&gt;1231156911 -->
<g id="edge11" class="edge">
<title>961409111&#45;&gt;1231156911</title>
<path fill="none" stroke="black" d="M2418.1,-215.7C2423.33,-207.56 2429.68,-197.69 2435.46,-188.7"/>
<polygon fill="black" stroke="black" points="2438.52,-190.41 2440.98,-180.1 2432.63,-186.62 2438.52,-190.41"/>
</g>
<!-- 1525409936 -->
<g id="node13" class="node">
<title>1525409936</title>
<ellipse fill="none" stroke="black" cx="2451.98" cy="-90" rx="166.64" ry="18"/>
<text text-anchor="middle" x="2451.98" y="-85.8" font-family="Times,serif" font-size="14.00">(args.add(arg),MethodInvocation,99,99)</text>
</g>
<!-- 1231156911&#45;&gt;1525409936 -->
<g id="edge12" class="edge">
<title>1231156911&#45;&gt;1525409936</title>
<path fill="none" stroke="black" d="M2451.98,-143.7C2451.98,-135.98 2451.98,-126.71 2451.98,-118.11"/>
<polygon fill="black" stroke="black" points="2455.48,-118.1 2451.98,-108.1 2448.48,-118.1 2455.48,-118.1"/>
</g>
<!-- 1708169732 -->
<g id="node14" class="node">
<title>1708169732</title>
<ellipse fill="none" stroke="black" cx="2214.98" cy="-18" rx="110.57" ry="18"/>
<text text-anchor="middle" x="2214.98" y="-13.8" font-family="Times,serif" font-size="14.00">(args,SimpleName,99,99)</text>
</g>
<!-- 1525409936&#45;&gt;1708169732 -->
<g id="edge13" class="edge">
<title>1525409936&#45;&gt;1708169732</title>
<path fill="none" stroke="black" d="M2397.61,-72.94C2361.22,-62.2 2313.3,-48.04 2275.68,-36.93"/>
<polygon fill="black" stroke="black" points="2276.44,-33.5 2265.85,-34.03 2274.45,-40.22 2276.44,-33.5"/>
</g>
<!-- 868815265 -->
<g id="node15" class="node">
<title>868815265</title>
<ellipse fill="none" stroke="black" cx="2451.98" cy="-18" rx="108.28" ry="18"/>
<text text-anchor="middle" x="2451.98" y="-13.8" font-family="Times,serif" font-size="14.00">(add,SimpleName,99,99)</text>
</g>
<!-- 1525409936&#45;&gt;868815265 -->
<g id="edge14" class="edge">
<title>1525409936&#45;&gt;868815265</title>
<path fill="none" stroke="black" d="M2451.98,-71.7C2451.98,-63.98 2451.98,-54.71 2451.98,-46.11"/>
<polygon fill="black" stroke="black" points="2455.48,-46.1 2451.98,-36.1 2448.48,-46.1 2455.48,-46.1"/>
</g>
<!-- 1977310713 -->
<g id="node16" class="node">
<title>1977310713</title>
<ellipse fill="none" stroke="black" cx="2684.98" cy="-18" rx="106.55" ry="18"/>
<text text-anchor="middle" x="2684.98" y="-13.8" font-family="Times,serif" font-size="14.00">(arg,SimpleName,99,99)</text>
</g>
<!-- 1525409936&#45;&gt;1977310713 -->
<g id="edge15" class="edge">
<title>1525409936&#45;&gt;1977310713</title>
<path fill="none" stroke="black" d="M2505.43,-72.94C2541.2,-62.2 2588.31,-48.04 2625.3,-36.93"/>
<polygon fill="black" stroke="black" points="2626.39,-40.26 2634.96,-34.03 2624.38,-33.55 2626.39,-40.26"/>
</g>
</g>
</svg>
