<?xml version="1.0" encoding="UTF-8" standalone="no"?>
<!DOCTYPE svg PUBLIC "-//W3C//DTD SVG 1.1//EN"
 "http://www.w3.org/Graphics/SVG/1.1/DTD/svg11.dtd">
<!-- Generated by graphviz version 2.50.0 (20211204.2007)
 -->
<!-- Title: DirectedGraph Pages: 1 -->
<svg width="1159pt" height="285pt"
 viewBox="0.00 0.00 1158.76 284.80" xmlns="http://www.w3.org/2000/svg" xmlns:xlink="http://www.w3.org/1999/xlink">
<g id="graph0" class="graph" transform="scale(1 1) rotate(0) translate(4 280.8)">
<title>DirectedGraph</title>
<polygon fill="white" stroke="transparent" points="-4,4 -4,-280.8 1154.76,-280.8 1154.76,4 -4,4"/>
<text text-anchor="middle" x="575.38" y="-260.2" font-family="Times,serif" font-size="14.00">build</text>
<!-- 1484673893 -->
<g id="node1" class="node">
<title>1484673893</title>
<ellipse fill="none" stroke="black" cx="512.49" cy="-234" rx="335.3" ry="18"/>
<text text-anchor="middle" x="512.49" y="-229.8" font-family="Times,serif" font-size="14.00">(public CommandLine build(){ &#160;return commandLine; } ,MethodDeclaration,72,74)</text>
</g>
<!-- 587003819 -->
<g id="node2" class="node">
<title>587003819</title>
<ellipse fill="none" stroke="black" cx="102.49" cy="-162" rx="102.48" ry="18"/>
<text text-anchor="middle" x="102.49" y="-157.8" font-family="Times,serif" font-size="14.00">(public,Modifier,72,72)</text>
</g>
<!-- 1484673893&#45;&gt;587003819 -->
<g id="edge1" class="edge">
<title>1484673893&#45;&gt;587003819</title>
<path fill="none" stroke="black" d="M417.14,-216.72C346.25,-204.62 250.58,-188.28 183.4,-176.81"/>
<polygon fill="black" stroke="black" points="183.74,-173.32 173.29,-175.09 182.56,-180.22 183.74,-173.32"/>
</g>
<!-- 769798433 -->
<g id="node3" class="node">
<title>769798433</title>
<ellipse fill="none" stroke="black" cx="372.49" cy="-162" rx="149.32" ry="18"/>
<text text-anchor="middle" x="372.49" y="-157.8" font-family="Times,serif" font-size="14.00">(CommandLine,SimpleType,72,72)</text>
</g>
<!-- 1484673893&#45;&gt;769798433 -->
<g id="edge2" class="edge">
<title>1484673893&#45;&gt;769798433</title>
<path fill="none" stroke="black" d="M478.6,-216.05C459.51,-206.51 435.49,-194.5 415.13,-184.32"/>
<polygon fill="black" stroke="black" points="416.58,-181.13 406.07,-179.79 413.45,-187.39 416.58,-181.13"/>
</g>
<!-- 1233705144 -->
<g id="node5" class="node">
<title>1233705144</title>
<ellipse fill="none" stroke="black" cx="653.49" cy="-162" rx="114.09" ry="18"/>
<text text-anchor="middle" x="653.49" y="-157.8" font-family="Times,serif" font-size="14.00">(build,SimpleName,72,72)</text>
</g>
<!-- 1484673893&#45;&gt;1233705144 -->
<g id="edge4" class="edge">
<title>1484673893&#45;&gt;1233705144</title>
<path fill="none" stroke="black" d="M546.62,-216.05C566.13,-206.37 590.75,-194.15 611.44,-183.87"/>
<polygon fill="black" stroke="black" points="613.24,-186.89 620.64,-179.31 610.13,-180.62 613.24,-186.89"/>
</g>
<!-- 202125197 -->
<g id="node6" class="node">
<title>202125197</title>
<ellipse fill="none" stroke="black" cx="955.49" cy="-162" rx="169.9" ry="18"/>
<text text-anchor="middle" x="955.49" y="-157.8" font-family="Times,serif" font-size="14.00">({ &#160;return commandLine; } ,Block,72,74)</text>
</g>
<!-- 1484673893&#45;&gt;202125197 -->
<g id="edge5" class="edge">
<title>1484673893&#45;&gt;202125197</title>
<path fill="none" stroke="black" d="M614.68,-216.85C686.92,-205.44 783.29,-190.21 855.12,-178.86"/>
<polygon fill="black" stroke="black" points="855.75,-182.3 865.08,-177.29 854.66,-175.39 855.75,-182.3"/>
</g>
<!-- 1665620686 -->
<g id="node4" class="node">
<title>1665620686</title>
<ellipse fill="none" stroke="black" cx="372.49" cy="-90" rx="152.26" ry="18"/>
<text text-anchor="middle" x="372.49" y="-85.8" font-family="Times,serif" font-size="14.00">(CommandLine,SimpleName,72,72)</text>
</g>
<!-- 769798433&#45;&gt;1665620686 -->
<g id="edge3" class="edge">
<title>769798433&#45;&gt;1665620686</title>
<path fill="none" stroke="black" d="M372.49,-143.7C372.49,-135.98 372.49,-126.71 372.49,-118.11"/>
<polygon fill="black" stroke="black" points="375.99,-118.1 372.49,-108.1 368.99,-118.1 375.99,-118.1"/>
</g>
<!-- 811301908 -->
<g id="node7" class="node">
<title>811301908</title>
<ellipse fill="none" stroke="black" cx="955.49" cy="-90" rx="195.05" ry="18"/>
<text text-anchor="middle" x="955.49" y="-85.8" font-family="Times,serif" font-size="14.00">(return commandLine; ,ReturnStatement,73,73)</text>
</g>
<!-- 202125197&#45;&gt;811301908 -->
<g id="edge6" class="edge">
<title>202125197&#45;&gt;811301908</title>
<path fill="none" stroke="black" d="M955.49,-143.7C955.49,-135.98 955.49,-126.71 955.49,-118.11"/>
<polygon fill="black" stroke="black" points="958.99,-118.1 955.49,-108.1 951.99,-118.1 958.99,-118.1"/>
</g>
<!-- 1762902523 -->
<g id="node8" class="node">
<title>1762902523</title>
<ellipse fill="none" stroke="black" cx="955.49" cy="-18" rx="150.45" ry="18"/>
<text text-anchor="middle" x="955.49" y="-13.8" font-family="Times,serif" font-size="14.00">(commandLine,SimpleName,73,73)</text>
</g>
<!-- 811301908&#45;&gt;1762902523 -->
<g id="edge7" class="edge">
<title>811301908&#45;&gt;1762902523</title>
<path fill="none" stroke="black" d="M955.49,-71.7C955.49,-63.98 955.49,-54.71 955.49,-46.11"/>
<polygon fill="black" stroke="black" points="958.99,-46.1 955.49,-36.1 951.99,-46.1 958.99,-46.1"/>
</g>
</g>
</svg>
