<?xml version="1.0" encoding="UTF-8" standalone="no"?>
<!DOCTYPE svg PUBLIC "-//W3C//DTD SVG 1.1//EN"
 "http://www.w3.org/Graphics/SVG/1.1/DTD/svg11.dtd">
<!-- Generated by graphviz version 2.50.0 (20211204.2007)
 -->
<!-- Title: DirectedGraph Pages: 1 -->
<svg width="5326pt" height="429pt"
 viewBox="0.00 0.00 5326.13 428.80" xmlns="http://www.w3.org/2000/svg" xmlns:xlink="http://www.w3.org/1999/xlink">
<g id="graph0" class="graph" transform="scale(1 1) rotate(0) translate(4 424.8)">
<title>DirectedGraph</title>
<polygon fill="white" stroke="transparent" points="-4,4 -4,-424.8 5322.13,-424.8 5322.13,4 -4,4"/>
<text text-anchor="middle" x="2659.07" y="-404.2" font-family="Times,serif" font-size="14.00">getOptionValue</text>
<!-- 838473569 -->
<g id="node1" class="node">
<title>838473569</title>
<ellipse fill="none" stroke="black" cx="3071.16" cy="-378" rx="1751.86" ry="18"/>
<text text-anchor="middle" x="3071.16" y="-373.8" font-family="Times,serif" font-size="14.00">(/** &#160;* Retrieve the first argument, if any, of an option. * @param opt name of the option. * @param defaultValue is the default value to be returned if the option is not specified. * @return Value of the argument if option is set, and has an argument, otherwise {@code defaultValue}. */ public String getOptionValue(final String opt,final String defaultValue){ &#160;return getOptionValue(resolveOption(opt),defaultValue); } ,MethodDeclaration,294,303)</text>
</g>
<!-- 9797126 -->
<g id="node2" class="node">
<title>9797126</title>
<ellipse fill="none" stroke="black" cx="1189.16" cy="-306" rx="1189.32" ry="18"/>
<text text-anchor="middle" x="1189.16" y="-301.8" font-family="Times,serif" font-size="14.00">(/** &#160;* Retrieve the first argument, if any, of an option. * @param opt name of the option. * @param defaultValue is the default value to be returned if the option is not specified. * @return Value of the argument if option is set, and has an argument, otherwise {@code defaultValue}. */ ,Javadoc,294,300)</text>
</g>
<!-- 838473569&#45;&gt;9797126 -->
<g id="edge1" class="edge">
<title>838473569&#45;&gt;9797126</title>
<path fill="none" stroke="black" d="M2629.62,-360.58C2326.67,-349.31 1926.47,-334.42 1624.8,-323.2"/>
<polygon fill="black" stroke="black" points="1624.68,-319.7 1614.56,-322.82 1624.42,-326.69 1624.68,-319.7"/>
</g>
<!-- 844112759 -->
<g id="node3" class="node">
<title>844112759</title>
<ellipse fill="none" stroke="black" cx="2508.16" cy="-306" rx="112.29" ry="18"/>
<text text-anchor="middle" x="2508.16" y="-301.8" font-family="Times,serif" font-size="14.00">(public,Modifier,301,301)</text>
</g>
<!-- 838473569&#45;&gt;844112759 -->
<g id="edge2" class="edge">
<title>838473569&#45;&gt;844112759</title>
<path fill="none" stroke="black" d="M2924.32,-360.05C2838.51,-349.98 2728.14,-336.71 2630.16,-324 2620.12,-322.7 2609.61,-321.29 2599.16,-319.87"/>
<polygon fill="black" stroke="black" points="2599.56,-316.39 2589.18,-318.51 2598.61,-323.33 2599.56,-316.39"/>
</g>
<!-- 739973450 -->
<g id="node4" class="node">
<title>739973450</title>
<ellipse fill="none" stroke="black" cx="2763.16" cy="-306" rx="124.49" ry="18"/>
<text text-anchor="middle" x="2763.16" y="-301.8" font-family="Times,serif" font-size="14.00">(String,SimpleType,301,301)</text>
</g>
<!-- 838473569&#45;&gt;739973450 -->
<g id="edge3" class="edge">
<title>838473569&#45;&gt;739973450</title>
<path fill="none" stroke="black" d="M2996.21,-359.97C2947.83,-348.97 2885.18,-334.73 2837.02,-323.79"/>
<polygon fill="black" stroke="black" points="2837.5,-320.31 2826.97,-321.5 2835.95,-327.13 2837.5,-320.31"/>
</g>
<!-- 1727361096 -->
<g id="node6" class="node">
<title>1727361096</title>
<ellipse fill="none" stroke="black" cx="3071.16" cy="-306" rx="165.57" ry="18"/>
<text text-anchor="middle" x="3071.16" y="-301.8" font-family="Times,serif" font-size="14.00">(getOptionValue,SimpleName,301,301)</text>
</g>
<!-- 838473569&#45;&gt;1727361096 -->
<g id="edge5" class="edge">
<title>838473569&#45;&gt;1727361096</title>
<path fill="none" stroke="black" d="M3071.16,-359.7C3071.16,-351.98 3071.16,-342.71 3071.16,-334.11"/>
<polygon fill="black" stroke="black" points="3074.66,-334.1 3071.16,-324.1 3067.66,-334.1 3074.66,-334.1"/>
</g>
<!-- 1426963578 -->
<g id="node7" class="node">
<title>1426963578</title>
<ellipse fill="none" stroke="black" cx="3470.16" cy="-306" rx="215.24" ry="18"/>
<text text-anchor="middle" x="3470.16" y="-301.8" font-family="Times,serif" font-size="14.00">(final String opt,SingleVariableDeclaration,301,301)</text>
</g>
<!-- 838473569&#45;&gt;1426963578 -->
<g id="edge6" class="edge">
<title>838473569&#45;&gt;1426963578</title>
<path fill="none" stroke="black" d="M3168,-360.01C3229.83,-349.16 3309.75,-335.14 3371.87,-324.24"/>
<polygon fill="black" stroke="black" points="3372.82,-327.63 3382.07,-322.45 3371.61,-320.74 3372.82,-327.63"/>
</g>
<!-- 599984672 -->
<g id="node12" class="node">
<title>599984672</title>
<ellipse fill="none" stroke="black" cx="3970.16" cy="-306" rx="252.8" ry="18"/>
<text text-anchor="middle" x="3970.16" y="-301.8" font-family="Times,serif" font-size="14.00">(final String defaultValue,SingleVariableDeclaration,301,301)</text>
</g>
<!-- 838473569&#45;&gt;599984672 -->
<g id="edge11" class="edge">
<title>838473569&#45;&gt;599984672</title>
<path fill="none" stroke="black" d="M3287.92,-360.12C3443.82,-347.98 3651.3,-331.83 3796.36,-320.53"/>
<polygon fill="black" stroke="black" points="3797,-323.99 3806.7,-319.73 3796.46,-317.01 3797,-323.99"/>
</g>
<!-- 1744189907 -->
<g id="node17" class="node">
<title>1744189907</title>
<ellipse fill="none" stroke="black" cx="4676.16" cy="-306" rx="317.92" ry="18"/>
<text text-anchor="middle" x="4676.16" y="-301.8" font-family="Times,serif" font-size="14.00">({ &#160;return getOptionValue(resolveOption(opt),defaultValue); } ,Block,301,303)</text>
</g>
<!-- 838473569&#45;&gt;1744189907 -->
<g id="edge16" class="edge">
<title>838473569&#45;&gt;1744189907</title>
<path fill="none" stroke="black" d="M3451.27,-360.42C3751.45,-347.33 4161.92,-329.43 4423.08,-318.04"/>
<polygon fill="black" stroke="black" points="4423.24,-321.53 4433.08,-317.6 4422.94,-314.54 4423.24,-321.53"/>
</g>
<!-- 1304117943 -->
<g id="node5" class="node">
<title>1304117943</title>
<ellipse fill="none" stroke="black" cx="2737.16" cy="-234" rx="127.92" ry="18"/>
<text text-anchor="middle" x="2737.16" y="-229.8" font-family="Times,serif" font-size="14.00">(String,SimpleName,301,301)</text>
</g>
<!-- 739973450&#45;&gt;1304117943 -->
<g id="edge4" class="edge">
<title>739973450&#45;&gt;1304117943</title>
<path fill="none" stroke="black" d="M2756.73,-287.7C2753.81,-279.81 2750.27,-270.3 2747.02,-261.55"/>
<polygon fill="black" stroke="black" points="2750.28,-260.26 2743.51,-252.1 2743.71,-262.7 2750.28,-260.26"/>
</g>
<!-- 556281560 -->
<g id="node8" class="node">
<title>556281560</title>
<ellipse fill="none" stroke="black" cx="2988.16" cy="-234" rx="105.91" ry="18"/>
<text text-anchor="middle" x="2988.16" y="-229.8" font-family="Times,serif" font-size="14.00">(final,Modifier,301,301)</text>
</g>
<!-- 1426963578&#45;&gt;556281560 -->
<g id="edge7" class="edge">
<title>1426963578&#45;&gt;556281560</title>
<path fill="none" stroke="black" d="M3366.93,-290.19C3293.38,-279.61 3192.18,-265.01 3103.16,-252 3094.14,-250.68 3084.72,-249.3 3075.33,-247.92"/>
<polygon fill="black" stroke="black" points="3075.57,-244.42 3065.17,-246.42 3074.55,-251.34 3075.57,-244.42"/>
</g>
<!-- 915500720 -->
<g id="node9" class="node">
<title>915500720</title>
<ellipse fill="none" stroke="black" cx="3236.16" cy="-234" rx="124.49" ry="18"/>
<text text-anchor="middle" x="3236.16" y="-229.8" font-family="Times,serif" font-size="14.00">(String,SimpleType,301,301)</text>
</g>
<!-- 1426963578&#45;&gt;915500720 -->
<g id="edge8" class="edge">
<title>1426963578&#45;&gt;915500720</title>
<path fill="none" stroke="black" d="M3415.3,-288.59C3380.11,-278.06 3334.35,-264.37 3297.89,-253.47"/>
<polygon fill="black" stroke="black" points="3298.45,-249.98 3287.87,-250.47 3296.45,-256.69 3298.45,-249.98"/>
</g>
<!-- 1132307065 -->
<g id="node11" class="node">
<title>1132307065</title>
<ellipse fill="none" stroke="black" cx="3495.16" cy="-234" rx="116.38" ry="18"/>
<text text-anchor="middle" x="3495.16" y="-229.8" font-family="Times,serif" font-size="14.00">(opt,SimpleName,301,301)</text>
</g>
<!-- 1426963578&#45;&gt;1132307065 -->
<g id="edge10" class="edge">
<title>1426963578&#45;&gt;1132307065</title>
<path fill="none" stroke="black" d="M3476.34,-287.7C3479.16,-279.81 3482.55,-270.3 3485.68,-261.55"/>
<polygon fill="black" stroke="black" points="3488.98,-262.7 3489.05,-252.1 3482.39,-260.34 3488.98,-262.7"/>
</g>
<!-- 2074820378 -->
<g id="node10" class="node">
<title>2074820378</title>
<ellipse fill="none" stroke="black" cx="3236.16" cy="-162" rx="127.92" ry="18"/>
<text text-anchor="middle" x="3236.16" y="-157.8" font-family="Times,serif" font-size="14.00">(String,SimpleName,301,301)</text>
</g>
<!-- 915500720&#45;&gt;2074820378 -->
<g id="edge9" class="edge">
<title>915500720&#45;&gt;2074820378</title>
<path fill="none" stroke="black" d="M3236.16,-215.7C3236.16,-207.98 3236.16,-198.71 3236.16,-190.11"/>
<polygon fill="black" stroke="black" points="3239.66,-190.1 3236.16,-180.1 3232.66,-190.1 3239.66,-190.1"/>
</g>
<!-- 505021446 -->
<g id="node13" class="node">
<title>505021446</title>
<ellipse fill="none" stroke="black" cx="3735.16" cy="-234" rx="105.91" ry="18"/>
<text text-anchor="middle" x="3735.16" y="-229.8" font-family="Times,serif" font-size="14.00">(final,Modifier,301,301)</text>
</g>
<!-- 599984672&#45;&gt;505021446 -->
<g id="edge12" class="edge">
<title>599984672&#45;&gt;505021446</title>
<path fill="none" stroke="black" d="M3914.47,-288.41C3878.46,-277.69 3831.63,-263.73 3794.85,-252.78"/>
<polygon fill="black" stroke="black" points="3795.83,-249.42 3785.25,-249.92 3793.84,-256.13 3795.83,-249.42"/>
</g>
<!-- 1022081840 -->
<g id="node14" class="node">
<title>1022081840</title>
<ellipse fill="none" stroke="black" cx="3983.16" cy="-234" rx="124.49" ry="18"/>
<text text-anchor="middle" x="3983.16" y="-229.8" font-family="Times,serif" font-size="14.00">(String,SimpleType,301,301)</text>
</g>
<!-- 599984672&#45;&gt;1022081840 -->
<g id="edge13" class="edge">
<title>599984672&#45;&gt;1022081840</title>
<path fill="none" stroke="black" d="M3973.37,-287.7C3974.81,-279.98 3976.53,-270.71 3978.13,-262.11"/>
<polygon fill="black" stroke="black" points="3981.6,-262.58 3979.98,-252.1 3974.72,-261.3 3981.6,-262.58"/>
</g>
<!-- 688005825 -->
<g id="node16" class="node">
<title>688005825</title>
<ellipse fill="none" stroke="black" cx="4279.16" cy="-234" rx="153.94" ry="18"/>
<text text-anchor="middle" x="4279.16" y="-229.8" font-family="Times,serif" font-size="14.00">(defaultValue,SimpleName,301,301)</text>
</g>
<!-- 599984672&#45;&gt;688005825 -->
<g id="edge15" class="edge">
<title>599984672&#45;&gt;688005825</title>
<path fill="none" stroke="black" d="M4042.22,-288.68C4090.18,-277.81 4153.14,-263.55 4202.11,-252.46"/>
<polygon fill="black" stroke="black" points="4203.04,-255.83 4212.02,-250.21 4201.49,-249.01 4203.04,-255.83"/>
</g>
<!-- 313239742 -->
<g id="node15" class="node">
<title>313239742</title>
<ellipse fill="none" stroke="black" cx="3983.16" cy="-162" rx="127.92" ry="18"/>
<text text-anchor="middle" x="3983.16" y="-157.8" font-family="Times,serif" font-size="14.00">(String,SimpleName,301,301)</text>
</g>
<!-- 1022081840&#45;&gt;313239742 -->
<g id="edge14" class="edge">
<title>1022081840&#45;&gt;313239742</title>
<path fill="none" stroke="black" d="M3983.16,-215.7C3983.16,-207.98 3983.16,-198.71 3983.16,-190.11"/>
<polygon fill="black" stroke="black" points="3986.66,-190.1 3983.16,-180.1 3979.66,-190.1 3986.66,-190.1"/>
</g>
<!-- 103103526 -->
<g id="node18" class="node">
<title>103103526</title>
<ellipse fill="none" stroke="black" cx="4794.16" cy="-234" rx="343.06" ry="18"/>
<text text-anchor="middle" x="4794.16" y="-229.8" font-family="Times,serif" font-size="14.00">(return getOptionValue(resolveOption(opt),defaultValue); ,ReturnStatement,302,302)</text>
</g>
<!-- 1744189907&#45;&gt;103103526 -->
<g id="edge17" class="edge">
<title>1744189907&#45;&gt;103103526</title>
<path fill="none" stroke="black" d="M4704.72,-288.05C4720.26,-278.84 4739.68,-267.32 4756.45,-257.37"/>
<polygon fill="black" stroke="black" points="4758.63,-260.14 4765.45,-252.03 4755.06,-254.12 4758.63,-260.14"/>
</g>
<!-- 1225038340 -->
<g id="node19" class="node">
<title>1225038340</title>
<ellipse fill="none" stroke="black" cx="4794.16" cy="-162" rx="318.8" ry="18"/>
<text text-anchor="middle" x="4794.16" y="-157.8" font-family="Times,serif" font-size="14.00">(getOptionValue(resolveOption(opt),defaultValue),MethodInvocation,302,302)</text>
</g>
<!-- 103103526&#45;&gt;1225038340 -->
<g id="edge18" class="edge">
<title>103103526&#45;&gt;1225038340</title>
<path fill="none" stroke="black" d="M4794.16,-215.7C4794.16,-207.98 4794.16,-198.71 4794.16,-190.11"/>
<polygon fill="black" stroke="black" points="4797.66,-190.1 4794.16,-180.1 4790.66,-190.1 4797.66,-190.1"/>
</g>
<!-- 1906879951 -->
<g id="node20" class="node">
<title>1906879951</title>
<ellipse fill="none" stroke="black" cx="4412.16" cy="-90" rx="165.57" ry="18"/>
<text text-anchor="middle" x="4412.16" y="-85.8" font-family="Times,serif" font-size="14.00">(getOptionValue,SimpleName,302,302)</text>
</g>
<!-- 1225038340&#45;&gt;1906879951 -->
<g id="edge19" class="edge">
<title>1225038340&#45;&gt;1906879951</title>
<path fill="none" stroke="black" d="M4705.08,-144.68C4644.31,-133.54 4564.07,-118.84 4502.94,-107.63"/>
<polygon fill="black" stroke="black" points="4503.38,-104.16 4492.91,-105.8 4502.12,-111.04 4503.38,-104.16"/>
</g>
<!-- 658909832 -->
<g id="node21" class="node">
<title>658909832</title>
<ellipse fill="none" stroke="black" cx="4794.16" cy="-90" rx="198.51" ry="18"/>
<text text-anchor="middle" x="4794.16" y="-85.8" font-family="Times,serif" font-size="14.00">(resolveOption(opt),MethodInvocation,302,302)</text>
</g>
<!-- 1225038340&#45;&gt;658909832 -->
<g id="edge20" class="edge">
<title>1225038340&#45;&gt;658909832</title>
<path fill="none" stroke="black" d="M4794.16,-143.7C4794.16,-135.98 4794.16,-126.71 4794.16,-118.11"/>
<polygon fill="black" stroke="black" points="4797.66,-118.1 4794.16,-108.1 4790.66,-118.1 4797.66,-118.1"/>
</g>
<!-- 1374066265 -->
<g id="node24" class="node">
<title>1374066265</title>
<ellipse fill="none" stroke="black" cx="5164.16" cy="-90" rx="153.94" ry="18"/>
<text text-anchor="middle" x="5164.16" y="-85.8" font-family="Times,serif" font-size="14.00">(defaultValue,SimpleName,302,302)</text>
</g>
<!-- 1225038340&#45;&gt;1374066265 -->
<g id="edge23" class="edge">
<title>1225038340&#45;&gt;1374066265</title>
<path fill="none" stroke="black" d="M4880.91,-144.59C4939.97,-133.41 5017.85,-118.68 5077,-107.49"/>
<polygon fill="black" stroke="black" points="5077.89,-110.88 5087.07,-105.59 5076.59,-104.01 5077.89,-110.88"/>
</g>
<!-- 137225802 -->
<g id="node22" class="node">
<title>137225802</title>
<ellipse fill="none" stroke="black" cx="4647.16" cy="-18" rx="158.63" ry="18"/>
<text text-anchor="middle" x="4647.16" y="-13.8" font-family="Times,serif" font-size="14.00">(resolveOption,SimpleName,302,302)</text>
</g>
<!-- 658909832&#45;&gt;137225802 -->
<g id="edge21" class="edge">
<title>658909832&#45;&gt;137225802</title>
<path fill="none" stroke="black" d="M4758.95,-72.23C4738.68,-62.58 4713.01,-50.36 4691.39,-40.06"/>
<polygon fill="black" stroke="black" points="4692.62,-36.77 4682.08,-35.63 4689.61,-43.09 4692.62,-36.77"/>
</g>
<!-- 1704237553 -->
<g id="node23" class="node">
<title>1704237553</title>
<ellipse fill="none" stroke="black" cx="4940.16" cy="-18" rx="116.38" ry="18"/>
<text text-anchor="middle" x="4940.16" y="-13.8" font-family="Times,serif" font-size="14.00">(opt,SimpleName,302,302)</text>
</g>
<!-- 658909832&#45;&gt;1704237553 -->
<g id="edge22" class="edge">
<title>658909832&#45;&gt;1704237553</title>
<path fill="none" stroke="black" d="M4829.13,-72.23C4849.49,-62.47 4875.32,-50.09 4896.94,-39.72"/>
<polygon fill="black" stroke="black" points="4898.73,-42.75 4906.23,-35.27 4895.7,-36.44 4898.73,-42.75"/>
</g>
</g>
</svg>
