<?xml version="1.0" encoding="UTF-8" standalone="no"?>
<!DOCTYPE svg PUBLIC "-//W3C//DTD SVG 1.1//EN"
 "http://www.w3.org/Graphics/SVG/1.1/DTD/svg11.dtd">
<!-- Generated by graphviz version 2.50.0 (20211204.2007)
 -->
<!-- Title: DirectedGraph Pages: 1 -->
<svg width="4680pt" height="573pt"
 viewBox="0.00 0.00 4679.80 572.80" xmlns="http://www.w3.org/2000/svg" xmlns:xlink="http://www.w3.org/1999/xlink">
<g id="graph0" class="graph" transform="scale(1 1) rotate(0) translate(4 568.8)">
<title>DirectedGraph</title>
<polygon fill="white" stroke="transparent" points="-4,4 -4,-568.8 4675.8,-568.8 4675.8,4 -4,4"/>
<text text-anchor="middle" x="2335.9" y="-548.2" font-family="Times,serif" font-size="14.00">getOptions</text>
<!-- 13803304 -->
<g id="node1" class="node">
<title>13803304</title>
<ellipse fill="none" stroke="black" cx="1430.74" cy="-522" rx="1264.18" ry="18"/>
<text text-anchor="middle" x="1430.74" y="-517.8" font-family="Times,serif" font-size="14.00">(/** &#160;* Gets an array of the processed {@link Option}s. * @return an array of the processed {@link Option}s. */ public Option[] getOptions(){ &#160;final Collection&lt;Option&gt; processed=options; &#160;final Option[] optionsArray=new Option[processed.size()]; &#160;return processed.toArray(optionsArray); } ,MethodDeclaration,220,233)</text>
</g>
<!-- 802243390 -->
<g id="node2" class="node">
<title>802243390</title>
<ellipse fill="none" stroke="black" cx="520.74" cy="-450" rx="520.98" ry="18"/>
<text text-anchor="middle" x="520.74" y="-445.8" font-family="Times,serif" font-size="14.00">(/** &#160;* Gets an array of the processed {@link Option}s. * @return an array of the processed {@link Option}s. */ ,Javadoc,220,224)</text>
</g>
<!-- 13803304&#45;&gt;802243390 -->
<g id="edge1" class="edge">
<title>13803304&#45;&gt;802243390</title>
<path fill="none" stroke="black" d="M1213.06,-504.26C1067.88,-493.09 877.93,-478.48 733.73,-467.38"/>
<polygon fill="black" stroke="black" points="733.67,-463.87 723.43,-466.59 733.13,-470.85 733.67,-463.87"/>
</g>
<!-- 702061917 -->
<g id="node3" class="node">
<title>702061917</title>
<ellipse fill="none" stroke="black" cx="1171.74" cy="-450" rx="112.29" ry="18"/>
<text text-anchor="middle" x="1171.74" y="-445.8" font-family="Times,serif" font-size="14.00">(public,Modifier,225,225)</text>
</g>
<!-- 13803304&#45;&gt;702061917 -->
<g id="edge2" class="edge">
<title>13803304&#45;&gt;702061917</title>
<path fill="none" stroke="black" d="M1367.71,-503.97C1327.74,-493.16 1276.16,-479.22 1235.96,-468.36"/>
<polygon fill="black" stroke="black" points="1236.83,-464.96 1226.26,-465.73 1235,-471.72 1236.83,-464.96"/>
</g>
<!-- 890545344 -->
<g id="node4" class="node">
<title>890545344</title>
<ellipse fill="none" stroke="black" cx="1430.74" cy="-450" rx="129.1" ry="18"/>
<text text-anchor="middle" x="1430.74" y="-445.8" font-family="Times,serif" font-size="14.00">(Option[],ArrayType,225,225)</text>
</g>
<!-- 13803304&#45;&gt;890545344 -->
<g id="edge3" class="edge">
<title>13803304&#45;&gt;890545344</title>
<path fill="none" stroke="black" d="M1430.74,-503.7C1430.74,-495.98 1430.74,-486.71 1430.74,-478.11"/>
<polygon fill="black" stroke="black" points="1434.24,-478.1 1430.74,-468.1 1427.24,-478.1 1434.24,-478.1"/>
</g>
<!-- 1771667101 -->
<g id="node7" class="node">
<title>1771667101</title>
<ellipse fill="none" stroke="black" cx="1724.74" cy="-450" rx="146.47" ry="18"/>
<text text-anchor="middle" x="1724.74" y="-445.8" font-family="Times,serif" font-size="14.00">(getOptions,SimpleName,225,225)</text>
</g>
<!-- 13803304&#45;&gt;1771667101 -->
<g id="edge6" class="edge">
<title>13803304&#45;&gt;1771667101</title>
<path fill="none" stroke="black" d="M1502.29,-503.97C1547.42,-493.22 1605.56,-479.38 1651.09,-468.54"/>
<polygon fill="black" stroke="black" points="1651.98,-471.92 1660.9,-466.2 1650.36,-465.11 1651.98,-471.92"/>
</g>
<!-- 2033968586 -->
<g id="node8" class="node">
<title>2033968586</title>
<ellipse fill="none" stroke="black" cx="2677.74" cy="-450" rx="665.16" ry="18"/>
<text text-anchor="middle" x="2677.74" y="-445.8" font-family="Times,serif" font-size="14.00">({ &#160;final Collection&lt;Option&gt; processed=options; &#160;final Option[] optionsArray=new Option[processed.size()]; &#160;return processed.toArray(optionsArray); } ,Block,225,233)</text>
</g>
<!-- 13803304&#45;&gt;2033968586 -->
<g id="edge7" class="edge">
<title>13803304&#45;&gt;2033968586</title>
<path fill="none" stroke="black" d="M1725.08,-504.48C1926.99,-493.14 2193.46,-478.18 2393.23,-466.97"/>
<polygon fill="black" stroke="black" points="2393.5,-470.46 2403.29,-466.41 2393.11,-463.47 2393.5,-470.46"/>
</g>
<!-- 556488341 -->
<g id="node5" class="node">
<title>556488341</title>
<ellipse fill="none" stroke="black" cx="1369.74" cy="-378" rx="127.92" ry="18"/>
<text text-anchor="middle" x="1369.74" y="-373.8" font-family="Times,serif" font-size="14.00">(Option,SimpleType,225,225)</text>
</g>
<!-- 890545344&#45;&gt;556488341 -->
<g id="edge4" class="edge">
<title>890545344&#45;&gt;556488341</title>
<path fill="none" stroke="black" d="M1415.98,-432.05C1408.59,-423.58 1399.52,-413.17 1391.37,-403.82"/>
<polygon fill="black" stroke="black" points="1394,-401.51 1384.8,-396.28 1388.73,-406.11 1394,-401.51"/>
</g>
<!-- 71706941 -->
<g id="node6" class="node">
<title>71706941</title>
<ellipse fill="none" stroke="black" cx="1292.74" cy="-306" rx="130.86" ry="18"/>
<text text-anchor="middle" x="1292.74" y="-301.8" font-family="Times,serif" font-size="14.00">(Option,SimpleName,225,225)</text>
</g>
<!-- 556488341&#45;&gt;71706941 -->
<g id="edge5" class="edge">
<title>556488341&#45;&gt;71706941</title>
<path fill="none" stroke="black" d="M1351.1,-360.05C1341.43,-351.26 1329.46,-340.38 1318.88,-330.76"/>
<polygon fill="black" stroke="black" points="1321.23,-328.17 1311.48,-324.03 1316.52,-333.35 1321.23,-328.17"/>
</g>
<!-- 48208774 -->
<g id="node9" class="node">
<title>48208774</title>
<ellipse fill="none" stroke="black" cx="1908.74" cy="-378" rx="348.23" ry="18"/>
<text text-anchor="middle" x="1908.74" y="-373.8" font-family="Times,serif" font-size="14.00">(final Collection&lt;Option&gt; processed=options; ,VariableDeclarationStatement,226,226)</text>
</g>
<!-- 2033968586&#45;&gt;48208774 -->
<g id="edge8" class="edge">
<title>2033968586&#45;&gt;48208774</title>
<path fill="none" stroke="black" d="M2497.93,-432.63C2372.6,-421.22 2206.32,-406.09 2082.37,-394.8"/>
<polygon fill="black" stroke="black" points="2082.67,-391.32 2072.39,-393.9 2082.03,-398.29 2082.67,-391.32"/>
</g>
<!-- 620557167 -->
<g id="node19" class="node">
<title>620557167</title>
<ellipse fill="none" stroke="black" cx="2834.74" cy="-378" rx="401.63" ry="18"/>
<text text-anchor="middle" x="2834.74" y="-373.8" font-family="Times,serif" font-size="14.00">(final Option[] optionsArray=new Option[processed.size()]; ,VariableDeclarationStatement,229,229)</text>
</g>
<!-- 2033968586&#45;&gt;620557167 -->
<g id="edge18" class="edge">
<title>2033968586&#45;&gt;620557167</title>
<path fill="none" stroke="black" d="M2716.15,-431.88C2737.69,-422.27 2764.74,-410.21 2787.56,-400.03"/>
<polygon fill="black" stroke="black" points="2789.02,-403.22 2796.73,-395.95 2786.17,-396.82 2789.02,-403.22"/>
</g>
<!-- 1866875501 -->
<g id="node33" class="node">
<title>1866875501</title>
<ellipse fill="none" stroke="black" cx="3890.74" cy="-378" rx="277.13" ry="18"/>
<text text-anchor="middle" x="3890.74" y="-373.8" font-family="Times,serif" font-size="14.00">(return processed.toArray(optionsArray); ,ReturnStatement,232,232)</text>
</g>
<!-- 2033968586&#45;&gt;1866875501 -->
<g id="edge32" class="edge">
<title>2033968586&#45;&gt;1866875501</title>
<path fill="none" stroke="black" d="M2946.19,-433.51C3167.68,-420.73 3477.54,-402.85 3681.09,-391.1"/>
<polygon fill="black" stroke="black" points="3681.53,-394.58 3691.31,-390.51 3681.12,-387.59 3681.53,-394.58"/>
</g>
<!-- 929383713 -->
<g id="node10" class="node">
<title>929383713</title>
<ellipse fill="none" stroke="black" cx="1547.74" cy="-306" rx="105.91" ry="18"/>
<text text-anchor="middle" x="1547.74" y="-301.8" font-family="Times,serif" font-size="14.00">(final,Modifier,226,226)</text>
</g>
<!-- 48208774&#45;&gt;929383713 -->
<g id="edge9" class="edge">
<title>48208774&#45;&gt;929383713</title>
<path fill="none" stroke="black" d="M1823.65,-360.5C1763.35,-348.81 1683.12,-333.25 1624.72,-321.93"/>
<polygon fill="black" stroke="black" points="1625.3,-318.47 1614.82,-320.01 1623.97,-325.35 1625.3,-318.47"/>
</g>
<!-- 363509958 -->
<g id="node11" class="node">
<title>363509958</title>
<ellipse fill="none" stroke="black" cx="1877.74" cy="-306" rx="206.9" ry="18"/>
<text text-anchor="middle" x="1877.74" y="-301.8" font-family="Times,serif" font-size="14.00">(Collection&lt;Option&gt;,ParameterizedType,226,226)</text>
</g>
<!-- 48208774&#45;&gt;363509958 -->
<g id="edge10" class="edge">
<title>48208774&#45;&gt;363509958</title>
<path fill="none" stroke="black" d="M1901.08,-359.7C1897.55,-351.73 1893.29,-342.1 1889.37,-333.26"/>
<polygon fill="black" stroke="black" points="1892.57,-331.83 1885.32,-324.1 1886.17,-334.67 1892.57,-331.83"/>
</g>
<!-- 1806431167 -->
<g id="node16" class="node">
<title>1806431167</title>
<ellipse fill="none" stroke="black" cx="2343.74" cy="-306" rx="240.87" ry="18"/>
<text text-anchor="middle" x="2343.74" y="-301.8" font-family="Times,serif" font-size="14.00">(processed=options,VariableDeclarationFragment,226,226)</text>
</g>
<!-- 48208774&#45;&gt;1806431167 -->
<g id="edge15" class="edge">
<title>48208774&#45;&gt;1806431167</title>
<path fill="none" stroke="black" d="M2009.63,-360.76C2077.81,-349.79 2167.69,-335.33 2237.05,-324.17"/>
<polygon fill="black" stroke="black" points="2237.82,-327.59 2247.13,-322.55 2236.7,-320.68 2237.82,-327.59"/>
</g>
<!-- 865667596 -->
<g id="node12" class="node">
<title>865667596</title>
<ellipse fill="none" stroke="black" cx="1592.74" cy="-234" rx="141.24" ry="18"/>
<text text-anchor="middle" x="1592.74" y="-229.8" font-family="Times,serif" font-size="14.00">(Collection,SimpleType,226,226)</text>
</g>
<!-- 363509958&#45;&gt;865667596 -->
<g id="edge11" class="edge">
<title>363509958&#45;&gt;865667596</title>
<path fill="none" stroke="black" d="M1812,-288.85C1767.89,-278.02 1709.8,-263.75 1664.49,-252.62"/>
<polygon fill="black" stroke="black" points="1665.28,-249.21 1654.74,-250.23 1663.61,-256.01 1665.28,-249.21"/>
</g>
<!-- 1354083458 -->
<g id="node14" class="node">
<title>1354083458</title>
<ellipse fill="none" stroke="black" cx="1880.74" cy="-234" rx="127.92" ry="18"/>
<text text-anchor="middle" x="1880.74" y="-229.8" font-family="Times,serif" font-size="14.00">(Option,SimpleType,226,226)</text>
</g>
<!-- 363509958&#45;&gt;1354083458 -->
<g id="edge13" class="edge">
<title>363509958&#45;&gt;1354083458</title>
<path fill="none" stroke="black" d="M1878.48,-287.7C1878.81,-279.98 1879.21,-270.71 1879.58,-262.11"/>
<polygon fill="black" stroke="black" points="1883.08,-262.25 1880.01,-252.1 1876.08,-261.95 1883.08,-262.25"/>
</g>
<!-- 1306834002 -->
<g id="node13" class="node">
<title>1306834002</title>
<ellipse fill="none" stroke="black" cx="1589.74" cy="-162" rx="144.17" ry="18"/>
<text text-anchor="middle" x="1589.74" y="-157.8" font-family="Times,serif" font-size="14.00">(Collection,SimpleName,226,226)</text>
</g>
<!-- 865667596&#45;&gt;1306834002 -->
<g id="edge12" class="edge">
<title>865667596&#45;&gt;1306834002</title>
<path fill="none" stroke="black" d="M1592,-215.7C1591.67,-207.98 1591.27,-198.71 1590.9,-190.11"/>
<polygon fill="black" stroke="black" points="1594.4,-189.95 1590.48,-180.1 1587.41,-190.25 1594.4,-189.95"/>
</g>
<!-- 270095066 -->
<g id="node15" class="node">
<title>270095066</title>
<ellipse fill="none" stroke="black" cx="1882.74" cy="-162" rx="130.86" ry="18"/>
<text text-anchor="middle" x="1882.74" y="-157.8" font-family="Times,serif" font-size="14.00">(Option,SimpleName,226,226)</text>
</g>
<!-- 1354083458&#45;&gt;270095066 -->
<g id="edge14" class="edge">
<title>1354083458&#45;&gt;270095066</title>
<path fill="none" stroke="black" d="M1881.24,-215.7C1881.46,-207.98 1881.72,-198.71 1881.97,-190.11"/>
<polygon fill="black" stroke="black" points="1885.47,-190.2 1882.25,-180.1 1878.47,-190 1885.47,-190.2"/>
</g>
<!-- 50699452 -->
<g id="node17" class="node">
<title>50699452</title>
<ellipse fill="none" stroke="black" cx="2257.74" cy="-234" rx="142.36" ry="18"/>
<text text-anchor="middle" x="2257.74" y="-229.8" font-family="Times,serif" font-size="14.00">(processed,SimpleName,226,226)</text>
</g>
<!-- 1806431167&#45;&gt;50699452 -->
<g id="edge16" class="edge">
<title>1806431167&#45;&gt;50699452</title>
<path fill="none" stroke="black" d="M2322.92,-288.05C2312.02,-279.18 2298.49,-268.17 2286.59,-258.48"/>
<polygon fill="black" stroke="black" points="2288.63,-255.63 2278.67,-252.03 2284.21,-261.06 2288.63,-255.63"/>
</g>
<!-- 2125062626 -->
<g id="node18" class="node">
<title>2125062626</title>
<ellipse fill="none" stroke="black" cx="2550.74" cy="-234" rx="132.58" ry="18"/>
<text text-anchor="middle" x="2550.74" y="-229.8" font-family="Times,serif" font-size="14.00">(options,SimpleName,226,226)</text>
</g>
<!-- 1806431167&#45;&gt;2125062626 -->
<g id="edge17" class="edge">
<title>1806431167&#45;&gt;2125062626</title>
<path fill="none" stroke="black" d="M2393.06,-288.32C2423.4,-278.06 2462.4,-264.87 2494.02,-254.18"/>
<polygon fill="black" stroke="black" points="2495.23,-257.47 2503.58,-250.95 2492.99,-250.84 2495.23,-257.47"/>
</g>
<!-- 285133380 -->
<g id="node20" class="node">
<title>285133380</title>
<ellipse fill="none" stroke="black" cx="2708.74" cy="-306" rx="105.91" ry="18"/>
<text text-anchor="middle" x="2708.74" y="-301.8" font-family="Times,serif" font-size="14.00">(final,Modifier,229,229)</text>
</g>
<!-- 620557167&#45;&gt;285133380 -->
<g id="edge19" class="edge">
<title>620557167&#45;&gt;285133380</title>
<path fill="none" stroke="black" d="M2803.92,-359.88C2786.92,-350.43 2765.65,-338.61 2747.53,-328.55"/>
<polygon fill="black" stroke="black" points="2748.82,-325.26 2738.38,-323.47 2745.42,-331.38 2748.82,-325.26"/>
</g>
<!-- 1068586139 -->
<g id="node21" class="node">
<title>1068586139</title>
<ellipse fill="none" stroke="black" cx="2961.74" cy="-306" rx="129.1" ry="18"/>
<text text-anchor="middle" x="2961.74" y="-301.8" font-family="Times,serif" font-size="14.00">(Option[],ArrayType,229,229)</text>
</g>
<!-- 620557167&#45;&gt;1068586139 -->
<g id="edge20" class="edge">
<title>620557167&#45;&gt;1068586139</title>
<path fill="none" stroke="black" d="M2865.81,-359.88C2882.82,-350.5 2904.07,-338.79 2922.25,-328.77"/>
<polygon fill="black" stroke="black" points="2924.37,-331.6 2931.43,-323.71 2920.99,-325.47 2924.37,-331.6"/>
</g>
<!-- 726181440 -->
<g id="node24" class="node">
<title>726181440</title>
<ellipse fill="none" stroke="black" cx="3447.74" cy="-306" rx="339.15" ry="18"/>
<text text-anchor="middle" x="3447.74" y="-301.8" font-family="Times,serif" font-size="14.00">(optionsArray=new Option[processed.size()],VariableDeclarationFragment,229,229)</text>
</g>
<!-- 620557167&#45;&gt;726181440 -->
<g id="edge23" class="edge">
<title>620557167&#45;&gt;726181440</title>
<path fill="none" stroke="black" d="M2974.22,-361.07C3072.09,-349.9 3202.65,-334.99 3301.89,-323.66"/>
<polygon fill="black" stroke="black" points="3302.46,-327.11 3312,-322.5 3301.67,-320.16 3302.46,-327.11"/>
</g>
<!-- 245765246 -->
<g id="node22" class="node">
<title>245765246</title>
<ellipse fill="none" stroke="black" cx="2835.74" cy="-234" rx="127.92" ry="18"/>
<text text-anchor="middle" x="2835.74" y="-229.8" font-family="Times,serif" font-size="14.00">(Option,SimpleType,229,229)</text>
</g>
<!-- 1068586139&#45;&gt;245765246 -->
<g id="edge21" class="edge">
<title>1068586139&#45;&gt;245765246</title>
<path fill="none" stroke="black" d="M2931.88,-288.41C2914.75,-278.89 2893.04,-266.83 2874.59,-256.58"/>
<polygon fill="black" stroke="black" points="2876.27,-253.51 2865.82,-251.71 2872.87,-259.63 2876.27,-253.51"/>
</g>
<!-- 1292040526 -->
<g id="node23" class="node">
<title>1292040526</title>
<ellipse fill="none" stroke="black" cx="2835.74" cy="-162" rx="130.86" ry="18"/>
<text text-anchor="middle" x="2835.74" y="-157.8" font-family="Times,serif" font-size="14.00">(Option,SimpleName,229,229)</text>
</g>
<!-- 245765246&#45;&gt;1292040526 -->
<g id="edge22" class="edge">
<title>245765246&#45;&gt;1292040526</title>
<path fill="none" stroke="black" d="M2835.74,-215.7C2835.74,-207.98 2835.74,-198.71 2835.74,-190.11"/>
<polygon fill="black" stroke="black" points="2839.24,-190.1 2835.74,-180.1 2832.24,-190.1 2839.24,-190.1"/>
</g>
<!-- 510147134 -->
<g id="node25" class="node">
<title>510147134</title>
<ellipse fill="none" stroke="black" cx="3136.74" cy="-234" rx="155.12" ry="18"/>
<text text-anchor="middle" x="3136.74" y="-229.8" font-family="Times,serif" font-size="14.00">(optionsArray,SimpleName,229,229)</text>
</g>
<!-- 726181440&#45;&gt;510147134 -->
<g id="edge24" class="edge">
<title>726181440&#45;&gt;510147134</title>
<path fill="none" stroke="black" d="M3374.04,-288.41C3325.89,-277.57 3263.12,-263.45 3214.24,-252.44"/>
<polygon fill="black" stroke="black" points="3214.86,-249 3204.34,-250.21 3213.33,-255.83 3214.86,-249"/>
</g>
<!-- 542365801 -->
<g id="node26" class="node">
<title>542365801</title>
<ellipse fill="none" stroke="black" cx="3532.74" cy="-234" rx="223.3" ry="18"/>
<text text-anchor="middle" x="3532.74" y="-229.8" font-family="Times,serif" font-size="14.00">(new Option[processed.size()],ArrayCreation,229,229)</text>
</g>
<!-- 726181440&#45;&gt;542365801 -->
<g id="edge25" class="edge">
<title>726181440&#45;&gt;542365801</title>
<path fill="none" stroke="black" d="M3468.75,-287.7C3479.46,-278.88 3492.63,-268.03 3504.24,-258.47"/>
<polygon fill="black" stroke="black" points="3506.48,-261.16 3511.97,-252.1 3502.03,-255.76 3506.48,-261.16"/>
</g>
<!-- 2051120548 -->
<g id="node27" class="node">
<title>2051120548</title>
<ellipse fill="none" stroke="black" cx="3365.74" cy="-162" rx="129.1" ry="18"/>
<text text-anchor="middle" x="3365.74" y="-157.8" font-family="Times,serif" font-size="14.00">(Option[],ArrayType,229,229)</text>
</g>
<!-- 542365801&#45;&gt;2051120548 -->
<g id="edge26" class="edge">
<title>542365801&#45;&gt;2051120548</title>
<path fill="none" stroke="black" d="M3492.74,-216.23C3469.04,-206.3 3438.85,-193.64 3413.85,-183.17"/>
<polygon fill="black" stroke="black" points="3415.13,-179.91 3404.55,-179.27 3412.42,-186.36 3415.13,-179.91"/>
</g>
<!-- 1973233403 -->
<g id="node30" class="node">
<title>1973233403</title>
<ellipse fill="none" stroke="black" cx="3699.74" cy="-162" rx="186.91" ry="18"/>
<text text-anchor="middle" x="3699.74" y="-157.8" font-family="Times,serif" font-size="14.00">(processed.size(),MethodInvocation,229,229)</text>
</g>
<!-- 542365801&#45;&gt;1973233403 -->
<g id="edge29" class="edge">
<title>542365801&#45;&gt;1973233403</title>
<path fill="none" stroke="black" d="M3572.74,-216.23C3596.19,-206.41 3625.98,-193.92 3650.82,-183.51"/>
<polygon fill="black" stroke="black" points="3652.2,-186.72 3660.07,-179.63 3649.49,-180.27 3652.2,-186.72"/>
</g>
<!-- 341138954 -->
<g id="node28" class="node">
<title>341138954</title>
<ellipse fill="none" stroke="black" cx="3365.74" cy="-90" rx="127.92" ry="18"/>
<text text-anchor="middle" x="3365.74" y="-85.8" font-family="Times,serif" font-size="14.00">(Option,SimpleType,229,229)</text>
</g>
<!-- 2051120548&#45;&gt;341138954 -->
<g id="edge27" class="edge">
<title>2051120548&#45;&gt;341138954</title>
<path fill="none" stroke="black" d="M3365.74,-143.7C3365.74,-135.98 3365.74,-126.71 3365.74,-118.11"/>
<polygon fill="black" stroke="black" points="3369.24,-118.1 3365.74,-108.1 3362.24,-118.1 3369.24,-118.1"/>
</g>
<!-- 1270038388 -->
<g id="node29" class="node">
<title>1270038388</title>
<ellipse fill="none" stroke="black" cx="3365.74" cy="-18" rx="130.86" ry="18"/>
<text text-anchor="middle" x="3365.74" y="-13.8" font-family="Times,serif" font-size="14.00">(Option,SimpleName,229,229)</text>
</g>
<!-- 341138954&#45;&gt;1270038388 -->
<g id="edge28" class="edge">
<title>341138954&#45;&gt;1270038388</title>
<path fill="none" stroke="black" d="M3365.74,-71.7C3365.74,-63.98 3365.74,-54.71 3365.74,-46.11"/>
<polygon fill="black" stroke="black" points="3369.24,-46.1 3365.74,-36.1 3362.24,-46.1 3369.24,-46.1"/>
</g>
<!-- 63387985 -->
<g id="node31" class="node">
<title>63387985</title>
<ellipse fill="none" stroke="black" cx="3676.74" cy="-90" rx="142.36" ry="18"/>
<text text-anchor="middle" x="3676.74" y="-85.8" font-family="Times,serif" font-size="14.00">(processed,SimpleName,229,229)</text>
</g>
<!-- 1973233403&#45;&gt;63387985 -->
<g id="edge30" class="edge">
<title>1973233403&#45;&gt;63387985</title>
<path fill="none" stroke="black" d="M3694.06,-143.7C3691.49,-135.9 3688.41,-126.51 3685.56,-117.83"/>
<polygon fill="black" stroke="black" points="3688.81,-116.51 3682.36,-108.1 3682.16,-118.7 3688.81,-116.51"/>
</g>
<!-- 1029472813 -->
<g id="node32" class="node">
<title>1029472813</title>
<ellipse fill="none" stroke="black" cx="3955.74" cy="-90" rx="119.23" ry="18"/>
<text text-anchor="middle" x="3955.74" y="-85.8" font-family="Times,serif" font-size="14.00">(size,SimpleName,229,229)</text>
</g>
<!-- 1973233403&#45;&gt;1029472813 -->
<g id="edge31" class="edge">
<title>1973233403&#45;&gt;1029472813</title>
<path fill="none" stroke="black" d="M3758.8,-144.85C3798.36,-134.04 3850.44,-119.79 3891.11,-108.67"/>
<polygon fill="black" stroke="black" points="3892.2,-112 3900.92,-105.99 3890.35,-105.25 3892.2,-112"/>
</g>
<!-- 1936722816 -->
<g id="node34" class="node">
<title>1936722816</title>
<ellipse fill="none" stroke="black" cx="4133.74" cy="-306" rx="252.86" ry="18"/>
<text text-anchor="middle" x="4133.74" y="-301.8" font-family="Times,serif" font-size="14.00">(processed.toArray(optionsArray),MethodInvocation,232,232)</text>
</g>
<!-- 1866875501&#45;&gt;1936722816 -->
<g id="edge33" class="edge">
<title>1866875501&#45;&gt;1936722816</title>
<path fill="none" stroke="black" d="M3948.64,-360.32C3984.08,-350.11 4029.57,-337.01 4066.58,-326.35"/>
<polygon fill="black" stroke="black" points="4067.65,-329.68 4076.29,-323.55 4065.71,-322.95 4067.65,-329.68"/>
</g>
<!-- 1237825806 -->
<g id="node35" class="node">
<title>1237825806</title>
<ellipse fill="none" stroke="black" cx="3915.74" cy="-234" rx="142.36" ry="18"/>
<text text-anchor="middle" x="3915.74" y="-229.8" font-family="Times,serif" font-size="14.00">(processed,SimpleName,232,232)</text>
</g>
<!-- 1936722816&#45;&gt;1237825806 -->
<g id="edge34" class="edge">
<title>1936722816&#45;&gt;1237825806</title>
<path fill="none" stroke="black" d="M4081.8,-288.32C4049.71,-278.02 4008.42,-264.76 3975.05,-254.04"/>
<polygon fill="black" stroke="black" points="3976,-250.67 3965.41,-250.95 3973.86,-257.34 3976,-250.67"/>
</g>
<!-- 282265585 -->
<g id="node36" class="node">
<title>282265585</title>
<ellipse fill="none" stroke="black" cx="4209.74" cy="-234" rx="134.27" ry="18"/>
<text text-anchor="middle" x="4209.74" y="-229.8" font-family="Times,serif" font-size="14.00">(toArray,SimpleName,232,232)</text>
</g>
<!-- 1936722816&#45;&gt;282265585 -->
<g id="edge35" class="edge">
<title>1936722816&#45;&gt;282265585</title>
<path fill="none" stroke="black" d="M4152.53,-287.7C4161.99,-278.99 4173.6,-268.29 4183.88,-258.82"/>
<polygon fill="black" stroke="black" points="4186.45,-261.21 4191.43,-251.86 4181.71,-256.06 4186.45,-261.21"/>
</g>
<!-- 1297836716 -->
<g id="node37" class="node">
<title>1297836716</title>
<ellipse fill="none" stroke="black" cx="4516.74" cy="-234" rx="155.12" ry="18"/>
<text text-anchor="middle" x="4516.74" y="-229.8" font-family="Times,serif" font-size="14.00">(optionsArray,SimpleName,232,232)</text>
</g>
<!-- 1936722816&#45;&gt;1297836716 -->
<g id="edge36" class="edge">
<title>1936722816&#45;&gt;1297836716</title>
<path fill="none" stroke="black" d="M4221.13,-289.03C4282.72,-277.77 4364.95,-262.74 4427.05,-251.39"/>
<polygon fill="black" stroke="black" points="4428.02,-254.77 4437.23,-249.53 4426.76,-247.89 4428.02,-254.77"/>
</g>
</g>
</svg>
