<?xml version="1.0" encoding="UTF-8" standalone="no"?>
<!DOCTYPE svg PUBLIC "-//W3C//DTD SVG 1.1//EN"
 "http://www.w3.org/Graphics/SVG/1.1/DTD/svg11.dtd">
<!-- Generated by graphviz version 2.50.0 (20211204.2007)
 -->
<!-- Title: DirectedGraph Pages: 1 -->
<svg width="8657pt" height="357pt"
 viewBox="0.00 0.00 8656.99 356.80" xmlns="http://www.w3.org/2000/svg" xmlns:xlink="http://www.w3.org/1999/xlink">
<g id="graph0" class="graph" transform="scale(1 1) rotate(0) translate(4 352.8)">
<title>DirectedGraph</title>
<polygon fill="white" stroke="transparent" points="-4,4 -4,-352.8 8652.99,-352.8 8652.99,4 -4,4"/>
<text text-anchor="middle" x="4324.5" y="-332.2" font-family="Times,serif" font-size="14.00">flatten</text>
<!-- 928294079 -->
<g id="node1" class="node">
<title>928294079</title>
<ellipse fill="none" stroke="black" cx="5261.27" cy="-306" rx="2976.2" ry="18"/>
<text text-anchor="middle" x="5261.27" y="-301.8" font-family="Times,serif" font-size="14.00">(/** &#160;* &lt;p&gt; * A simple implementation of {@link Parser}&#39;s abstract {@link Parser#flatten(Options,String[],boolean) flatten}method. * &lt;/p&gt; * &lt;p&gt; * &lt;b&gt;Note:&lt;/b&gt; {@code options} and {@code stopAtNonOption} are not used in this {@code flatten} method. * &lt;/p&gt; * @param options The command line {@link Options} * @param arguments The command line arguments to be parsed * @param stopAtNonOption Specifies whether to stop flattening when an non option is found. * @return The {@code arguments} String array. */ @Override protected String[] flatten(@SuppressWarnings(&quot;unused&quot;) final Options options,final String[] arguments,@SuppressWarnings(&quot;unused&quot;) final boolean stopAtNonOption){ &#160;return arguments; } ,MethodDeclaration,28,48)</text>
</g>
<!-- 1647809929 -->
<g id="node2" class="node">
<title>1647809929</title>
<ellipse fill="none" stroke="black" cx="2145.27" cy="-234" rx="2145.05" ry="18"/>
<text text-anchor="middle" x="2145.27" y="-229.8" font-family="Times,serif" font-size="14.00">(/** &#160;* &lt;p&gt; * A simple implementation of {@link Parser}&#39;s abstract {@link Parser#flatten(Options,String[],boolean) flatten}method. * &lt;/p&gt; * &lt;p&gt; * &lt;b&gt;Note:&lt;/b&gt; {@code options} and {@code stopAtNonOption} are not used in this {@code flatten} method. * &lt;/p&gt; * @param options The command line {@link Options} * @param arguments The command line arguments to be parsed * @param stopAtNonOption Specifies whether to stop flattening when an non option is found. * @return The {@code arguments} String array. */ ,Javadoc,28,42)</text>
</g>
<!-- 928294079&#45;&gt;1647809929 -->
<g id="edge1" class="edge">
<title>928294079&#45;&gt;1647809929</title>
<path fill="none" stroke="black" d="M4528.74,-288.54C4027.56,-277.28 3366.14,-262.43 2867.23,-251.22"/>
<polygon fill="black" stroke="black" points="2867.03,-247.71 2856.95,-250.99 2866.87,-254.71 2867.03,-247.71"/>
</g>
<!-- 1258084361 -->
<g id="node3" class="node">
<title>1258084361</title>
<ellipse fill="none" stroke="black" cx="4467.27" cy="-234" rx="159.21" ry="18"/>
<text text-anchor="middle" x="4467.27" y="-229.8" font-family="Times,serif" font-size="14.00">(@Override,MarkerAnnotation,43,43)</text>
</g>
<!-- 928294079&#45;&gt;1258084361 -->
<g id="edge2" class="edge">
<title>928294079&#45;&gt;1258084361</title>
<path fill="none" stroke="black" d="M5050.74,-288.04C4929.26,-278.04 4773.6,-264.85 4635.27,-252 4620.67,-250.64 4605.35,-249.17 4590.16,-247.67"/>
<polygon fill="black" stroke="black" points="4590.51,-244.19 4580.21,-246.68 4589.82,-251.15 4590.51,-244.19"/>
</g>
<!-- 96406857 -->
<g id="node5" class="node">
<title>96406857</title>
<ellipse fill="none" stroke="black" cx="4758.27" cy="-234" rx="114.06" ry="18"/>
<text text-anchor="middle" x="4758.27" y="-229.8" font-family="Times,serif" font-size="14.00">(protected,Modifier,44,44)</text>
</g>
<!-- 928294079&#45;&gt;96406857 -->
<g id="edge4" class="edge">
<title>928294079&#45;&gt;96406857</title>
<path fill="none" stroke="black" d="M5139.19,-288.01C5050.52,-275.67 4932.34,-259.22 4851.26,-247.94"/>
<polygon fill="black" stroke="black" points="4851.46,-244.43 4841.07,-246.52 4850.49,-251.37 4851.46,-244.43"/>
</g>
<!-- 1534745514 -->
<g id="node6" class="node">
<title>1534745514</title>
<ellipse fill="none" stroke="black" cx="5007.27" cy="-234" rx="116.36" ry="18"/>
<text text-anchor="middle" x="5007.27" y="-229.8" font-family="Times,serif" font-size="14.00">(String[],ArrayType,44,44)</text>
</g>
<!-- 928294079&#45;&gt;1534745514 -->
<g id="edge5" class="edge">
<title>928294079&#45;&gt;1534745514</title>
<path fill="none" stroke="black" d="M5199.46,-287.97C5160.61,-277.26 5110.59,-263.47 5071.32,-252.65"/>
<polygon fill="black" stroke="black" points="5072.15,-249.25 5061.58,-249.97 5070.29,-256 5072.15,-249.25"/>
</g>
<!-- 2088371948 -->
<g id="node9" class="node">
<title>2088371948</title>
<ellipse fill="none" stroke="black" cx="5261.27" cy="-234" rx="119.22" ry="18"/>
<text text-anchor="middle" x="5261.27" y="-229.8" font-family="Times,serif" font-size="14.00">(flatten,SimpleName,44,44)</text>
</g>
<!-- 928294079&#45;&gt;2088371948 -->
<g id="edge8" class="edge">
<title>928294079&#45;&gt;2088371948</title>
<path fill="none" stroke="black" d="M5261.27,-287.7C5261.27,-279.98 5261.27,-270.71 5261.27,-262.11"/>
<polygon fill="black" stroke="black" points="5264.77,-262.1 5261.27,-252.1 5257.77,-262.1 5264.77,-262.1"/>
</g>
<!-- 1976870338 -->
<g id="node10" class="node">
<title>1976870338</title>
<ellipse fill="none" stroke="black" cx="5752.27" cy="-234" rx="353.87" ry="18"/>
<text text-anchor="middle" x="5752.27" y="-229.8" font-family="Times,serif" font-size="14.00">(@SuppressWarnings(&quot;unused&quot;) final Options options,SingleVariableDeclaration,44,44)</text>
</g>
<!-- 928294079&#45;&gt;1976870338 -->
<g id="edge9" class="edge">
<title>928294079&#45;&gt;1976870338</title>
<path fill="none" stroke="black" d="M5380.44,-288.01C5455.82,-277.26 5553.05,-263.4 5629.17,-252.55"/>
<polygon fill="black" stroke="black" points="5629.89,-255.98 5639.29,-251.11 5628.9,-249.05 5629.89,-255.98"/>
</g>
<!-- 576020159 -->
<g id="node18" class="node">
<title>576020159</title>
<ellipse fill="none" stroke="black" cx="6422.27" cy="-234" rx="239.56" ry="18"/>
<text text-anchor="middle" x="6422.27" y="-229.8" font-family="Times,serif" font-size="14.00">(final String[] arguments,SingleVariableDeclaration,44,44)</text>
</g>
<!-- 928294079&#45;&gt;576020159 -->
<g id="edge17" class="edge">
<title>928294079&#45;&gt;576020159</title>
<path fill="none" stroke="black" d="M5541.95,-288.08C5755.61,-275.19 6043.97,-257.81 6231.49,-246.5"/>
<polygon fill="black" stroke="black" points="6231.97,-249.98 6241.74,-245.88 6231.55,-242.99 6231.97,-249.98"/>
</g>
<!-- 943870983 -->
<g id="node24" class="node">
<title>943870983</title>
<ellipse fill="none" stroke="black" cx="7552.27" cy="-234" rx="394.89" ry="18"/>
<text text-anchor="middle" x="7552.27" y="-229.8" font-family="Times,serif" font-size="14.00">(@SuppressWarnings(&quot;unused&quot;) final boolean stopAtNonOption,SingleVariableDeclaration,45,45)</text>
</g>
<!-- 928294079&#45;&gt;943870983 -->
<g id="edge23" class="edge">
<title>928294079&#45;&gt;943870983</title>
<path fill="none" stroke="black" d="M5807.84,-288.3C6249.03,-274.82 6855.15,-256.3 7224.44,-245.02"/>
<polygon fill="black" stroke="black" points="7224.59,-248.51 7234.48,-244.71 7224.38,-241.52 7224.59,-248.51"/>
</g>
<!-- 757004314 -->
<g id="node31" class="node">
<title>757004314</title>
<ellipse fill="none" stroke="black" cx="8294.27" cy="-234" rx="154.3" ry="18"/>
<text text-anchor="middle" x="8294.27" y="-229.8" font-family="Times,serif" font-size="14.00">({ &#160;return arguments; } ,Block,45,48)</text>
</g>
<!-- 928294079&#45;&gt;757004314 -->
<g id="edge30" class="edge">
<title>928294079&#45;&gt;757004314</title>
<path fill="none" stroke="black" d="M6447.99,-289.49C6917.78,-281.3 7462.57,-269.27 7956.27,-252 8019.41,-249.79 8089.14,-246.44 8148.79,-243.29"/>
<polygon fill="black" stroke="black" points="8149.24,-246.77 8159.04,-242.75 8148.87,-239.78 8149.24,-246.77"/>
</g>
<!-- 391914049 -->
<g id="node4" class="node">
<title>391914049</title>
<ellipse fill="none" stroke="black" cx="4467.27" cy="-162" rx="128.53" ry="18"/>
<text text-anchor="middle" x="4467.27" y="-157.8" font-family="Times,serif" font-size="14.00">(Override,SimpleName,43,43)</text>
</g>
<!-- 1258084361&#45;&gt;391914049 -->
<g id="edge3" class="edge">
<title>1258084361&#45;&gt;391914049</title>
<path fill="none" stroke="black" d="M4467.27,-215.7C4467.27,-207.98 4467.27,-198.71 4467.27,-190.11"/>
<polygon fill="black" stroke="black" points="4470.77,-190.1 4467.27,-180.1 4463.77,-190.1 4470.77,-190.1"/>
</g>
<!-- 2003496028 -->
<g id="node7" class="node">
<title>2003496028</title>
<ellipse fill="none" stroke="black" cx="4731.27" cy="-162" rx="114.68" ry="18"/>
<text text-anchor="middle" x="4731.27" y="-157.8" font-family="Times,serif" font-size="14.00">(String,SimpleType,44,44)</text>
</g>
<!-- 1534745514&#45;&gt;2003496028 -->
<g id="edge6" class="edge">
<title>1534745514&#45;&gt;2003496028</title>
<path fill="none" stroke="black" d="M4949.41,-218.33C4905.53,-207.2 4845.1,-191.87 4798.97,-180.17"/>
<polygon fill="black" stroke="black" points="4799.61,-176.72 4789.06,-177.65 4797.89,-183.51 4799.61,-176.72"/>
</g>
<!-- 30578394 -->
<g id="node8" class="node">
<title>30578394</title>
<ellipse fill="none" stroke="black" cx="4731.27" cy="-90" rx="118.11" ry="18"/>
<text text-anchor="middle" x="4731.27" y="-85.8" font-family="Times,serif" font-size="14.00">(String,SimpleName,44,44)</text>
</g>
<!-- 2003496028&#45;&gt;30578394 -->
<g id="edge7" class="edge">
<title>2003496028&#45;&gt;30578394</title>
<path fill="none" stroke="black" d="M4731.27,-143.7C4731.27,-135.98 4731.27,-126.71 4731.27,-118.11"/>
<polygon fill="black" stroke="black" points="4734.77,-118.1 4731.27,-108.1 4727.77,-118.1 4734.77,-118.1"/>
</g>
<!-- 1434234664 -->
<g id="node11" class="node">
<title>1434234664</title>
<ellipse fill="none" stroke="black" cx="5132.27" cy="-162" rx="267.71" ry="18"/>
<text text-anchor="middle" x="5132.27" y="-157.8" font-family="Times,serif" font-size="14.00">(@SuppressWarnings(&quot;unused&quot;),SingleMemberAnnotation,44,44)</text>
</g>
<!-- 1976870338&#45;&gt;1434234664 -->
<g id="edge10" class="edge">
<title>1976870338&#45;&gt;1434234664</title>
<path fill="none" stroke="black" d="M5614.29,-217.42C5512.68,-205.95 5374.99,-190.4 5272.79,-178.86"/>
<polygon fill="black" stroke="black" points="5273.03,-175.37 5262.7,-177.73 5272.24,-182.33 5273.03,-175.37"/>
</g>
<!-- 1011279482 -->
<g id="node14" class="node">
<title>1011279482</title>
<ellipse fill="none" stroke="black" cx="5514.27" cy="-162" rx="96.1" ry="18"/>
<text text-anchor="middle" x="5514.27" y="-157.8" font-family="Times,serif" font-size="14.00">(final,Modifier,44,44)</text>
</g>
<!-- 1976870338&#45;&gt;1011279482 -->
<g id="edge13" class="edge">
<title>1976870338&#45;&gt;1011279482</title>
<path fill="none" stroke="black" d="M5695.27,-216.23C5658.4,-205.39 5610.53,-191.31 5573.28,-180.36"/>
<polygon fill="black" stroke="black" points="5574.15,-176.96 5563.56,-177.5 5572.17,-183.68 5574.15,-176.96"/>
</g>
<!-- 208866101 -->
<g id="node15" class="node">
<title>208866101</title>
<ellipse fill="none" stroke="black" cx="5750.27" cy="-162" rx="121.63" ry="18"/>
<text text-anchor="middle" x="5750.27" y="-157.8" font-family="Times,serif" font-size="14.00">(Options,SimpleType,44,44)</text>
</g>
<!-- 1976870338&#45;&gt;208866101 -->
<g id="edge14" class="edge">
<title>1976870338&#45;&gt;208866101</title>
<path fill="none" stroke="black" d="M5751.78,-215.7C5751.56,-207.98 5751.29,-198.71 5751.05,-190.11"/>
<polygon fill="black" stroke="black" points="5754.55,-190 5750.76,-180.1 5747.55,-190.2 5754.55,-190"/>
</g>
<!-- 690686166 -->
<g id="node17" class="node">
<title>690686166</title>
<ellipse fill="none" stroke="black" cx="6013.27" cy="-162" rx="122.77" ry="18"/>
<text text-anchor="middle" x="6013.27" y="-157.8" font-family="Times,serif" font-size="14.00">(options,SimpleName,44,44)</text>
</g>
<!-- 1976870338&#45;&gt;690686166 -->
<g id="edge16" class="edge">
<title>1976870338&#45;&gt;690686166</title>
<path fill="none" stroke="black" d="M5814.79,-216.23C5854.77,-205.51 5906.57,-191.62 5947.23,-180.71"/>
<polygon fill="black" stroke="black" points="5948.29,-184.05 5957.05,-178.08 5946.48,-177.29 5948.29,-184.05"/>
</g>
<!-- 1083021083 -->
<g id="node12" class="node">
<title>1083021083</title>
<ellipse fill="none" stroke="black" cx="5083.27" cy="-90" rx="166.73" ry="18"/>
<text text-anchor="middle" x="5083.27" y="-85.8" font-family="Times,serif" font-size="14.00">(SuppressWarnings,SimpleName,44,44)</text>
</g>
<!-- 1434234664&#45;&gt;1083021083 -->
<g id="edge11" class="edge">
<title>1434234664&#45;&gt;1083021083</title>
<path fill="none" stroke="black" d="M5120.16,-143.7C5114.41,-135.47 5107.41,-125.48 5101.07,-116.42"/>
<polygon fill="black" stroke="black" points="5103.85,-114.29 5095.25,-108.1 5098.11,-118.3 5103.85,-114.29"/>
</g>
<!-- 1819063424 -->
<g id="node13" class="node">
<title>1819063424</title>
<ellipse fill="none" stroke="black" cx="5396.27" cy="-90" rx="128.73" ry="18"/>
<text text-anchor="middle" x="5396.27" y="-85.8" font-family="Times,serif" font-size="14.00">(&quot;unused&quot;,StringLiteral,44,44)</text>
</g>
<!-- 1434234664&#45;&gt;1819063424 -->
<g id="edge12" class="edge">
<title>1434234664&#45;&gt;1819063424</title>
<path fill="none" stroke="black" d="M5194.84,-144.41C5235.35,-133.67 5288.06,-119.69 5329.4,-108.73"/>
<polygon fill="black" stroke="black" points="5330.34,-112.1 5339.11,-106.16 5328.55,-105.34 5330.34,-112.1"/>
</g>
<!-- 543846639 -->
<g id="node16" class="node">
<title>543846639</title>
<ellipse fill="none" stroke="black" cx="5750.27" cy="-90" rx="125.06" ry="18"/>
<text text-anchor="middle" x="5750.27" y="-85.8" font-family="Times,serif" font-size="14.00">(Options,SimpleName,44,44)</text>
</g>
<!-- 208866101&#45;&gt;543846639 -->
<g id="edge15" class="edge">
<title>208866101&#45;&gt;543846639</title>
<path fill="none" stroke="black" d="M5750.27,-143.7C5750.27,-135.98 5750.27,-126.71 5750.27,-118.11"/>
<polygon fill="black" stroke="black" points="5753.77,-118.1 5750.27,-108.1 5746.77,-118.1 5753.77,-118.1"/>
</g>
<!-- 921420643 -->
<g id="node19" class="node">
<title>921420643</title>
<ellipse fill="none" stroke="black" cx="6250.27" cy="-162" rx="96.1" ry="18"/>
<text text-anchor="middle" x="6250.27" y="-157.8" font-family="Times,serif" font-size="14.00">(final,Modifier,44,44)</text>
</g>
<!-- 576020159&#45;&gt;921420643 -->
<g id="edge18" class="edge">
<title>576020159&#45;&gt;921420643</title>
<path fill="none" stroke="black" d="M6381.07,-216.23C6356.03,-206.04 6323.94,-192.98 6297.82,-182.35"/>
<polygon fill="black" stroke="black" points="6299.07,-179.08 6288.49,-178.55 6296.43,-185.56 6299.07,-179.08"/>
</g>
<!-- 1165303897 -->
<g id="node20" class="node">
<title>1165303897</title>
<ellipse fill="none" stroke="black" cx="6480.27" cy="-162" rx="116.36" ry="18"/>
<text text-anchor="middle" x="6480.27" y="-157.8" font-family="Times,serif" font-size="14.00">(String[],ArrayType,44,44)</text>
</g>
<!-- 576020159&#45;&gt;1165303897 -->
<g id="edge19" class="edge">
<title>576020159&#45;&gt;1165303897</title>
<path fill="none" stroke="black" d="M6436.61,-215.7C6443.56,-207.3 6452.04,-197.07 6459.67,-187.86"/>
<polygon fill="black" stroke="black" points="6462.42,-190.04 6466.1,-180.1 6457.03,-185.57 6462.42,-190.04"/>
</g>
<!-- 1423561005 -->
<g id="node23" class="node">
<title>1423561005</title>
<ellipse fill="none" stroke="black" cx="6749.27" cy="-162" rx="134.84" ry="18"/>
<text text-anchor="middle" x="6749.27" y="-157.8" font-family="Times,serif" font-size="14.00">(arguments,SimpleName,44,44)</text>
</g>
<!-- 576020159&#45;&gt;1423561005 -->
<g id="edge22" class="edge">
<title>576020159&#45;&gt;1423561005</title>
<path fill="none" stroke="black" d="M6497.7,-216.85C6549.71,-205.72 6618.66,-190.96 6671.23,-179.71"/>
<polygon fill="black" stroke="black" points="6672.13,-183.09 6681.18,-177.58 6670.66,-176.25 6672.13,-183.09"/>
</g>
<!-- 887750041 -->
<g id="node21" class="node">
<title>887750041</title>
<ellipse fill="none" stroke="black" cx="6480.27" cy="-90" rx="114.68" ry="18"/>
<text text-anchor="middle" x="6480.27" y="-85.8" font-family="Times,serif" font-size="14.00">(String,SimpleType,44,44)</text>
</g>
<!-- 1165303897&#45;&gt;887750041 -->
<g id="edge20" class="edge">
<title>1165303897&#45;&gt;887750041</title>
<path fill="none" stroke="black" d="M6480.27,-143.7C6480.27,-135.98 6480.27,-126.71 6480.27,-118.11"/>
<polygon fill="black" stroke="black" points="6483.77,-118.1 6480.27,-108.1 6476.77,-118.1 6483.77,-118.1"/>
</g>
<!-- 1010953501 -->
<g id="node22" class="node">
<title>1010953501</title>
<ellipse fill="none" stroke="black" cx="6480.27" cy="-18" rx="118.11" ry="18"/>
<text text-anchor="middle" x="6480.27" y="-13.8" font-family="Times,serif" font-size="14.00">(String,SimpleName,44,44)</text>
</g>
<!-- 887750041&#45;&gt;1010953501 -->
<g id="edge21" class="edge">
<title>887750041&#45;&gt;1010953501</title>
<path fill="none" stroke="black" d="M6480.27,-71.7C6480.27,-63.98 6480.27,-54.71 6480.27,-46.11"/>
<polygon fill="black" stroke="black" points="6483.77,-46.1 6480.27,-36.1 6476.77,-46.1 6483.77,-46.1"/>
</g>
<!-- 1136419747 -->
<g id="node25" class="node">
<title>1136419747</title>
<ellipse fill="none" stroke="black" cx="7170.27" cy="-162" rx="267.71" ry="18"/>
<text text-anchor="middle" x="7170.27" y="-157.8" font-family="Times,serif" font-size="14.00">(@SuppressWarnings(&quot;unused&quot;),SingleMemberAnnotation,45,45)</text>
</g>
<!-- 943870983&#45;&gt;1136419747 -->
<g id="edge24" class="edge">
<title>943870983&#45;&gt;1136419747</title>
<path fill="none" stroke="black" d="M7461.74,-216.41C7403.45,-205.73 7327.7,-191.85 7268.04,-180.91"/>
<polygon fill="black" stroke="black" points="7268.32,-177.41 7257.85,-179.05 7267.06,-184.29 7268.32,-177.41"/>
</g>
<!-- 1084502906 -->
<g id="node28" class="node">
<title>1084502906</title>
<ellipse fill="none" stroke="black" cx="7552.27" cy="-162" rx="96.1" ry="18"/>
<text text-anchor="middle" x="7552.27" y="-157.8" font-family="Times,serif" font-size="14.00">(final,Modifier,45,45)</text>
</g>
<!-- 943870983&#45;&gt;1084502906 -->
<g id="edge27" class="edge">
<title>943870983&#45;&gt;1084502906</title>
<path fill="none" stroke="black" d="M7552.27,-215.7C7552.27,-207.98 7552.27,-198.71 7552.27,-190.11"/>
<polygon fill="black" stroke="black" points="7555.77,-190.1 7552.27,-180.1 7548.77,-190.1 7555.77,-190.1"/>
</g>
<!-- 1613095350 -->
<g id="node29" class="node">
<title>1613095350</title>
<ellipse fill="none" stroke="black" cx="7796.27" cy="-162" rx="130.26" ry="18"/>
<text text-anchor="middle" x="7796.27" y="-157.8" font-family="Times,serif" font-size="14.00">(boolean,PrimitiveType,45,45)</text>
</g>
<!-- 943870983&#45;&gt;1613095350 -->
<g id="edge28" class="edge">
<title>943870983&#45;&gt;1613095350</title>
<path fill="none" stroke="black" d="M7611.03,-216.14C7647.66,-205.63 7694.81,-192.11 7732.37,-181.33"/>
<polygon fill="black" stroke="black" points="7733.55,-184.64 7742.2,-178.51 7731.62,-177.91 7733.55,-184.64"/>
</g>
<!-- 587153993 -->
<g id="node30" class="node">
<title>587153993</title>
<ellipse fill="none" stroke="black" cx="8108.27" cy="-162" rx="163.81" ry="18"/>
<text text-anchor="middle" x="8108.27" y="-157.8" font-family="Times,serif" font-size="14.00">(stopAtNonOption,SimpleName,45,45)</text>
</g>
<!-- 943870983&#45;&gt;587153993 -->
<g id="edge29" class="edge">
<title>943870983&#45;&gt;587153993</title>
<path fill="none" stroke="black" d="M7679.83,-216.94C7774.85,-204.98 7903.44,-188.79 7994.88,-177.28"/>
<polygon fill="black" stroke="black" points="7995.52,-180.72 8005.01,-176 7994.65,-173.78 7995.52,-180.72"/>
</g>
<!-- 1881561036 -->
<g id="node26" class="node">
<title>1881561036</title>
<ellipse fill="none" stroke="black" cx="7013.27" cy="-90" rx="166.73" ry="18"/>
<text text-anchor="middle" x="7013.27" y="-85.8" font-family="Times,serif" font-size="14.00">(SuppressWarnings,SimpleName,45,45)</text>
</g>
<!-- 1136419747&#45;&gt;1881561036 -->
<g id="edge25" class="edge">
<title>1136419747&#45;&gt;1881561036</title>
<path fill="none" stroke="black" d="M7132.27,-144.05C7110.49,-134.35 7082.99,-122.09 7059.92,-111.8"/>
<polygon fill="black" stroke="black" points="7061.22,-108.54 7050.66,-107.67 7058.37,-114.94 7061.22,-108.54"/>
</g>
<!-- 1785507932 -->
<g id="node27" class="node">
<title>1785507932</title>
<ellipse fill="none" stroke="black" cx="7326.27" cy="-90" rx="128.73" ry="18"/>
<text text-anchor="middle" x="7326.27" y="-85.8" font-family="Times,serif" font-size="14.00">(&quot;unused&quot;,StringLiteral,45,45)</text>
</g>
<!-- 1136419747&#45;&gt;1785507932 -->
<g id="edge26" class="edge">
<title>1136419747&#45;&gt;1785507932</title>
<path fill="none" stroke="black" d="M7208.04,-144.05C7229.91,-134.24 7257.6,-121.82 7280.68,-111.46"/>
<polygon fill="black" stroke="black" points="7282.24,-114.59 7289.93,-107.31 7279.38,-108.21 7282.24,-114.59"/>
</g>
<!-- 1279271200 -->
<g id="node32" class="node">
<title>1279271200</title>
<ellipse fill="none" stroke="black" cx="8469.27" cy="-162" rx="179.94" ry="18"/>
<text text-anchor="middle" x="8469.27" y="-157.8" font-family="Times,serif" font-size="14.00">(return arguments; ,ReturnStatement,47,47)</text>
</g>
<!-- 757004314&#45;&gt;1279271200 -->
<g id="edge31" class="edge">
<title>757004314&#45;&gt;1279271200</title>
<path fill="none" stroke="black" d="M8335.3,-216.59C8360.14,-206.65 8392,-193.91 8418.43,-183.34"/>
<polygon fill="black" stroke="black" points="8419.91,-186.52 8427.89,-179.55 8417.31,-180.02 8419.91,-186.52"/>
</g>
<!-- 52908367 -->
<g id="node33" class="node">
<title>52908367</title>
<ellipse fill="none" stroke="black" cx="8469.27" cy="-90" rx="134.84" ry="18"/>
<text text-anchor="middle" x="8469.27" y="-85.8" font-family="Times,serif" font-size="14.00">(arguments,SimpleName,47,47)</text>
</g>
<!-- 1279271200&#45;&gt;52908367 -->
<g id="edge32" class="edge">
<title>1279271200&#45;&gt;52908367</title>
<path fill="none" stroke="black" d="M8469.27,-143.7C8469.27,-135.98 8469.27,-126.71 8469.27,-118.11"/>
<polygon fill="black" stroke="black" points="8472.77,-118.1 8469.27,-108.1 8465.77,-118.1 8472.77,-118.1"/>
</g>
</g>
</svg>
