<?xml version="1.0" encoding="UTF-8" standalone="no"?>
<!DOCTYPE svg PUBLIC "-//W3C//DTD SVG 1.1//EN"
 "http://www.w3.org/Graphics/SVG/1.1/DTD/svg11.dtd">
<!-- Generated by graphviz version 2.50.0 (20211204.2007)
 -->
<!-- Title: DirectedGraph Pages: 1 -->
<svg width="2247pt" height="285pt"
 viewBox="0.00 0.00 2247.48 284.80" xmlns="http://www.w3.org/2000/svg" xmlns:xlink="http://www.w3.org/1999/xlink">
<g id="graph0" class="graph" transform="scale(1 1) rotate(0) translate(4 280.8)">
<title>DirectedGraph</title>
<polygon fill="white" stroke="transparent" points="-4,4 -4,-280.8 2243.48,-280.8 2243.48,4 -4,4"/>
<text text-anchor="middle" x="1119.74" y="-260.2" font-family="Times,serif" font-size="14.00">getOption</text>
<!-- 522553046 -->
<g id="node1" class="node">
<title>522553046</title>
<ellipse fill="none" stroke="black" cx="1468.45" cy="-234" rx="771.07" ry="18"/>
<text text-anchor="middle" x="1468.45" y="-229.8" font-family="Times,serif" font-size="14.00">(/** &#160;* Gets the option that was added to the group and triggered the exception. * @return the related option * @since 1.2 */ public Option getOption(){ &#160;return option; } ,MethodDeclaration,63,71)</text>
</g>
<!-- 275266973 -->
<g id="node2" class="node">
<title>275266973</title>
<ellipse fill="none" stroke="black" cx="554.45" cy="-162" rx="554.39" ry="18"/>
<text text-anchor="middle" x="554.45" y="-157.8" font-family="Times,serif" font-size="14.00">(/** &#160;* Gets the option that was added to the group and triggered the exception. * @return the related option * @since 1.2 */ ,Javadoc,63,68)</text>
</g>
<!-- 522553046&#45;&gt;275266973 -->
<g id="edge1" class="edge">
<title>522553046&#45;&gt;275266973</title>
<path fill="none" stroke="black" d="M1255.6,-216.7C1109.55,-205.51 916.41,-190.72 769.82,-179.49"/>
<polygon fill="black" stroke="black" points="770.03,-176 759.79,-178.73 769.49,-182.98 770.03,-176"/>
</g>
<!-- 1069716895 -->
<g id="node3" class="node">
<title>1069716895</title>
<ellipse fill="none" stroke="black" cx="1229.45" cy="-162" rx="102.48" ry="18"/>
<text text-anchor="middle" x="1229.45" y="-157.8" font-family="Times,serif" font-size="14.00">(public,Modifier,69,69)</text>
</g>
<!-- 522553046&#45;&gt;1069716895 -->
<g id="edge2" class="edge">
<title>522553046&#45;&gt;1069716895</title>
<path fill="none" stroke="black" d="M1410.29,-215.97C1373.63,-205.23 1326.41,-191.4 1289.41,-180.56"/>
<polygon fill="black" stroke="black" points="1290.34,-177.19 1279.75,-177.73 1288.37,-183.9 1290.34,-177.19"/>
</g>
<!-- 1521083627 -->
<g id="node4" class="node">
<title>1521083627</title>
<ellipse fill="none" stroke="black" cx="1468.45" cy="-162" rx="118.11" ry="18"/>
<text text-anchor="middle" x="1468.45" y="-157.8" font-family="Times,serif" font-size="14.00">(Option,SimpleType,69,69)</text>
</g>
<!-- 522553046&#45;&gt;1521083627 -->
<g id="edge3" class="edge">
<title>522553046&#45;&gt;1521083627</title>
<path fill="none" stroke="black" d="M1468.45,-215.7C1468.45,-207.98 1468.45,-198.71 1468.45,-190.11"/>
<polygon fill="black" stroke="black" points="1471.95,-190.1 1468.45,-180.1 1464.95,-190.1 1471.95,-190.1"/>
</g>
<!-- 945591847 -->
<g id="node6" class="node">
<title>945591847</title>
<ellipse fill="none" stroke="black" cx="1737.45" cy="-162" rx="133.14" ry="18"/>
<text text-anchor="middle" x="1737.45" y="-157.8" font-family="Times,serif" font-size="14.00">(getOption,SimpleName,69,69)</text>
</g>
<!-- 522553046&#45;&gt;945591847 -->
<g id="edge5" class="edge">
<title>522553046&#45;&gt;945591847</title>
<path fill="none" stroke="black" d="M1533.56,-216.05C1574.59,-205.38 1627.48,-191.62 1669.1,-180.78"/>
<polygon fill="black" stroke="black" points="1670.09,-184.14 1678.89,-178.24 1668.33,-177.37 1670.09,-184.14"/>
</g>
<!-- 328827614 -->
<g id="node7" class="node">
<title>328827614</title>
<ellipse fill="none" stroke="black" cx="2027.45" cy="-162" rx="138.71" ry="18"/>
<text text-anchor="middle" x="2027.45" y="-157.8" font-family="Times,serif" font-size="14.00">({ &#160;return option; } ,Block,69,71)</text>
</g>
<!-- 522553046&#45;&gt;328827614 -->
<g id="edge6" class="edge">
<title>522553046&#45;&gt;328827614</title>
<path fill="none" stroke="black" d="M1602.34,-216.23C1700.1,-203.99 1830.83,-187.62 1921.38,-176.28"/>
<polygon fill="black" stroke="black" points="1921.91,-179.74 1931.4,-175.03 1921.04,-172.8 1921.91,-179.74"/>
</g>
<!-- 1770642014 -->
<g id="node5" class="node">
<title>1770642014</title>
<ellipse fill="none" stroke="black" cx="1468.45" cy="-90" rx="121.04" ry="18"/>
<text text-anchor="middle" x="1468.45" y="-85.8" font-family="Times,serif" font-size="14.00">(Option,SimpleName,69,69)</text>
</g>
<!-- 1521083627&#45;&gt;1770642014 -->
<g id="edge4" class="edge">
<title>1521083627&#45;&gt;1770642014</title>
<path fill="none" stroke="black" d="M1468.45,-143.7C1468.45,-135.98 1468.45,-126.71 1468.45,-118.11"/>
<polygon fill="black" stroke="black" points="1471.95,-118.1 1468.45,-108.1 1464.95,-118.1 1471.95,-118.1"/>
</g>
<!-- 109228794 -->
<g id="node8" class="node">
<title>109228794</title>
<ellipse fill="none" stroke="black" cx="2027.45" cy="-90" rx="164.35" ry="18"/>
<text text-anchor="middle" x="2027.45" y="-85.8" font-family="Times,serif" font-size="14.00">(return option; ,ReturnStatement,70,70)</text>
</g>
<!-- 328827614&#45;&gt;109228794 -->
<g id="edge7" class="edge">
<title>328827614&#45;&gt;109228794</title>
<path fill="none" stroke="black" d="M2027.45,-143.7C2027.45,-135.98 2027.45,-126.71 2027.45,-118.11"/>
<polygon fill="black" stroke="black" points="2030.95,-118.1 2027.45,-108.1 2023.95,-118.1 2030.95,-118.1"/>
</g>
<!-- 561959774 -->
<g id="node9" class="node">
<title>561959774</title>
<ellipse fill="none" stroke="black" cx="2027.45" cy="-18" rx="119.25" ry="18"/>
<text text-anchor="middle" x="2027.45" y="-13.8" font-family="Times,serif" font-size="14.00">(option,SimpleName,70,70)</text>
</g>
<!-- 109228794&#45;&gt;561959774 -->
<g id="edge8" class="edge">
<title>109228794&#45;&gt;561959774</title>
<path fill="none" stroke="black" d="M2027.45,-71.7C2027.45,-63.98 2027.45,-54.71 2027.45,-46.11"/>
<polygon fill="black" stroke="black" points="2030.95,-46.1 2027.45,-36.1 2023.95,-46.1 2030.95,-46.1"/>
</g>
</g>
</svg>
