<?xml version="1.0" encoding="UTF-8" standalone="no"?>
<!DOCTYPE svg PUBLIC "-//W3C//DTD SVG 1.1//EN"
 "http://www.w3.org/Graphics/SVG/1.1/DTD/svg11.dtd">
<!-- Generated by graphviz version 2.50.0 (20211204.2007)
 -->
<!-- Title: DirectedGraph Pages: 1 -->
<svg width="5134pt" height="429pt"
 viewBox="0.00 0.00 5133.54 428.80" xmlns="http://www.w3.org/2000/svg" xmlns:xlink="http://www.w3.org/1999/xlink">
<g id="graph0" class="graph" transform="scale(1 1) rotate(0) translate(4 424.8)">
<title>DirectedGraph</title>
<polygon fill="white" stroke="transparent" points="-4,4 -4,-424.8 5129.54,-424.8 5129.54,4 -4,4"/>
<text text-anchor="middle" x="2562.77" y="-404.2" font-family="Times,serif" font-size="14.00">getParsedOptionValue</text>
<!-- 651802632 -->
<g id="node1" class="node">
<title>651802632</title>
<ellipse fill="none" stroke="black" cx="3285.25" cy="-378" rx="1840.08" ry="18"/>
<text text-anchor="middle" x="3285.25" y="-373.8" font-family="Times,serif" font-size="14.00">(/** &#160;* Return a version of this {@code Option} converted to a particular type. * @param opt the name of the option. * @return the value parsed into a particular object. * @throws ParseException if there are problems turning the option value into the desired type * @see PatternOptionBuilder * @since 1.2 */ public Object getParsedOptionValue(final String opt) throws ParseException { &#160;return getParsedOptionValue(resolveOption(opt)); } ,MethodDeclaration,377,388)</text>
</g>
<!-- 259564670 -->
<g id="node2" class="node">
<title>259564670</title>
<ellipse fill="none" stroke="black" cx="1281.25" cy="-306" rx="1281" ry="18"/>
<text text-anchor="middle" x="1281.25" y="-301.8" font-family="Times,serif" font-size="14.00">(/** &#160;* Return a version of this {@code Option} converted to a particular type. * @param opt the name of the option. * @return the value parsed into a particular object. * @throws ParseException if there are problems turning the option value into the desired type * @see PatternOptionBuilder * @since 1.2 */ ,Javadoc,377,385)</text>
</g>
<!-- 651802632&#45;&gt;259564670 -->
<g id="edge1" class="edge">
<title>651802632&#45;&gt;259564670</title>
<path fill="none" stroke="black" d="M2815.4,-360.59C2492.81,-349.32 2066.55,-334.43 1745.22,-323.21"/>
<polygon fill="black" stroke="black" points="1744.91,-319.69 1734.79,-322.84 1744.67,-326.69 1744.91,-319.69"/>
</g>
<!-- 1682681674 -->
<g id="node3" class="node">
<title>1682681674</title>
<ellipse fill="none" stroke="black" cx="2692.25" cy="-306" rx="112.29" ry="18"/>
<text text-anchor="middle" x="2692.25" y="-301.8" font-family="Times,serif" font-size="14.00">(public,Modifier,386,386)</text>
</g>
<!-- 651802632&#45;&gt;1682681674 -->
<g id="edge2" class="edge">
<title>651802632&#45;&gt;1682681674</title>
<path fill="none" stroke="black" d="M3124.28,-360.04C3032.97,-350.15 2916.64,-337.06 2813.25,-324 2803.38,-322.75 2793.08,-321.39 2782.82,-320"/>
<polygon fill="black" stroke="black" points="2782.97,-316.49 2772.59,-318.61 2782.02,-323.43 2782.97,-316.49"/>
</g>
<!-- 1965445467 -->
<g id="node4" class="node">
<title>1965445467</title>
<ellipse fill="none" stroke="black" cx="2949.25" cy="-306" rx="126.76" ry="18"/>
<text text-anchor="middle" x="2949.25" y="-301.8" font-family="Times,serif" font-size="14.00">(Object,SimpleType,386,386)</text>
</g>
<!-- 651802632&#45;&gt;1965445467 -->
<g id="edge3" class="edge">
<title>651802632&#45;&gt;1965445467</title>
<path fill="none" stroke="black" d="M3203.48,-359.97C3149.92,-348.81 3080.32,-334.31 3027.48,-323.3"/>
<polygon fill="black" stroke="black" points="3027.99,-319.83 3017.49,-321.22 3026.56,-326.68 3027.99,-319.83"/>
</g>
<!-- 1422238463 -->
<g id="node6" class="node">
<title>1422238463</title>
<ellipse fill="none" stroke="black" cx="3285.25" cy="-306" rx="191.56" ry="18"/>
<text text-anchor="middle" x="3285.25" y="-301.8" font-family="Times,serif" font-size="14.00">(getParsedOptionValue,SimpleName,386,386)</text>
</g>
<!-- 651802632&#45;&gt;1422238463 -->
<g id="edge5" class="edge">
<title>651802632&#45;&gt;1422238463</title>
<path fill="none" stroke="black" d="M3285.25,-359.7C3285.25,-351.98 3285.25,-342.71 3285.25,-334.11"/>
<polygon fill="black" stroke="black" points="3288.75,-334.1 3285.25,-324.1 3281.75,-334.1 3288.75,-334.1"/>
</g>
<!-- 1833789138 -->
<g id="node7" class="node">
<title>1833789138</title>
<ellipse fill="none" stroke="black" cx="3710.25" cy="-306" rx="215.24" ry="18"/>
<text text-anchor="middle" x="3710.25" y="-301.8" font-family="Times,serif" font-size="14.00">(final String opt,SingleVariableDeclaration,386,386)</text>
</g>
<!-- 651802632&#45;&gt;1833789138 -->
<g id="edge6" class="edge">
<title>651802632&#45;&gt;1833789138</title>
<path fill="none" stroke="black" d="M3388.4,-360.01C3454.89,-349.06 3541,-334.88 3607.42,-323.94"/>
<polygon fill="black" stroke="black" points="3608.19,-327.36 3617.49,-322.28 3607.05,-320.45 3608.19,-327.36"/>
</g>
<!-- 1990519794 -->
<g id="node12" class="node">
<title>1990519794</title>
<ellipse fill="none" stroke="black" cx="4107.25" cy="-306" rx="164.34" ry="18"/>
<text text-anchor="middle" x="4107.25" y="-301.8" font-family="Times,serif" font-size="14.00">(ParseException,SimpleName,386,386)</text>
</g>
<!-- 651802632&#45;&gt;1990519794 -->
<g id="edge11" class="edge">
<title>651802632&#45;&gt;1990519794</title>
<path fill="none" stroke="black" d="M3503.14,-360.11C3629.15,-350.11 3790.69,-336.91 3934.25,-324 3949.17,-322.66 3964.8,-321.2 3980.32,-319.71"/>
<polygon fill="black" stroke="black" points="3980.87,-323.18 3990.49,-318.74 3980.2,-316.21 3980.87,-323.18"/>
</g>
<!-- 780934299 -->
<g id="node13" class="node">
<title>780934299</title>
<ellipse fill="none" stroke="black" cx="4580.25" cy="-306" rx="291.35" ry="18"/>
<text text-anchor="middle" x="4580.25" y="-301.8" font-family="Times,serif" font-size="14.00">({ &#160;return getParsedOptionValue(resolveOption(opt)); } ,Block,386,388)</text>
</g>
<!-- 651802632&#45;&gt;780934299 -->
<g id="edge12" class="edge">
<title>651802632&#45;&gt;780934299</title>
<path fill="none" stroke="black" d="M3604.54,-360.27C3799.71,-349.97 4054.41,-336.41 4280.25,-324 4307.51,-322.5 4336.16,-320.91 4364.49,-319.31"/>
<polygon fill="black" stroke="black" points="4364.71,-322.81 4374.5,-318.75 4364.32,-315.82 4364.71,-322.81"/>
</g>
<!-- 517254671 -->
<g id="node5" class="node">
<title>517254671</title>
<ellipse fill="none" stroke="black" cx="2949.25" cy="-234" rx="129.69" ry="18"/>
<text text-anchor="middle" x="2949.25" y="-229.8" font-family="Times,serif" font-size="14.00">(Object,SimpleName,386,386)</text>
</g>
<!-- 1965445467&#45;&gt;517254671 -->
<g id="edge4" class="edge">
<title>1965445467&#45;&gt;517254671</title>
<path fill="none" stroke="black" d="M2949.25,-287.7C2949.25,-279.98 2949.25,-270.71 2949.25,-262.11"/>
<polygon fill="black" stroke="black" points="2952.75,-262.1 2949.25,-252.1 2945.75,-262.1 2952.75,-262.1"/>
</g>
<!-- 707157673 -->
<g id="node8" class="node">
<title>707157673</title>
<ellipse fill="none" stroke="black" cx="3462.25" cy="-234" rx="105.91" ry="18"/>
<text text-anchor="middle" x="3462.25" y="-229.8" font-family="Times,serif" font-size="14.00">(final,Modifier,386,386)</text>
</g>
<!-- 1833789138&#45;&gt;707157673 -->
<g id="edge7" class="edge">
<title>1833789138&#45;&gt;707157673</title>
<path fill="none" stroke="black" d="M3652.11,-288.59C3613.7,-277.75 3563.42,-263.56 3524.25,-252.5"/>
<polygon fill="black" stroke="black" points="3525.12,-249.11 3514.55,-249.76 3523.22,-255.85 3525.12,-249.11"/>
</g>
<!-- 288958772 -->
<g id="node9" class="node">
<title>288958772</title>
<ellipse fill="none" stroke="black" cx="3710.25" cy="-234" rx="124.49" ry="18"/>
<text text-anchor="middle" x="3710.25" y="-229.8" font-family="Times,serif" font-size="14.00">(String,SimpleType,386,386)</text>
</g>
<!-- 1833789138&#45;&gt;288958772 -->
<g id="edge8" class="edge">
<title>1833789138&#45;&gt;288958772</title>
<path fill="none" stroke="black" d="M3710.25,-287.7C3710.25,-279.98 3710.25,-270.71 3710.25,-262.11"/>
<polygon fill="black" stroke="black" points="3713.75,-262.1 3710.25,-252.1 3706.75,-262.1 3713.75,-262.1"/>
</g>
<!-- 1852777344 -->
<g id="node11" class="node">
<title>1852777344</title>
<ellipse fill="none" stroke="black" cx="3969.25" cy="-234" rx="116.38" ry="18"/>
<text text-anchor="middle" x="3969.25" y="-229.8" font-family="Times,serif" font-size="14.00">(opt,SimpleName,386,386)</text>
</g>
<!-- 1833789138&#45;&gt;1852777344 -->
<g id="edge10" class="edge">
<title>1833789138&#45;&gt;1852777344</title>
<path fill="none" stroke="black" d="M3770.65,-288.68C3810.69,-277.85 3863.21,-263.66 3904.18,-252.59"/>
<polygon fill="black" stroke="black" points="3905.32,-255.9 3914.06,-249.92 3903.5,-249.15 3905.32,-255.9"/>
</g>
<!-- 1754444726 -->
<g id="node10" class="node">
<title>1754444726</title>
<ellipse fill="none" stroke="black" cx="3710.25" cy="-162" rx="127.92" ry="18"/>
<text text-anchor="middle" x="3710.25" y="-157.8" font-family="Times,serif" font-size="14.00">(String,SimpleName,386,386)</text>
</g>
<!-- 288958772&#45;&gt;1754444726 -->
<g id="edge9" class="edge">
<title>288958772&#45;&gt;1754444726</title>
<path fill="none" stroke="black" d="M3710.25,-215.7C3710.25,-207.98 3710.25,-198.71 3710.25,-190.11"/>
<polygon fill="black" stroke="black" points="3713.75,-190.1 3710.25,-180.1 3706.75,-190.1 3713.75,-190.1"/>
</g>
<!-- 1409160703 -->
<g id="node14" class="node">
<title>1409160703</title>
<ellipse fill="none" stroke="black" cx="4580.25" cy="-234" rx="316.49" ry="18"/>
<text text-anchor="middle" x="4580.25" y="-229.8" font-family="Times,serif" font-size="14.00">(return getParsedOptionValue(resolveOption(opt)); ,ReturnStatement,387,387)</text>
</g>
<!-- 780934299&#45;&gt;1409160703 -->
<g id="edge13" class="edge">
<title>780934299&#45;&gt;1409160703</title>
<path fill="none" stroke="black" d="M4580.25,-287.7C4580.25,-279.98 4580.25,-270.71 4580.25,-262.11"/>
<polygon fill="black" stroke="black" points="4583.75,-262.1 4580.25,-252.1 4576.75,-262.1 4583.75,-262.1"/>
</g>
<!-- 1150963491 -->
<g id="node15" class="node">
<title>1150963491</title>
<ellipse fill="none" stroke="black" cx="4580.25" cy="-162" rx="292.22" ry="18"/>
<text text-anchor="middle" x="4580.25" y="-157.8" font-family="Times,serif" font-size="14.00">(getParsedOptionValue(resolveOption(opt)),MethodInvocation,387,387)</text>
</g>
<!-- 1409160703&#45;&gt;1150963491 -->
<g id="edge14" class="edge">
<title>1409160703&#45;&gt;1150963491</title>
<path fill="none" stroke="black" d="M4580.25,-215.7C4580.25,-207.98 4580.25,-198.71 4580.25,-190.11"/>
<polygon fill="black" stroke="black" points="4583.75,-190.1 4580.25,-180.1 4576.75,-190.1 4583.75,-190.1"/>
</g>
<!-- 355518265 -->
<g id="node16" class="node">
<title>355518265</title>
<ellipse fill="none" stroke="black" cx="4376.25" cy="-90" rx="191.56" ry="18"/>
<text text-anchor="middle" x="4376.25" y="-85.8" font-family="Times,serif" font-size="14.00">(getParsedOptionValue,SimpleName,387,387)</text>
</g>
<!-- 1150963491&#45;&gt;355518265 -->
<g id="edge15" class="edge">
<title>1150963491&#45;&gt;355518265</title>
<path fill="none" stroke="black" d="M4531.39,-144.23C4502.14,-134.2 4464.8,-121.38 4434.08,-110.84"/>
<polygon fill="black" stroke="black" points="4434.96,-107.44 4424.36,-107.51 4432.68,-114.07 4434.96,-107.44"/>
</g>
<!-- 1528195520 -->
<g id="node17" class="node">
<title>1528195520</title>
<ellipse fill="none" stroke="black" cx="4784.25" cy="-90" rx="198.51" ry="18"/>
<text text-anchor="middle" x="4784.25" y="-85.8" font-family="Times,serif" font-size="14.00">(resolveOption(opt),MethodInvocation,387,387)</text>
</g>
<!-- 1150963491&#45;&gt;1528195520 -->
<g id="edge16" class="edge">
<title>1150963491&#45;&gt;1528195520</title>
<path fill="none" stroke="black" d="M4629.11,-144.23C4658.36,-134.2 4695.7,-121.38 4726.42,-110.84"/>
<polygon fill="black" stroke="black" points="4727.82,-114.07 4736.14,-107.51 4725.54,-107.44 4727.82,-114.07"/>
</g>
<!-- 2028265136 -->
<g id="node18" class="node">
<title>2028265136</title>
<ellipse fill="none" stroke="black" cx="4637.25" cy="-18" rx="158.63" ry="18"/>
<text text-anchor="middle" x="4637.25" y="-13.8" font-family="Times,serif" font-size="14.00">(resolveOption,SimpleName,387,387)</text>
</g>
<!-- 1528195520&#45;&gt;2028265136 -->
<g id="edge17" class="edge">
<title>1528195520&#45;&gt;2028265136</title>
<path fill="none" stroke="black" d="M4749.04,-72.23C4728.77,-62.58 4703.1,-50.36 4681.48,-40.06"/>
<polygon fill="black" stroke="black" points="4682.71,-36.77 4672.17,-35.63 4679.7,-43.09 4682.71,-36.77"/>
</g>
<!-- 1855026648 -->
<g id="node19" class="node">
<title>1855026648</title>
<ellipse fill="none" stroke="black" cx="4930.25" cy="-18" rx="116.38" ry="18"/>
<text text-anchor="middle" x="4930.25" y="-13.8" font-family="Times,serif" font-size="14.00">(opt,SimpleName,387,387)</text>
</g>
<!-- 1528195520&#45;&gt;1855026648 -->
<g id="edge18" class="edge">
<title>1528195520&#45;&gt;1855026648</title>
<path fill="none" stroke="black" d="M4819.22,-72.23C4839.58,-62.47 4865.41,-50.09 4887.03,-39.72"/>
<polygon fill="black" stroke="black" points="4888.82,-42.75 4896.32,-35.27 4885.79,-36.44 4888.82,-42.75"/>
</g>
</g>
</svg>
