<?xml version="1.0" encoding="UTF-8" standalone="no"?>
<!DOCTYPE svg PUBLIC "-//W3C//DTD SVG 1.1//EN"
 "http://www.w3.org/Graphics/SVG/1.1/DTD/svg11.dtd">
<!-- Generated by graphviz version 2.50.0 (20211204.2007)
 -->
<!-- Title: DirectedGraph Pages: 1 -->
<svg width="1174pt" height="141pt"
 viewBox="0.00 0.00 1173.53 140.80" xmlns="http://www.w3.org/2000/svg" xmlns:xlink="http://www.w3.org/1999/xlink">
<g id="graph0" class="graph" transform="scale(1 1) rotate(0) translate(4 136.8)">
<title>DirectedGraph</title>
<polygon fill="white" stroke="transparent" points="-4,4 -4,-136.8 1169.53,-136.8 1169.53,4 -4,4"/>
<text text-anchor="middle" x="582.77" y="-116.2" font-family="Times,serif" font-size="14.00">CommandLine</text>
<!-- 1725008249 -->
<g id="node1" class="node">
<title>1725008249</title>
<ellipse fill="none" stroke="black" cx="689.34" cy="-90" rx="368.24" ry="18"/>
<text text-anchor="middle" x="689.34" y="-85.8" font-family="Times,serif" font-size="14.00">(/** &#160;* Creates a command line. */ protected CommandLine(){ } ,MethodDeclaration,86,91)</text>
</g>
<!-- 197964393 -->
<g id="node2" class="node">
<title>197964393</title>
<ellipse fill="none" stroke="black" cx="207.34" cy="-18" rx="207.18" ry="18"/>
<text text-anchor="middle" x="207.34" y="-13.8" font-family="Times,serif" font-size="14.00">(/** &#160;* Creates a command line. */ ,Javadoc,86,88)</text>
</g>
<!-- 1725008249&#45;&gt;197964393 -->
<g id="edge1" class="edge">
<title>1725008249&#45;&gt;197964393</title>
<path fill="none" stroke="black" d="M577.85,-72.81C500.15,-61.52 396.89,-46.53 319.12,-35.23"/>
<polygon fill="black" stroke="black" points="319.2,-31.71 308.8,-33.74 318.2,-38.64 319.2,-31.71"/>
</g>
<!-- 1620890840 -->
<g id="node3" class="node">
<title>1620890840</title>
<ellipse fill="none" stroke="black" cx="547.34" cy="-18" rx="114.06" ry="18"/>
<text text-anchor="middle" x="547.34" y="-13.8" font-family="Times,serif" font-size="14.00">(protected,Modifier,89,89)</text>
</g>
<!-- 1725008249&#45;&gt;1620890840 -->
<g id="edge2" class="edge">
<title>1725008249&#45;&gt;1620890840</title>
<path fill="none" stroke="black" d="M654.97,-72.05C635.23,-62.33 610.3,-50.04 589.4,-39.73"/>
<polygon fill="black" stroke="black" points="590.94,-36.59 580.42,-35.31 587.84,-42.87 590.94,-36.59"/>
</g>
<!-- 402115881 -->
<g id="node4" class="node">
<title>402115881</title>
<ellipse fill="none" stroke="black" cx="832.34" cy="-18" rx="152.26" ry="18"/>
<text text-anchor="middle" x="832.34" y="-13.8" font-family="Times,serif" font-size="14.00">(CommandLine,SimpleName,89,89)</text>
</g>
<!-- 1725008249&#45;&gt;402115881 -->
<g id="edge3" class="edge">
<title>1725008249&#45;&gt;402115881</title>
<path fill="none" stroke="black" d="M723.96,-72.05C743.45,-62.51 767.99,-50.5 788.78,-40.32"/>
<polygon fill="black" stroke="black" points="790.6,-43.33 798.04,-35.79 787.52,-37.04 790.6,-43.33"/>
</g>
<!-- 2106000623 -->
<g id="node5" class="node">
<title>2106000623</title>
<ellipse fill="none" stroke="black" cx="1084.34" cy="-18" rx="81.38" ry="18"/>
<text text-anchor="middle" x="1084.34" y="-13.8" font-family="Times,serif" font-size="14.00">({ } ,Block,89,91)</text>
</g>
<!-- 1725008249&#45;&gt;2106000623 -->
<g id="edge4" class="edge">
<title>1725008249&#45;&gt;2106000623</title>
<path fill="none" stroke="black" d="M785.23,-72.59C845.1,-62.26 923.75,-48.57 993.34,-36 1000.3,-34.74 1007.55,-33.42 1014.8,-32.08"/>
<polygon fill="black" stroke="black" points="1015.44,-35.52 1024.64,-30.26 1014.17,-28.64 1015.44,-35.52"/>
</g>
</g>
</svg>
