<?xml version="1.0" encoding="UTF-8" standalone="no"?>
<!DOCTYPE svg PUBLIC "-//W3C//DTD SVG 1.1//EN"
 "http://www.w3.org/Graphics/SVG/1.1/DTD/svg11.dtd">
<!-- Generated by graphviz version 2.50.0 (20211204.2007)
 -->
<!-- Title: DirectedGraph Pages: 1 -->
<svg width="5062pt" height="645pt"
 viewBox="0.00 0.00 5061.53 644.80" xmlns="http://www.w3.org/2000/svg" xmlns:xlink="http://www.w3.org/1999/xlink">
<g id="graph0" class="graph" transform="scale(1 1) rotate(0) translate(4 640.8)">
<title>DirectedGraph</title>
<polygon fill="white" stroke="transparent" points="-4,4 -4,-640.8 5057.53,-640.8 5057.53,4 -4,4"/>
<text text-anchor="middle" x="2526.76" y="-620.2" font-family="Times,serif" font-size="14.00">resolveOption</text>
<!-- 2135449562 -->
<g id="node1" class="node">
<title>2135449562</title>
<ellipse fill="none" stroke="black" cx="1947.92" cy="-594" rx="1607.06" ry="18"/>
<text text-anchor="middle" x="1947.92" y="-589.8" font-family="Times,serif" font-size="14.00">(/** &#160;* Retrieves the option object given the long or short option as a String * @param opt short or long name of the option. * @return Canonicalized option. */ private Option resolveOption(String opt){ &#160;opt=Util.stripLeadingHyphens(opt); &#160;for ( final Option option : options) { &#160;&#160;if (opt.equals(option.getOpt()) || opt.equals(option.getLongOpt())) { &#160;&#160;&#160;return option; &#160;&#160;} &#160;} &#160;return null; } ,MethodDeclaration,448,463)</text>
</g>
<!-- 673586830 -->
<g id="node2" class="node">
<title>673586830</title>
<ellipse fill="none" stroke="black" cx="700.92" cy="-522" rx="700.84" ry="18"/>
<text text-anchor="middle" x="700.92" y="-517.8" font-family="Times,serif" font-size="14.00">(/** &#160;* Retrieves the option object given the long or short option as a String * @param opt short or long name of the option. * @return Canonicalized option. */ ,Javadoc,448,453)</text>
</g>
<!-- 2135449562&#45;&gt;673586830 -->
<g id="edge1" class="edge">
<title>2135449562&#45;&gt;673586830</title>
<path fill="none" stroke="black" d="M1650.42,-576.3C1449.75,-565.04 1186.39,-550.25 987.95,-539.11"/>
<polygon fill="black" stroke="black" points="988.14,-535.62 977.96,-538.55 987.74,-542.61 988.14,-535.62"/>
</g>
<!-- 225672073 -->
<g id="node3" class="node">
<title>225672073</title>
<ellipse fill="none" stroke="black" cx="1534.92" cy="-522" rx="114.64" ry="18"/>
<text text-anchor="middle" x="1534.92" y="-517.8" font-family="Times,serif" font-size="14.00">(private,Modifier,454,454)</text>
</g>
<!-- 2135449562&#45;&gt;225672073 -->
<g id="edge2" class="edge">
<title>2135449562&#45;&gt;225672073</title>
<path fill="none" stroke="black" d="M1847.68,-576.01C1777.96,-564.19 1686.03,-548.61 1619.91,-537.41"/>
<polygon fill="black" stroke="black" points="1620.38,-533.94 1609.94,-535.71 1619.21,-540.84 1620.38,-533.94"/>
</g>
<!-- 139566260 -->
<g id="node4" class="node">
<title>139566260</title>
<ellipse fill="none" stroke="black" cx="1795.92" cy="-522" rx="127.92" ry="18"/>
<text text-anchor="middle" x="1795.92" y="-517.8" font-family="Times,serif" font-size="14.00">(Option,SimpleType,454,454)</text>
</g>
<!-- 2135449562&#45;&gt;139566260 -->
<g id="edge3" class="edge">
<title>2135449562&#45;&gt;139566260</title>
<path fill="none" stroke="black" d="M1910.74,-575.88C1889.59,-566.14 1862.96,-553.87 1840.67,-543.61"/>
<polygon fill="black" stroke="black" points="1841.96,-540.35 1831.41,-539.35 1839.03,-546.71 1841.96,-540.35"/>
</g>
<!-- 764419760 -->
<g id="node6" class="node">
<title>764419760</title>
<ellipse fill="none" stroke="black" cx="2100.92" cy="-522" rx="158.63" ry="18"/>
<text text-anchor="middle" x="2100.92" y="-517.8" font-family="Times,serif" font-size="14.00">(resolveOption,SimpleName,454,454)</text>
</g>
<!-- 2135449562&#45;&gt;764419760 -->
<g id="edge5" class="edge">
<title>2135449562&#45;&gt;764419760</title>
<path fill="none" stroke="black" d="M1985.35,-575.88C2006.48,-566.21 2033.05,-554.05 2055.38,-543.83"/>
<polygon fill="black" stroke="black" points="2057.03,-546.93 2064.67,-539.59 2054.12,-540.56 2057.03,-546.93"/>
</g>
<!-- 1000966072 -->
<g id="node7" class="node">
<title>1000966072</title>
<ellipse fill="none" stroke="black" cx="2472.92" cy="-522" rx="195.02" ry="18"/>
<text text-anchor="middle" x="2472.92" y="-517.8" font-family="Times,serif" font-size="14.00">(String opt,SingleVariableDeclaration,454,454)</text>
</g>
<!-- 2135449562&#45;&gt;1000966072 -->
<g id="edge6" class="edge">
<title>2135449562&#45;&gt;1000966072</title>
<path fill="none" stroke="black" d="M2075.01,-576.05C2160.89,-564.6 2273.4,-549.6 2356.86,-538.47"/>
<polygon fill="black" stroke="black" points="2357.44,-541.93 2366.89,-537.14 2356.51,-534.99 2357.44,-541.93"/>
</g>
<!-- 95396809 -->
<g id="node11" class="node">
<title>95396809</title>
<ellipse fill="none" stroke="black" cx="3636.92" cy="-522" rx="781.32" ry="18"/>
<text text-anchor="middle" x="3636.92" y="-517.8" font-family="Times,serif" font-size="14.00">({ &#160;opt=Util.stripLeadingHyphens(opt); &#160;for ( final Option option : options) { &#160;&#160;if (opt.equals(option.getOpt()) || opt.equals(option.getLongOpt())) { &#160;&#160;&#160;return option; &#160;&#160;} &#160;} &#160;return null; } ,Block,454,463)</text>
</g>
<!-- 2135449562&#45;&gt;95396809 -->
<g id="edge10" class="edge">
<title>2135449562&#45;&gt;95396809</title>
<path fill="none" stroke="black" d="M2344.71,-576.55C2623.21,-565.01 2993.07,-549.68 3265.73,-538.38"/>
<polygon fill="black" stroke="black" points="3265.94,-541.88 3275.79,-537.97 3265.65,-534.88 3265.94,-541.88"/>
</g>
<!-- 903525611 -->
<g id="node5" class="node">
<title>903525611</title>
<ellipse fill="none" stroke="black" cx="1795.92" cy="-450" rx="130.86" ry="18"/>
<text text-anchor="middle" x="1795.92" y="-445.8" font-family="Times,serif" font-size="14.00">(Option,SimpleName,454,454)</text>
</g>
<!-- 139566260&#45;&gt;903525611 -->
<g id="edge4" class="edge">
<title>139566260&#45;&gt;903525611</title>
<path fill="none" stroke="black" d="M1795.92,-503.7C1795.92,-495.98 1795.92,-486.71 1795.92,-478.11"/>
<polygon fill="black" stroke="black" points="1799.42,-478.1 1795.92,-468.1 1792.42,-478.1 1799.42,-478.1"/>
</g>
<!-- 1058609221 -->
<g id="node8" class="node">
<title>1058609221</title>
<ellipse fill="none" stroke="black" cx="2213.92" cy="-450" rx="124.49" ry="18"/>
<text text-anchor="middle" x="2213.92" y="-445.8" font-family="Times,serif" font-size="14.00">(String,SimpleType,454,454)</text>
</g>
<!-- 1000966072&#45;&gt;1058609221 -->
<g id="edge7" class="edge">
<title>1000966072&#45;&gt;1058609221</title>
<path fill="none" stroke="black" d="M2413.17,-504.85C2373.2,-494.05 2320.6,-479.83 2279.47,-468.72"/>
<polygon fill="black" stroke="black" points="2280.39,-465.34 2269.82,-466.11 2278.56,-472.1 2280.39,-465.34"/>
</g>
<!-- 1926004335 -->
<g id="node10" class="node">
<title>1926004335</title>
<ellipse fill="none" stroke="black" cx="2472.92" cy="-450" rx="116.38" ry="18"/>
<text text-anchor="middle" x="2472.92" y="-445.8" font-family="Times,serif" font-size="14.00">(opt,SimpleName,454,454)</text>
</g>
<!-- 1000966072&#45;&gt;1926004335 -->
<g id="edge9" class="edge">
<title>1000966072&#45;&gt;1926004335</title>
<path fill="none" stroke="black" d="M2472.92,-503.7C2472.92,-495.98 2472.92,-486.71 2472.92,-478.11"/>
<polygon fill="black" stroke="black" points="2476.42,-478.1 2472.92,-468.1 2469.42,-478.1 2476.42,-478.1"/>
</g>
<!-- 1594138273 -->
<g id="node9" class="node">
<title>1594138273</title>
<ellipse fill="none" stroke="black" cx="2213.92" cy="-378" rx="127.92" ry="18"/>
<text text-anchor="middle" x="2213.92" y="-373.8" font-family="Times,serif" font-size="14.00">(String,SimpleName,454,454)</text>
</g>
<!-- 1058609221&#45;&gt;1594138273 -->
<g id="edge8" class="edge">
<title>1058609221&#45;&gt;1594138273</title>
<path fill="none" stroke="black" d="M2213.92,-431.7C2213.92,-423.98 2213.92,-414.71 2213.92,-406.11"/>
<polygon fill="black" stroke="black" points="2217.42,-406.1 2213.92,-396.1 2210.42,-406.1 2217.42,-406.1"/>
</g>
<!-- 1912821769 -->
<g id="node12" class="node">
<title>1912821769</title>
<ellipse fill="none" stroke="black" cx="2884.92" cy="-450" rx="277.39" ry="18"/>
<text text-anchor="middle" x="2884.92" y="-445.8" font-family="Times,serif" font-size="14.00">(opt=Util.stripLeadingHyphens(opt); ,ExpressionStatement,455,455)</text>
</g>
<!-- 95396809&#45;&gt;1912821769 -->
<g id="edge11" class="edge">
<title>95396809&#45;&gt;1912821769</title>
<path fill="none" stroke="black" d="M3459.18,-504.46C3334.04,-492.81 3167.87,-477.34 3046.49,-466.04"/>
<polygon fill="black" stroke="black" points="3046.64,-462.54 3036.36,-465.1 3045.99,-469.51 3046.64,-462.54"/>
</g>
<!-- 2050339061 -->
<g id="node19" class="node">
<title>2050339061</title>
<ellipse fill="none" stroke="black" cx="3806.92" cy="-450" rx="626.92" ry="18"/>
<text text-anchor="middle" x="3806.92" y="-445.8" font-family="Times,serif" font-size="14.00">(for (final Option option : options) { &#160;if (opt.equals(option.getOpt()) || opt.equals(option.getLongOpt())) { &#160;&#160;return option; &#160;} } ,EnhancedForStatement,456,461)</text>
</g>
<!-- 95396809&#45;&gt;2050339061 -->
<g id="edge18" class="edge">
<title>95396809&#45;&gt;2050339061</title>
<path fill="none" stroke="black" d="M3678.51,-503.88C3701.95,-494.22 3731.42,-482.09 3756.22,-471.88"/>
<polygon fill="black" stroke="black" points="3757.55,-475.11 3765.47,-468.07 3754.89,-468.64 3757.55,-475.11"/>
</g>
<!-- 480903748 -->
<g id="node44" class="node">
<title>480903748</title>
<ellipse fill="none" stroke="black" cx="4778.92" cy="-450" rx="164.35" ry="18"/>
<text text-anchor="middle" x="4778.92" y="-445.8" font-family="Times,serif" font-size="14.00">(return null; ,ReturnStatement,462,462)</text>
</g>
<!-- 95396809&#45;&gt;480903748 -->
<g id="edge43" class="edge">
<title>95396809&#45;&gt;480903748</title>
<path fill="none" stroke="black" d="M3897.49,-505.03C4123.89,-491.15 4443.85,-471.54 4629.51,-460.16"/>
<polygon fill="black" stroke="black" points="4629.86,-463.64 4639.62,-459.54 4629.43,-456.66 4629.86,-463.64"/>
</g>
<!-- 151593342 -->
<g id="node13" class="node">
<title>151593342</title>
<ellipse fill="none" stroke="black" cx="2845.92" cy="-378" rx="236.91" ry="18"/>
<text text-anchor="middle" x="2845.92" y="-373.8" font-family="Times,serif" font-size="14.00">(opt=Util.stripLeadingHyphens(opt),Assignment,455,455)</text>
</g>
<!-- 1912821769&#45;&gt;151593342 -->
<g id="edge12" class="edge">
<title>1912821769&#45;&gt;151593342</title>
<path fill="none" stroke="black" d="M2875.28,-431.7C2870.79,-423.64 2865.36,-413.89 2860.39,-404.98"/>
<polygon fill="black" stroke="black" points="2863.37,-403.14 2855.45,-396.1 2857.26,-406.54 2863.37,-403.14"/>
</g>
<!-- 405215542 -->
<g id="node14" class="node">
<title>405215542</title>
<ellipse fill="none" stroke="black" cx="2466.92" cy="-306" rx="116.38" ry="18"/>
<text text-anchor="middle" x="2466.92" y="-301.8" font-family="Times,serif" font-size="14.00">(opt,SimpleName,455,455)</text>
</g>
<!-- 151593342&#45;&gt;405215542 -->
<g id="edge13" class="edge">
<title>151593342&#45;&gt;405215542</title>
<path fill="none" stroke="black" d="M2760.39,-361.2C2697,-349.5 2611.14,-333.64 2548.67,-322.1"/>
<polygon fill="black" stroke="black" points="2548.93,-318.59 2538.46,-320.21 2547.66,-325.47 2548.93,-318.59"/>
</g>
<!-- 1617838096 -->
<g id="node15" class="node">
<title>1617838096</title>
<ellipse fill="none" stroke="black" cx="2845.92" cy="-306" rx="244.24" ry="18"/>
<text text-anchor="middle" x="2845.92" y="-301.8" font-family="Times,serif" font-size="14.00">(Util.stripLeadingHyphens(opt),MethodInvocation,455,455)</text>
</g>
<!-- 151593342&#45;&gt;1617838096 -->
<g id="edge14" class="edge">
<title>151593342&#45;&gt;1617838096</title>
<path fill="none" stroke="black" d="M2845.92,-359.7C2845.92,-351.98 2845.92,-342.71 2845.92,-334.11"/>
<polygon fill="black" stroke="black" points="2849.42,-334.1 2845.92,-324.1 2842.42,-334.1 2849.42,-334.1"/>
</g>
<!-- 138776324 -->
<g id="node16" class="node">
<title>138776324</title>
<ellipse fill="none" stroke="black" cx="2521.92" cy="-234" rx="119.25" ry="18"/>
<text text-anchor="middle" x="2521.92" y="-229.8" font-family="Times,serif" font-size="14.00">(Util,SimpleName,455,455)</text>
</g>
<!-- 1617838096&#45;&gt;138776324 -->
<g id="edge15" class="edge">
<title>1617838096&#45;&gt;138776324</title>
<path fill="none" stroke="black" d="M2771.18,-288.85C2718.95,-277.57 2649.47,-262.56 2597.13,-251.25"/>
<polygon fill="black" stroke="black" points="2597.75,-247.8 2587.23,-249.11 2596.27,-254.64 2597.75,-247.8"/>
</g>
<!-- 1208442275 -->
<g id="node17" class="node">
<title>1208442275</title>
<ellipse fill="none" stroke="black" cx="2845.92" cy="-234" rx="187.49" ry="18"/>
<text text-anchor="middle" x="2845.92" y="-229.8" font-family="Times,serif" font-size="14.00">(stripLeadingHyphens,SimpleName,455,455)</text>
</g>
<!-- 1617838096&#45;&gt;1208442275 -->
<g id="edge16" class="edge">
<title>1617838096&#45;&gt;1208442275</title>
<path fill="none" stroke="black" d="M2845.92,-287.7C2845.92,-279.98 2845.92,-270.71 2845.92,-262.11"/>
<polygon fill="black" stroke="black" points="2849.42,-262.1 2845.92,-252.1 2842.42,-262.1 2849.42,-262.1"/>
</g>
<!-- 1758008124 -->
<g id="node18" class="node">
<title>1758008124</title>
<ellipse fill="none" stroke="black" cx="3167.92" cy="-234" rx="116.38" ry="18"/>
<text text-anchor="middle" x="3167.92" y="-229.8" font-family="Times,serif" font-size="14.00">(opt,SimpleName,455,455)</text>
</g>
<!-- 1617838096&#45;&gt;1758008124 -->
<g id="edge17" class="edge">
<title>1617838096&#45;&gt;1758008124</title>
<path fill="none" stroke="black" d="M2920.6,-288.76C2972.61,-277.46 3041.69,-262.44 3093.62,-251.15"/>
<polygon fill="black" stroke="black" points="3094.41,-254.56 3103.43,-249.02 3092.92,-247.72 3094.41,-254.56"/>
</g>
<!-- 1579957528 -->
<g id="node20" class="node">
<title>1579957528</title>
<ellipse fill="none" stroke="black" cx="3425.92" cy="-378" rx="230.85" ry="18"/>
<text text-anchor="middle" x="3425.92" y="-373.8" font-family="Times,serif" font-size="14.00">(final Option option,SingleVariableDeclaration,456,456)</text>
</g>
<!-- 2050339061&#45;&gt;1579957528 -->
<g id="edge19" class="edge">
<title>2050339061&#45;&gt;1579957528</title>
<path fill="none" stroke="black" d="M3715.17,-432.14C3656.68,-421.4 3581.03,-407.5 3521.76,-396.61"/>
<polygon fill="black" stroke="black" points="3522.11,-393.11 3511.64,-394.75 3520.85,-400 3522.11,-393.11"/>
</g>
<!-- 1823409783 -->
<g id="node25" class="node">
<title>1823409783</title>
<ellipse fill="none" stroke="black" cx="3806.92" cy="-378" rx="132.58" ry="18"/>
<text text-anchor="middle" x="3806.92" y="-373.8" font-family="Times,serif" font-size="14.00">(options,SimpleName,456,456)</text>
</g>
<!-- 2050339061&#45;&gt;1823409783 -->
<g id="edge24" class="edge">
<title>2050339061&#45;&gt;1823409783</title>
<path fill="none" stroke="black" d="M3806.92,-431.7C3806.92,-423.98 3806.92,-414.71 3806.92,-406.11"/>
<polygon fill="black" stroke="black" points="3810.42,-406.1 3806.92,-396.1 3803.42,-406.1 3810.42,-406.1"/>
</g>
<!-- 1094523823 -->
<g id="node26" class="node">
<title>1094523823</title>
<ellipse fill="none" stroke="black" cx="4384.92" cy="-378" rx="427.34" ry="18"/>
<text text-anchor="middle" x="4384.92" y="-373.8" font-family="Times,serif" font-size="14.00">({ &#160;if (opt.equals(option.getOpt()) || opt.equals(option.getLongOpt())) { &#160;&#160;return option; &#160;} } ,Block,456,461)</text>
</g>
<!-- 2050339061&#45;&gt;1094523823 -->
<g id="edge25" class="edge">
<title>2050339061&#45;&gt;1094523823</title>
<path fill="none" stroke="black" d="M3943.9,-432.41C4033.67,-421.54 4150.8,-407.35 4241.79,-396.33"/>
<polygon fill="black" stroke="black" points="4242.4,-399.79 4251.91,-395.11 4241.56,-392.84 4242.4,-399.79"/>
</g>
<!-- 750029115 -->
<g id="node21" class="node">
<title>750029115</title>
<ellipse fill="none" stroke="black" cx="3213.92" cy="-306" rx="105.91" ry="18"/>
<text text-anchor="middle" x="3213.92" y="-301.8" font-family="Times,serif" font-size="14.00">(final,Modifier,456,456)</text>
</g>
<!-- 1579957528&#45;&gt;750029115 -->
<g id="edge20" class="edge">
<title>1579957528&#45;&gt;750029115</title>
<path fill="none" stroke="black" d="M3375.68,-360.41C3343.94,-349.93 3302.88,-336.38 3270.07,-325.54"/>
<polygon fill="black" stroke="black" points="3270.77,-322.09 3260.18,-322.27 3268.58,-328.73 3270.77,-322.09"/>
</g>
<!-- 214187874 -->
<g id="node22" class="node">
<title>214187874</title>
<ellipse fill="none" stroke="black" cx="3464.92" cy="-306" rx="127.92" ry="18"/>
<text text-anchor="middle" x="3464.92" y="-301.8" font-family="Times,serif" font-size="14.00">(Option,SimpleType,456,456)</text>
</g>
<!-- 1579957528&#45;&gt;214187874 -->
<g id="edge21" class="edge">
<title>1579957528&#45;&gt;214187874</title>
<path fill="none" stroke="black" d="M3435.56,-359.7C3440.05,-351.64 3445.48,-341.89 3450.44,-332.98"/>
<polygon fill="black" stroke="black" points="3453.58,-334.54 3455.39,-324.1 3447.46,-331.14 3453.58,-334.54"/>
</g>
<!-- 1683662486 -->
<g id="node24" class="node">
<title>1683662486</title>
<ellipse fill="none" stroke="black" cx="3738.92" cy="-306" rx="128.57" ry="18"/>
<text text-anchor="middle" x="3738.92" y="-301.8" font-family="Times,serif" font-size="14.00">(option,SimpleName,456,456)</text>
</g>
<!-- 1579957528&#45;&gt;1683662486 -->
<g id="edge23" class="edge">
<title>1579957528&#45;&gt;1683662486</title>
<path fill="none" stroke="black" d="M3498.12,-360.85C3547.8,-349.74 3613.63,-335.02 3663.9,-323.78"/>
<polygon fill="black" stroke="black" points="3664.74,-327.18 3673.74,-321.58 3663.21,-320.34 3664.74,-327.18"/>
</g>
<!-- 1528923159 -->
<g id="node23" class="node">
<title>1528923159</title>
<ellipse fill="none" stroke="black" cx="3464.92" cy="-234" rx="130.86" ry="18"/>
<text text-anchor="middle" x="3464.92" y="-229.8" font-family="Times,serif" font-size="14.00">(Option,SimpleName,456,456)</text>
</g>
<!-- 214187874&#45;&gt;1528923159 -->
<g id="edge22" class="edge">
<title>214187874&#45;&gt;1528923159</title>
<path fill="none" stroke="black" d="M3464.92,-287.7C3464.92,-279.98 3464.92,-270.71 3464.92,-262.11"/>
<polygon fill="black" stroke="black" points="3468.42,-262.1 3464.92,-252.1 3461.42,-262.1 3468.42,-262.1"/>
</g>
<!-- 384515747 -->
<g id="node27" class="node">
<title>384515747</title>
<ellipse fill="none" stroke="black" cx="4384.92" cy="-306" rx="428.13" ry="18"/>
<text text-anchor="middle" x="4384.92" y="-301.8" font-family="Times,serif" font-size="14.00">(if (opt.equals(option.getOpt()) || opt.equals(option.getLongOpt())) { &#160;return option; } ,IfStatement,457,459)</text>
</g>
<!-- 1094523823&#45;&gt;384515747 -->
<g id="edge26" class="edge">
<title>1094523823&#45;&gt;384515747</title>
<path fill="none" stroke="black" d="M4384.92,-359.7C4384.92,-351.98 4384.92,-342.71 4384.92,-334.11"/>
<polygon fill="black" stroke="black" points="4388.42,-334.1 4384.92,-324.1 4381.42,-334.1 4388.42,-334.1"/>
</g>
<!-- 657736958 -->
<g id="node28" class="node">
<title>657736958</title>
<ellipse fill="none" stroke="black" cx="4196.92" cy="-234" rx="355.55" ry="18"/>
<text text-anchor="middle" x="4196.92" y="-229.8" font-family="Times,serif" font-size="14.00">(opt.equals(option.getOpt()) || opt.equals(option.getLongOpt()),InfixExpression,457,457)</text>
</g>
<!-- 384515747&#45;&gt;657736958 -->
<g id="edge27" class="edge">
<title>384515747&#45;&gt;657736958</title>
<path fill="none" stroke="black" d="M4339.41,-288.05C4313.07,-278.25 4279.72,-265.83 4251.92,-255.48"/>
<polygon fill="black" stroke="black" points="4252.93,-252.12 4242.33,-251.91 4250.48,-258.68 4252.93,-252.12"/>
</g>
<!-- 1401316767 -->
<g id="node41" class="node">
<title>1401316767</title>
<ellipse fill="none" stroke="black" cx="4809.92" cy="-234" rx="148.52" ry="18"/>
<text text-anchor="middle" x="4809.92" y="-229.8" font-family="Times,serif" font-size="14.00">({ &#160;return option; } ,Block,457,459)</text>
</g>
<!-- 384515747&#45;&gt;1401316767 -->
<g id="edge40" class="edge">
<title>384515747&#45;&gt;1401316767</title>
<path fill="none" stroke="black" d="M4485.1,-288.5C4554.92,-277 4647.44,-261.76 4715.88,-250.49"/>
<polygon fill="black" stroke="black" points="4716.5,-253.93 4725.79,-248.86 4715.36,-247.03 4716.5,-253.93"/>
</g>
<!-- 867988177 -->
<g id="node29" class="node">
<title>867988177</title>
<ellipse fill="none" stroke="black" cx="3448.92" cy="-162" rx="230.87" ry="18"/>
<text text-anchor="middle" x="3448.92" y="-157.8" font-family="Times,serif" font-size="14.00">(opt.equals(option.getOpt()),MethodInvocation,457,457)</text>
</g>
<!-- 657736958&#45;&gt;867988177 -->
<g id="edge28" class="edge">
<title>657736958&#45;&gt;867988177</title>
<path fill="none" stroke="black" d="M4035.99,-217.94C3906.92,-205.86 3727.04,-189.03 3600.5,-177.19"/>
<polygon fill="black" stroke="black" points="3600.62,-173.68 3590.34,-176.23 3599.97,-180.65 3600.62,-173.68"/>
</g>
<!-- 1182908789 -->
<g id="node35" class="node">
<title>1182908789</title>
<ellipse fill="none" stroke="black" cx="4196.92" cy="-162" rx="251.14" ry="18"/>
<text text-anchor="middle" x="4196.92" y="-157.8" font-family="Times,serif" font-size="14.00">(opt.equals(option.getLongOpt()),MethodInvocation,457,457)</text>
</g>
<!-- 657736958&#45;&gt;1182908789 -->
<g id="edge34" class="edge">
<title>657736958&#45;&gt;1182908789</title>
<path fill="none" stroke="black" d="M4196.92,-215.7C4196.92,-207.98 4196.92,-198.71 4196.92,-190.11"/>
<polygon fill="black" stroke="black" points="4200.42,-190.1 4196.92,-180.1 4193.42,-190.1 4200.42,-190.1"/>
</g>
<!-- 443934570 -->
<g id="node30" class="node">
<title>443934570</title>
<ellipse fill="none" stroke="black" cx="3019.92" cy="-90" rx="116.38" ry="18"/>
<text text-anchor="middle" x="3019.92" y="-85.8" font-family="Times,serif" font-size="14.00">(opt,SimpleName,457,457)</text>
</g>
<!-- 867988177&#45;&gt;443934570 -->
<g id="edge29" class="edge">
<title>867988177&#45;&gt;443934570</title>
<path fill="none" stroke="black" d="M3354.24,-145.55C3280.36,-133.5 3178.56,-116.88 3106.75,-105.17"/>
<polygon fill="black" stroke="black" points="3107.26,-101.71 3096.83,-103.55 3106.13,-108.61 3107.26,-101.71"/>
</g>
<!-- 1428475041 -->
<g id="node31" class="node">
<title>1428475041</title>
<ellipse fill="none" stroke="black" cx="3282.92" cy="-90" rx="128.55" ry="18"/>
<text text-anchor="middle" x="3282.92" y="-85.8" font-family="Times,serif" font-size="14.00">(equals,SimpleName,457,457)</text>
</g>
<!-- 867988177&#45;&gt;1428475041 -->
<g id="edge30" class="edge">
<title>867988177&#45;&gt;1428475041</title>
<path fill="none" stroke="black" d="M3409.16,-144.23C3385.6,-134.3 3355.59,-121.64 3330.74,-111.17"/>
<polygon fill="black" stroke="black" points="3332.07,-107.93 3321.5,-107.27 3329.35,-114.38 3332.07,-107.93"/>
</g>
<!-- 1345483087 -->
<g id="node32" class="node">
<title>1345483087</title>
<ellipse fill="none" stroke="black" cx="3614.92" cy="-90" rx="184.66" ry="18"/>
<text text-anchor="middle" x="3614.92" y="-85.8" font-family="Times,serif" font-size="14.00">(option.getOpt(),MethodInvocation,457,457)</text>
</g>
<!-- 867988177&#45;&gt;1345483087 -->
<g id="edge31" class="edge">
<title>867988177&#45;&gt;1345483087</title>
<path fill="none" stroke="black" d="M3488.68,-144.23C3511.88,-134.45 3541.34,-122.03 3565.96,-111.65"/>
<polygon fill="black" stroke="black" points="3567.63,-114.74 3575.48,-107.63 3564.91,-108.29 3567.63,-114.74"/>
</g>
<!-- 4766562 -->
<g id="node33" class="node">
<title>4766562</title>
<ellipse fill="none" stroke="black" cx="3476.92" cy="-18" rx="128.57" ry="18"/>
<text text-anchor="middle" x="3476.92" y="-13.8" font-family="Times,serif" font-size="14.00">(option,SimpleName,457,457)</text>
</g>
<!-- 1345483087&#45;&gt;4766562 -->
<g id="edge32" class="edge">
<title>1345483087&#45;&gt;4766562</title>
<path fill="none" stroke="black" d="M3581.86,-72.23C3562.92,-62.62 3538.95,-50.47 3518.71,-40.2"/>
<polygon fill="black" stroke="black" points="3520.2,-37.03 3509.7,-35.63 3517.04,-43.28 3520.2,-37.03"/>
</g>
<!-- 892555958 -->
<g id="node34" class="node">
<title>892555958</title>
<ellipse fill="none" stroke="black" cx="3753.92" cy="-18" rx="130.27" ry="18"/>
<text text-anchor="middle" x="3753.92" y="-13.8" font-family="Times,serif" font-size="14.00">(getOpt,SimpleName,457,457)</text>
</g>
<!-- 1345483087&#45;&gt;892555958 -->
<g id="edge33" class="edge">
<title>1345483087&#45;&gt;892555958</title>
<path fill="none" stroke="black" d="M3648.21,-72.23C3667.3,-62.62 3691.43,-50.47 3711.82,-40.2"/>
<polygon fill="black" stroke="black" points="3713.54,-43.25 3720.9,-35.63 3710.39,-37 3713.54,-43.25"/>
</g>
<!-- 91912419 -->
<g id="node36" class="node">
<title>91912419</title>
<ellipse fill="none" stroke="black" cx="3933.92" cy="-90" rx="116.38" ry="18"/>
<text text-anchor="middle" x="3933.92" y="-85.8" font-family="Times,serif" font-size="14.00">(opt,SimpleName,457,457)</text>
</g>
<!-- 1182908789&#45;&gt;91912419 -->
<g id="edge35" class="edge">
<title>1182908789&#45;&gt;91912419</title>
<path fill="none" stroke="black" d="M4134.92,-144.5C4094.15,-133.65 4040.87,-119.47 3999.41,-108.43"/>
<polygon fill="black" stroke="black" points="4000.24,-105.03 3989.68,-105.84 3998.44,-111.8 4000.24,-105.03"/>
</g>
<!-- 1076641925 -->
<g id="node37" class="node">
<title>1076641925</title>
<ellipse fill="none" stroke="black" cx="4196.92" cy="-90" rx="128.55" ry="18"/>
<text text-anchor="middle" x="4196.92" y="-85.8" font-family="Times,serif" font-size="14.00">(equals,SimpleName,457,457)</text>
</g>
<!-- 1182908789&#45;&gt;1076641925 -->
<g id="edge36" class="edge">
<title>1182908789&#45;&gt;1076641925</title>
<path fill="none" stroke="black" d="M4196.92,-143.7C4196.92,-135.98 4196.92,-126.71 4196.92,-118.11"/>
<polygon fill="black" stroke="black" points="4200.42,-118.1 4196.92,-108.1 4193.42,-118.1 4200.42,-118.1"/>
</g>
<!-- 1873091796 -->
<g id="node38" class="node">
<title>1873091796</title>
<ellipse fill="none" stroke="black" cx="4548.92" cy="-90" rx="205.43" ry="18"/>
<text text-anchor="middle" x="4548.92" y="-85.8" font-family="Times,serif" font-size="14.00">(option.getLongOpt(),MethodInvocation,457,457)</text>
</g>
<!-- 1182908789&#45;&gt;1873091796 -->
<g id="edge37" class="edge">
<title>1182908789&#45;&gt;1873091796</title>
<path fill="none" stroke="black" d="M4277.67,-144.94C4332.15,-134.11 4404.05,-119.81 4460.13,-108.66"/>
<polygon fill="black" stroke="black" points="4460.93,-112.07 4470.05,-106.68 4459.56,-105.2 4460.93,-112.07"/>
</g>
<!-- 661119548 -->
<g id="node39" class="node">
<title>661119548</title>
<ellipse fill="none" stroke="black" cx="4399.92" cy="-18" rx="128.57" ry="18"/>
<text text-anchor="middle" x="4399.92" y="-13.8" font-family="Times,serif" font-size="14.00">(option,SimpleName,457,457)</text>
</g>
<!-- 1873091796&#45;&gt;661119548 -->
<g id="edge38" class="edge">
<title>1873091796&#45;&gt;661119548</title>
<path fill="none" stroke="black" d="M4513.23,-72.23C4492.44,-62.47 4466.05,-50.07 4443.97,-39.7"/>
<polygon fill="black" stroke="black" points="4445.34,-36.47 4434.8,-35.39 4442.37,-42.81 4445.34,-36.47"/>
</g>
<!-- 1896622931 -->
<g id="node40" class="node">
<title>1896622931</title>
<ellipse fill="none" stroke="black" cx="4697.92" cy="-18" rx="150.54" ry="18"/>
<text text-anchor="middle" x="4697.92" y="-13.8" font-family="Times,serif" font-size="14.00">(getLongOpt,SimpleName,457,457)</text>
</g>
<!-- 1873091796&#45;&gt;1896622931 -->
<g id="edge39" class="edge">
<title>1873091796&#45;&gt;1896622931</title>
<path fill="none" stroke="black" d="M4584.61,-72.23C4605.32,-62.5 4631.6,-50.16 4653.63,-39.81"/>
<polygon fill="black" stroke="black" points="4655.22,-42.93 4662.78,-35.51 4652.24,-36.59 4655.22,-42.93"/>
</g>
<!-- 335708295 -->
<g id="node42" class="node">
<title>335708295</title>
<ellipse fill="none" stroke="black" cx="4854.92" cy="-162" rx="173.66" ry="18"/>
<text text-anchor="middle" x="4854.92" y="-157.8" font-family="Times,serif" font-size="14.00">(return option; ,ReturnStatement,458,458)</text>
</g>
<!-- 1401316767&#45;&gt;335708295 -->
<g id="edge41" class="edge">
<title>1401316767&#45;&gt;335708295</title>
<path fill="none" stroke="black" d="M4821.04,-215.7C4826.27,-207.56 4832.62,-197.69 4838.4,-188.7"/>
<polygon fill="black" stroke="black" points="4841.46,-190.41 4843.92,-180.1 4835.57,-186.62 4841.46,-190.41"/>
</g>
<!-- 216856121 -->
<g id="node43" class="node">
<title>216856121</title>
<ellipse fill="none" stroke="black" cx="4900.92" cy="-90" rx="128.57" ry="18"/>
<text text-anchor="middle" x="4900.92" y="-85.8" font-family="Times,serif" font-size="14.00">(option,SimpleName,458,458)</text>
</g>
<!-- 335708295&#45;&gt;216856121 -->
<g id="edge42" class="edge">
<title>335708295&#45;&gt;216856121</title>
<path fill="none" stroke="black" d="M4866.29,-143.7C4871.64,-135.56 4878.12,-125.69 4884.03,-116.7"/>
<polygon fill="black" stroke="black" points="4887.11,-118.38 4889.68,-108.1 4881.26,-114.54 4887.11,-118.38"/>
</g>
<!-- 2095064787 -->
<g id="node45" class="node">
<title>2095064787</title>
<ellipse fill="none" stroke="black" cx="4941.92" cy="-378" rx="111.72" ry="18"/>
<text text-anchor="middle" x="4941.92" y="-373.8" font-family="Times,serif" font-size="14.00">(null,NullLiteral,462,462)</text>
</g>
<!-- 480903748&#45;&gt;2095064787 -->
<g id="edge44" class="edge">
<title>480903748&#45;&gt;2095064787</title>
<path fill="none" stroke="black" d="M4817.55,-432.41C4840.82,-422.42 4870.61,-409.62 4895.2,-399.06"/>
<polygon fill="black" stroke="black" points="4896.88,-402.15 4904.69,-394.99 4894.12,-395.72 4896.88,-402.15"/>
</g>
</g>
</svg>
