<?xml version="1.0" encoding="UTF-8" standalone="no"?>
<!DOCTYPE svg PUBLIC "-//W3C//DTD SVG 1.1//EN"
 "http://www.w3.org/Graphics/SVG/1.1/DTD/svg11.dtd">
<!-- Generated by graphviz version 2.50.0 (20211204.2007)
 -->
<!-- Title: DirectedGraph Pages: 1 -->
<svg width="3125pt" height="357pt"
 viewBox="0.00 0.00 3125.33 356.80" xmlns="http://www.w3.org/2000/svg" xmlns:xlink="http://www.w3.org/1999/xlink">
<g id="graph0" class="graph" transform="scale(1 1) rotate(0) translate(4 352.8)">
<title>DirectedGraph</title>
<polygon fill="white" stroke="transparent" points="-4,4 -4,-352.8 3121.33,-352.8 3121.33,4 -4,4"/>
<text text-anchor="middle" x="1558.66" y="-332.2" font-family="Times,serif" font-size="14.00">iterator</text>
<!-- 1898325501 -->
<g id="node1" class="node">
<title>1898325501</title>
<ellipse fill="none" stroke="black" cx="2039.34" cy="-306" rx="1077.97" ry="18"/>
<text text-anchor="middle" x="2039.34" y="-301.8" font-family="Times,serif" font-size="14.00">(/** &#160;* Returns an iterator over the Option members of CommandLine. * @return an {@code Iterator} over the processed {@link Option} members of this {@link CommandLine}. */ public Iterator&lt;Option&gt; iterator(){ &#160;return options.iterator(); } ,MethodDeclaration,439,446)</text>
</g>
<!-- 2075809815 -->
<g id="node2" class="node">
<title>2075809815</title>
<ellipse fill="none" stroke="black" cx="792.34" cy="-234" rx="792.19" ry="18"/>
<text text-anchor="middle" x="792.34" y="-229.8" font-family="Times,serif" font-size="14.00">(/** &#160;* Returns an iterator over the Option members of CommandLine. * @return an {@code Iterator} over the processed {@link Option} members of this {@link CommandLine}. */ ,Javadoc,439,443)</text>
</g>
<!-- 1898325501&#45;&gt;2075809815 -->
<g id="edge1" class="edge">
<title>1898325501&#45;&gt;2075809815</title>
<path fill="none" stroke="black" d="M1748.16,-288.65C1548.39,-277.44 1284.31,-262.62 1084.36,-251.39"/>
<polygon fill="black" stroke="black" points="1084.47,-247.89 1074.29,-250.83 1084.08,-254.88 1084.47,-247.89"/>
</g>
<!-- 1949298838 -->
<g id="node3" class="node">
<title>1949298838</title>
<ellipse fill="none" stroke="black" cx="1714.34" cy="-234" rx="112.29" ry="18"/>
<text text-anchor="middle" x="1714.34" y="-229.8" font-family="Times,serif" font-size="14.00">(public,Modifier,444,444)</text>
</g>
<!-- 1898325501&#45;&gt;1949298838 -->
<g id="edge2" class="edge">
<title>1898325501&#45;&gt;1949298838</title>
<path fill="none" stroke="black" d="M1960.26,-287.97C1907.94,-276.7 1839.8,-262.02 1788.52,-250.98"/>
<polygon fill="black" stroke="black" points="1789.01,-247.5 1778.49,-248.82 1787.53,-254.34 1789.01,-247.5"/>
</g>
<!-- 1967355409 -->
<g id="node4" class="node">
<title>1967355409</title>
<ellipse fill="none" stroke="black" cx="2039.34" cy="-234" rx="194.76" ry="18"/>
<text text-anchor="middle" x="2039.34" y="-229.8" font-family="Times,serif" font-size="14.00">(Iterator&lt;Option&gt;,ParameterizedType,444,444)</text>
</g>
<!-- 1898325501&#45;&gt;1967355409 -->
<g id="edge3" class="edge">
<title>1898325501&#45;&gt;1967355409</title>
<path fill="none" stroke="black" d="M2039.34,-287.7C2039.34,-279.98 2039.34,-270.71 2039.34,-262.11"/>
<polygon fill="black" stroke="black" points="2042.84,-262.1 2039.34,-252.1 2035.84,-262.1 2042.84,-262.1"/>
</g>
<!-- 426394307 -->
<g id="node9" class="node">
<title>426394307</title>
<ellipse fill="none" stroke="black" cx="2384.34" cy="-234" rx="131.97" ry="18"/>
<text text-anchor="middle" x="2384.34" y="-229.8" font-family="Times,serif" font-size="14.00">(iterator,SimpleName,444,444)</text>
</g>
<!-- 1898325501&#45;&gt;426394307 -->
<g id="edge8" class="edge">
<title>1898325501&#45;&gt;426394307</title>
<path fill="none" stroke="black" d="M2123.3,-287.97C2178.32,-276.8 2249.82,-262.3 2304.07,-251.29"/>
<polygon fill="black" stroke="black" points="2304.89,-254.69 2314,-249.27 2303.5,-247.83 2304.89,-254.69"/>
</g>
<!-- 1281414889 -->
<g id="node10" class="node">
<title>1281414889</title>
<ellipse fill="none" stroke="black" cx="2723.34" cy="-234" rx="188.99" ry="18"/>
<text text-anchor="middle" x="2723.34" y="-229.8" font-family="Times,serif" font-size="14.00">({ &#160;return options.iterator(); } ,Block,444,446)</text>
</g>
<!-- 1898325501&#45;&gt;1281414889 -->
<g id="edge9" class="edge">
<title>1898325501&#45;&gt;1281414889</title>
<path fill="none" stroke="black" d="M2203.61,-288.19C2321.77,-276.1 2479.11,-259.99 2589.61,-248.69"/>
<polygon fill="black" stroke="black" points="2590.23,-252.14 2599.82,-247.64 2589.51,-245.18 2590.23,-252.14"/>
</g>
<!-- 889891977 -->
<g id="node5" class="node">
<title>889891977</title>
<ellipse fill="none" stroke="black" cx="1901.34" cy="-162" rx="129.1" ry="18"/>
<text text-anchor="middle" x="1901.34" y="-157.8" font-family="Times,serif" font-size="14.00">(Iterator,SimpleType,444,444)</text>
</g>
<!-- 1967355409&#45;&gt;889891977 -->
<g id="edge4" class="edge">
<title>1967355409&#45;&gt;889891977</title>
<path fill="none" stroke="black" d="M2006.29,-216.23C1987.34,-206.62 1963.38,-194.47 1943.14,-184.2"/>
<polygon fill="black" stroke="black" points="1944.63,-181.03 1934.13,-179.63 1941.46,-187.28 1944.63,-181.03"/>
</g>
<!-- 402249858 -->
<g id="node7" class="node">
<title>402249858</title>
<ellipse fill="none" stroke="black" cx="2177.34" cy="-162" rx="127.92" ry="18"/>
<text text-anchor="middle" x="2177.34" y="-157.8" font-family="Times,serif" font-size="14.00">(Option,SimpleType,444,444)</text>
</g>
<!-- 1967355409&#45;&gt;402249858 -->
<g id="edge6" class="edge">
<title>1967355409&#45;&gt;402249858</title>
<path fill="none" stroke="black" d="M2072.4,-216.23C2091.34,-206.62 2115.31,-194.47 2135.55,-184.2"/>
<polygon fill="black" stroke="black" points="2137.22,-187.28 2144.56,-179.63 2134.06,-181.03 2137.22,-187.28"/>
</g>
<!-- 475603167 -->
<g id="node6" class="node">
<title>475603167</title>
<ellipse fill="none" stroke="black" cx="1898.34" cy="-90" rx="132.53" ry="18"/>
<text text-anchor="middle" x="1898.34" y="-85.8" font-family="Times,serif" font-size="14.00">(Iterator,SimpleName,444,444)</text>
</g>
<!-- 889891977&#45;&gt;475603167 -->
<g id="edge5" class="edge">
<title>889891977&#45;&gt;475603167</title>
<path fill="none" stroke="black" d="M1900.6,-143.7C1900.27,-135.98 1899.87,-126.71 1899.51,-118.11"/>
<polygon fill="black" stroke="black" points="1903,-117.95 1899.08,-108.1 1896.01,-118.25 1903,-117.95"/>
</g>
<!-- 2045036434 -->
<g id="node8" class="node">
<title>2045036434</title>
<ellipse fill="none" stroke="black" cx="2179.34" cy="-90" rx="130.86" ry="18"/>
<text text-anchor="middle" x="2179.34" y="-85.8" font-family="Times,serif" font-size="14.00">(Option,SimpleName,444,444)</text>
</g>
<!-- 402249858&#45;&gt;2045036434 -->
<g id="edge7" class="edge">
<title>402249858&#45;&gt;2045036434</title>
<path fill="none" stroke="black" d="M2177.84,-143.7C2178.06,-135.98 2178.32,-126.71 2178.57,-118.11"/>
<polygon fill="black" stroke="black" points="2182.07,-118.2 2178.85,-108.1 2175.07,-118 2182.07,-118.2"/>
</g>
<!-- 352598575 -->
<g id="node11" class="node">
<title>352598575</title>
<ellipse fill="none" stroke="black" cx="2723.34" cy="-162" rx="214.14" ry="18"/>
<text text-anchor="middle" x="2723.34" y="-157.8" font-family="Times,serif" font-size="14.00">(return options.iterator(); ,ReturnStatement,445,445)</text>
</g>
<!-- 1281414889&#45;&gt;352598575 -->
<g id="edge10" class="edge">
<title>1281414889&#45;&gt;352598575</title>
<path fill="none" stroke="black" d="M2723.34,-215.7C2723.34,-207.98 2723.34,-198.71 2723.34,-190.11"/>
<polygon fill="black" stroke="black" points="2726.84,-190.1 2723.34,-180.1 2719.84,-190.1 2726.84,-190.1"/>
</g>
<!-- 1250142026 -->
<g id="node12" class="node">
<title>1250142026</title>
<ellipse fill="none" stroke="black" cx="2723.34" cy="-90" rx="190.37" ry="18"/>
<text text-anchor="middle" x="2723.34" y="-85.8" font-family="Times,serif" font-size="14.00">(options.iterator(),MethodInvocation,445,445)</text>
</g>
<!-- 352598575&#45;&gt;1250142026 -->
<g id="edge11" class="edge">
<title>352598575&#45;&gt;1250142026</title>
<path fill="none" stroke="black" d="M2723.34,-143.7C2723.34,-135.98 2723.34,-126.71 2723.34,-118.11"/>
<polygon fill="black" stroke="black" points="2726.84,-118.1 2723.34,-108.1 2719.84,-118.1 2726.84,-118.1"/>
</g>
<!-- 20224131 -->
<g id="node13" class="node">
<title>20224131</title>
<ellipse fill="none" stroke="black" cx="2581.34" cy="-18" rx="132.58" ry="18"/>
<text text-anchor="middle" x="2581.34" y="-13.8" font-family="Times,serif" font-size="14.00">(options,SimpleName,445,445)</text>
</g>
<!-- 1250142026&#45;&gt;20224131 -->
<g id="edge12" class="edge">
<title>1250142026&#45;&gt;20224131</title>
<path fill="none" stroke="black" d="M2689.33,-72.23C2669.75,-62.58 2644.96,-50.36 2624.07,-40.06"/>
<polygon fill="black" stroke="black" points="2625.6,-36.91 2615.08,-35.63 2622.5,-43.19 2625.6,-36.91"/>
</g>
<!-- 1261031890 -->
<g id="node14" class="node">
<title>1261031890</title>
<ellipse fill="none" stroke="black" cx="2864.34" cy="-18" rx="131.97" ry="18"/>
<text text-anchor="middle" x="2864.34" y="-13.8" font-family="Times,serif" font-size="14.00">(iterator,SimpleName,445,445)</text>
</g>
<!-- 1250142026&#45;&gt;1261031890 -->
<g id="edge13" class="edge">
<title>1250142026&#45;&gt;1261031890</title>
<path fill="none" stroke="black" d="M2757.12,-72.23C2776.48,-62.62 2800.96,-50.47 2821.64,-40.2"/>
<polygon fill="black" stroke="black" points="2823.45,-43.21 2830.85,-35.63 2820.33,-36.94 2823.45,-43.21"/>
</g>
</g>
</svg>
