<?xml version="1.0" encoding="UTF-8" standalone="no"?>
<!DOCTYPE svg PUBLIC "-//W3C//DTD SVG 1.1//EN"
 "http://www.w3.org/Graphics/SVG/1.1/DTD/svg11.dtd">
<!-- Generated by graphviz version 2.50.0 (20211204.2007)
 -->
<!-- Title: DirectedGraph Pages: 1 -->
<svg width="2380pt" height="285pt"
 viewBox="0.00 0.00 2380.04 284.80" xmlns="http://www.w3.org/2000/svg" xmlns:xlink="http://www.w3.org/1999/xlink">
<g id="graph0" class="graph" transform="scale(1 1) rotate(0) translate(4 280.8)">
<title>DirectedGraph</title>
<polygon fill="white" stroke="transparent" points="-4,4 -4,-280.8 2376.04,-280.8 2376.04,4 -4,4"/>
<text text-anchor="middle" x="1186.02" y="-260.2" font-family="Times,serif" font-size="14.00">getMatchingOptions</text>
<!-- 1816147548 -->
<g id="node1" class="node">
<title>1816147548</title>
<ellipse fill="none" stroke="black" cx="1407.02" cy="-234" rx="833.25" ry="18"/>
<text text-anchor="middle" x="1407.02" y="-229.8" font-family="Times,serif" font-size="14.00">(/** &#160;* Gets the options matching the partial name. * @return a collection of options matching the name */ public Collection&lt;String&gt; getMatchingOptions(){ &#160;return matchingOptions; } ,MethodDeclaration,74,81)</text>
</g>
<!-- 2079179914 -->
<g id="node2" class="node">
<title>2079179914</title>
<ellipse fill="none" stroke="black" cx="486.02" cy="-162" rx="486.05" ry="18"/>
<text text-anchor="middle" x="486.02" y="-157.8" font-family="Times,serif" font-size="14.00">(/** &#160;* Gets the options matching the partial name. * @return a collection of options matching the name */ ,Javadoc,74,78)</text>
</g>
<!-- 1816147548&#45;&gt;2079179914 -->
<g id="edge1" class="edge">
<title>1816147548&#45;&gt;2079179914</title>
<path fill="none" stroke="black" d="M1191.38,-216.61C1042.88,-205.32 846.46,-190.39 698.62,-179.16"/>
<polygon fill="black" stroke="black" points="698.74,-175.66 688.51,-178.39 698.21,-182.64 698.74,-175.66"/>
</g>
<!-- 20049680 -->
<g id="node3" class="node">
<title>20049680</title>
<ellipse fill="none" stroke="black" cx="1093.02" cy="-162" rx="102.48" ry="18"/>
<text text-anchor="middle" x="1093.02" y="-157.8" font-family="Times,serif" font-size="14.00">(public,Modifier,79,79)</text>
</g>
<!-- 1816147548&#45;&gt;20049680 -->
<g id="edge2" class="edge">
<title>1816147548&#45;&gt;20049680</title>
<path fill="none" stroke="black" d="M1331.01,-216.05C1280.16,-204.72 1213.69,-189.9 1163.92,-178.81"/>
<polygon fill="black" stroke="black" points="1164.41,-175.33 1153.89,-176.57 1162.89,-182.16 1164.41,-175.33"/>
</g>
<!-- 1437654187 -->
<g id="node4" class="node">
<title>1437654187</title>
<ellipse fill="none" stroke="black" cx="1407.02" cy="-162" rx="193.65" ry="18"/>
<text text-anchor="middle" x="1407.02" y="-157.8" font-family="Times,serif" font-size="14.00">(Collection&lt;String&gt;,ParameterizedType,79,79)</text>
</g>
<!-- 1816147548&#45;&gt;1437654187 -->
<g id="edge3" class="edge">
<title>1816147548&#45;&gt;1437654187</title>
<path fill="none" stroke="black" d="M1407.02,-215.7C1407.02,-207.98 1407.02,-198.71 1407.02,-190.11"/>
<polygon fill="black" stroke="black" points="1410.52,-190.1 1407.02,-180.1 1403.52,-190.1 1410.52,-190.1"/>
</g>
<!-- 936292831 -->
<g id="node9" class="node">
<title>936292831</title>
<ellipse fill="none" stroke="black" cx="1793.02" cy="-162" rx="173.67" ry="18"/>
<text text-anchor="middle" x="1793.02" y="-157.8" font-family="Times,serif" font-size="14.00">(getMatchingOptions,SimpleName,79,79)</text>
</g>
<!-- 1816147548&#45;&gt;936292831 -->
<g id="edge8" class="edge">
<title>1816147548&#45;&gt;936292831</title>
<path fill="none" stroke="black" d="M1500.46,-216.05C1561.33,-205.02 1640.4,-190.68 1700.99,-179.69"/>
<polygon fill="black" stroke="black" points="1701.71,-183.12 1710.93,-177.89 1700.46,-176.23 1701.71,-183.12"/>
</g>
<!-- 130668770 -->
<g id="node10" class="node">
<title>130668770</title>
<ellipse fill="none" stroke="black" cx="2166.02" cy="-162" rx="180.89" ry="18"/>
<text text-anchor="middle" x="2166.02" y="-157.8" font-family="Times,serif" font-size="14.00">({ &#160;return matchingOptions; } ,Block,79,81)</text>
</g>
<!-- 1816147548&#45;&gt;130668770 -->
<g id="edge9" class="edge">
<title>1816147548&#45;&gt;130668770</title>
<path fill="none" stroke="black" d="M1586.9,-216.41C1722.06,-203.95 1904.45,-187.12 2028.18,-175.71"/>
<polygon fill="black" stroke="black" points="2028.83,-179.17 2038.47,-174.76 2028.19,-172.2 2028.83,-179.17"/>
</g>
<!-- 951050903 -->
<g id="node5" class="node">
<title>951050903</title>
<ellipse fill="none" stroke="black" cx="1274.02" cy="-90" rx="131.42" ry="18"/>
<text text-anchor="middle" x="1274.02" y="-85.8" font-family="Times,serif" font-size="14.00">(Collection,SimpleType,79,79)</text>
</g>
<!-- 1437654187&#45;&gt;951050903 -->
<g id="edge4" class="edge">
<title>1437654187&#45;&gt;951050903</title>
<path fill="none" stroke="black" d="M1375.17,-144.23C1356.99,-134.67 1334.02,-122.58 1314.57,-112.34"/>
<polygon fill="black" stroke="black" points="1316.1,-109.19 1305.62,-107.63 1312.84,-115.38 1316.1,-109.19"/>
</g>
<!-- 590646109 -->
<g id="node7" class="node">
<title>590646109</title>
<ellipse fill="none" stroke="black" cx="1540.02" cy="-90" rx="114.68" ry="18"/>
<text text-anchor="middle" x="1540.02" y="-85.8" font-family="Times,serif" font-size="14.00">(String,SimpleType,79,79)</text>
</g>
<!-- 1437654187&#45;&gt;590646109 -->
<g id="edge6" class="edge">
<title>1437654187&#45;&gt;590646109</title>
<path fill="none" stroke="black" d="M1438.88,-144.23C1457.19,-134.6 1480.36,-122.4 1499.91,-112.11"/>
<polygon fill="black" stroke="black" points="1501.67,-115.14 1508.89,-107.39 1498.41,-108.95 1501.67,-115.14"/>
</g>
<!-- 770947228 -->
<g id="node6" class="node">
<title>770947228</title>
<ellipse fill="none" stroke="black" cx="1271.02" cy="-18" rx="134.85" ry="18"/>
<text text-anchor="middle" x="1271.02" y="-13.8" font-family="Times,serif" font-size="14.00">(Collection,SimpleName,79,79)</text>
</g>
<!-- 951050903&#45;&gt;770947228 -->
<g id="edge5" class="edge">
<title>951050903&#45;&gt;770947228</title>
<path fill="none" stroke="black" d="M1273.28,-71.7C1272.95,-63.98 1272.55,-54.71 1272.19,-46.11"/>
<polygon fill="black" stroke="black" points="1275.68,-45.95 1271.76,-36.1 1268.69,-46.25 1275.68,-45.95"/>
</g>
<!-- 1882349076 -->
<g id="node8" class="node">
<title>1882349076</title>
<ellipse fill="none" stroke="black" cx="1542.02" cy="-18" rx="118.11" ry="18"/>
<text text-anchor="middle" x="1542.02" y="-13.8" font-family="Times,serif" font-size="14.00">(String,SimpleName,79,79)</text>
</g>
<!-- 590646109&#45;&gt;1882349076 -->
<g id="edge7" class="edge">
<title>590646109&#45;&gt;1882349076</title>
<path fill="none" stroke="black" d="M1540.52,-71.7C1540.74,-63.98 1541,-54.71 1541.25,-46.11"/>
<polygon fill="black" stroke="black" points="1544.75,-46.2 1541.53,-36.1 1537.75,-46 1544.75,-46.2"/>
</g>
<!-- 2151717 -->
<g id="node11" class="node">
<title>2151717</title>
<ellipse fill="none" stroke="black" cx="2166.02" cy="-90" rx="206.03" ry="18"/>
<text text-anchor="middle" x="2166.02" y="-85.8" font-family="Times,serif" font-size="14.00">(return matchingOptions; ,ReturnStatement,80,80)</text>
</g>
<!-- 130668770&#45;&gt;2151717 -->
<g id="edge10" class="edge">
<title>130668770&#45;&gt;2151717</title>
<path fill="none" stroke="black" d="M2166.02,-143.7C2166.02,-135.98 2166.02,-126.71 2166.02,-118.11"/>
<polygon fill="black" stroke="black" points="2169.52,-118.1 2166.02,-108.1 2162.52,-118.1 2169.52,-118.1"/>
</g>
<!-- 1644231115 -->
<g id="node12" class="node">
<title>1644231115</title>
<ellipse fill="none" stroke="black" cx="2166.02" cy="-18" rx="160.93" ry="18"/>
<text text-anchor="middle" x="2166.02" y="-13.8" font-family="Times,serif" font-size="14.00">(matchingOptions,SimpleName,80,80)</text>
</g>
<!-- 2151717&#45;&gt;1644231115 -->
<g id="edge11" class="edge">
<title>2151717&#45;&gt;1644231115</title>
<path fill="none" stroke="black" d="M2166.02,-71.7C2166.02,-63.98 2166.02,-54.71 2166.02,-46.11"/>
<polygon fill="black" stroke="black" points="2169.52,-46.1 2166.02,-36.1 2162.52,-46.1 2169.52,-46.1"/>
</g>
</g>
</svg>
