<?xml version="1.0" encoding="UTF-8" standalone="no"?>
<!DOCTYPE svg PUBLIC "-//W3C//DTD SVG 1.1//EN"
 "http://www.w3.org/Graphics/SVG/1.1/DTD/svg11.dtd">
<!-- Generated by graphviz version 2.50.0 (20211204.2007)
 -->
<!-- Title: DirectedGraph Pages: 1 -->
<svg width="2588pt" height="285pt"
 viewBox="0.00 0.00 2588.15 284.80" xmlns="http://www.w3.org/2000/svg" xmlns:xlink="http://www.w3.org/1999/xlink">
<g id="graph0" class="graph" transform="scale(1 1) rotate(0) translate(4 280.8)">
<title>DirectedGraph</title>
<polygon fill="white" stroke="transparent" points="-4,4 -4,-280.8 2584.15,-280.8 2584.15,4 -4,4"/>
<text text-anchor="middle" x="1290.08" y="-260.2" font-family="Times,serif" font-size="14.00">getArgList</text>
<!-- 1955920234 -->
<g id="node1" class="node">
<title>1955920234</title>
<ellipse fill="none" stroke="black" cx="1710.12" cy="-234" rx="870.07" ry="18"/>
<text text-anchor="middle" x="1710.12" y="-229.8" font-family="Times,serif" font-size="14.00">(/** &#160;* Retrieve any left&#45;over non&#45;recognized options and arguments * @return remaining items passed in but not parsed as a {@code List}. */ public List&lt;String&gt; getArgList(){ &#160;return args; } ,MethodDeclaration,111,118)</text>
</g>
<!-- 1444635922 -->
<g id="node2" class="node">
<title>1444635922</title>
<ellipse fill="none" stroke="black" cx="636.12" cy="-162" rx="636.24" ry="18"/>
<text text-anchor="middle" x="636.12" y="-157.8" font-family="Times,serif" font-size="14.00">(/** &#160;* Retrieve any left&#45;over non&#45;recognized options and arguments * @return remaining items passed in but not parsed as a {@code List}. */ ,Javadoc,111,115)</text>
</g>
<!-- 1955920234&#45;&gt;1444635922 -->
<g id="edge1" class="edge">
<title>1955920234&#45;&gt;1444635922</title>
<path fill="none" stroke="black" d="M1460.69,-216.74C1288.19,-205.5 1059.55,-190.6 886.79,-179.34"/>
<polygon fill="black" stroke="black" points="887,-175.84 876.79,-178.69 886.54,-182.83 887,-175.84"/>
</g>
<!-- 775386112 -->
<g id="node3" class="node">
<title>775386112</title>
<ellipse fill="none" stroke="black" cx="1402.12" cy="-162" rx="112.29" ry="18"/>
<text text-anchor="middle" x="1402.12" y="-157.8" font-family="Times,serif" font-size="14.00">(public,Modifier,116,116)</text>
</g>
<!-- 1955920234&#45;&gt;775386112 -->
<g id="edge2" class="edge">
<title>1955920234&#45;&gt;775386112</title>
<path fill="none" stroke="black" d="M1635.56,-216.05C1586.43,-204.89 1522.44,-190.34 1473.88,-179.31"/>
<polygon fill="black" stroke="black" points="1474.6,-175.88 1464.07,-177.08 1473.05,-182.71 1474.6,-175.88"/>
</g>
<!-- 391630194 -->
<g id="node4" class="node">
<title>391630194</title>
<ellipse fill="none" stroke="black" cx="1710.12" cy="-162" rx="178.05" ry="18"/>
<text text-anchor="middle" x="1710.12" y="-157.8" font-family="Times,serif" font-size="14.00">(List&lt;String&gt;,ParameterizedType,116,116)</text>
</g>
<!-- 1955920234&#45;&gt;391630194 -->
<g id="edge3" class="edge">
<title>1955920234&#45;&gt;391630194</title>
<path fill="none" stroke="black" d="M1710.12,-215.7C1710.12,-207.98 1710.12,-198.71 1710.12,-190.11"/>
<polygon fill="black" stroke="black" points="1713.62,-190.1 1710.12,-180.1 1706.62,-190.1 1713.62,-190.1"/>
</g>
<!-- 1753127384 -->
<g id="node9" class="node">
<title>1753127384</title>
<ellipse fill="none" stroke="black" cx="2052.12" cy="-162" rx="145.88" ry="18"/>
<text text-anchor="middle" x="2052.12" y="-157.8" font-family="Times,serif" font-size="14.00">(getArgList,SimpleName,116,116)</text>
</g>
<!-- 1955920234&#45;&gt;1753127384 -->
<g id="edge8" class="edge">
<title>1955920234&#45;&gt;1753127384</title>
<path fill="none" stroke="black" d="M1792.91,-216.05C1846.79,-205.03 1916.75,-190.71 1970.41,-179.72"/>
<polygon fill="black" stroke="black" points="1971.14,-183.15 1980.23,-177.71 1969.74,-176.29 1971.14,-183.15"/>
</g>
<!-- 239372207 -->
<g id="node10" class="node">
<title>239372207</title>
<ellipse fill="none" stroke="black" cx="2356.12" cy="-162" rx="139.84" ry="18"/>
<text text-anchor="middle" x="2356.12" y="-157.8" font-family="Times,serif" font-size="14.00">({ &#160;return args; } ,Block,116,118)</text>
</g>
<!-- 1955920234&#45;&gt;239372207 -->
<g id="edge9" class="edge">
<title>1955920234&#45;&gt;239372207</title>
<path fill="none" stroke="black" d="M1869.63,-216.29C1967.13,-206 2094.35,-192.45 2207.12,-180 2219.47,-178.64 2232.4,-177.19 2245.26,-175.74"/>
<polygon fill="black" stroke="black" points="2246,-179.18 2255.55,-174.58 2245.22,-172.22 2246,-179.18"/>
</g>
<!-- 1146825051 -->
<g id="node5" class="node">
<title>1146825051</title>
<ellipse fill="none" stroke="black" cx="1580.12" cy="-90" rx="115.82" ry="18"/>
<text text-anchor="middle" x="1580.12" y="-85.8" font-family="Times,serif" font-size="14.00">(List,SimpleType,116,116)</text>
</g>
<!-- 391630194&#45;&gt;1146825051 -->
<g id="edge4" class="edge">
<title>391630194&#45;&gt;1146825051</title>
<path fill="none" stroke="black" d="M1678.98,-144.23C1661.17,-134.64 1638.64,-122.51 1619.59,-112.25"/>
<polygon fill="black" stroke="black" points="1621.02,-109.05 1610.56,-107.39 1617.7,-115.21 1621.02,-109.05"/>
</g>
<!-- 1550261631 -->
<g id="node7" class="node">
<title>1550261631</title>
<ellipse fill="none" stroke="black" cx="1840.12" cy="-90" rx="124.49" ry="18"/>
<text text-anchor="middle" x="1840.12" y="-85.8" font-family="Times,serif" font-size="14.00">(String,SimpleType,116,116)</text>
</g>
<!-- 391630194&#45;&gt;1550261631 -->
<g id="edge6" class="edge">
<title>391630194&#45;&gt;1550261631</title>
<path fill="none" stroke="black" d="M1741.26,-144.23C1758.95,-134.71 1781.28,-122.69 1800.23,-112.48"/>
<polygon fill="black" stroke="black" points="1802.09,-115.45 1809.24,-107.63 1798.77,-109.29 1802.09,-115.45"/>
</g>
<!-- 1239807799 -->
<g id="node6" class="node">
<title>1239807799</title>
<ellipse fill="none" stroke="black" cx="1577.12" cy="-18" rx="119.25" ry="18"/>
<text text-anchor="middle" x="1577.12" y="-13.8" font-family="Times,serif" font-size="14.00">(List,SimpleName,116,116)</text>
</g>
<!-- 1146825051&#45;&gt;1239807799 -->
<g id="edge5" class="edge">
<title>1146825051&#45;&gt;1239807799</title>
<path fill="none" stroke="black" d="M1579.38,-71.7C1579.05,-63.98 1578.65,-54.71 1578.28,-46.11"/>
<polygon fill="black" stroke="black" points="1581.78,-45.95 1577.85,-36.1 1574.79,-46.25 1581.78,-45.95"/>
</g>
<!-- 1970436060 -->
<g id="node8" class="node">
<title>1970436060</title>
<ellipse fill="none" stroke="black" cx="1842.12" cy="-18" rx="127.92" ry="18"/>
<text text-anchor="middle" x="1842.12" y="-13.8" font-family="Times,serif" font-size="14.00">(String,SimpleName,116,116)</text>
</g>
<!-- 1550261631&#45;&gt;1970436060 -->
<g id="edge7" class="edge">
<title>1550261631&#45;&gt;1970436060</title>
<path fill="none" stroke="black" d="M1840.62,-71.7C1840.84,-63.98 1841.1,-54.71 1841.35,-46.11"/>
<polygon fill="black" stroke="black" points="1844.85,-46.2 1841.63,-36.1 1837.85,-46 1844.85,-46.2"/>
</g>
<!-- 1789718525 -->
<g id="node11" class="node">
<title>1789718525</title>
<ellipse fill="none" stroke="black" cx="2356.12" cy="-90" rx="165.48" ry="18"/>
<text text-anchor="middle" x="2356.12" y="-85.8" font-family="Times,serif" font-size="14.00">(return args; ,ReturnStatement,117,117)</text>
</g>
<!-- 239372207&#45;&gt;1789718525 -->
<g id="edge10" class="edge">
<title>239372207&#45;&gt;1789718525</title>
<path fill="none" stroke="black" d="M2356.12,-143.7C2356.12,-135.98 2356.12,-126.71 2356.12,-118.11"/>
<polygon fill="black" stroke="black" points="2359.62,-118.1 2356.12,-108.1 2352.62,-118.1 2359.62,-118.1"/>
</g>
<!-- 210156003 -->
<g id="node12" class="node">
<title>210156003</title>
<ellipse fill="none" stroke="black" cx="2356.12" cy="-18" rx="120.38" ry="18"/>
<text text-anchor="middle" x="2356.12" y="-13.8" font-family="Times,serif" font-size="14.00">(args,SimpleName,117,117)</text>
</g>
<!-- 1789718525&#45;&gt;210156003 -->
<g id="edge11" class="edge">
<title>1789718525&#45;&gt;210156003</title>
<path fill="none" stroke="black" d="M2356.12,-71.7C2356.12,-63.98 2356.12,-54.71 2356.12,-46.11"/>
<polygon fill="black" stroke="black" points="2359.62,-46.1 2356.12,-36.1 2352.62,-46.1 2359.62,-46.1"/>
</g>
</g>
</svg>
