<?xml version="1.0" encoding="UTF-8" standalone="no"?>
<!DOCTYPE svg PUBLIC "-//W3C//DTD SVG 1.1//EN"
 "http://www.w3.org/Graphics/SVG/1.1/DTD/svg11.dtd">
<!-- Generated by graphviz version 2.50.0 (20211204.2007)
 -->
<!-- Title: DirectedGraph Pages: 1 -->
<svg width="2280pt" height="285pt"
 viewBox="0.00 0.00 2279.94 284.80" xmlns="http://www.w3.org/2000/svg" xmlns:xlink="http://www.w3.org/1999/xlink">
<g id="graph0" class="graph" transform="scale(1 1) rotate(0) translate(4 280.8)">
<title>DirectedGraph</title>
<polygon fill="white" stroke="transparent" points="-4,4 -4,-280.8 2275.94,-280.8 2275.94,4 -4,4"/>
<text text-anchor="middle" x="1135.97" y="-260.2" font-family="Times,serif" font-size="14.00">getOptionGroup</text>
<!-- 2110756088 -->
<g id="node1" class="node">
<title>2110756088</title>
<ellipse fill="none" stroke="black" cx="1466.57" cy="-234" rx="805.23" ry="18"/>
<text text-anchor="middle" x="1466.57" y="-229.8" font-family="Times,serif" font-size="14.00">(/** &#160;* Gets the option group where another option has been selected. * @return the related option group * @since 1.2 */ public OptionGroup getOptionGroup(){ &#160;return group; } ,MethodDeclaration,73,81)</text>
</g>
<!-- 580871917 -->
<g id="node2" class="node">
<title>580871917</title>
<ellipse fill="none" stroke="black" cx="541.57" cy="-162" rx="541.65" ry="18"/>
<text text-anchor="middle" x="541.57" y="-157.8" font-family="Times,serif" font-size="14.00">(/** &#160;* Gets the option group where another option has been selected. * @return the related option group * @since 1.2 */ ,Javadoc,73,78)</text>
</g>
<!-- 2110756088&#45;&gt;580871917 -->
<g id="edge1" class="edge">
<title>2110756088&#45;&gt;580871917</title>
<path fill="none" stroke="black" d="M1250.58,-216.65C1102.49,-205.45 906.77,-190.64 758.49,-179.41"/>
<polygon fill="black" stroke="black" points="758.58,-175.91 748.34,-178.65 758.05,-182.89 758.58,-175.91"/>
</g>
<!-- 823723302 -->
<g id="node3" class="node">
<title>823723302</title>
<ellipse fill="none" stroke="black" cx="1203.57" cy="-162" rx="102.48" ry="18"/>
<text text-anchor="middle" x="1203.57" y="-157.8" font-family="Times,serif" font-size="14.00">(public,Modifier,79,79)</text>
</g>
<!-- 2110756088&#45;&gt;823723302 -->
<g id="edge2" class="edge">
<title>2110756088&#45;&gt;823723302</title>
<path fill="none" stroke="black" d="M1402.91,-216.05C1361.9,-205.14 1308.77,-191 1267.68,-180.06"/>
<polygon fill="black" stroke="black" points="1268.33,-176.61 1257.77,-177.42 1266.53,-183.38 1268.33,-176.61"/>
</g>
<!-- 1714078840 -->
<g id="node4" class="node">
<title>1714078840</title>
<ellipse fill="none" stroke="black" cx="1466.57" cy="-162" rx="142.96" ry="18"/>
<text text-anchor="middle" x="1466.57" y="-157.8" font-family="Times,serif" font-size="14.00">(OptionGroup,SimpleType,79,79)</text>
</g>
<!-- 2110756088&#45;&gt;1714078840 -->
<g id="edge3" class="edge">
<title>2110756088&#45;&gt;1714078840</title>
<path fill="none" stroke="black" d="M1466.57,-215.7C1466.57,-207.98 1466.57,-198.71 1466.57,-190.11"/>
<polygon fill="black" stroke="black" points="1470.07,-190.1 1466.57,-180.1 1463.07,-190.1 1470.07,-190.1"/>
</g>
<!-- 1051876890 -->
<g id="node6" class="node">
<title>1051876890</title>
<ellipse fill="none" stroke="black" cx="1784.57" cy="-162" rx="157.99" ry="18"/>
<text text-anchor="middle" x="1784.57" y="-157.8" font-family="Times,serif" font-size="14.00">(getOptionGroup,SimpleName,79,79)</text>
</g>
<!-- 2110756088&#45;&gt;1051876890 -->
<g id="edge5" class="edge">
<title>2110756088&#45;&gt;1051876890</title>
<path fill="none" stroke="black" d="M1543.55,-216.05C1592.56,-205.27 1655.89,-191.33 1705.33,-180.44"/>
<polygon fill="black" stroke="black" points="1706.33,-183.81 1715.35,-178.24 1704.83,-176.97 1706.33,-183.81"/>
</g>
<!-- 1199262943 -->
<g id="node7" class="node">
<title>1199262943</title>
<ellipse fill="none" stroke="black" cx="2096.57" cy="-162" rx="136.91" ry="18"/>
<text text-anchor="middle" x="2096.57" y="-157.8" font-family="Times,serif" font-size="14.00">({ &#160;return group; } ,Block,79,81)</text>
</g>
<!-- 2110756088&#45;&gt;1199262943 -->
<g id="edge6" class="edge">
<title>2110756088&#45;&gt;1199262943</title>
<path fill="none" stroke="black" d="M1621.96,-216.33C1717.14,-206.05 1841.42,-192.48 1951.57,-180 1963.6,-178.64 1976.18,-177.19 1988.69,-175.74"/>
<polygon fill="black" stroke="black" points="1989.17,-179.21 1998.7,-174.58 1988.36,-172.26 1989.17,-179.21"/>
</g>
<!-- 1732502545 -->
<g id="node5" class="node">
<title>1732502545</title>
<ellipse fill="none" stroke="black" cx="1466.57" cy="-90" rx="145.89" ry="18"/>
<text text-anchor="middle" x="1466.57" y="-85.8" font-family="Times,serif" font-size="14.00">(OptionGroup,SimpleName,79,79)</text>
</g>
<!-- 1714078840&#45;&gt;1732502545 -->
<g id="edge4" class="edge">
<title>1714078840&#45;&gt;1732502545</title>
<path fill="none" stroke="black" d="M1466.57,-143.7C1466.57,-135.98 1466.57,-126.71 1466.57,-118.11"/>
<polygon fill="black" stroke="black" points="1470.07,-118.1 1466.57,-108.1 1463.07,-118.1 1470.07,-118.1"/>
</g>
<!-- 2009221452 -->
<g id="node8" class="node">
<title>2009221452</title>
<ellipse fill="none" stroke="black" cx="2096.57" cy="-90" rx="162.05" ry="18"/>
<text text-anchor="middle" x="2096.57" y="-85.8" font-family="Times,serif" font-size="14.00">(return group; ,ReturnStatement,80,80)</text>
</g>
<!-- 1199262943&#45;&gt;2009221452 -->
<g id="edge7" class="edge">
<title>1199262943&#45;&gt;2009221452</title>
<path fill="none" stroke="black" d="M2096.57,-143.7C2096.57,-135.98 2096.57,-126.71 2096.57,-118.11"/>
<polygon fill="black" stroke="black" points="2100.07,-118.1 2096.57,-108.1 2093.07,-118.1 2100.07,-118.1"/>
</g>
<!-- 257513673 -->
<g id="node9" class="node">
<title>257513673</title>
<ellipse fill="none" stroke="black" cx="2096.57" cy="-18" rx="116.95" ry="18"/>
<text text-anchor="middle" x="2096.57" y="-13.8" font-family="Times,serif" font-size="14.00">(group,SimpleName,80,80)</text>
</g>
<!-- 2009221452&#45;&gt;257513673 -->
<g id="edge8" class="edge">
<title>2009221452&#45;&gt;257513673</title>
<path fill="none" stroke="black" d="M2096.57,-71.7C2096.57,-63.98 2096.57,-54.71 2096.57,-46.11"/>
<polygon fill="black" stroke="black" points="2100.07,-46.1 2096.57,-36.1 2093.07,-46.1 2100.07,-46.1"/>
</g>
</g>
</svg>
