<?xml version="1.0" encoding="UTF-8" standalone="no"?>
<!DOCTYPE svg PUBLIC "-//W3C//DTD SVG 1.1//EN"
 "http://www.w3.org/Graphics/SVG/1.1/DTD/svg11.dtd">
<!-- Generated by graphviz version 2.50.0 (20211204.2007)
 -->
<!-- Title: DirectedGraph Pages: 1 -->
<svg width="3519pt" height="573pt"
 viewBox="0.00 0.00 3519.40 572.80" xmlns="http://www.w3.org/2000/svg" xmlns:xlink="http://www.w3.org/1999/xlink">
<g id="graph0" class="graph" transform="scale(1 1) rotate(0) translate(4 568.8)">
<title>DirectedGraph</title>
<polygon fill="white" stroke="transparent" points="-4,4 -4,-568.8 3515.4,-568.8 3515.4,4 -4,4"/>
<text text-anchor="middle" x="1755.7" y="-548.2" font-family="Times,serif" font-size="14.00">getArgs</text>
<!-- 279593458 -->
<g id="node1" class="node">
<title>279593458</title>
<ellipse fill="none" stroke="black" cx="1599.95" cy="-522" rx="1092.63" ry="18"/>
<text text-anchor="middle" x="1599.95" y="-517.8" font-family="Times,serif" font-size="14.00">(/** &#160;* Retrieve any left&#45;over non&#45;recognized options and arguments * @return remaining items passed in but not parsed as an array. */ public String[] getArgs(){ &#160;final String[] answer=new String[args.size()]; &#160;args.toArray(answer); &#160;return answer; } ,MethodDeclaration,120,131)</text>
</g>
<!-- 989447607 -->
<g id="node2" class="node">
<title>989447607</title>
<ellipse fill="none" stroke="black" cx="606.95" cy="-450" rx="606.9" ry="18"/>
<text text-anchor="middle" x="606.95" y="-445.8" font-family="Times,serif" font-size="14.00">(/** &#160;* Retrieve any left&#45;over non&#45;recognized options and arguments * @return remaining items passed in but not parsed as an array. */ ,Javadoc,120,124)</text>
</g>
<!-- 279593458&#45;&gt;989447607 -->
<g id="edge1" class="edge">
<title>279593458&#45;&gt;989447607</title>
<path fill="none" stroke="black" d="M1364.62,-504.41C1206.37,-493.25 998.62,-478.61 840.69,-467.48"/>
<polygon fill="black" stroke="black" points="840.58,-463.96 830.36,-466.75 840.09,-470.94 840.58,-463.96"/>
</g>
<!-- 925308434 -->
<g id="node3" class="node">
<title>925308434</title>
<ellipse fill="none" stroke="black" cx="1343.95" cy="-450" rx="112.29" ry="18"/>
<text text-anchor="middle" x="1343.95" y="-445.8" font-family="Times,serif" font-size="14.00">(public,Modifier,125,125)</text>
</g>
<!-- 279593458&#45;&gt;925308434 -->
<g id="edge2" class="edge">
<title>279593458&#45;&gt;925308434</title>
<path fill="none" stroke="black" d="M1537.65,-503.97C1498.36,-493.22 1447.73,-479.38 1408.09,-468.54"/>
<polygon fill="black" stroke="black" points="1408.83,-465.11 1398.26,-465.85 1406.99,-471.86 1408.83,-465.11"/>
</g>
<!-- 249034932 -->
<g id="node4" class="node">
<title>249034932</title>
<ellipse fill="none" stroke="black" cx="1599.95" cy="-450" rx="126.17" ry="18"/>
<text text-anchor="middle" x="1599.95" y="-445.8" font-family="Times,serif" font-size="14.00">(String[],ArrayType,125,125)</text>
</g>
<!-- 279593458&#45;&gt;249034932 -->
<g id="edge3" class="edge">
<title>279593458&#45;&gt;249034932</title>
<path fill="none" stroke="black" d="M1599.95,-503.7C1599.95,-495.98 1599.95,-486.71 1599.95,-478.11"/>
<polygon fill="black" stroke="black" points="1603.45,-478.1 1599.95,-468.1 1596.45,-478.1 1603.45,-478.1"/>
</g>
<!-- 931675031 -->
<g id="node7" class="node">
<title>931675031</title>
<ellipse fill="none" stroke="black" cx="1878.95" cy="-450" rx="134.85" ry="18"/>
<text text-anchor="middle" x="1878.95" y="-445.8" font-family="Times,serif" font-size="14.00">(getArgs,SimpleName,125,125)</text>
</g>
<!-- 279593458&#45;&gt;931675031 -->
<g id="edge6" class="edge">
<title>279593458&#45;&gt;931675031</title>
<path fill="none" stroke="black" d="M1667.85,-503.97C1710.49,-493.27 1765.39,-479.49 1808.52,-468.67"/>
<polygon fill="black" stroke="black" points="1809.52,-472.03 1818.37,-466.2 1807.82,-465.24 1809.52,-472.03"/>
</g>
<!-- 111900554 -->
<g id="node8" class="node">
<title>111900554</title>
<ellipse fill="none" stroke="black" cx="2644.95" cy="-450" rx="422.24" ry="18"/>
<text text-anchor="middle" x="2644.95" y="-445.8" font-family="Times,serif" font-size="14.00">({ &#160;final String[] answer=new String[args.size()]; &#160;args.toArray(answer); &#160;return answer; } ,Block,125,131)</text>
</g>
<!-- 279593458&#45;&gt;111900554 -->
<g id="edge7" class="edge">
<title>279593458&#45;&gt;111900554</title>
<path fill="none" stroke="black" d="M1846.94,-504.46C2020.31,-492.84 2250.36,-477.43 2418.9,-466.14"/>
<polygon fill="black" stroke="black" points="2419.16,-469.63 2428.9,-465.47 2418.69,-462.65 2419.16,-469.63"/>
</g>
<!-- 1278254413 -->
<g id="node5" class="node">
<title>1278254413</title>
<ellipse fill="none" stroke="black" cx="1504.95" cy="-378" rx="124.49" ry="18"/>
<text text-anchor="middle" x="1504.95" y="-373.8" font-family="Times,serif" font-size="14.00">(String,SimpleType,125,125)</text>
</g>
<!-- 249034932&#45;&gt;1278254413 -->
<g id="edge4" class="edge">
<title>249034932&#45;&gt;1278254413</title>
<path fill="none" stroke="black" d="M1576.96,-432.05C1564.7,-423.03 1549.45,-411.79 1536.15,-401.99"/>
<polygon fill="black" stroke="black" points="1537.86,-398.9 1527.74,-395.79 1533.71,-404.54 1537.86,-398.9"/>
</g>
<!-- 940584193 -->
<g id="node6" class="node">
<title>940584193</title>
<ellipse fill="none" stroke="black" cx="1462.95" cy="-306" rx="127.92" ry="18"/>
<text text-anchor="middle" x="1462.95" y="-301.8" font-family="Times,serif" font-size="14.00">(String,SimpleName,125,125)</text>
</g>
<!-- 1278254413&#45;&gt;940584193 -->
<g id="edge5" class="edge">
<title>1278254413&#45;&gt;940584193</title>
<path fill="none" stroke="black" d="M1494.79,-360.05C1489.91,-351.92 1483.95,-342 1478.52,-332.94"/>
<polygon fill="black" stroke="black" points="1481.46,-331.05 1473.32,-324.28 1475.46,-334.65 1481.46,-331.05"/>
</g>
<!-- 1312381159 -->
<g id="node9" class="node">
<title>1312381159</title>
<ellipse fill="none" stroke="black" cx="2000.95" cy="-378" rx="349.57" ry="18"/>
<text text-anchor="middle" x="2000.95" y="-373.8" font-family="Times,serif" font-size="14.00">(final String[] answer=new String[args.size()]; ,VariableDeclarationStatement,126,126)</text>
</g>
<!-- 111900554&#45;&gt;1312381159 -->
<g id="edge8" class="edge">
<title>111900554&#45;&gt;1312381159</title>
<path fill="none" stroke="black" d="M2498.42,-433.07C2395.31,-421.86 2257.65,-406.9 2153.28,-395.56"/>
<polygon fill="black" stroke="black" points="2153.6,-392.07 2143.28,-394.47 2152.85,-399.03 2153.6,-392.07"/>
</g>
<!-- 282496973 -->
<g id="node23" class="node">
<title>282496973</title>
<ellipse fill="none" stroke="black" cx="2740.95" cy="-378" rx="222.75" ry="18"/>
<text text-anchor="middle" x="2740.95" y="-373.8" font-family="Times,serif" font-size="14.00">(args.toArray(answer); ,ExpressionStatement,128,128)</text>
</g>
<!-- 111900554&#45;&gt;282496973 -->
<g id="edge22" class="edge">
<title>111900554&#45;&gt;282496973</title>
<path fill="none" stroke="black" d="M2668.68,-431.7C2680.89,-422.8 2695.94,-411.82 2709.14,-402.2"/>
<polygon fill="black" stroke="black" points="2711.48,-404.82 2717.49,-396.1 2707.35,-399.17 2711.48,-404.82"/>
</g>
<!-- 515715487 -->
<g id="node28" class="node">
<title>515715487</title>
<ellipse fill="none" stroke="black" cx="3232.95" cy="-378" rx="176.5" ry="18"/>
<text text-anchor="middle" x="3232.95" y="-373.8" font-family="Times,serif" font-size="14.00">(return answer; ,ReturnStatement,130,130)</text>
</g>
<!-- 111900554&#45;&gt;515715487 -->
<g id="edge27" class="edge">
<title>111900554&#45;&gt;515715487</title>
<path fill="none" stroke="black" d="M2779.85,-432.94C2880.22,-420.99 3015.99,-404.83 3112.68,-393.32"/>
<polygon fill="black" stroke="black" points="3113.28,-396.77 3122.79,-392.11 3112.45,-389.82 3113.28,-396.77"/>
</g>
<!-- 2012744708 -->
<g id="node10" class="node">
<title>2012744708</title>
<ellipse fill="none" stroke="black" cx="1713.95" cy="-306" rx="105.91" ry="18"/>
<text text-anchor="middle" x="1713.95" y="-301.8" font-family="Times,serif" font-size="14.00">(final,Modifier,126,126)</text>
</g>
<!-- 1312381159&#45;&gt;2012744708 -->
<g id="edge9" class="edge">
<title>1312381159&#45;&gt;2012744708</title>
<path fill="none" stroke="black" d="M1932.57,-360.32C1887.01,-349.21 1827.37,-334.66 1781.89,-323.57"/>
<polygon fill="black" stroke="black" points="1782.66,-320.16 1772.12,-321.19 1781.01,-326.96 1782.66,-320.16"/>
</g>
<!-- 31114735 -->
<g id="node11" class="node">
<title>31114735</title>
<ellipse fill="none" stroke="black" cx="1963.95" cy="-306" rx="126.17" ry="18"/>
<text text-anchor="middle" x="1963.95" y="-301.8" font-family="Times,serif" font-size="14.00">(String[],ArrayType,126,126)</text>
</g>
<!-- 1312381159&#45;&gt;31114735 -->
<g id="edge10" class="edge">
<title>1312381159&#45;&gt;31114735</title>
<path fill="none" stroke="black" d="M1991.81,-359.7C1987.55,-351.64 1982.4,-341.89 1977.69,-332.98"/>
<polygon fill="black" stroke="black" points="1980.76,-331.31 1972.99,-324.1 1974.57,-334.58 1980.76,-331.31"/>
</g>
<!-- 1866850137 -->
<g id="node14" class="node">
<title>1866850137</title>
<ellipse fill="none" stroke="black" cx="2397.95" cy="-306" rx="290.03" ry="18"/>
<text text-anchor="middle" x="2397.95" y="-301.8" font-family="Times,serif" font-size="14.00">(answer=new String[args.size()],VariableDeclarationFragment,126,126)</text>
</g>
<!-- 1312381159&#45;&gt;1866850137 -->
<g id="edge13" class="edge">
<title>1312381159&#45;&gt;1866850137</title>
<path fill="none" stroke="black" d="M2093.78,-360.63C2154.58,-349.91 2234.04,-335.9 2296.5,-324.89"/>
<polygon fill="black" stroke="black" points="2297.13,-328.33 2306.37,-323.15 2295.91,-321.44 2297.13,-328.33"/>
</g>
<!-- 1552999801 -->
<g id="node12" class="node">
<title>1552999801</title>
<ellipse fill="none" stroke="black" cx="1866.95" cy="-234" rx="124.49" ry="18"/>
<text text-anchor="middle" x="1866.95" y="-229.8" font-family="Times,serif" font-size="14.00">(String,SimpleType,126,126)</text>
</g>
<!-- 31114735&#45;&gt;1552999801 -->
<g id="edge11" class="edge">
<title>31114735&#45;&gt;1552999801</title>
<path fill="none" stroke="black" d="M1940.47,-288.05C1927.84,-278.94 1912.09,-267.58 1898.42,-257.71"/>
<polygon fill="black" stroke="black" points="1900.37,-254.8 1890.22,-251.79 1896.28,-260.48 1900.37,-254.8"/>
</g>
<!-- 1491755116 -->
<g id="node13" class="node">
<title>1491755116</title>
<ellipse fill="none" stroke="black" cx="1866.95" cy="-162" rx="127.92" ry="18"/>
<text text-anchor="middle" x="1866.95" y="-157.8" font-family="Times,serif" font-size="14.00">(String,SimpleName,126,126)</text>
</g>
<!-- 1552999801&#45;&gt;1491755116 -->
<g id="edge12" class="edge">
<title>1552999801&#45;&gt;1491755116</title>
<path fill="none" stroke="black" d="M1866.95,-215.7C1866.95,-207.98 1866.95,-198.71 1866.95,-190.11"/>
<polygon fill="black" stroke="black" points="1870.45,-190.1 1866.95,-180.1 1863.45,-190.1 1870.45,-190.1"/>
</g>
<!-- 954702563 -->
<g id="node15" class="node">
<title>954702563</title>
<ellipse fill="none" stroke="black" cx="2140.95" cy="-234" rx="131.4" ry="18"/>
<text text-anchor="middle" x="2140.95" y="-229.8" font-family="Times,serif" font-size="14.00">(answer,SimpleName,126,126)</text>
</g>
<!-- 1866850137&#45;&gt;954702563 -->
<g id="edge14" class="edge">
<title>1866850137&#45;&gt;954702563</title>
<path fill="none" stroke="black" d="M2336.72,-288.32C2297.63,-277.68 2246.97,-263.88 2206.98,-252.99"/>
<polygon fill="black" stroke="black" points="2207.89,-249.6 2197.32,-250.35 2206.05,-256.36 2207.89,-249.6"/>
</g>
<!-- 1661406123 -->
<g id="node16" class="node">
<title>1661406123</title>
<ellipse fill="none" stroke="black" cx="2487.95" cy="-234" rx="197.89" ry="18"/>
<text text-anchor="middle" x="2487.95" y="-229.8" font-family="Times,serif" font-size="14.00">(new String[args.size()],ArrayCreation,126,126)</text>
</g>
<!-- 1866850137&#45;&gt;1661406123 -->
<g id="edge15" class="edge">
<title>1866850137&#45;&gt;1661406123</title>
<path fill="none" stroke="black" d="M2420.2,-287.7C2431.53,-278.88 2445.48,-268.03 2457.77,-258.47"/>
<polygon fill="black" stroke="black" points="2460.22,-261.01 2465.96,-252.1 2455.92,-255.48 2460.22,-261.01"/>
</g>
<!-- 1759899303 -->
<g id="node17" class="node">
<title>1759899303</title>
<ellipse fill="none" stroke="black" cx="2332.95" cy="-162" rx="126.17" ry="18"/>
<text text-anchor="middle" x="2332.95" y="-157.8" font-family="Times,serif" font-size="14.00">(String[],ArrayType,126,126)</text>
</g>
<!-- 1661406123&#45;&gt;1759899303 -->
<g id="edge16" class="edge">
<title>1661406123&#45;&gt;1759899303</title>
<path fill="none" stroke="black" d="M2450.83,-216.23C2429.02,-206.39 2401.3,-193.87 2378.22,-183.44"/>
<polygon fill="black" stroke="black" points="2379.53,-180.19 2368.97,-179.27 2376.65,-186.57 2379.53,-180.19"/>
</g>
<!-- 1982787818 -->
<g id="node20" class="node">
<title>1982787818</title>
<ellipse fill="none" stroke="black" cx="2641.95" cy="-162" rx="164.94" ry="18"/>
<text text-anchor="middle" x="2641.95" y="-157.8" font-family="Times,serif" font-size="14.00">(args.size(),MethodInvocation,126,126)</text>
</g>
<!-- 1661406123&#45;&gt;1982787818 -->
<g id="edge19" class="edge">
<title>1661406123&#45;&gt;1982787818</title>
<path fill="none" stroke="black" d="M2524.84,-216.23C2546.27,-206.49 2573.45,-194.14 2596.23,-183.78"/>
<polygon fill="black" stroke="black" points="2597.71,-186.95 2605.37,-179.63 2594.81,-180.58 2597.71,-186.95"/>
</g>
<!-- 689654773 -->
<g id="node18" class="node">
<title>689654773</title>
<ellipse fill="none" stroke="black" cx="2332.95" cy="-90" rx="124.49" ry="18"/>
<text text-anchor="middle" x="2332.95" y="-85.8" font-family="Times,serif" font-size="14.00">(String,SimpleType,126,126)</text>
</g>
<!-- 1759899303&#45;&gt;689654773 -->
<g id="edge17" class="edge">
<title>1759899303&#45;&gt;689654773</title>
<path fill="none" stroke="black" d="M2332.95,-143.7C2332.95,-135.98 2332.95,-126.71 2332.95,-118.11"/>
<polygon fill="black" stroke="black" points="2336.45,-118.1 2332.95,-108.1 2329.45,-118.1 2336.45,-118.1"/>
</g>
<!-- 758119607 -->
<g id="node19" class="node">
<title>758119607</title>
<ellipse fill="none" stroke="black" cx="2332.95" cy="-18" rx="127.92" ry="18"/>
<text text-anchor="middle" x="2332.95" y="-13.8" font-family="Times,serif" font-size="14.00">(String,SimpleName,126,126)</text>
</g>
<!-- 689654773&#45;&gt;758119607 -->
<g id="edge18" class="edge">
<title>689654773&#45;&gt;758119607</title>
<path fill="none" stroke="black" d="M2332.95,-71.7C2332.95,-63.98 2332.95,-54.71 2332.95,-46.11"/>
<polygon fill="black" stroke="black" points="2336.45,-46.1 2332.95,-36.1 2329.45,-46.1 2336.45,-46.1"/>
</g>
<!-- 838449246 -->
<g id="node21" class="node">
<title>838449246</title>
<ellipse fill="none" stroke="black" cx="2618.95" cy="-90" rx="120.38" ry="18"/>
<text text-anchor="middle" x="2618.95" y="-85.8" font-family="Times,serif" font-size="14.00">(args,SimpleName,126,126)</text>
</g>
<!-- 1982787818&#45;&gt;838449246 -->
<g id="edge20" class="edge">
<title>1982787818&#45;&gt;838449246</title>
<path fill="none" stroke="black" d="M2636.27,-143.7C2633.7,-135.9 2630.62,-126.51 2627.77,-117.83"/>
<polygon fill="black" stroke="black" points="2631.02,-116.51 2624.57,-108.1 2624.37,-118.7 2631.02,-116.51"/>
</g>
<!-- 1112414583 -->
<g id="node22" class="node">
<title>1112414583</title>
<ellipse fill="none" stroke="black" cx="2875.95" cy="-90" rx="119.23" ry="18"/>
<text text-anchor="middle" x="2875.95" y="-85.8" font-family="Times,serif" font-size="14.00">(size,SimpleName,126,126)</text>
</g>
<!-- 1982787818&#45;&gt;1112414583 -->
<g id="edge21" class="edge">
<title>1982787818&#45;&gt;1112414583</title>
<path fill="none" stroke="black" d="M2695.64,-144.94C2731.18,-134.31 2777.89,-120.33 2814.86,-109.27"/>
<polygon fill="black" stroke="black" points="2815.95,-112.6 2824.53,-106.38 2813.94,-105.9 2815.95,-112.6"/>
</g>
<!-- 293508253 -->
<g id="node24" class="node">
<title>293508253</title>
<ellipse fill="none" stroke="black" cx="2913.95" cy="-306" rx="207.17" ry="18"/>
<text text-anchor="middle" x="2913.95" y="-301.8" font-family="Times,serif" font-size="14.00">(args.toArray(answer),MethodInvocation,128,128)</text>
</g>
<!-- 282496973&#45;&gt;293508253 -->
<g id="edge23" class="edge">
<title>282496973&#45;&gt;293508253</title>
<path fill="none" stroke="black" d="M2782.39,-360.23C2806.59,-350.44 2837.31,-338.01 2862.99,-327.62"/>
<polygon fill="black" stroke="black" points="2864.6,-330.75 2872.55,-323.75 2861.97,-324.26 2864.6,-330.75"/>
</g>
<!-- 1840903588 -->
<g id="node25" class="node">
<title>1840903588</title>
<ellipse fill="none" stroke="black" cx="2823.95" cy="-234" rx="120.38" ry="18"/>
<text text-anchor="middle" x="2823.95" y="-229.8" font-family="Times,serif" font-size="14.00">(args,SimpleName,128,128)</text>
</g>
<!-- 293508253&#45;&gt;1840903588 -->
<g id="edge24" class="edge">
<title>293508253&#45;&gt;1840903588</title>
<path fill="none" stroke="black" d="M2892.17,-288.05C2880.56,-279.03 2866.11,-267.79 2853.51,-257.99"/>
<polygon fill="black" stroke="black" points="2855.58,-255.17 2845.54,-251.79 2851.28,-260.69 2855.58,-255.17"/>
</g>
<!-- 1603198149 -->
<g id="node26" class="node">
<title>1603198149</title>
<ellipse fill="none" stroke="black" cx="3095.95" cy="-234" rx="134.27" ry="18"/>
<text text-anchor="middle" x="3095.95" y="-229.8" font-family="Times,serif" font-size="14.00">(toArray,SimpleName,128,128)</text>
</g>
<!-- 293508253&#45;&gt;1603198149 -->
<g id="edge25" class="edge">
<title>293508253&#45;&gt;1603198149</title>
<path fill="none" stroke="black" d="M2957.55,-288.23C2983.7,-278.17 3017.1,-265.33 3044.53,-254.78"/>
<polygon fill="black" stroke="black" points="3045.89,-258 3053.97,-251.15 3043.38,-251.47 3045.89,-258"/>
</g>
<!-- 2063763486 -->
<g id="node27" class="node">
<title>2063763486</title>
<ellipse fill="none" stroke="black" cx="3379.95" cy="-234" rx="131.4" ry="18"/>
<text text-anchor="middle" x="3379.95" y="-229.8" font-family="Times,serif" font-size="14.00">(answer,SimpleName,128,128)</text>
</g>
<!-- 293508253&#45;&gt;2063763486 -->
<g id="edge26" class="edge">
<title>293508253&#45;&gt;2063763486</title>
<path fill="none" stroke="black" d="M3012.78,-290.15C3093.1,-278.09 3205.69,-261.18 3284.96,-249.27"/>
<polygon fill="black" stroke="black" points="3285.58,-252.72 3294.95,-247.77 3284.54,-245.79 3285.58,-252.72"/>
</g>
<!-- 1007412025 -->
<g id="node29" class="node">
<title>1007412025</title>
<ellipse fill="none" stroke="black" cx="3270.95" cy="-306" rx="131.4" ry="18"/>
<text text-anchor="middle" x="3270.95" y="-301.8" font-family="Times,serif" font-size="14.00">(answer,SimpleName,130,130)</text>
</g>
<!-- 515715487&#45;&gt;1007412025 -->
<g id="edge28" class="edge">
<title>515715487&#45;&gt;1007412025</title>
<path fill="none" stroke="black" d="M3242.35,-359.7C3246.72,-351.64 3252.01,-341.89 3256.85,-332.98"/>
<polygon fill="black" stroke="black" points="3259.97,-334.56 3261.67,-324.1 3253.82,-331.22 3259.97,-334.56"/>
</g>
</g>
</svg>
