<?xml version="1.0" encoding="UTF-8" standalone="no"?>
<!DOCTYPE svg PUBLIC "-//W3C//DTD SVG 1.1//EN"
 "http://www.w3.org/Graphics/SVG/1.1/DTD/svg11.dtd">
<!-- Generated by graphviz version 2.50.0 (20211204.2007)
 -->
<!-- Title: DirectedGraph Pages: 1 -->
<svg width="3091pt" height="357pt"
 viewBox="0.00 0.00 3090.72 356.80" xmlns="http://www.w3.org/2000/svg" xmlns:xlink="http://www.w3.org/1999/xlink">
<g id="graph0" class="graph" transform="scale(1 1) rotate(0) translate(4 352.8)">
<title>DirectedGraph</title>
<polygon fill="white" stroke="transparent" points="-4,4 -4,-352.8 3086.72,-352.8 3086.72,4 -4,4"/>
<text text-anchor="middle" x="1541.36" y="-332.2" font-family="Times,serif" font-size="14.00">addOption</text>
<!-- 1886491834 -->
<g id="node1" class="node">
<title>1886491834</title>
<ellipse fill="none" stroke="black" cx="1638.28" cy="-306" rx="837" ry="18"/>
<text text-anchor="middle" x="1638.28" y="-301.8" font-family="Times,serif" font-size="14.00">(/** &#160;* Add an option to the command line. The values of the option are stored. * @param opt the processed option. */ protected void addOption(final Option opt){ &#160;options.add(opt); } ,MethodDeclaration,102,109)</text>
</g>
<!-- 294658058 -->
<g id="node2" class="node">
<title>294658058</title>
<ellipse fill="none" stroke="black" cx="541.28" cy="-234" rx="541.06" ry="18"/>
<text text-anchor="middle" x="541.28" y="-229.8" font-family="Times,serif" font-size="14.00">(/** &#160;* Add an option to the command line. The values of the option are stored. * @param opt the processed option. */ ,Javadoc,102,106)</text>
</g>
<!-- 1886491834&#45;&gt;294658058 -->
<g id="edge1" class="edge">
<title>1886491834&#45;&gt;294658058</title>
<path fill="none" stroke="black" d="M1384.89,-288.83C1205.87,-277.41 967.12,-262.17 789.31,-250.83"/>
<polygon fill="black" stroke="black" points="789.5,-247.33 779.29,-250.19 789.05,-254.32 789.5,-247.33"/>
</g>
<!-- 1781493632 -->
<g id="node3" class="node">
<title>1781493632</title>
<ellipse fill="none" stroke="black" cx="1224.28" cy="-234" rx="123.87" ry="18"/>
<text text-anchor="middle" x="1224.28" y="-229.8" font-family="Times,serif" font-size="14.00">(protected,Modifier,107,107)</text>
</g>
<!-- 1886491834&#45;&gt;1781493632 -->
<g id="edge2" class="edge">
<title>1886491834&#45;&gt;1781493632</title>
<path fill="none" stroke="black" d="M1538.33,-288.1C1469.14,-276.4 1377.93,-260.98 1311.65,-249.77"/>
<polygon fill="black" stroke="black" points="1312.09,-246.3 1301.64,-248.08 1310.92,-253.2 1312.09,-246.3"/>
</g>
<!-- 1169474473 -->
<g id="node4" class="node">
<title>1169474473</title>
<ellipse fill="none" stroke="black" cx="1493.28" cy="-234" rx="126.77" ry="18"/>
<text text-anchor="middle" x="1493.28" y="-229.8" font-family="Times,serif" font-size="14.00">(void,PrimitiveType,107,107)</text>
</g>
<!-- 1886491834&#45;&gt;1169474473 -->
<g id="edge3" class="edge">
<title>1886491834&#45;&gt;1169474473</title>
<path fill="none" stroke="black" d="M1602.81,-287.88C1582.8,-278.22 1557.64,-266.07 1536.49,-255.86"/>
<polygon fill="black" stroke="black" points="1537.92,-252.66 1527.39,-251.47 1534.87,-258.96 1537.92,-252.66"/>
</g>
<!-- 966544353 -->
<g id="node5" class="node">
<title>966544353</title>
<ellipse fill="none" stroke="black" cx="1783.28" cy="-234" rx="144.74" ry="18"/>
<text text-anchor="middle" x="1783.28" y="-229.8" font-family="Times,serif" font-size="14.00">(addOption,SimpleName,107,107)</text>
</g>
<!-- 1886491834&#45;&gt;966544353 -->
<g id="edge4" class="edge">
<title>1886491834&#45;&gt;966544353</title>
<path fill="none" stroke="black" d="M1673.75,-287.88C1693.62,-278.29 1718.55,-266.25 1739.61,-256.08"/>
<polygon fill="black" stroke="black" points="1741.19,-259.21 1748.68,-251.71 1738.15,-252.9 1741.19,-259.21"/>
</g>
<!-- 689745064 -->
<g id="node6" class="node">
<title>689745064</title>
<ellipse fill="none" stroke="black" cx="2164.28" cy="-234" rx="218.17" ry="18"/>
<text text-anchor="middle" x="2164.28" y="-229.8" font-family="Times,serif" font-size="14.00">(final Option opt,SingleVariableDeclaration,107,107)</text>
</g>
<!-- 1886491834&#45;&gt;689745064 -->
<g id="edge5" class="edge">
<title>1886491834&#45;&gt;689745064</title>
<path fill="none" stroke="black" d="M1764.61,-288.19C1849.6,-276.88 1960.98,-262.06 2044.56,-250.93"/>
<polygon fill="black" stroke="black" points="2045.16,-254.38 2054.61,-249.59 2044.24,-247.44 2045.16,-254.38"/>
</g>
<!-- 63390 -->
<g id="node11" class="node">
<title>63390</title>
<ellipse fill="none" stroke="black" cx="2663.28" cy="-234" rx="161.85" ry="18"/>
<text text-anchor="middle" x="2663.28" y="-229.8" font-family="Times,serif" font-size="14.00">({ &#160;options.add(opt); } ,Block,107,109)</text>
</g>
<!-- 1886491834&#45;&gt;63390 -->
<g id="edge10" class="edge">
<title>1886491834&#45;&gt;63390</title>
<path fill="none" stroke="black" d="M1876.34,-288.74C2075.18,-275.16 2352.22,-256.24 2519.01,-244.85"/>
<polygon fill="black" stroke="black" points="2519.6,-248.32 2529.33,-244.15 2519.12,-241.34 2519.6,-248.32"/>
</g>
<!-- 945722724 -->
<g id="node7" class="node">
<title>945722724</title>
<ellipse fill="none" stroke="black" cx="1863.28" cy="-162" rx="105.91" ry="18"/>
<text text-anchor="middle" x="1863.28" y="-157.8" font-family="Times,serif" font-size="14.00">(final,Modifier,107,107)</text>
</g>
<!-- 689745064&#45;&gt;945722724 -->
<g id="edge6" class="edge">
<title>689745064&#45;&gt;945722724</title>
<path fill="none" stroke="black" d="M2094.85,-216.85C2046.28,-205.56 1981.66,-190.53 1933.03,-179.22"/>
<polygon fill="black" stroke="black" points="1933.75,-175.79 1923.21,-176.94 1932.16,-182.61 1933.75,-175.79"/>
</g>
<!-- 1536471117 -->
<g id="node8" class="node">
<title>1536471117</title>
<ellipse fill="none" stroke="black" cx="2114.28" cy="-162" rx="127.92" ry="18"/>
<text text-anchor="middle" x="2114.28" y="-157.8" font-family="Times,serif" font-size="14.00">(Option,SimpleType,107,107)</text>
</g>
<!-- 689745064&#45;&gt;1536471117 -->
<g id="edge7" class="edge">
<title>689745064&#45;&gt;1536471117</title>
<path fill="none" stroke="black" d="M2151.92,-215.7C2146.05,-207.47 2138.91,-197.48 2132.44,-188.42"/>
<polygon fill="black" stroke="black" points="2135.16,-186.21 2126.5,-180.1 2129.46,-190.28 2135.16,-186.21"/>
</g>
<!-- 1278852808 -->
<g id="node10" class="node">
<title>1278852808</title>
<ellipse fill="none" stroke="black" cx="2376.28" cy="-162" rx="116.38" ry="18"/>
<text text-anchor="middle" x="2376.28" y="-157.8" font-family="Times,serif" font-size="14.00">(opt,SimpleName,107,107)</text>
</g>
<!-- 689745064&#45;&gt;1278852808 -->
<g id="edge9" class="edge">
<title>689745064&#45;&gt;1278852808</title>
<path fill="none" stroke="black" d="M2214.52,-216.41C2246.04,-206.01 2286.74,-192.56 2319.44,-181.77"/>
<polygon fill="black" stroke="black" points="2320.91,-184.97 2329.31,-178.51 2318.71,-178.32 2320.91,-184.97"/>
</g>
<!-- 9190301 -->
<g id="node9" class="node">
<title>9190301</title>
<ellipse fill="none" stroke="black" cx="2114.28" cy="-90" rx="130.86" ry="18"/>
<text text-anchor="middle" x="2114.28" y="-85.8" font-family="Times,serif" font-size="14.00">(Option,SimpleName,107,107)</text>
</g>
<!-- 1536471117&#45;&gt;9190301 -->
<g id="edge8" class="edge">
<title>1536471117&#45;&gt;9190301</title>
<path fill="none" stroke="black" d="M2114.28,-143.7C2114.28,-135.98 2114.28,-126.71 2114.28,-118.11"/>
<polygon fill="black" stroke="black" points="2117.78,-118.1 2114.28,-108.1 2110.78,-118.1 2117.78,-118.1"/>
</g>
<!-- 2129144075 -->
<g id="node12" class="node">
<title>2129144075</title>
<ellipse fill="none" stroke="black" cx="2714.28" cy="-162" rx="203.76" ry="18"/>
<text text-anchor="middle" x="2714.28" y="-157.8" font-family="Times,serif" font-size="14.00">(options.add(opt); ,ExpressionStatement,108,108)</text>
</g>
<!-- 63390&#45;&gt;2129144075 -->
<g id="edge11" class="edge">
<title>63390&#45;&gt;2129144075</title>
<path fill="none" stroke="black" d="M2675.89,-215.7C2681.88,-207.47 2689.16,-197.48 2695.76,-188.42"/>
<polygon fill="black" stroke="black" points="2698.76,-190.25 2701.82,-180.1 2693.1,-186.13 2698.76,-190.25"/>
</g>
<!-- 525968792 -->
<g id="node13" class="node">
<title>525968792</title>
<ellipse fill="none" stroke="black" cx="2714.28" cy="-90" rx="188.67" ry="18"/>
<text text-anchor="middle" x="2714.28" y="-85.8" font-family="Times,serif" font-size="14.00">(options.add(opt),MethodInvocation,108,108)</text>
</g>
<!-- 2129144075&#45;&gt;525968792 -->
<g id="edge12" class="edge">
<title>2129144075&#45;&gt;525968792</title>
<path fill="none" stroke="black" d="M2714.28,-143.7C2714.28,-135.98 2714.28,-126.71 2714.28,-118.11"/>
<polygon fill="black" stroke="black" points="2717.78,-118.1 2714.28,-108.1 2710.78,-118.1 2717.78,-118.1"/>
</g>
<!-- 504858437 -->
<g id="node14" class="node">
<title>504858437</title>
<ellipse fill="none" stroke="black" cx="2445.28" cy="-18" rx="132.58" ry="18"/>
<text text-anchor="middle" x="2445.28" y="-13.8" font-family="Times,serif" font-size="14.00">(options,SimpleName,108,108)</text>
</g>
<!-- 525968792&#45;&gt;504858437 -->
<g id="edge13" class="edge">
<title>525968792&#45;&gt;504858437</title>
<path fill="none" stroke="black" d="M2652.57,-72.94C2611.12,-62.16 2556.49,-47.94 2513.71,-36.81"/>
<polygon fill="black" stroke="black" points="2514.5,-33.4 2503.94,-34.26 2512.74,-40.17 2514.5,-33.4"/>
</g>
<!-- 422330142 -->
<g id="node15" class="node">
<title>422330142</title>
<ellipse fill="none" stroke="black" cx="2714.28" cy="-18" rx="118.09" ry="18"/>
<text text-anchor="middle" x="2714.28" y="-13.8" font-family="Times,serif" font-size="14.00">(add,SimpleName,108,108)</text>
</g>
<!-- 525968792&#45;&gt;422330142 -->
<g id="edge14" class="edge">
<title>525968792&#45;&gt;422330142</title>
<path fill="none" stroke="black" d="M2714.28,-71.7C2714.28,-63.98 2714.28,-54.71 2714.28,-46.11"/>
<polygon fill="black" stroke="black" points="2717.78,-46.1 2714.28,-36.1 2710.78,-46.1 2717.78,-46.1"/>
</g>
<!-- 649329985 -->
<g id="node16" class="node">
<title>649329985</title>
<ellipse fill="none" stroke="black" cx="2966.28" cy="-18" rx="116.38" ry="18"/>
<text text-anchor="middle" x="2966.28" y="-13.8" font-family="Times,serif" font-size="14.00">(opt,SimpleName,108,108)</text>
</g>
<!-- 525968792&#45;&gt;649329985 -->
<g id="edge15" class="edge">
<title>525968792&#45;&gt;649329985</title>
<path fill="none" stroke="black" d="M2772.41,-72.85C2811.35,-62.04 2862.62,-47.79 2902.66,-36.67"/>
<polygon fill="black" stroke="black" points="2903.62,-40.04 2912.32,-33.99 2901.75,-33.29 2903.62,-40.04"/>
</g>
</g>
</svg>
