<?xml version="1.0" encoding="UTF-8" standalone="no"?>
<!DOCTYPE svg PUBLIC "-//W3C//DTD SVG 1.1//EN"
 "http://www.w3.org/Graphics/SVG/1.1/DTD/svg11.dtd">
<!-- Generated by graphviz version 2.50.0 (20211204.2007)
 -->
<!-- Title: DirectedGraph Pages: 1 -->
<svg width="3250pt" height="429pt"
 viewBox="0.00 0.00 3249.76 428.80" xmlns="http://www.w3.org/2000/svg" xmlns:xlink="http://www.w3.org/1999/xlink">
<g id="graph0" class="graph" transform="scale(1 1) rotate(0) translate(4 424.8)">
<title>DirectedGraph</title>
<polygon fill="white" stroke="transparent" points="-4,4 -4,-424.8 3245.76,-424.8 3245.76,4 -4,4"/>
<text text-anchor="middle" x="1620.88" y="-404.2" font-family="Times,serif" font-size="14.00">hasOption</text>
<!-- 1959910454 -->
<g id="node1" class="node">
<title>1959910454</title>
<ellipse fill="none" stroke="black" cx="1655.32" cy="-378" rx="927.27" ry="18"/>
<text text-anchor="middle" x="1655.32" y="-373.8" font-family="Times,serif" font-size="14.00">(/** &#160;* Tests to see if an option has been set. * @param opt Short name of the option. * @return true if set, false if not. */ public boolean hasOption(final String opt){ &#160;return hasOption(resolveOption(opt)); } ,MethodDeclaration,429,437)</text>
</g>
<!-- 1902237905 -->
<g id="node2" class="node">
<title>1902237905</title>
<ellipse fill="none" stroke="black" cx="552.32" cy="-306" rx="552.14" ry="18"/>
<text text-anchor="middle" x="552.32" y="-301.8" font-family="Times,serif" font-size="14.00">(/** &#160;* Tests to see if an option has been set. * @param opt Short name of the option. * @return true if set, false if not. */ ,Javadoc,429,434)</text>
</g>
<!-- 1959910454&#45;&gt;1902237905 -->
<g id="edge1" class="edge">
<title>1959910454&#45;&gt;1902237905</title>
<path fill="none" stroke="black" d="M1398.46,-360.7C1218.85,-349.3 980.22,-334.16 802.18,-322.86"/>
<polygon fill="black" stroke="black" points="802.34,-319.36 792.14,-322.22 801.9,-326.35 802.34,-319.36"/>
</g>
<!-- 1961002599 -->
<g id="node3" class="node">
<title>1961002599</title>
<ellipse fill="none" stroke="black" cx="1234.32" cy="-306" rx="112.29" ry="18"/>
<text text-anchor="middle" x="1234.32" y="-301.8" font-family="Times,serif" font-size="14.00">(public,Modifier,435,435)</text>
</g>
<!-- 1959910454&#45;&gt;1961002599 -->
<g id="edge2" class="edge">
<title>1959910454&#45;&gt;1961002599</title>
<path fill="none" stroke="black" d="M1553.68,-360.1C1482.04,-348.19 1387.21,-332.42 1319.53,-321.17"/>
<polygon fill="black" stroke="black" points="1319.77,-317.66 1309.33,-319.47 1318.62,-324.56 1319.77,-317.66"/>
</g>
<!-- 485937598 -->
<g id="node4" class="node">
<title>485937598</title>
<ellipse fill="none" stroke="black" cx="1504.32" cy="-306" rx="140.08" ry="18"/>
<text text-anchor="middle" x="1504.32" y="-301.8" font-family="Times,serif" font-size="14.00">(boolean,PrimitiveType,435,435)</text>
</g>
<!-- 1959910454&#45;&gt;485937598 -->
<g id="edge3" class="edge">
<title>1959910454&#45;&gt;485937598</title>
<path fill="none" stroke="black" d="M1618.38,-359.88C1597.45,-350.17 1571.11,-337.96 1549.02,-327.72"/>
<polygon fill="black" stroke="black" points="1550.38,-324.5 1539.84,-323.47 1547.44,-330.85 1550.38,-324.5"/>
</g>
<!-- 1715248762 -->
<g id="node5" class="node">
<title>1715248762</title>
<ellipse fill="none" stroke="black" cx="1806.32" cy="-306" rx="143.6" ry="18"/>
<text text-anchor="middle" x="1806.32" y="-301.8" font-family="Times,serif" font-size="14.00">(hasOption,SimpleName,435,435)</text>
</g>
<!-- 1959910454&#45;&gt;1715248762 -->
<g id="edge4" class="edge">
<title>1959910454&#45;&gt;1715248762</title>
<path fill="none" stroke="black" d="M1692.26,-359.88C1713.19,-350.17 1739.53,-337.96 1761.62,-327.72"/>
<polygon fill="black" stroke="black" points="1763.2,-330.85 1770.8,-323.47 1760.26,-324.5 1763.2,-330.85"/>
</g>
<!-- 434398524 -->
<g id="node6" class="node">
<title>434398524</title>
<ellipse fill="none" stroke="black" cx="2183.32" cy="-306" rx="215.24" ry="18"/>
<text text-anchor="middle" x="2183.32" y="-301.8" font-family="Times,serif" font-size="14.00">(final String opt,SingleVariableDeclaration,435,435)</text>
</g>
<!-- 1959910454&#45;&gt;434398524 -->
<g id="edge5" class="edge">
<title>1959910454&#45;&gt;434398524</title>
<path fill="none" stroke="black" d="M1782.46,-360.14C1867.94,-348.81 1979.87,-333.97 2063.72,-322.86"/>
<polygon fill="black" stroke="black" points="2064.35,-326.3 2073.81,-321.52 2063.43,-319.36 2064.35,-326.3"/>
</g>
<!-- 980697799 -->
<g id="node11" class="node">
<title>980697799</title>
<ellipse fill="none" stroke="black" cx="2752.32" cy="-306" rx="243.39" ry="18"/>
<text text-anchor="middle" x="2752.32" y="-301.8" font-family="Times,serif" font-size="14.00">({ &#160;return hasOption(resolveOption(opt)); } ,Block,435,437)</text>
</g>
<!-- 1959910454&#45;&gt;980697799 -->
<g id="edge10" class="edge">
<title>1959910454&#45;&gt;980697799</title>
<path fill="none" stroke="black" d="M1911.13,-360.68C2111.06,-347.92 2384.35,-330.48 2564.46,-318.99"/>
<polygon fill="black" stroke="black" points="2564.82,-322.47 2574.58,-318.34 2564.38,-315.49 2564.82,-322.47"/>
</g>
<!-- 2035616217 -->
<g id="node7" class="node">
<title>2035616217</title>
<ellipse fill="none" stroke="black" cx="1889.32" cy="-234" rx="105.91" ry="18"/>
<text text-anchor="middle" x="1889.32" y="-229.8" font-family="Times,serif" font-size="14.00">(final,Modifier,435,435)</text>
</g>
<!-- 434398524&#45;&gt;2035616217 -->
<g id="edge6" class="edge">
<title>434398524&#45;&gt;2035616217</title>
<path fill="none" stroke="black" d="M2115.5,-288.85C2068.32,-277.62 2005.63,-262.69 1958.22,-251.4"/>
<polygon fill="black" stroke="black" points="1958.88,-247.96 1948.34,-249.05 1957.26,-254.77 1958.88,-247.96"/>
</g>
<!-- 1392794732 -->
<g id="node8" class="node">
<title>1392794732</title>
<ellipse fill="none" stroke="black" cx="2137.32" cy="-234" rx="124.49" ry="18"/>
<text text-anchor="middle" x="2137.32" y="-229.8" font-family="Times,serif" font-size="14.00">(String,SimpleType,435,435)</text>
</g>
<!-- 434398524&#45;&gt;1392794732 -->
<g id="edge7" class="edge">
<title>434398524&#45;&gt;1392794732</title>
<path fill="none" stroke="black" d="M2171.95,-287.7C2166.6,-279.56 2160.12,-269.69 2154.21,-260.7"/>
<polygon fill="black" stroke="black" points="2156.98,-258.54 2148.56,-252.1 2151.13,-262.38 2156.98,-258.54"/>
</g>
<!-- 1807648168 -->
<g id="node10" class="node">
<title>1807648168</title>
<ellipse fill="none" stroke="black" cx="2396.32" cy="-234" rx="116.38" ry="18"/>
<text text-anchor="middle" x="2396.32" y="-229.8" font-family="Times,serif" font-size="14.00">(opt,SimpleName,435,435)</text>
</g>
<!-- 434398524&#45;&gt;1807648168 -->
<g id="edge9" class="edge">
<title>434398524&#45;&gt;1807648168</title>
<path fill="none" stroke="black" d="M2233.8,-288.41C2265.46,-278.01 2306.36,-264.56 2339.21,-253.77"/>
<polygon fill="black" stroke="black" points="2340.72,-256.96 2349.12,-250.51 2338.53,-250.31 2340.72,-256.96"/>
</g>
<!-- 1363793720 -->
<g id="node9" class="node">
<title>1363793720</title>
<ellipse fill="none" stroke="black" cx="2137.32" cy="-162" rx="127.92" ry="18"/>
<text text-anchor="middle" x="2137.32" y="-157.8" font-family="Times,serif" font-size="14.00">(String,SimpleName,435,435)</text>
</g>
<!-- 1392794732&#45;&gt;1363793720 -->
<g id="edge8" class="edge">
<title>1392794732&#45;&gt;1363793720</title>
<path fill="none" stroke="black" d="M2137.32,-215.7C2137.32,-207.98 2137.32,-198.71 2137.32,-190.11"/>
<polygon fill="black" stroke="black" points="2140.82,-190.1 2137.32,-180.1 2133.82,-190.1 2140.82,-190.1"/>
</g>
<!-- 1273143001 -->
<g id="node12" class="node">
<title>1273143001</title>
<ellipse fill="none" stroke="black" cx="2799.32" cy="-234" rx="268.53" ry="18"/>
<text text-anchor="middle" x="2799.32" y="-229.8" font-family="Times,serif" font-size="14.00">(return hasOption(resolveOption(opt)); ,ReturnStatement,436,436)</text>
</g>
<!-- 980697799&#45;&gt;1273143001 -->
<g id="edge11" class="edge">
<title>980697799&#45;&gt;1273143001</title>
<path fill="none" stroke="black" d="M2763.94,-287.7C2769.46,-279.47 2776.17,-269.48 2782.25,-260.42"/>
<polygon fill="black" stroke="black" points="2785.17,-262.36 2787.84,-252.1 2779.36,-258.46 2785.17,-262.36"/>
</g>
<!-- 1418555530 -->
<g id="node13" class="node">
<title>1418555530</title>
<ellipse fill="none" stroke="black" cx="2799.32" cy="-162" rx="244.77" ry="18"/>
<text text-anchor="middle" x="2799.32" y="-157.8" font-family="Times,serif" font-size="14.00">(hasOption(resolveOption(opt)),MethodInvocation,436,436)</text>
</g>
<!-- 1273143001&#45;&gt;1418555530 -->
<g id="edge12" class="edge">
<title>1273143001&#45;&gt;1418555530</title>
<path fill="none" stroke="black" d="M2799.32,-215.7C2799.32,-207.98 2799.32,-198.71 2799.32,-190.11"/>
<polygon fill="black" stroke="black" points="2802.82,-190.1 2799.32,-180.1 2795.82,-190.1 2802.82,-190.1"/>
</g>
<!-- 1258372214 -->
<g id="node14" class="node">
<title>1258372214</title>
<ellipse fill="none" stroke="black" cx="2619.32" cy="-90" rx="143.6" ry="18"/>
<text text-anchor="middle" x="2619.32" y="-85.8" font-family="Times,serif" font-size="14.00">(hasOption,SimpleName,436,436)</text>
</g>
<!-- 1418555530&#45;&gt;1258372214 -->
<g id="edge13" class="edge">
<title>1418555530&#45;&gt;1258372214</title>
<path fill="none" stroke="black" d="M2756.21,-144.23C2730.55,-134.25 2697.83,-121.53 2670.82,-111.03"/>
<polygon fill="black" stroke="black" points="2671.74,-107.63 2661.15,-107.27 2669.2,-114.15 2671.74,-107.63"/>
</g>
<!-- 1408974251 -->
<g id="node15" class="node">
<title>1408974251</title>
<ellipse fill="none" stroke="black" cx="2979.32" cy="-90" rx="198.51" ry="18"/>
<text text-anchor="middle" x="2979.32" y="-85.8" font-family="Times,serif" font-size="14.00">(resolveOption(opt),MethodInvocation,436,436)</text>
</g>
<!-- 1418555530&#45;&gt;1408974251 -->
<g id="edge14" class="edge">
<title>1418555530&#45;&gt;1408974251</title>
<path fill="none" stroke="black" d="M2842.43,-144.23C2867.82,-134.36 2900.1,-121.81 2926.94,-111.37"/>
<polygon fill="black" stroke="black" points="2928.51,-114.52 2936.56,-107.63 2925.97,-107.99 2928.51,-114.52"/>
</g>
<!-- 212890971 -->
<g id="node16" class="node">
<title>212890971</title>
<ellipse fill="none" stroke="black" cx="2832.32" cy="-18" rx="158.63" ry="18"/>
<text text-anchor="middle" x="2832.32" y="-13.8" font-family="Times,serif" font-size="14.00">(resolveOption,SimpleName,436,436)</text>
</g>
<!-- 1408974251&#45;&gt;212890971 -->
<g id="edge15" class="edge">
<title>1408974251&#45;&gt;212890971</title>
<path fill="none" stroke="black" d="M2944.11,-72.23C2923.84,-62.58 2898.17,-50.36 2876.55,-40.06"/>
<polygon fill="black" stroke="black" points="2877.78,-36.77 2867.24,-35.63 2874.77,-43.09 2877.78,-36.77"/>
</g>
<!-- 856055143 -->
<g id="node17" class="node">
<title>856055143</title>
<ellipse fill="none" stroke="black" cx="3125.32" cy="-18" rx="116.38" ry="18"/>
<text text-anchor="middle" x="3125.32" y="-13.8" font-family="Times,serif" font-size="14.00">(opt,SimpleName,436,436)</text>
</g>
<!-- 1408974251&#45;&gt;856055143 -->
<g id="edge16" class="edge">
<title>1408974251&#45;&gt;856055143</title>
<path fill="none" stroke="black" d="M3014.29,-72.23C3034.65,-62.47 3060.48,-50.09 3082.1,-39.72"/>
<polygon fill="black" stroke="black" points="3083.89,-42.75 3091.39,-35.27 3080.86,-36.44 3083.89,-42.75"/>
</g>
</g>
</svg>
