<?xml version="1.0" encoding="UTF-8" standalone="no"?>
<!DOCTYPE svg PUBLIC "-//W3C//DTD SVG 1.1//EN"
 "http://www.w3.org/Graphics/SVG/1.1/DTD/svg11.dtd">
<!-- Generated by graphviz version 2.50.0 (20211204.2007)
 -->
<!-- Title: DirectedGraph Pages: 1 -->
<svg width="3829pt" height="429pt"
 viewBox="0.00 0.00 3829.28 428.80" xmlns="http://www.w3.org/2000/svg" xmlns:xlink="http://www.w3.org/1999/xlink">
<g id="graph0" class="graph" transform="scale(1 1) rotate(0) translate(4 424.8)">
<title>DirectedGraph</title>
<polygon fill="white" stroke="transparent" points="-4,4 -4,-424.8 3825.28,-424.8 3825.28,4 -4,4"/>
<text text-anchor="middle" x="1910.64" y="-404.2" font-family="Times,serif" font-size="14.00">getOptionValues</text>
<!-- 658404420 -->
<g id="node1" class="node">
<title>658404420</title>
<ellipse fill="none" stroke="black" cx="2164.84" cy="-378" rx="1236.71" ry="18"/>
<text text-anchor="middle" x="2164.84" y="-373.8" font-family="Times,serif" font-size="14.00">(/** &#160;* Retrieves the array of values, if any, of an option. * @param opt string name of the option. * @return Values of the argument if option is set, and has an argument, otherwise null. */ public String[] getOptionValues(final String opt){ &#160;return getOptionValues(resolveOption(opt)); } ,MethodDeclaration,334,342)</text>
</g>
<!-- 2108763062 -->
<g id="node2" class="node">
<title>2108763062</title>
<ellipse fill="none" stroke="black" cx="810.84" cy="-306" rx="810.67" ry="18"/>
<text text-anchor="middle" x="810.84" y="-301.8" font-family="Times,serif" font-size="14.00">(/** &#160;* Retrieves the array of values, if any, of an option. * @param opt string name of the option. * @return Values of the argument if option is set, and has an argument, otherwise null. */ ,Javadoc,334,339)</text>
</g>
<!-- 658404420&#45;&gt;2108763062 -->
<g id="edge1" class="edge">
<title>658404420&#45;&gt;2108763062</title>
<path fill="none" stroke="black" d="M1847.38,-360.59C1629.54,-349.33 1341.72,-334.45 1124.66,-323.22"/>
<polygon fill="black" stroke="black" points="1124.55,-319.71 1114.38,-322.69 1124.19,-326.7 1124.55,-319.71"/>
</g>
<!-- 2017085051 -->
<g id="node3" class="node">
<title>2017085051</title>
<ellipse fill="none" stroke="black" cx="1751.84" cy="-306" rx="112.29" ry="18"/>
<text text-anchor="middle" x="1751.84" y="-301.8" font-family="Times,serif" font-size="14.00">(public,Modifier,340,340)</text>
</g>
<!-- 658404420&#45;&gt;2017085051 -->
<g id="edge2" class="edge">
<title>658404420&#45;&gt;2017085051</title>
<path fill="none" stroke="black" d="M2064.86,-360.05C1994.81,-348.18 1902.24,-332.49 1835.97,-321.26"/>
<polygon fill="black" stroke="black" points="1836.42,-317.79 1825.97,-319.57 1835.25,-324.69 1836.42,-317.79"/>
</g>
<!-- 656479172 -->
<g id="node4" class="node">
<title>656479172</title>
<ellipse fill="none" stroke="black" cx="2007.84" cy="-306" rx="126.17" ry="18"/>
<text text-anchor="middle" x="2007.84" y="-301.8" font-family="Times,serif" font-size="14.00">(String[],ArrayType,340,340)</text>
</g>
<!-- 658404420&#45;&gt;656479172 -->
<g id="edge3" class="edge">
<title>658404420&#45;&gt;656479172</title>
<path fill="none" stroke="black" d="M2126.43,-359.88C2104.49,-350.09 2076.83,-337.76 2053.75,-327.47"/>
<polygon fill="black" stroke="black" points="2055.06,-324.22 2044.5,-323.35 2052.21,-330.61 2055.06,-324.22"/>
</g>
<!-- 760357227 -->
<g id="node7" class="node">
<title>760357227</title>
<ellipse fill="none" stroke="black" cx="2321.84" cy="-306" rx="169.58" ry="18"/>
<text text-anchor="middle" x="2321.84" y="-301.8" font-family="Times,serif" font-size="14.00">(getOptionValues,SimpleName,340,340)</text>
</g>
<!-- 658404420&#45;&gt;760357227 -->
<g id="edge6" class="edge">
<title>658404420&#45;&gt;760357227</title>
<path fill="none" stroke="black" d="M2203.24,-359.88C2225.03,-350.16 2252.44,-337.94 2275.42,-327.7"/>
<polygon fill="black" stroke="black" points="2276.93,-330.85 2284.64,-323.59 2274.08,-324.46 2276.93,-330.85"/>
</g>
<!-- 37926966 -->
<g id="node8" class="node">
<title>37926966</title>
<ellipse fill="none" stroke="black" cx="2724.84" cy="-306" rx="215.24" ry="18"/>
<text text-anchor="middle" x="2724.84" y="-301.8" font-family="Times,serif" font-size="14.00">(final String opt,SingleVariableDeclaration,340,340)</text>
</g>
<!-- 658404420&#45;&gt;37926966 -->
<g id="edge7" class="edge">
<title>658404420&#45;&gt;37926966</title>
<path fill="none" stroke="black" d="M2300.04,-360.1C2391.51,-348.67 2511.43,-333.68 2600.52,-322.54"/>
<polygon fill="black" stroke="black" points="2601.19,-325.98 2610.68,-321.27 2600.32,-319.04 2601.19,-325.98"/>
</g>
<!-- 1514476350 -->
<g id="node13" class="node">
<title>1514476350</title>
<ellipse fill="none" stroke="black" cx="3319.84" cy="-306" rx="269.37" ry="18"/>
<text text-anchor="middle" x="3319.84" y="-301.8" font-family="Times,serif" font-size="14.00">({ &#160;return getOptionValues(resolveOption(opt)); } ,Block,340,342)</text>
</g>
<!-- 658404420&#45;&gt;1514476350 -->
<g id="edge12" class="edge">
<title>658404420&#45;&gt;1514476350</title>
<path fill="none" stroke="black" d="M2438.19,-360.43C2646.75,-347.79 2929.36,-330.67 3117.81,-319.24"/>
<polygon fill="black" stroke="black" points="3118.06,-322.74 3127.83,-318.64 3117.64,-315.75 3118.06,-322.74"/>
</g>
<!-- 1944702768 -->
<g id="node5" class="node">
<title>1944702768</title>
<ellipse fill="none" stroke="black" cx="2007.84" cy="-234" rx="124.49" ry="18"/>
<text text-anchor="middle" x="2007.84" y="-229.8" font-family="Times,serif" font-size="14.00">(String,SimpleType,340,340)</text>
</g>
<!-- 656479172&#45;&gt;1944702768 -->
<g id="edge4" class="edge">
<title>656479172&#45;&gt;1944702768</title>
<path fill="none" stroke="black" d="M2007.84,-287.7C2007.84,-279.98 2007.84,-270.71 2007.84,-262.11"/>
<polygon fill="black" stroke="black" points="2011.34,-262.1 2007.84,-252.1 2004.34,-262.1 2011.34,-262.1"/>
</g>
<!-- 124888672 -->
<g id="node6" class="node">
<title>124888672</title>
<ellipse fill="none" stroke="black" cx="2007.84" cy="-162" rx="127.92" ry="18"/>
<text text-anchor="middle" x="2007.84" y="-157.8" font-family="Times,serif" font-size="14.00">(String,SimpleName,340,340)</text>
</g>
<!-- 1944702768&#45;&gt;124888672 -->
<g id="edge5" class="edge">
<title>1944702768&#45;&gt;124888672</title>
<path fill="none" stroke="black" d="M2007.84,-215.7C2007.84,-207.98 2007.84,-198.71 2007.84,-190.11"/>
<polygon fill="black" stroke="black" points="2011.34,-190.1 2007.84,-180.1 2004.34,-190.1 2011.34,-190.1"/>
</g>
<!-- 1064265473 -->
<g id="node9" class="node">
<title>1064265473</title>
<ellipse fill="none" stroke="black" cx="2429.84" cy="-234" rx="105.91" ry="18"/>
<text text-anchor="middle" x="2429.84" y="-229.8" font-family="Times,serif" font-size="14.00">(final,Modifier,340,340)</text>
</g>
<!-- 37926966&#45;&gt;1064265473 -->
<g id="edge8" class="edge">
<title>37926966&#45;&gt;1064265473</title>
<path fill="none" stroke="black" d="M2656.79,-288.85C2609.45,-277.62 2546.55,-262.69 2498.97,-251.4"/>
<polygon fill="black" stroke="black" points="2499.6,-247.96 2489.06,-249.05 2497.98,-254.77 2499.6,-247.96"/>
</g>
<!-- 891786282 -->
<g id="node10" class="node">
<title>891786282</title>
<ellipse fill="none" stroke="black" cx="2677.84" cy="-234" rx="124.49" ry="18"/>
<text text-anchor="middle" x="2677.84" y="-229.8" font-family="Times,serif" font-size="14.00">(String,SimpleType,340,340)</text>
</g>
<!-- 37926966&#45;&gt;891786282 -->
<g id="edge9" class="edge">
<title>37926966&#45;&gt;891786282</title>
<path fill="none" stroke="black" d="M2713.22,-287.7C2707.7,-279.47 2700.99,-269.48 2694.91,-260.42"/>
<polygon fill="black" stroke="black" points="2697.8,-258.46 2689.32,-252.1 2691.99,-262.36 2697.8,-258.46"/>
</g>
<!-- 517355658 -->
<g id="node12" class="node">
<title>517355658</title>
<ellipse fill="none" stroke="black" cx="2936.84" cy="-234" rx="116.38" ry="18"/>
<text text-anchor="middle" x="2936.84" y="-229.8" font-family="Times,serif" font-size="14.00">(opt,SimpleName,340,340)</text>
</g>
<!-- 37926966&#45;&gt;517355658 -->
<g id="edge11" class="edge">
<title>37926966&#45;&gt;517355658</title>
<path fill="none" stroke="black" d="M2775.08,-288.41C2806.59,-278.01 2847.3,-264.56 2879.99,-253.77"/>
<polygon fill="black" stroke="black" points="2881.46,-256.97 2889.86,-250.51 2879.27,-250.32 2881.46,-256.97"/>
</g>
<!-- 155361948 -->
<g id="node11" class="node">
<title>155361948</title>
<ellipse fill="none" stroke="black" cx="2677.84" cy="-162" rx="127.92" ry="18"/>
<text text-anchor="middle" x="2677.84" y="-157.8" font-family="Times,serif" font-size="14.00">(String,SimpleName,340,340)</text>
</g>
<!-- 891786282&#45;&gt;155361948 -->
<g id="edge10" class="edge">
<title>891786282&#45;&gt;155361948</title>
<path fill="none" stroke="black" d="M2677.84,-215.7C2677.84,-207.98 2677.84,-198.71 2677.84,-190.11"/>
<polygon fill="black" stroke="black" points="2681.34,-190.1 2677.84,-180.1 2674.34,-190.1 2681.34,-190.1"/>
</g>
<!-- 1397381784 -->
<g id="node14" class="node">
<title>1397381784</title>
<ellipse fill="none" stroke="black" cx="3365.84" cy="-234" rx="294.51" ry="18"/>
<text text-anchor="middle" x="3365.84" y="-229.8" font-family="Times,serif" font-size="14.00">(return getOptionValues(resolveOption(opt)); ,ReturnStatement,341,341)</text>
</g>
<!-- 1514476350&#45;&gt;1397381784 -->
<g id="edge13" class="edge">
<title>1514476350&#45;&gt;1397381784</title>
<path fill="none" stroke="black" d="M3331.21,-287.7C3336.56,-279.56 3343.04,-269.69 3348.95,-260.7"/>
<polygon fill="black" stroke="black" points="3352.03,-262.38 3354.6,-252.1 3346.18,-258.54 3352.03,-262.38"/>
</g>
<!-- 1333810223 -->
<g id="node15" class="node">
<title>1333810223</title>
<ellipse fill="none" stroke="black" cx="3365.84" cy="-162" rx="270.25" ry="18"/>
<text text-anchor="middle" x="3365.84" y="-157.8" font-family="Times,serif" font-size="14.00">(getOptionValues(resolveOption(opt)),MethodInvocation,341,341)</text>
</g>
<!-- 1397381784&#45;&gt;1333810223 -->
<g id="edge14" class="edge">
<title>1397381784&#45;&gt;1333810223</title>
<path fill="none" stroke="black" d="M3365.84,-215.7C3365.84,-207.98 3365.84,-198.71 3365.84,-190.11"/>
<polygon fill="black" stroke="black" points="3369.34,-190.1 3365.84,-180.1 3362.34,-190.1 3369.34,-190.1"/>
</g>
<!-- 1623009085 -->
<g id="node16" class="node">
<title>1623009085</title>
<ellipse fill="none" stroke="black" cx="3172.84" cy="-90" rx="169.58" ry="18"/>
<text text-anchor="middle" x="3172.84" y="-85.8" font-family="Times,serif" font-size="14.00">(getOptionValues,SimpleName,341,341)</text>
</g>
<!-- 1333810223&#45;&gt;1623009085 -->
<g id="edge15" class="edge">
<title>1333810223&#45;&gt;1623009085</title>
<path fill="none" stroke="black" d="M3319.61,-144.23C3291.96,-134.2 3256.66,-121.4 3227.61,-110.87"/>
<polygon fill="black" stroke="black" points="3228.62,-107.51 3218.02,-107.39 3226.23,-114.09 3228.62,-107.51"/>
</g>
<!-- 303240439 -->
<g id="node17" class="node">
<title>303240439</title>
<ellipse fill="none" stroke="black" cx="3558.84" cy="-90" rx="198.51" ry="18"/>
<text text-anchor="middle" x="3558.84" y="-85.8" font-family="Times,serif" font-size="14.00">(resolveOption(opt),MethodInvocation,341,341)</text>
</g>
<!-- 1333810223&#45;&gt;303240439 -->
<g id="edge16" class="edge">
<title>1333810223&#45;&gt;303240439</title>
<path fill="none" stroke="black" d="M3412.07,-144.23C3439.52,-134.28 3474.5,-121.59 3503.43,-111.1"/>
<polygon fill="black" stroke="black" points="3504.78,-114.33 3512.99,-107.63 3502.39,-107.75 3504.78,-114.33"/>
</g>
<!-- 319558327 -->
<g id="node18" class="node">
<title>319558327</title>
<ellipse fill="none" stroke="black" cx="3411.84" cy="-18" rx="158.63" ry="18"/>
<text text-anchor="middle" x="3411.84" y="-13.8" font-family="Times,serif" font-size="14.00">(resolveOption,SimpleName,341,341)</text>
</g>
<!-- 303240439&#45;&gt;319558327 -->
<g id="edge17" class="edge">
<title>303240439&#45;&gt;319558327</title>
<path fill="none" stroke="black" d="M3523.63,-72.23C3503.35,-62.58 3477.69,-50.36 3456.06,-40.06"/>
<polygon fill="black" stroke="black" points="3457.29,-36.77 3446.76,-35.63 3454.28,-43.09 3457.29,-36.77"/>
</g>
<!-- 1583353301 -->
<g id="node19" class="node">
<title>1583353301</title>
<ellipse fill="none" stroke="black" cx="3704.84" cy="-18" rx="116.38" ry="18"/>
<text text-anchor="middle" x="3704.84" y="-13.8" font-family="Times,serif" font-size="14.00">(opt,SimpleName,341,341)</text>
</g>
<!-- 303240439&#45;&gt;1583353301 -->
<g id="edge18" class="edge">
<title>303240439&#45;&gt;1583353301</title>
<path fill="none" stroke="black" d="M3593.81,-72.23C3614.16,-62.47 3639.99,-50.09 3661.62,-39.72"/>
<polygon fill="black" stroke="black" points="3663.4,-42.75 3670.91,-35.27 3660.38,-36.44 3663.4,-42.75"/>
</g>
</g>
</svg>
