<?xml version="1.0" encoding="UTF-8" standalone="no"?>
<!DOCTYPE svg PUBLIC "-//W3C//DTD SVG 1.1//EN"
 "http://www.w3.org/Graphics/SVG/1.1/DTD/svg11.dtd">
<!-- Generated by graphviz version 2.50.0 (20211204.2007)
 -->
<!-- Title: DirectedGraph Pages: 1 -->
<svg width="4700pt" height="429pt"
 viewBox="0.00 0.00 4699.82 428.80" xmlns="http://www.w3.org/2000/svg" xmlns:xlink="http://www.w3.org/1999/xlink">
<g id="graph0" class="graph" transform="scale(1 1) rotate(0) translate(4 424.8)">
<title>DirectedGraph</title>
<polygon fill="white" stroke="transparent" points="-4,4 -4,-424.8 4695.82,-424.8 4695.82,4 -4,4"/>
<text text-anchor="middle" x="2345.91" y="-404.2" font-family="Times,serif" font-size="14.00">AmbiguousOptionException</text>
<!-- 615438348 -->
<g id="node1" class="node">
<title>615438348</title>
<ellipse fill="none" stroke="black" cx="2043.31" cy="-378" rx="1508.74" ry="18"/>
<text text-anchor="middle" x="2043.31" y="-373.8" font-family="Times,serif" font-size="14.00">(/** &#160;* Constructs a new AmbiguousOptionException. * @param option the partial option name * @param matchingOptions the options matching the name */ public AmbiguousOptionException(final String option,final Collection&lt;String&gt; matchingOptions){ &#160;super(createMessage(option,matchingOptions),option); &#160;this.matchingOptions=matchingOptions; } ,MethodDeclaration,63,72)</text>
</g>
<!-- 978508707 -->
<g id="node2" class="node">
<title>978508707</title>
<ellipse fill="none" stroke="black" cx="688.31" cy="-306" rx="688.13" ry="18"/>
<text text-anchor="middle" x="688.31" y="-301.8" font-family="Times,serif" font-size="14.00">(/** &#160;* Constructs a new AmbiguousOptionException. * @param option the partial option name * @param matchingOptions the options matching the name */ ,Javadoc,63,68)</text>
</g>
<!-- 615438348&#45;&gt;978508707 -->
<g id="edge1" class="edge">
<title>615438348&#45;&gt;978508707</title>
<path fill="none" stroke="black" d="M1722.2,-360.41C1501.78,-349.02 1210.99,-334 993.97,-322.79"/>
<polygon fill="black" stroke="black" points="993.86,-319.28 983.69,-322.26 993.49,-326.27 993.86,-319.28"/>
</g>
<!-- 710708543 -->
<g id="node3" class="node">
<title>710708543</title>
<ellipse fill="none" stroke="black" cx="1497.31" cy="-306" rx="102.48" ry="18"/>
<text text-anchor="middle" x="1497.31" y="-301.8" font-family="Times,serif" font-size="14.00">(public,Modifier,69,69)</text>
</g>
<!-- 615438348&#45;&gt;710708543 -->
<g id="edge2" class="edge">
<title>615438348&#45;&gt;710708543</title>
<path fill="none" stroke="black" d="M1895.53,-360.03C1811.54,-350.12 1704.45,-337.03 1609.31,-324 1600.13,-322.74 1590.53,-321.37 1580.98,-319.97"/>
<polygon fill="black" stroke="black" points="1581.48,-316.51 1571.07,-318.51 1580.45,-323.43 1581.48,-316.51"/>
</g>
<!-- 1965237677 -->
<g id="node4" class="node">
<title>1965237677</title>
<ellipse fill="none" stroke="black" cx="1823.31" cy="-306" rx="205.48" ry="18"/>
<text text-anchor="middle" x="1823.31" y="-301.8" font-family="Times,serif" font-size="14.00">(AmbiguousOptionException,SimpleName,69,69)</text>
</g>
<!-- 615438348&#45;&gt;1965237677 -->
<g id="edge3" class="edge">
<title>615438348&#45;&gt;1965237677</title>
<path fill="none" stroke="black" d="M1989.78,-359.97C1958.06,-349.87 1917.75,-337.05 1884.74,-326.54"/>
<polygon fill="black" stroke="black" points="1885.78,-323.2 1875.19,-323.51 1883.66,-329.87 1885.78,-323.2"/>
</g>
<!-- 664792509 -->
<g id="node5" class="node">
<title>664792509</title>
<ellipse fill="none" stroke="black" cx="2264.31" cy="-306" rx="217.61" ry="18"/>
<text text-anchor="middle" x="2264.31" y="-301.8" font-family="Times,serif" font-size="14.00">(final String option,SingleVariableDeclaration,69,69)</text>
</g>
<!-- 615438348&#45;&gt;664792509 -->
<g id="edge4" class="edge">
<title>615438348&#45;&gt;664792509</title>
<path fill="none" stroke="black" d="M2097.09,-359.97C2128.96,-349.87 2169.45,-337.05 2202.61,-326.54"/>
<polygon fill="black" stroke="black" points="2203.73,-329.86 2212.2,-323.51 2201.61,-323.19 2203.73,-329.86"/>
</g>
<!-- 536122141 -->
<g id="node10" class="node">
<title>536122141</title>
<ellipse fill="none" stroke="black" cx="2811.31" cy="-306" rx="310.53" ry="18"/>
<text text-anchor="middle" x="2811.31" y="-301.8" font-family="Times,serif" font-size="14.00">(final Collection&lt;String&gt; matchingOptions,SingleVariableDeclaration,69,69)</text>
</g>
<!-- 615438348&#45;&gt;536122141 -->
<g id="edge9" class="edge">
<title>615438348&#45;&gt;536122141</title>
<path fill="none" stroke="black" d="M2228.74,-360.1C2354.59,-348.63 2519.71,-333.58 2642.01,-322.43"/>
<polygon fill="black" stroke="black" points="2642.58,-325.89 2652.22,-321.5 2641.95,-318.92 2642.58,-325.89"/>
</g>
<!-- 187472540 -->
<g id="node18" class="node">
<title>187472540</title>
<ellipse fill="none" stroke="black" cx="3733.31" cy="-306" rx="462.27" ry="18"/>
<text text-anchor="middle" x="3733.31" y="-301.8" font-family="Times,serif" font-size="14.00">({ &#160;super(createMessage(option,matchingOptions),option); &#160;this.matchingOptions=matchingOptions; } ,Block,69,72)</text>
</g>
<!-- 615438348&#45;&gt;187472540 -->
<g id="edge17" class="edge">
<title>615438348&#45;&gt;187472540</title>
<path fill="none" stroke="black" d="M2438.74,-360.62C2737.7,-348.24 3142.58,-331.47 3419.48,-320"/>
<polygon fill="black" stroke="black" points="3419.84,-323.49 3429.68,-319.58 3419.55,-316.49 3419.84,-323.49"/>
</g>
<!-- 188523822 -->
<g id="node6" class="node">
<title>188523822</title>
<ellipse fill="none" stroke="black" cx="1789.31" cy="-234" rx="96.1" ry="18"/>
<text text-anchor="middle" x="1789.31" y="-229.8" font-family="Times,serif" font-size="14.00">(final,Modifier,69,69)</text>
</g>
<!-- 664792509&#45;&gt;188523822 -->
<g id="edge5" class="edge">
<title>664792509&#45;&gt;188523822</title>
<path fill="none" stroke="black" d="M2157.78,-290.26C2083.81,-279.9 1983,-265.53 1894.31,-252 1886.11,-250.75 1877.56,-249.41 1869.02,-248.06"/>
<polygon fill="black" stroke="black" points="1869.47,-244.59 1859.04,-246.47 1868.36,-251.5 1869.47,-244.59"/>
</g>
<!-- 1170727939 -->
<g id="node7" class="node">
<title>1170727939</title>
<ellipse fill="none" stroke="black" cx="2018.31" cy="-234" rx="114.68" ry="18"/>
<text text-anchor="middle" x="2018.31" y="-229.8" font-family="Times,serif" font-size="14.00">(String,SimpleType,69,69)</text>
</g>
<!-- 664792509&#45;&gt;1170727939 -->
<g id="edge6" class="edge">
<title>664792509&#45;&gt;1170727939</title>
<path fill="none" stroke="black" d="M2206.64,-288.59C2168.96,-277.87 2119.77,-263.87 2081.11,-252.87"/>
<polygon fill="black" stroke="black" points="2081.59,-249.37 2071.01,-250 2079.67,-256.1 2081.59,-249.37"/>
</g>
<!-- 1896828359 -->
<g id="node9" class="node">
<title>1896828359</title>
<ellipse fill="none" stroke="black" cx="2270.31" cy="-234" rx="119.25" ry="18"/>
<text text-anchor="middle" x="2270.31" y="-229.8" font-family="Times,serif" font-size="14.00">(option,SimpleName,69,69)</text>
</g>
<!-- 664792509&#45;&gt;1896828359 -->
<g id="edge8" class="edge">
<title>664792509&#45;&gt;1896828359</title>
<path fill="none" stroke="black" d="M2265.8,-287.7C2266.46,-279.98 2267.25,-270.71 2267.99,-262.11"/>
<polygon fill="black" stroke="black" points="2271.48,-262.37 2268.85,-252.1 2264.51,-261.77 2271.48,-262.37"/>
</g>
<!-- 690339675 -->
<g id="node8" class="node">
<title>690339675</title>
<ellipse fill="none" stroke="black" cx="2018.31" cy="-162" rx="118.11" ry="18"/>
<text text-anchor="middle" x="2018.31" y="-157.8" font-family="Times,serif" font-size="14.00">(String,SimpleName,69,69)</text>
</g>
<!-- 1170727939&#45;&gt;690339675 -->
<g id="edge7" class="edge">
<title>1170727939&#45;&gt;690339675</title>
<path fill="none" stroke="black" d="M2018.31,-215.7C2018.31,-207.98 2018.31,-198.71 2018.31,-190.11"/>
<polygon fill="black" stroke="black" points="2021.81,-190.1 2018.31,-180.1 2014.81,-190.1 2021.81,-190.1"/>
</g>
<!-- 1709804316 -->
<g id="node11" class="node">
<title>1709804316</title>
<ellipse fill="none" stroke="black" cx="2503.31" cy="-234" rx="96.1" ry="18"/>
<text text-anchor="middle" x="2503.31" y="-229.8" font-family="Times,serif" font-size="14.00">(final,Modifier,69,69)</text>
</g>
<!-- 536122141&#45;&gt;1709804316 -->
<g id="edge10" class="edge">
<title>536122141&#45;&gt;1709804316</title>
<path fill="none" stroke="black" d="M2738.32,-288.41C2687.9,-276.95 2621.27,-261.81 2571.84,-250.57"/>
<polygon fill="black" stroke="black" points="2572.41,-247.11 2561.88,-248.31 2570.85,-253.94 2572.41,-247.11"/>
</g>
<!-- 1630678941 -->
<g id="node12" class="node">
<title>1630678941</title>
<ellipse fill="none" stroke="black" cx="2811.31" cy="-234" rx="193.65" ry="18"/>
<text text-anchor="middle" x="2811.31" y="-229.8" font-family="Times,serif" font-size="14.00">(Collection&lt;String&gt;,ParameterizedType,69,69)</text>
</g>
<!-- 536122141&#45;&gt;1630678941 -->
<g id="edge11" class="edge">
<title>536122141&#45;&gt;1630678941</title>
<path fill="none" stroke="black" d="M2811.31,-287.7C2811.31,-279.98 2811.31,-270.71 2811.31,-262.11"/>
<polygon fill="black" stroke="black" points="2814.81,-262.1 2811.31,-252.1 2807.81,-262.1 2814.81,-262.1"/>
</g>
<!-- 593687897 -->
<g id="node17" class="node">
<title>593687897</title>
<ellipse fill="none" stroke="black" cx="3184.31" cy="-234" rx="160.93" ry="18"/>
<text text-anchor="middle" x="3184.31" y="-229.8" font-family="Times,serif" font-size="14.00">(matchingOptions,SimpleName,69,69)</text>
</g>
<!-- 536122141&#45;&gt;593687897 -->
<g id="edge16" class="edge">
<title>536122141&#45;&gt;593687897</title>
<path fill="none" stroke="black" d="M2898.3,-288.68C2957.62,-277.54 3035.93,-262.85 3095.61,-251.65"/>
<polygon fill="black" stroke="black" points="3096.59,-255.02 3105.78,-249.74 3095.3,-248.14 3096.59,-255.02"/>
</g>
<!-- 1792550665 -->
<g id="node13" class="node">
<title>1792550665</title>
<ellipse fill="none" stroke="black" cx="2603.31" cy="-162" rx="131.42" ry="18"/>
<text text-anchor="middle" x="2603.31" y="-157.8" font-family="Times,serif" font-size="14.00">(Collection,SimpleType,69,69)</text>
</g>
<!-- 1630678941&#45;&gt;1792550665 -->
<g id="edge12" class="edge">
<title>1630678941&#45;&gt;1792550665</title>
<path fill="none" stroke="black" d="M2762.28,-216.5C2731.7,-206.21 2692.21,-192.92 2660.24,-182.16"/>
<polygon fill="black" stroke="black" points="2661.18,-178.78 2650.58,-178.91 2658.94,-185.41 2661.18,-178.78"/>
</g>
<!-- 2014838114 -->
<g id="node15" class="node">
<title>2014838114</title>
<ellipse fill="none" stroke="black" cx="2870.31" cy="-162" rx="114.68" ry="18"/>
<text text-anchor="middle" x="2870.31" y="-157.8" font-family="Times,serif" font-size="14.00">(String,SimpleType,69,69)</text>
</g>
<!-- 1630678941&#45;&gt;2014838114 -->
<g id="edge14" class="edge">
<title>1630678941&#45;&gt;2014838114</title>
<path fill="none" stroke="black" d="M2825.9,-215.7C2832.97,-207.3 2841.6,-197.07 2849.36,-187.86"/>
<polygon fill="black" stroke="black" points="2852.13,-190.01 2855.9,-180.1 2846.78,-185.49 2852.13,-190.01"/>
</g>
<!-- 1359953204 -->
<g id="node14" class="node">
<title>1359953204</title>
<ellipse fill="none" stroke="black" cx="2601.31" cy="-90" rx="134.85" ry="18"/>
<text text-anchor="middle" x="2601.31" y="-85.8" font-family="Times,serif" font-size="14.00">(Collection,SimpleName,69,69)</text>
</g>
<!-- 1792550665&#45;&gt;1359953204 -->
<g id="edge13" class="edge">
<title>1792550665&#45;&gt;1359953204</title>
<path fill="none" stroke="black" d="M2602.82,-143.7C2602.6,-135.98 2602.33,-126.71 2602.09,-118.11"/>
<polygon fill="black" stroke="black" points="2605.59,-118 2601.8,-108.1 2598.59,-118.2 2605.59,-118"/>
</g>
<!-- 136936250 -->
<g id="node16" class="node">
<title>136936250</title>
<ellipse fill="none" stroke="black" cx="2872.31" cy="-90" rx="118.11" ry="18"/>
<text text-anchor="middle" x="2872.31" y="-85.8" font-family="Times,serif" font-size="14.00">(String,SimpleName,69,69)</text>
</g>
<!-- 2014838114&#45;&gt;136936250 -->
<g id="edge15" class="edge">
<title>2014838114&#45;&gt;136936250</title>
<path fill="none" stroke="black" d="M2870.81,-143.7C2871.03,-135.98 2871.29,-126.71 2871.54,-118.11"/>
<polygon fill="black" stroke="black" points="2875.04,-118.2 2871.83,-108.1 2868.04,-118 2875.04,-118.2"/>
</g>
<!-- 1276611190 -->
<g id="node19" class="node">
<title>1276611190</title>
<ellipse fill="none" stroke="black" cx="3733.31" cy="-234" rx="369.73" ry="18"/>
<text text-anchor="middle" x="3733.31" y="-229.8" font-family="Times,serif" font-size="14.00">(super(createMessage(option,matchingOptions),option); ,SuperConstructorInvocation,70,70)</text>
</g>
<!-- 187472540&#45;&gt;1276611190 -->
<g id="edge18" class="edge">
<title>187472540&#45;&gt;1276611190</title>
<path fill="none" stroke="black" d="M3733.31,-287.7C3733.31,-279.98 3733.31,-270.71 3733.31,-262.11"/>
<polygon fill="black" stroke="black" points="3736.81,-262.1 3733.31,-252.1 3729.81,-262.1 3736.81,-262.1"/>
</g>
<!-- 2003891312 -->
<g id="node25" class="node">
<title>2003891312</title>
<ellipse fill="none" stroke="black" cx="4406.31" cy="-234" rx="285.51" ry="18"/>
<text text-anchor="middle" x="4406.31" y="-229.8" font-family="Times,serif" font-size="14.00">(this.matchingOptions=matchingOptions; ,ExpressionStatement,71,71)</text>
</g>
<!-- 187472540&#45;&gt;2003891312 -->
<g id="edge24" class="edge">
<title>187472540&#45;&gt;2003891312</title>
<path fill="none" stroke="black" d="M3887.29,-288.98C3997.63,-277.51 4145.51,-262.13 4255.2,-250.72"/>
<polygon fill="black" stroke="black" points="4255.77,-254.18 4265.36,-249.66 4255.05,-247.21 4255.77,-254.18"/>
</g>
<!-- 262457445 -->
<g id="node20" class="node">
<title>262457445</title>
<ellipse fill="none" stroke="black" cx="3504.31" cy="-162" rx="272.48" ry="18"/>
<text text-anchor="middle" x="3504.31" y="-157.8" font-family="Times,serif" font-size="14.00">(createMessage(option,matchingOptions),MethodInvocation,70,70)</text>
</g>
<!-- 1276611190&#45;&gt;262457445 -->
<g id="edge19" class="edge">
<title>1276611190&#45;&gt;262457445</title>
<path fill="none" stroke="black" d="M3678.17,-216.14C3645.29,-206.09 3603.37,-193.28 3568.94,-182.75"/>
<polygon fill="black" stroke="black" points="3569.57,-179.29 3558.98,-179.71 3567.52,-185.98 3569.57,-179.29"/>
</g>
<!-- 221634215 -->
<g id="node24" class="node">
<title>221634215</title>
<ellipse fill="none" stroke="black" cx="3913.31" cy="-162" rx="119.25" ry="18"/>
<text text-anchor="middle" x="3913.31" y="-157.8" font-family="Times,serif" font-size="14.00">(option,SimpleName,70,70)</text>
</g>
<!-- 1276611190&#45;&gt;221634215 -->
<g id="edge23" class="edge">
<title>1276611190&#45;&gt;221634215</title>
<path fill="none" stroke="black" d="M3776.89,-216.05C3802.74,-206 3835.63,-193.21 3862.64,-182.71"/>
<polygon fill="black" stroke="black" points="3864.25,-185.83 3872.3,-178.95 3861.72,-179.31 3864.25,-185.83"/>
</g>
<!-- 1004023029 -->
<g id="node21" class="node">
<title>1004023029</title>
<ellipse fill="none" stroke="black" cx="3216.31" cy="-90" rx="151.06" ry="18"/>
<text text-anchor="middle" x="3216.31" y="-85.8" font-family="Times,serif" font-size="14.00">(createMessage,SimpleName,70,70)</text>
</g>
<!-- 262457445&#45;&gt;1004023029 -->
<g id="edge20" class="edge">
<title>262457445&#45;&gt;1004023029</title>
<path fill="none" stroke="black" d="M3436.43,-144.5C3392.27,-133.77 3334.72,-119.78 3289.54,-108.8"/>
<polygon fill="black" stroke="black" points="3290.34,-105.39 3279.8,-106.43 3288.69,-112.19 3290.34,-105.39"/>
</g>
<!-- 1414506856 -->
<g id="node22" class="node">
<title>1414506856</title>
<ellipse fill="none" stroke="black" cx="3504.31" cy="-90" rx="119.25" ry="18"/>
<text text-anchor="middle" x="3504.31" y="-85.8" font-family="Times,serif" font-size="14.00">(option,SimpleName,70,70)</text>
</g>
<!-- 262457445&#45;&gt;1414506856 -->
<g id="edge21" class="edge">
<title>262457445&#45;&gt;1414506856</title>
<path fill="none" stroke="black" d="M3504.31,-143.7C3504.31,-135.98 3504.31,-126.71 3504.31,-118.11"/>
<polygon fill="black" stroke="black" points="3507.81,-118.1 3504.31,-108.1 3500.81,-118.1 3507.81,-118.1"/>
</g>
<!-- 612097453 -->
<g id="node23" class="node">
<title>612097453</title>
<ellipse fill="none" stroke="black" cx="3802.31" cy="-90" rx="160.93" ry="18"/>
<text text-anchor="middle" x="3802.31" y="-85.8" font-family="Times,serif" font-size="14.00">(matchingOptions,SimpleName,70,70)</text>
</g>
<!-- 262457445&#45;&gt;612097453 -->
<g id="edge22" class="edge">
<title>262457445&#45;&gt;612097453</title>
<path fill="none" stroke="black" d="M3574.18,-144.59C3619.96,-133.84 3679.76,-119.79 3726.66,-108.77"/>
<polygon fill="black" stroke="black" points="3727.53,-112.16 3736.46,-106.47 3725.92,-105.35 3727.53,-112.16"/>
</g>
<!-- 1583159071 -->
<g id="node26" class="node">
<title>1583159071</title>
<ellipse fill="none" stroke="black" cx="4406.31" cy="-162" rx="245.03" ry="18"/>
<text text-anchor="middle" x="4406.31" y="-157.8" font-family="Times,serif" font-size="14.00">(this.matchingOptions=matchingOptions,Assignment,71,71)</text>
</g>
<!-- 2003891312&#45;&gt;1583159071 -->
<g id="edge25" class="edge">
<title>2003891312&#45;&gt;1583159071</title>
<path fill="none" stroke="black" d="M4406.31,-215.7C4406.31,-207.98 4406.31,-198.71 4406.31,-190.11"/>
<polygon fill="black" stroke="black" points="4409.81,-190.1 4406.31,-180.1 4402.81,-190.1 4409.81,-190.1"/>
</g>
<!-- 607207372 -->
<g id="node27" class="node">
<title>607207372</title>
<ellipse fill="none" stroke="black" cx="4163.31" cy="-90" rx="174.22" ry="18"/>
<text text-anchor="middle" x="4163.31" y="-85.8" font-family="Times,serif" font-size="14.00">(this.matchingOptions,FieldAccess,71,71)</text>
</g>
<!-- 1583159071&#45;&gt;607207372 -->
<g id="edge26" class="edge">
<title>1583159071&#45;&gt;607207372</title>
<path fill="none" stroke="black" d="M4348.73,-144.41C4312.78,-134.06 4266.4,-120.7 4229.02,-109.93"/>
<polygon fill="black" stroke="black" points="4229.81,-106.51 4219.23,-107.11 4227.87,-113.24 4229.81,-106.51"/>
</g>
<!-- 1101184763 -->
<g id="node30" class="node">
<title>1101184763</title>
<ellipse fill="none" stroke="black" cx="4516.31" cy="-90" rx="160.93" ry="18"/>
<text text-anchor="middle" x="4516.31" y="-85.8" font-family="Times,serif" font-size="14.00">(matchingOptions,SimpleName,71,71)</text>
</g>
<!-- 1583159071&#45;&gt;1101184763 -->
<g id="edge29" class="edge">
<title>1583159071&#45;&gt;1101184763</title>
<path fill="none" stroke="black" d="M4432.94,-144.05C4447.4,-134.85 4465.46,-123.36 4481.07,-113.43"/>
<polygon fill="black" stroke="black" points="4483.37,-116.11 4489.93,-107.79 4479.62,-110.2 4483.37,-116.11"/>
</g>
<!-- 131206411 -->
<g id="node28" class="node">
<title>131206411</title>
<ellipse fill="none" stroke="black" cx="4014.31" cy="-18" rx="118.12" ry="18"/>
<text text-anchor="middle" x="4014.31" y="-13.8" font-family="Times,serif" font-size="14.00">(this,ThisExpression,71,71)</text>
</g>
<!-- 607207372&#45;&gt;131206411 -->
<g id="edge27" class="edge">
<title>607207372&#45;&gt;131206411</title>
<path fill="none" stroke="black" d="M4127.63,-72.23C4106.76,-62.43 4080.26,-49.98 4058.13,-39.58"/>
<polygon fill="black" stroke="black" points="4059.48,-36.35 4048.94,-35.27 4056.51,-42.69 4059.48,-36.35"/>
</g>
<!-- 2012330741 -->
<g id="node29" class="node">
<title>2012330741</title>
<ellipse fill="none" stroke="black" cx="4311.31" cy="-18" rx="160.93" ry="18"/>
<text text-anchor="middle" x="4311.31" y="-13.8" font-family="Times,serif" font-size="14.00">(matchingOptions,SimpleName,71,71)</text>
</g>
<!-- 607207372&#45;&gt;2012330741 -->
<g id="edge28" class="edge">
<title>607207372&#45;&gt;2012330741</title>
<path fill="none" stroke="black" d="M4198.76,-72.23C4219.27,-62.54 4245.25,-50.25 4267.08,-39.92"/>
<polygon fill="black" stroke="black" points="4268.61,-43.07 4276.15,-35.63 4265.62,-36.74 4268.61,-43.07"/>
</g>
</g>
</svg>
