<?xml version="1.0" encoding="UTF-8" standalone="no"?>
<!DOCTYPE svg PUBLIC "-//W3C//DTD SVG 1.1//EN"
 "http://www.w3.org/Graphics/SVG/1.1/DTD/svg11.dtd">
<!-- Generated by graphviz version 2.50.0 (20211204.2007)
 -->
<!-- Title: DirectedGraph Pages: 1 -->
<svg width="3924pt" height="429pt"
 viewBox="0.00 0.00 3924.29 428.80" xmlns="http://www.w3.org/2000/svg" xmlns:xlink="http://www.w3.org/1999/xlink">
<g id="graph0" class="graph" transform="scale(1 1) rotate(0) translate(4 424.8)">
<title>DirectedGraph</title>
<polygon fill="white" stroke="transparent" points="-4,4 -4,-424.8 3920.29,-424.8 3920.29,4 -4,4"/>
<text text-anchor="middle" x="1958.14" y="-404.2" font-family="Times,serif" font-size="14.00">AlreadySelectedException</text>
<!-- 208866101 -->
<g id="node1" class="node">
<title>208866101</title>
<ellipse fill="none" stroke="black" cx="1113.16" cy="-378" rx="746.97" ry="18"/>
<text text-anchor="middle" x="1113.16" y="-373.8" font-family="Times,serif" font-size="14.00">(private AlreadySelectedException(final String message,final OptionGroup group,final Option option){ &#160;super(message); &#160;this.group=group; &#160;this.option=option; } ,MethodDeclaration,57,61)</text>
</g>
<!-- 543846639 -->
<g id="node2" class="node">
<title>543846639</title>
<ellipse fill="none" stroke="black" cx="105.16" cy="-306" rx="105.33" ry="18"/>
<text text-anchor="middle" x="105.16" y="-301.8" font-family="Times,serif" font-size="14.00">(private,Modifier,57,57)</text>
</g>
<!-- 208866101&#45;&gt;543846639 -->
<g id="edge1" class="edge">
<title>208866101&#45;&gt;543846639</title>
<path fill="none" stroke="black" d="M743.82,-362.34C582.73,-354.08 391.83,-341.75 220.16,-324 210.05,-322.95 199.46,-321.66 188.97,-320.26"/>
<polygon fill="black" stroke="black" points="189.35,-316.78 178.97,-318.89 188.4,-323.71 189.35,-316.78"/>
</g>
<!-- 690686166 -->
<g id="node3" class="node">
<title>690686166</title>
<ellipse fill="none" stroke="black" cx="426.16" cy="-306" rx="197.32" ry="18"/>
<text text-anchor="middle" x="426.16" y="-301.8" font-family="Times,serif" font-size="14.00">(AlreadySelectedException,SimpleName,57,57)</text>
</g>
<!-- 208866101&#45;&gt;690686166 -->
<g id="edge2" class="edge">
<title>208866101&#45;&gt;690686166</title>
<path fill="none" stroke="black" d="M950.35,-360.41C832.11,-348.36 673.93,-332.25 562.36,-320.88"/>
<polygon fill="black" stroke="black" points="562.69,-317.39 552.39,-319.86 561.98,-324.36 562.69,-317.39"/>
</g>
<!-- 576020159 -->
<g id="node4" class="node">
<title>576020159</title>
<ellipse fill="none" stroke="black" cx="867.16" cy="-306" rx="225.68" ry="18"/>
<text text-anchor="middle" x="867.16" y="-301.8" font-family="Times,serif" font-size="14.00">(final String message,SingleVariableDeclaration,57,57)</text>
</g>
<!-- 208866101&#45;&gt;576020159 -->
<g id="edge3" class="edge">
<title>208866101&#45;&gt;576020159</title>
<path fill="none" stroke="black" d="M1053.61,-360.05C1017.72,-349.84 971.89,-336.8 934.66,-326.21"/>
<polygon fill="black" stroke="black" points="935.47,-322.8 924.89,-323.43 933.55,-329.53 935.47,-322.8"/>
</g>
<!-- 1423561005 -->
<g id="node9" class="node">
<title>1423561005</title>
<ellipse fill="none" stroke="black" cx="1357.16" cy="-306" rx="243.59" ry="18"/>
<text text-anchor="middle" x="1357.16" y="-301.8" font-family="Times,serif" font-size="14.00">(final OptionGroup group,SingleVariableDeclaration,57,57)</text>
</g>
<!-- 208866101&#45;&gt;1423561005 -->
<g id="edge8" class="edge">
<title>208866101&#45;&gt;1423561005</title>
<path fill="none" stroke="black" d="M1172.23,-360.05C1207.7,-349.88 1252.96,-336.9 1289.82,-326.32"/>
<polygon fill="black" stroke="black" points="1290.84,-329.67 1299.48,-323.55 1288.91,-322.94 1290.84,-329.67"/>
</g>
<!-- 1084502906 -->
<g id="node14" class="node">
<title>1084502906</title>
<ellipse fill="none" stroke="black" cx="1987.16" cy="-306" rx="221.04" ry="18"/>
<text text-anchor="middle" x="1987.16" y="-301.8" font-family="Times,serif" font-size="14.00">(final Option option,SingleVariableDeclaration,57,57)</text>
</g>
<!-- 208866101&#45;&gt;1084502906 -->
<g id="edge13" class="edge">
<title>208866101&#45;&gt;1084502906</title>
<path fill="none" stroke="black" d="M1316.97,-360.68C1471.89,-348.27 1682.11,-331.43 1825.54,-319.94"/>
<polygon fill="black" stroke="black" points="1826.06,-323.41 1835.75,-319.13 1825.5,-316.44 1826.06,-323.41"/>
</g>
<!-- 52908367 -->
<g id="node19" class="node">
<title>52908367</title>
<ellipse fill="none" stroke="black" cx="2931.16" cy="-306" rx="301.67" ry="18"/>
<text text-anchor="middle" x="2931.16" y="-301.8" font-family="Times,serif" font-size="14.00">({ &#160;super(message); &#160;this.group=group; &#160;this.option=option; } ,Block,57,61)</text>
</g>
<!-- 208866101&#45;&gt;52908367 -->
<g id="edge18" class="edge">
<title>208866101&#45;&gt;52908367</title>
<path fill="none" stroke="black" d="M1490.68,-362.46C1845.29,-348.81 2366.22,-328.75 2674.83,-316.87"/>
<polygon fill="black" stroke="black" points="2675.4,-320.35 2685.26,-316.47 2675.14,-313.36 2675.4,-320.35"/>
</g>
<!-- 921420643 -->
<g id="node5" class="node">
<title>921420643</title>
<ellipse fill="none" stroke="black" cx="375.16" cy="-234" rx="96.1" ry="18"/>
<text text-anchor="middle" x="375.16" y="-229.8" font-family="Times,serif" font-size="14.00">(final,Modifier,57,57)</text>
</g>
<!-- 576020159&#45;&gt;921420643 -->
<g id="edge4" class="edge">
<title>576020159&#45;&gt;921420643</title>
<path fill="none" stroke="black" d="M754.87,-290.36C677.57,-280.1 572.55,-265.8 480.16,-252 471.89,-250.76 463.26,-249.43 454.66,-248.08"/>
<polygon fill="black" stroke="black" points="455.02,-244.59 444.6,-246.49 453.93,-251.51 455.02,-244.59"/>
</g>
<!-- 1165303897 -->
<g id="node6" class="node">
<title>1165303897</title>
<ellipse fill="none" stroke="black" cx="604.16" cy="-234" rx="114.68" ry="18"/>
<text text-anchor="middle" x="604.16" y="-229.8" font-family="Times,serif" font-size="14.00">(String,SimpleType,57,57)</text>
</g>
<!-- 576020159&#45;&gt;1165303897 -->
<g id="edge5" class="edge">
<title>576020159&#45;&gt;1165303897</title>
<path fill="none" stroke="black" d="M805.5,-288.59C764.74,-277.74 711.37,-263.53 669.81,-252.47"/>
<polygon fill="black" stroke="black" points="670.63,-249.07 660.06,-249.88 668.83,-255.83 670.63,-249.07"/>
</g>
<!-- 1010953501 -->
<g id="node8" class="node">
<title>1010953501</title>
<ellipse fill="none" stroke="black" cx="864.16" cy="-234" rx="127.32" ry="18"/>
<text text-anchor="middle" x="864.16" y="-229.8" font-family="Times,serif" font-size="14.00">(message,SimpleName,57,57)</text>
</g>
<!-- 576020159&#45;&gt;1010953501 -->
<g id="edge7" class="edge">
<title>576020159&#45;&gt;1010953501</title>
<path fill="none" stroke="black" d="M866.42,-287.7C866.09,-279.98 865.69,-270.71 865.33,-262.11"/>
<polygon fill="black" stroke="black" points="868.82,-261.95 864.9,-252.1 861.83,-262.25 868.82,-261.95"/>
</g>
<!-- 887750041 -->
<g id="node7" class="node">
<title>887750041</title>
<ellipse fill="none" stroke="black" cx="604.16" cy="-162" rx="118.11" ry="18"/>
<text text-anchor="middle" x="604.16" y="-157.8" font-family="Times,serif" font-size="14.00">(String,SimpleName,57,57)</text>
</g>
<!-- 1165303897&#45;&gt;887750041 -->
<g id="edge6" class="edge">
<title>1165303897&#45;&gt;887750041</title>
<path fill="none" stroke="black" d="M604.16,-215.7C604.16,-207.98 604.16,-198.71 604.16,-190.11"/>
<polygon fill="black" stroke="black" points="607.66,-190.1 604.16,-180.1 600.66,-190.1 607.66,-190.1"/>
</g>
<!-- 943870983 -->
<g id="node10" class="node">
<title>943870983</title>
<ellipse fill="none" stroke="black" cx="1105.16" cy="-234" rx="96.1" ry="18"/>
<text text-anchor="middle" x="1105.16" y="-229.8" font-family="Times,serif" font-size="14.00">(final,Modifier,57,57)</text>
</g>
<!-- 1423561005&#45;&gt;943870983 -->
<g id="edge9" class="edge">
<title>1423561005&#45;&gt;943870983</title>
<path fill="none" stroke="black" d="M1297.76,-288.5C1258.19,-277.51 1206.32,-263.1 1166.38,-252"/>
<polygon fill="black" stroke="black" points="1167.07,-248.56 1156.49,-249.26 1165.19,-255.31 1167.07,-248.56"/>
</g>
<!-- 1136419747 -->
<g id="node11" class="node">
<title>1136419747</title>
<ellipse fill="none" stroke="black" cx="1362.16" cy="-234" rx="142.96" ry="18"/>
<text text-anchor="middle" x="1362.16" y="-229.8" font-family="Times,serif" font-size="14.00">(OptionGroup,SimpleType,57,57)</text>
</g>
<!-- 1423561005&#45;&gt;1136419747 -->
<g id="edge10" class="edge">
<title>1423561005&#45;&gt;1136419747</title>
<path fill="none" stroke="black" d="M1358.4,-287.7C1358.95,-279.98 1359.61,-270.71 1360.23,-262.11"/>
<polygon fill="black" stroke="black" points="1363.72,-262.33 1360.94,-252.1 1356.74,-261.83 1363.72,-262.33"/>
</g>
<!-- 1785507932 -->
<g id="node13" class="node">
<title>1785507932</title>
<ellipse fill="none" stroke="black" cx="1640.16" cy="-234" rx="116.95" ry="18"/>
<text text-anchor="middle" x="1640.16" y="-229.8" font-family="Times,serif" font-size="14.00">(group,SimpleName,57,57)</text>
</g>
<!-- 1423561005&#45;&gt;1785507932 -->
<g id="edge12" class="edge">
<title>1423561005&#45;&gt;1785507932</title>
<path fill="none" stroke="black" d="M1423.51,-288.59C1467.86,-277.62 1526.09,-263.22 1571.01,-252.11"/>
<polygon fill="black" stroke="black" points="1572.09,-255.44 1580.96,-249.64 1570.41,-248.65 1572.09,-255.44"/>
</g>
<!-- 1881561036 -->
<g id="node12" class="node">
<title>1881561036</title>
<ellipse fill="none" stroke="black" cx="1362.16" cy="-162" rx="145.89" ry="18"/>
<text text-anchor="middle" x="1362.16" y="-157.8" font-family="Times,serif" font-size="14.00">(OptionGroup,SimpleName,57,57)</text>
</g>
<!-- 1136419747&#45;&gt;1881561036 -->
<g id="edge11" class="edge">
<title>1136419747&#45;&gt;1881561036</title>
<path fill="none" stroke="black" d="M1362.16,-215.7C1362.16,-207.98 1362.16,-198.71 1362.16,-190.11"/>
<polygon fill="black" stroke="black" points="1365.66,-190.1 1362.16,-180.1 1358.66,-190.1 1365.66,-190.1"/>
</g>
<!-- 1613095350 -->
<g id="node15" class="node">
<title>1613095350</title>
<ellipse fill="none" stroke="black" cx="1871.16" cy="-234" rx="96.1" ry="18"/>
<text text-anchor="middle" x="1871.16" y="-229.8" font-family="Times,serif" font-size="14.00">(final,Modifier,57,57)</text>
</g>
<!-- 1084502906&#45;&gt;1613095350 -->
<g id="edge14" class="edge">
<title>1084502906&#45;&gt;1613095350</title>
<path fill="none" stroke="black" d="M1959.08,-288.05C1943.47,-278.63 1923.87,-266.81 1907.14,-256.71"/>
<polygon fill="black" stroke="black" points="1908.56,-253.48 1898.19,-251.31 1904.94,-259.47 1908.56,-253.48"/>
</g>
<!-- 587153993 -->
<g id="node16" class="node">
<title>587153993</title>
<ellipse fill="none" stroke="black" cx="2103.16" cy="-234" rx="118.11" ry="18"/>
<text text-anchor="middle" x="2103.16" y="-229.8" font-family="Times,serif" font-size="14.00">(Option,SimpleType,57,57)</text>
</g>
<!-- 1084502906&#45;&gt;587153993 -->
<g id="edge15" class="edge">
<title>1084502906&#45;&gt;587153993</title>
<path fill="none" stroke="black" d="M2015.24,-288.05C2030.75,-278.7 2050.17,-266.98 2066.82,-256.93"/>
<polygon fill="black" stroke="black" points="2068.99,-259.71 2075.74,-251.55 2065.37,-253.72 2068.99,-259.71"/>
</g>
<!-- 1279271200 -->
<g id="node18" class="node">
<title>1279271200</title>
<ellipse fill="none" stroke="black" cx="2358.16" cy="-234" rx="119.25" ry="18"/>
<text text-anchor="middle" x="2358.16" y="-229.8" font-family="Times,serif" font-size="14.00">(option,SimpleName,57,57)</text>
</g>
<!-- 1084502906&#45;&gt;1279271200 -->
<g id="edge17" class="edge">
<title>1084502906&#45;&gt;1279271200</title>
<path fill="none" stroke="black" d="M2070.42,-289.29C2132.05,-277.66 2215.56,-261.91 2276.74,-250.36"/>
<polygon fill="black" stroke="black" points="2277.57,-253.77 2286.74,-248.48 2276.27,-246.89 2277.57,-253.77"/>
</g>
<!-- 757004314 -->
<g id="node17" class="node">
<title>757004314</title>
<ellipse fill="none" stroke="black" cx="2103.16" cy="-162" rx="121.04" ry="18"/>
<text text-anchor="middle" x="2103.16" y="-157.8" font-family="Times,serif" font-size="14.00">(Option,SimpleName,57,57)</text>
</g>
<!-- 587153993&#45;&gt;757004314 -->
<g id="edge16" class="edge">
<title>587153993&#45;&gt;757004314</title>
<path fill="none" stroke="black" d="M2103.16,-215.7C2103.16,-207.98 2103.16,-198.71 2103.16,-190.11"/>
<polygon fill="black" stroke="black" points="2106.66,-190.1 2103.16,-180.1 2099.66,-190.1 2106.66,-190.1"/>
</g>
<!-- 1527953000 -->
<g id="node20" class="node">
<title>1527953000</title>
<ellipse fill="none" stroke="black" cx="2714.16" cy="-234" rx="218.72" ry="18"/>
<text text-anchor="middle" x="2714.16" y="-229.8" font-family="Times,serif" font-size="14.00">(super(message); ,SuperConstructorInvocation,58,58)</text>
</g>
<!-- 52908367&#45;&gt;1527953000 -->
<g id="edge19" class="edge">
<title>52908367&#45;&gt;1527953000</title>
<path fill="none" stroke="black" d="M2879.19,-288.23C2847.94,-278.15 2808.01,-265.27 2775.26,-254.71"/>
<polygon fill="black" stroke="black" points="2775.93,-251.25 2765.34,-251.51 2773.78,-257.91 2775.93,-251.25"/>
</g>
<!-- 1276261147 -->
<g id="node22" class="node">
<title>1276261147</title>
<ellipse fill="none" stroke="black" cx="3148.16" cy="-234" rx="197.55" ry="18"/>
<text text-anchor="middle" x="3148.16" y="-229.8" font-family="Times,serif" font-size="14.00">(this.group=group; ,ExpressionStatement,59,59)</text>
</g>
<!-- 52908367&#45;&gt;1276261147 -->
<g id="edge21" class="edge">
<title>52908367&#45;&gt;1276261147</title>
<path fill="none" stroke="black" d="M2983.14,-288.23C3014.39,-278.15 3054.32,-265.27 3087.07,-254.71"/>
<polygon fill="black" stroke="black" points="3088.54,-257.91 3096.99,-251.51 3086.39,-251.25 3088.54,-257.91"/>
</g>
<!-- 1632682988 -->
<g id="node28" class="node">
<title>1632682988</title>
<ellipse fill="none" stroke="black" cx="3565.16" cy="-234" rx="201.65" ry="18"/>
<text text-anchor="middle" x="3565.16" y="-229.8" font-family="Times,serif" font-size="14.00">(this.option=option; ,ExpressionStatement,60,60)</text>
</g>
<!-- 52908367&#45;&gt;1632682988 -->
<g id="edge27" class="edge">
<title>52908367&#45;&gt;1632682988</title>
<path fill="none" stroke="black" d="M3067.56,-289.94C3175.89,-277.98 3326.43,-261.36 3433.5,-249.54"/>
<polygon fill="black" stroke="black" points="3434.17,-252.98 3443.72,-248.41 3433.4,-246.03 3434.17,-252.98"/>
</g>
<!-- 18242360 -->
<g id="node21" class="node">
<title>18242360</title>
<ellipse fill="none" stroke="black" cx="2714.16" cy="-162" rx="127.32" ry="18"/>
<text text-anchor="middle" x="2714.16" y="-157.8" font-family="Times,serif" font-size="14.00">(message,SimpleName,58,58)</text>
</g>
<!-- 1527953000&#45;&gt;18242360 -->
<g id="edge20" class="edge">
<title>1527953000&#45;&gt;18242360</title>
<path fill="none" stroke="black" d="M2714.16,-215.7C2714.16,-207.98 2714.16,-198.71 2714.16,-190.11"/>
<polygon fill="black" stroke="black" points="2717.66,-190.1 2714.16,-180.1 2710.66,-190.1 2717.66,-190.1"/>
</g>
<!-- 1971764991 -->
<g id="node23" class="node">
<title>1971764991</title>
<ellipse fill="none" stroke="black" cx="3148.16" cy="-162" rx="157.07" ry="18"/>
<text text-anchor="middle" x="3148.16" y="-157.8" font-family="Times,serif" font-size="14.00">(this.group=group,Assignment,59,59)</text>
</g>
<!-- 1276261147&#45;&gt;1971764991 -->
<g id="edge22" class="edge">
<title>1276261147&#45;&gt;1971764991</title>
<path fill="none" stroke="black" d="M3148.16,-215.7C3148.16,-207.98 3148.16,-198.71 3148.16,-190.11"/>
<polygon fill="black" stroke="black" points="3151.66,-190.1 3148.16,-180.1 3144.66,-190.1 3151.66,-190.1"/>
</g>
<!-- 996796369 -->
<g id="node24" class="node">
<title>996796369</title>
<ellipse fill="none" stroke="black" cx="2921.16" cy="-90" rx="130.24" ry="18"/>
<text text-anchor="middle" x="2921.16" y="-85.8" font-family="Times,serif" font-size="14.00">(this.group,FieldAccess,59,59)</text>
</g>
<!-- 1971764991&#45;&gt;996796369 -->
<g id="edge23" class="edge">
<title>1971764991&#45;&gt;996796369</title>
<path fill="none" stroke="black" d="M3096.09,-144.94C3061.99,-134.43 3017.3,-120.65 2981.63,-109.65"/>
<polygon fill="black" stroke="black" points="2982.41,-106.23 2971.83,-106.62 2980.35,-112.91 2982.41,-106.23"/>
</g>
<!-- 359922172 -->
<g id="node27" class="node">
<title>359922172</title>
<ellipse fill="none" stroke="black" cx="3186.16" cy="-90" rx="116.95" ry="18"/>
<text text-anchor="middle" x="3186.16" y="-85.8" font-family="Times,serif" font-size="14.00">(group,SimpleName,59,59)</text>
</g>
<!-- 1971764991&#45;&gt;359922172 -->
<g id="edge26" class="edge">
<title>1971764991&#45;&gt;359922172</title>
<path fill="none" stroke="black" d="M3157.56,-143.7C3161.93,-135.64 3167.22,-125.89 3172.06,-116.98"/>
<polygon fill="black" stroke="black" points="3175.18,-118.56 3176.88,-108.1 3169.03,-115.22 3175.18,-118.56"/>
</g>
<!-- 135640095 -->
<g id="node25" class="node">
<title>135640095</title>
<ellipse fill="none" stroke="black" cx="2807.16" cy="-18" rx="118.12" ry="18"/>
<text text-anchor="middle" x="2807.16" y="-13.8" font-family="Times,serif" font-size="14.00">(this,ThisExpression,59,59)</text>
</g>
<!-- 996796369&#45;&gt;135640095 -->
<g id="edge24" class="edge">
<title>996796369&#45;&gt;135640095</title>
<path fill="none" stroke="black" d="M2893.86,-72.23C2878.63,-62.88 2859.48,-51.12 2843.05,-41.04"/>
<polygon fill="black" stroke="black" points="2844.6,-37.88 2834.25,-35.63 2840.94,-43.85 2844.6,-37.88"/>
</g>
<!-- 1430439149 -->
<g id="node26" class="node">
<title>1430439149</title>
<ellipse fill="none" stroke="black" cx="3060.16" cy="-18" rx="116.95" ry="18"/>
<text text-anchor="middle" x="3060.16" y="-13.8" font-family="Times,serif" font-size="14.00">(group,SimpleName,59,59)</text>
</g>
<!-- 996796369&#45;&gt;1430439149 -->
<g id="edge25" class="edge">
<title>996796369&#45;&gt;1430439149</title>
<path fill="none" stroke="black" d="M2954.1,-72.41C2973.32,-62.73 2997.75,-50.43 3018.31,-40.08"/>
<polygon fill="black" stroke="black" points="3020.1,-43.09 3027.46,-35.47 3016.95,-36.84 3020.1,-43.09"/>
</g>
<!-- 1153447573 -->
<g id="node29" class="node">
<title>1153447573</title>
<ellipse fill="none" stroke="black" cx="3565.16" cy="-162" rx="161.17" ry="18"/>
<text text-anchor="middle" x="3565.16" y="-157.8" font-family="Times,serif" font-size="14.00">(this.option=option,Assignment,60,60)</text>
</g>
<!-- 1632682988&#45;&gt;1153447573 -->
<g id="edge28" class="edge">
<title>1632682988&#45;&gt;1153447573</title>
<path fill="none" stroke="black" d="M3565.16,-215.7C3565.16,-207.98 3565.16,-198.71 3565.16,-190.11"/>
<polygon fill="black" stroke="black" points="3568.66,-190.1 3565.16,-180.1 3561.66,-190.1 3568.66,-190.1"/>
</g>
<!-- 132577100 -->
<g id="node30" class="node">
<title>132577100</title>
<ellipse fill="none" stroke="black" cx="3528.16" cy="-90" rx="132.04" ry="18"/>
<text text-anchor="middle" x="3528.16" y="-85.8" font-family="Times,serif" font-size="14.00">(this.option,FieldAccess,60,60)</text>
</g>
<!-- 1153447573&#45;&gt;132577100 -->
<g id="edge29" class="edge">
<title>1153447573&#45;&gt;132577100</title>
<path fill="none" stroke="black" d="M3556.02,-143.7C3551.76,-135.64 3546.61,-125.89 3541.9,-116.98"/>
<polygon fill="black" stroke="black" points="3544.97,-115.31 3537.2,-108.1 3538.78,-118.58 3544.97,-115.31"/>
</g>
<!-- 793331940 -->
<g id="node33" class="node">
<title>793331940</title>
<ellipse fill="none" stroke="black" cx="3797.16" cy="-90" rx="119.25" ry="18"/>
<text text-anchor="middle" x="3797.16" y="-85.8" font-family="Times,serif" font-size="14.00">(option,SimpleName,60,60)</text>
</g>
<!-- 1153447573&#45;&gt;793331940 -->
<g id="edge32" class="edge">
<title>1153447573&#45;&gt;793331940</title>
<path fill="none" stroke="black" d="M3618.39,-144.94C3653.63,-134.31 3699.94,-120.33 3736.6,-109.27"/>
<polygon fill="black" stroke="black" points="3737.61,-112.62 3746.18,-106.38 3735.59,-105.92 3737.61,-112.62"/>
</g>
<!-- 231756373 -->
<g id="node31" class="node">
<title>231756373</title>
<ellipse fill="none" stroke="black" cx="3383.16" cy="-18" rx="118.12" ry="18"/>
<text text-anchor="middle" x="3383.16" y="-13.8" font-family="Times,serif" font-size="14.00">(this,ThisExpression,60,60)</text>
</g>
<!-- 132577100&#45;&gt;231756373 -->
<g id="edge30" class="edge">
<title>132577100&#45;&gt;231756373</title>
<path fill="none" stroke="black" d="M3494.17,-72.59C3473.81,-62.76 3447.74,-50.17 3425.98,-39.67"/>
<polygon fill="black" stroke="black" points="3427.47,-36.5 3416.95,-35.31 3424.43,-42.81 3427.47,-36.5"/>
</g>
<!-- 1786294176 -->
<g id="node32" class="node">
<title>1786294176</title>
<ellipse fill="none" stroke="black" cx="3638.16" cy="-18" rx="119.25" ry="18"/>
<text text-anchor="middle" x="3638.16" y="-13.8" font-family="Times,serif" font-size="14.00">(option,SimpleName,60,60)</text>
</g>
<!-- 132577100&#45;&gt;1786294176 -->
<g id="edge31" class="edge">
<title>132577100&#45;&gt;1786294176</title>
<path fill="none" stroke="black" d="M3554.51,-72.23C3569.21,-62.88 3587.69,-51.12 3603.54,-41.04"/>
<polygon fill="black" stroke="black" points="3605.47,-43.95 3612.03,-35.63 3601.71,-38.05 3605.47,-43.95"/>
</g>
</g>
</svg>
